<?xml version="1.0" encoding="utf-8"?>
<!-- Generator: Adobe Illustrator 25.0.1, SVG Export Plug-In . SVG Version: 6.00 Build 0)  -->
<svg version="1.1" id="Layer_1" xmlns="http://www.w3.org/2000/svg" xmlns:xlink="http://www.w3.org/1999/xlink" x="0px" y="0px"
	 viewBox="0 0 16 16" style="enable-background:new 0 0 16 16;" xml:space="preserve">
<style type="text/css">
	.st0{fill-rule:evenodd;clip-rule:evenodd;fill:#FFFFFF;}
</style>
<g>
	<g>
		<g>
			<path class="st0" d="M5,15c-0.3,0-0.5-0.1-0.7-0.3c-0.4-0.4-0.4-1,0-1.4L9.6,8L4.2,2.7V2.6C4,2.3,4,1.7,4.2,1.4V1.3l0.1-0.1
				C4.5,1.1,4.7,1,5,1s0.5,0.1,0.7,0.3l6,6C11.9,7.4,12,7.7,12,7.9c0,0.3-0.1,0.5-0.3,0.7l-6,6C5.5,14.8,5.3,15,5,15z"/>
		</g>
	</g>
</g>
</svg>
