<?xml version="1.0" encoding="utf-8"?>
<!-- Generator: Adobe Illustrator 25.0.1, SVG Export Plug-In . SVG Version: 6.00 Build 0)  -->
<svg version="1.1" id="hexa-grp" xmlns="http://www.w3.org/2000/svg" xmlns:xlink="http://www.w3.org/1999/xlink" x="0px" y="0px"
	 viewBox="0 0 540 288" style="enable-background:new 0 0 540 288;" xml:space="preserve">
<style type="text/css">
	.hc0{fill:#FFFFFF;}
</style>
<g id="hexagon_88_">
	<polygon class="hc0" points="-4.53,25.51 -4.53,-3.63 20.7,-18.19 45.93,-3.63 45.93,25.51 20.7,40.07 	"/>
</g>
<g id="hexagon_87_">
	<polygon class="hc0" points="47.93,25.51 47.93,-3.63 73.16,-18.19 98.39,-3.63 98.39,25.51 73.16,40.07 	"/>
</g>
<g id="hexagon_86_">
	<polygon class="hc0" points="257.76,25.51 257.76,-3.63 282.99,-18.19 308.22,-3.63 308.22,25.51 282.99,40.07 	"/>
</g>
<g id="hexagon_85_">
	<polygon class="hc0" points="310.22,25.51 310.22,-3.63 335.45,-18.19 360.68,-3.63 360.68,25.51 335.45,40.07 	"/>
</g>
<g id="hexagon_84_">
	<polygon class="hc0" points="362.68,25.51 362.68,-3.63 387.9,-18.19 413.13,-3.63 413.13,25.51 387.9,40.07 	"/>
</g>
<g id="hexagon_83_">
	<polygon class="hc0" points="415.13,25.51 415.13,-3.63 440.36,-18.19 465.59,-3.63 465.59,25.51 440.36,40.07 	"/>
</g>
<g id="hexagon_82_">
	<polygon class="hc0" points="467.59,25.51 467.59,-3.63 492.82,-18.19 518.05,-3.63 518.05,25.51 492.82,40.07 	"/>
</g>
<g id="hexagon_81_">
	<polygon class="hc0" points="21.7,70.96 21.7,41.83 46.93,27.27 72.16,41.83 72.16,70.96 46.93,85.53 	"/>
</g>
<g id="hexagon_80_">
	<polygon class="hc0" points="-30.76,70.96 -30.76,41.83 -5.53,27.27 19.7,41.83 19.7,70.96 -5.53,85.53 	"/>
</g>
<g id="hexagon_79_">
	<polygon class="hc0" points="74.16,70.96 74.16,41.83 99.39,27.27 124.62,41.83 124.62,70.96 99.39,85.53 	"/>
</g>
<g id="hexagon_78_">
	<polygon class="hc0" points="126.62,70.96 126.62,41.83 151.84,27.27 177.07,41.83 177.07,70.96 151.84,85.53 	"/>
</g>
<g id="hexagon_77_">
	<polygon class="hc0" points="179.07,70.96 179.07,41.83 204.3,27.27 229.53,41.83 229.53,70.96 204.3,85.53 	"/>
</g>
<g id="hexagon_76_">
	<polygon class="hc0" points="231.53,70.96 231.53,41.83 256.76,27.27 281.99,41.83 281.99,70.96 256.76,85.53 	"/>
</g>
<g id="hexagon_75_">
	<polygon class="hc0" points="283.99,70.96 283.99,41.83 309.22,27.27 334.45,41.83 334.45,70.96 309.22,85.53 	"/>
</g>
<g id="hexagon_74_">
	<polygon class="hc0" points="336.45,70.96 336.45,41.83 361.67,27.27 386.9,41.83 386.9,70.96 361.67,85.53 	"/>
</g>
<g id="hexagon_73_">
	<polygon class="hc0" points="388.9,70.96 388.9,41.83 414.13,27.27 439.36,41.83 439.36,70.96 414.13,85.53 	"/>
</g>
<g id="hexagon_72_">
	<polygon class="hc0" points="441.36,70.96 441.36,41.83 466.59,27.27 491.82,41.83 491.82,70.96 466.59,85.53 	"/>
</g>
<g id="hexagon_71_">
	<polygon class="hc0" points="493.82,70.96 493.82,41.83 519.05,27.27 542.26,40.67 542.26,72.13 519.05,85.53 	"/>
</g>
<g id="hexagon_70_">
	<polygon class="hc0" points="-4.53,116.39 -4.53,87.26 20.7,72.7 45.93,87.26 45.93,116.39 20.7,130.96 	"/>
</g>
<g id="hexagon_69_">
	<polygon class="hc0" points="47.93,116.39 47.93,87.26 73.16,72.7 98.39,87.26 98.39,116.39 73.16,130.96 	"/>
</g>
<g id="hexagon_68_">
	<polygon class="hc0" points="100.39,116.39 100.39,87.26 125.62,72.7 150.85,87.26 150.85,116.39 125.62,130.96 	"/>
</g>
<g id="hexagon_67_">
	<polygon class="hc0" points="152.85,116.39 152.85,87.26 178.07,72.7 203.3,87.26 203.3,116.39 178.07,130.96 	"/>
</g>
<g id="hexagon_66_">
	<polygon class="hc0" points="205.3,116.39 205.3,87.26 230.53,72.7 255.76,87.26 255.76,116.39 230.53,130.96 	"/>
</g>
<g id="hexagon_65_">
	<polygon class="hc0" points="257.76,116.39 257.76,87.26 282.99,72.7 308.22,87.26 308.22,116.39 282.99,130.96 	"/>
</g>
<g id="hexagon_64_">
	<polygon class="hc0" points="310.22,116.39 310.22,87.26 335.45,72.7 360.68,87.26 360.68,116.39 335.45,130.96 	"/>
</g>
<g id="hexagon_63_">
	<polygon class="hc0" points="362.68,116.39 362.68,87.26 387.9,72.7 413.13,87.26 413.13,116.39 387.9,130.96 	"/>
</g>
<g id="hexagon_62_">
	<polygon class="hc0" points="415.13,116.39 415.13,87.26 440.36,72.7 465.59,87.26 465.59,116.39 440.36,130.96 	"/>
</g>
<g id="hexagon_61_">
	<polygon class="hc0" points="467.59,116.39 467.59,87.26 492.82,72.7 518.05,87.26 518.05,116.39 492.82,130.96 	"/>
</g>
<g id="hexagon_60_">
	<polygon class="hc0" points="21.7,161.85 21.7,132.72 46.93,118.15 72.16,132.72 72.16,161.85 46.93,176.42 	"/>
</g>
<g id="hexagon_59_">
	<polygon class="hc0" points="74.16,161.85 74.16,132.72 99.39,118.15 124.62,132.72 124.62,161.85 99.39,176.42 	"/>
</g>
<g id="hexagon_58_">
	<polygon class="hc0" points="126.62,161.85 126.62,132.72 151.84,118.15 177.07,132.72 177.07,161.85 151.84,176.42 	"/>
</g>
<g>
	<polygon class="hc0" points="179.07,161.85 179.07,132.72 204.3,118.15 229.53,132.72 229.53,161.85 204.3,176.42 	"/>
</g>
<g id="hexagon_57_">
	<polygon class="hc0" points="231.53,161.85 231.53,132.72 256.76,118.15 281.99,132.72 281.99,161.85 256.76,176.42 	"/>
</g>
<g id="hexagon_56_">
	<polygon class="hc0" points="283.99,161.85 283.99,132.72 309.22,118.15 334.45,132.72 334.45,161.85 309.22,176.42 	"/>
</g>
<g id="hexagon_55_">
	<polygon class="hc0" points="336.45,161.85 336.45,132.72 361.67,118.15 386.9,132.72 386.9,161.85 361.67,176.42 	"/>
</g>
<g>
	<polygon class="hc0" points="388.9,161.85 388.9,132.72 414.13,118.15 439.36,132.72 439.36,161.85 414.13,176.42 	"/>
</g>
<g id="hexagon_54_">
	<polygon class="hc0" points="441.36,161.85 441.36,132.72 466.59,118.15 491.82,132.72 491.82,161.85 466.59,176.42 	"/>
</g>
<g id="hexagon_53_">
	<polygon class="hc0" points="493.82,161.85 493.82,132.72 519.05,118.15 542.26,131.56 542.26,163.02 519.05,176.42 	"/>
</g>
<g>
	<polygon class="hc0" points="-4.53,207.28 -4.53,178.15 20.7,163.58 45.93,178.15 45.93,207.28 20.7,221.85 	"/>
</g>
<g id="hexagon_52_">
	<polygon class="hc0" points="47.93,207.28 47.93,178.15 73.16,163.58 98.39,178.15 98.39,207.28 73.16,221.85 	"/>
</g>
<g id="hexagon_51_">
	<polygon class="hc0" points="100.39,207.28 100.39,178.15 125.62,163.58 150.85,178.15 150.85,207.28 125.62,221.85 	"/>
</g>
<g id="hexagon_50_">
	<polygon class="hc0" points="152.85,207.28 152.85,178.15 178.07,163.58 203.3,178.15 203.3,207.28 178.07,221.85 	"/>
</g>
<g id="hexagon_49_">
	<polygon class="hc0" points="205.3,207.28 205.3,178.15 230.53,163.58 255.76,178.15 255.76,207.28 230.53,221.85 	"/>
</g>
<g id="hexagon_48_">
	<polygon class="hc0" points="257.76,207.28 257.76,178.15 282.99,163.58 308.22,178.15 308.22,207.28 282.99,221.85 	"/>
</g>
<g id="hexagon_47_">
	<polygon class="hc0" points="310.22,207.28 310.22,178.15 335.45,163.58 360.68,178.15 360.68,207.28 335.45,221.85 	"/>
</g>
<g id="hexagon_46_">
	<polygon class="hc0" points="362.68,207.28 362.68,178.15 387.9,163.58 413.13,178.15 413.13,207.28 387.9,221.85 	"/>
</g>
<g id="hexagon_45_">
	<polygon class="hc0" points="415.13,207.28 415.13,178.15 440.36,163.58 465.59,178.15 465.59,207.28 440.36,221.85 	"/>
</g>
<g id="hexagon_44_">
	<polygon class="hc0" points="467.59,207.28 467.59,178.15 492.82,163.58 518.05,178.15 518.05,207.28 492.82,221.85 	"/>
</g>
<g id="hexagon_43_">
	<polygon class="hc0" points="21.7,252.74 21.7,223.61 46.93,209.04 72.16,223.61 72.16,252.74 46.93,267.31 	"/>
</g>
<g id="hexagon_42_">
	<polygon class="hc0" points="-30.76,161.85 -30.76,132.72 -5.53,118.15 19.7,132.72 19.7,161.85 -5.53,176.42 	"/>
</g>
<g id="hexagon_41_">
	<polygon class="hc0" points="-30.76,252.74 -30.76,223.61 -5.53,209.04 19.7,223.61 19.7,252.74 -5.53,267.31 	"/>
</g>
<g id="hexagon_40_">
	<polygon class="hc0" points="74.16,252.74 74.16,223.61 99.39,209.04 124.62,223.61 124.62,252.74 99.39,267.31 	"/>
</g>
<g id="hexagon_39_">
	<polygon class="hc0" points="126.62,252.74 126.62,223.61 151.84,209.04 177.07,223.61 177.07,252.74 151.84,267.31 	"/>
</g>
<g id="hexagon_38_">
	<polygon class="hc0" points="179.07,252.74 179.07,223.61 204.3,209.04 229.53,223.61 229.53,252.74 204.3,267.31 	"/>
</g>
<g id="hexagon_37_">
	<polygon class="hc0" points="231.53,252.74 231.53,223.61 256.76,209.04 281.99,223.61 281.99,252.74 256.76,267.31 	"/>
</g>
<g id="hexagon_36_">
	<polygon class="hc0" points="283.99,252.74 283.99,223.61 309.22,209.04 334.45,223.61 334.45,252.74 309.22,267.31 	"/>
</g>
<g id="hexagon_35_">
	<polygon class="hc0" points="336.45,252.74 336.45,223.61 361.67,209.04 386.9,223.61 386.9,252.74 361.67,267.31 	"/>
</g>
<g>
	<polygon class="hc0" points="388.9,252.74 388.9,223.61 414.13,209.04 439.36,223.61 439.36,252.74 414.13,267.31 	"/>
</g>
<g id="hexagon_34_">
	<polygon class="hc0" points="441.36,252.74 441.36,223.61 466.59,209.04 491.82,223.61 491.82,252.74 466.59,267.31 	"/>
</g>
<g id="hexagon_33_">
	<polygon class="hc0" points="493.82,252.74 493.82,223.61 519.05,209.04 542.26,222.44 542.26,253.9 519.05,267.31 	"/>
</g>
<g id="hexagon_32_">
	<polygon class="hc0" points="-4.53,298.17 -4.53,269.04 20.7,254.47 45.93,269.04 45.93,298.17 20.7,312.74 	"/>
</g>
<g id="hexagon_31_">
	<polygon class="hc0" points="-56.99,25.51 -56.99,-3.63 -31.76,-18.19 -6.53,-3.63 -6.53,25.51 -31.76,40.07 	"/>
</g>
<g id="hexagon_30_">
	<polygon class="hc0" points="-56.99,116.39 -56.99,87.26 -31.76,72.7 -6.53,87.26 -6.53,116.39 -31.76,130.96 	"/>
</g>
<g id="hexagon_29_">
	<polygon class="hc0" points="-56.99,207.28 -56.99,178.15 -31.76,163.58 -6.53,178.15 -6.53,207.28 -31.76,221.85 	"/>
</g>
<g id="hexagon_28_">
	<polygon class="hc0" points="-56.99,298.17 -56.99,269.04 -31.76,254.47 -6.53,269.04 -6.53,298.17 -31.76,312.74 	"/>
</g>
<g id="hexagon_27_">
	<polygon class="hc0" points="47.93,298.17 47.93,269.04 73.16,254.47 98.39,269.04 98.39,298.17 73.16,312.74 	"/>
</g>
<g id="hexagon_26_">
	<polygon class="hc0" points="100.39,298.17 100.39,269.04 125.62,254.47 150.85,269.04 150.85,298.17 125.62,312.74 	"/>
</g>
<g id="hexagon_25_">
	<polygon class="hc0" points="152.85,298.17 152.85,269.04 178.07,254.47 203.3,269.04 203.3,298.17 178.07,312.74 	"/>
</g>
<g id="hexagon_24_">
	<polygon class="hc0" points="205.3,298.17 205.3,269.04 230.53,254.47 255.76,269.04 255.76,298.17 230.53,312.74 	"/>
</g>
<g id="hexagon_23_">
	<polygon class="hc0" points="415.13,298.17 415.13,269.04 440.36,254.47 465.59,269.04 465.59,298.17 440.36,312.74 	"/>
</g>
<g id="hexagon_22_">
	<polygon class="hc0" points="467.59,298.17 467.59,269.04 492.82,254.47 518.05,269.04 518.05,298.17 492.82,312.74 	"/>
</g>
<g id="hexagon_21_">
	<polygon class="hc0" points="520.05,25.51 520.05,-3.63 545.28,-18.19 570.5,-3.63 570.5,25.51 545.28,40.07 	"/>
</g>
<g id="hexagon_20_">
	<polygon class="hc0" points="520.05,116.39 520.05,87.26 545.28,72.7 570.5,87.26 570.5,116.39 545.28,130.96 	"/>
</g>
<g id="hexagon_19_">
	<polygon class="hc0" points="520.05,207.28 520.05,178.15 545.28,163.58 570.5,178.15 570.5,207.28 545.28,221.85 	"/>
</g>
<g id="hexagon_18_">
	<polygon class="hc0" points="520.05,298.17 520.05,269.04 545.28,254.47 570.5,269.04 570.5,298.17 545.28,312.74 	"/>
</g>
<g id="hexagon_17_">
	<polygon class="hc0" points="362.68,25.51 362.68,-3.63 387.9,-18.19 413.13,-3.63 413.13,25.51 387.9,40.07 	"/>
</g>
<g id="hexagon_16_">
	<polygon class="hc0" points="126.62,70.96 126.62,41.83 151.84,27.27 177.07,41.83 177.07,70.96 151.84,85.53 	"/>
</g>
<g id="hexagon_15_">
	<polygon class="hc0" points="100.39,25.51 100.39,-3.63 125.62,-18.19 150.84,-3.63 150.84,25.51 125.62,40.07 	"/>
</g>
<g id="hexagon_14_">
	<polygon class="hc0" points="205.3,25.51 205.3,-3.63 230.53,-18.19 255.76,-3.63 255.76,25.51 230.53,40.07 	"/>
</g>
<g id="hexagon_13_">
	<polygon class="hc0" points="152.84,25.51 152.84,-3.63 178.07,-18.19 203.3,-3.63 203.3,25.51 178.07,40.07 	"/>
</g>
<g id="hexagon_12_">
	<polygon class="hc0" points="231.53,70.96 231.53,41.83 256.76,27.27 281.99,41.83 281.99,70.96 256.76,85.53 	"/>
</g>
<g id="hexagon_11_">
	<polygon class="hc0" points="388.9,70.96 388.9,41.83 414.13,27.27 439.36,41.83 439.36,70.96 414.13,85.53 	"/>
</g>
<g id="hexagon_10_">
	<polygon class="hc0" points="283.99,161.85 283.99,132.72 309.22,118.15 334.45,132.72 334.45,161.85 309.22,176.42 	"/>
</g>
<g id="hexagon_9_">
	<polygon class="hc0" points="493.82,161.85 493.82,132.72 519.05,118.15 542.26,131.56 542.26,163.02 519.05,176.42 	"/>
</g>
<g id="hexagon_8_">
	<polygon class="hc0" points="544.26,70.96 544.26,41.83 569.49,27.27 592.7,40.67 592.7,72.13 569.49,85.53 	"/>
</g>
<g id="hexagon_7_">
	<polygon class="hc0" points="544.26,252.74 544.26,223.61 569.49,209.04 592.7,222.44 592.7,253.9 569.49,267.31 	"/>
</g>
<g id="hexagon_6_">
	<polygon class="hc0" points="544.26,161.85 544.26,132.72 569.49,118.15 592.7,131.56 592.7,163.02 569.49,176.42 	"/>
</g>
<g id="hexagon_5_">
	<polygon class="hc0" points="152.85,207.28 152.85,178.15 178.07,163.58 203.3,178.15 203.3,207.28 178.07,221.85 	"/>
</g>
<g id="hexagon_4_">
	<polygon class="hc0" points="231.53,252.74 231.53,223.61 256.76,209.04 281.99,223.61 281.99,252.74 256.76,267.31 	"/>
</g>
<g id="hexagon_3_">
	<polygon class="hc0" points="388.9,252.74 388.9,223.61 414.13,209.04 439.36,223.61 439.36,252.74 414.13,267.31 	"/>
</g>
<g id="hexagon_2_">
	<polygon class="hc0" points="257.76,298.17 257.76,269.04 282.99,254.47 308.22,269.04 308.22,298.17 282.99,312.74 	"/>
</g>
<g id="hexagon_1_">
	<polygon class="hc0" points="310.22,298.17 310.22,269.04 335.45,254.47 360.67,269.04 360.67,298.17 335.45,312.74 	"/>
</g>
<g id="hexagon">
	<polygon class="hc0" points="362.67,298.17 362.67,269.04 387.9,254.47 413.13,269.04 413.13,298.17 387.9,312.74 	"/>
</g>
</svg>
