<?xml version="1.0" encoding="utf-8"?>
<!-- Generator: Adobe Illustrator 25.0.1, SVG Export Plug-In . SVG Version: 6.00 Build 0)  -->
<svg version="1.1" id="Proportion" xmlns="http://www.w3.org/2000/svg" xmlns:xlink="http://www.w3.org/1999/xlink" x="0px" y="0px"
	 viewBox="0 0 453.5 453.5" style="enable-background:new 0 0 453.5 453.5;" xml:space="preserve">
<style type="text/css">
	.etlm0{fill:#C62629;}
</style>
<g id="Logo">
	<path class="etlm0" d="M145.1,306.9c-31.2-48.8-28.6-111.9,6.4-158c32.6-43.1,98.3-71.4,166.6-42.1c-0.7-0.9-1.1-1.4-1.6-1.9
		c-13.6-13.6-27-27.3-40.8-40.5c-5-4.8-10.6-9-16.6-12.5c-10.4-6.2-21.7-8-33.5-4.7c-11,3.1-20,9.5-28,17.5
		c-41.1,41-82.1,82-123.1,123.1c-5.3,5.5-9.9,11.7-13.7,18.4c-5.7,9.7-7.2,21.4-4,32.2c3.3,11.8,10.4,21.1,18.9,29.6
		c40,40,80,80,120.1,119.9c3,3,6.2,5.9,9.6,8.5c9.5,7.4,20.1,12.1,32.4,11.8c13.8-0.4,25.2-6.6,35-15.7c9.3-8.6,18.1-17.8,27.1-26.8
		c0.3-0.4,0.5-0.8,0.7-1.2C234.7,383.1,174.9,353.4,145.1,306.9z"/>
	<path class="etlm0" d="M392.4,196.4c-6.2-21.9-18.2-40.6-33.6-57.3c-3.8-4.1-8.1-7.9-12.2-11.8c-0.1,1.7,0.1,3.4,0.7,5
		c5.8,18.6,9.6,37.4,7.8,56.9c-2.4,26.1-14.8,45.3-39.1,56.1c-14.7,6.5-30.2,8.6-46.1,8.8c-26.8,0.3-53-4.4-78.8-11.1
		c-10.7-2.8-21.3-6-31.9-9l-0.3,0.4c3.2,2.4,6.3,4.9,9.5,7.1c42.1,29.9,88.2,47.3,140.7,44.2c19.2-1.2,37.6-6,54.2-16.1
		C390,253.3,400.9,226.6,392.4,196.4z"/>
</g>
</svg>
