<svg xmlns="http://www.w3.org/2000/svg" viewBox="0 0 453.54 453.54"><defs><style>.cls-1{fill:#fff;}</style></defs><title>Ezytronic Logomark_White</title><g id="Layer_5_copy_2" data-name="Layer 5 copy 2"><g id="Logo"><path class="cls-1" d="M145.05,306.92a138.24,138.24,0,0,1,6.39-158c32.65-43.09,98.34-71.37,166.65-42.07-.73-.87-1.12-1.42-1.59-1.89-13.57-13.55-27-27.27-40.81-40.55A93.36,93.36,0,0,0,259.1,51.91c-10.36-6.2-21.67-8-33.49-4.7-11,3.1-20,9.51-28,17.45Q136,126.12,74.56,187.75a90.08,90.08,0,0,0-13.67,18.44,40.84,40.84,0,0,0-4,32.22c3.28,11.77,10.4,21.12,18.89,29.6q60,60,120.06,119.9a101.45,101.45,0,0,0,9.59,8.48c9.51,7.35,20.08,12.14,32.36,11.81,13.78-.38,25.18-6.57,35-15.67,9.3-8.64,18.11-17.81,27.13-26.76a6.93,6.93,0,0,0,.72-1.21C234.7,383.07,174.88,353.37,145.05,306.92Z"/><path class="cls-1" d="M392.4,196.41c-6.18-21.91-18.24-40.63-33.56-57.27-3.82-4.15-8.12-7.85-12.19-11.75a12,12,0,0,0,.7,5c5.76,18.55,9.56,37.38,7.75,56.93-2.43,26.06-14.78,45.32-39.11,56.12-14.66,6.5-30.24,8.59-46.08,8.79-26.8.33-53-4.41-78.78-11.14-10.71-2.79-21.31-6-31.95-9l-.3.42c3.17,2.39,6.28,4.85,9.51,7.15,42.13,29.88,88.21,47.31,140.66,44.15,19.25-1.16,37.56-6,54.19-16.14C390,253.32,400.91,226.59,392.4,196.41Z"/></g></g></svg>