<?xml version="1.0" encoding="utf-8"?>
<!-- Generator: Adobe Illustrator 25.0.1, SVG Export Plug-In . SVG Version: 6.00 Build 0)  -->
<svg version="1.1" id="contact-logo" xmlns="http://www.w3.org/2000/svg" xmlns:xlink="http://www.w3.org/1999/xlink" x="0px"
	 y="0px" viewBox="0 0 50 50" style="enable-background:new 0 0 50 50;" xml:space="preserve">
<style type="text/css">
	.fbl0{fill:#010101;}
</style>
<g id="wave-logo">
	<path class="fbl0" d="M-150.178,36.686c-0.245,1.117-0.848,1.944-1.832,2.456c-1.251,0.648-2.525,0.627-3.709-0.133
		c-1.229-0.781-1.765-1.965-1.675-3.419c0.021-0.245-0.045-0.336-0.245-0.448c-2.168-1.139-3.886-2.725-5.07-4.87
		c-0.224-0.424-0.403-0.872-0.515-1.341c-0.157-0.648,0.091-0.96,0.76-1.027c0.805-0.091,1.52-0.403,1.877-1.163
		c0.157-0.336,0.245-0.736,0.245-1.117c0.045-0.96,0-1.92,0.045-2.883c0.245-3.709,1.787-6.79,4.603-9.203
		c2.59-2.23,5.627-3.278,9.044-3.169c5.965,0.224,11.08,4.424,12.286,10.299c1.094,5.317-0.557,9.763-4.781,13.225
		c-0.245,0.2-0.515,0.403-0.805,0.581c-0.157,0.112-0.2,0.2-0.133,0.379c0.557,1.699-0.224,3.574-1.787,4.379
		c-2.123,1.051-4.579-0.021-5.227-2.301c-0.021-0.091-0.133-0.2-0.2-0.2C-148.234,36.664-149.197,36.686-150.178,36.686
		L-150.178,36.686z M-150.133,35.19c1.005,0,2.011,0.045,3.016-0.021c0.915-0.045,1.877-0.133,2.771-0.357
		c7.104-1.742,10.902-9.584,7.795-16.217c-1.877-4-5.094-6.28-9.494-6.749c-3.373-0.357-6.39,0.648-8.936,2.926
		c-2.502,2.256-3.798,5.07-3.886,8.443c-0.021,0.781,0,1.587,0,2.368c-0.024,1.701-0.984,3.018-2.616,3.531
		c-0.021,0-0.067,0.045-0.091,0.045c0.627,1.653,3.171,4.088,4.758,4.691C-154.824,31.123-150.805,32.085-150.133,35.19
		L-150.133,35.19z"/>
	<path class="fbl0" d="M-145.42,29.36c-2.637-0.133-4.379-1.184-5.496-3.283c-0.269-0.515-0.021-1.027,0.491-1.139
		c0.312-0.067,0.603,0.157,0.827,0.515c0.291,0.448,0.581,0.893,0.96,1.251c2.099,1.987,5.539,1.363,6.859-1.205
		c0.157-0.312,0.357-0.557,0.736-0.557c0.557,0.021,0.872,0.581,0.627,1.094c-0.693,1.408-1.787,2.435-3.261,2.926
		C-144.327,29.181-144.996,29.269-145.42,29.36L-145.42,29.36z"/>
	<path class="fbl0" d="M-150.09,22.032c-0.805,0-1.451-0.648-1.451-1.451s0.648-1.451,1.451-1.451c0.803,0,1.451,0.648,1.451,1.451
		C-148.637,21.362-149.285,22.032-150.09,22.032L-150.09,22.032z"/>
	<path class="fbl0" d="M-139.858,20.557c0,0.805-0.648,1.451-1.429,1.475c-0.805,0-1.451-0.627-1.451-1.451
		c0-0.805,0.627-1.451,1.429-1.475C-140.527,19.106-139.881,19.754-139.858,20.557L-139.858,20.557z"/>
</g>
<path id="google-logo" class="fbl0" d="M-60.334,10.34c-8.098,0-14.664,6.564-14.664,14.66s6.566,14.66,14.664,14.66
	c12.229,0,14.984-11.353,13.836-17.103h-1.625h-2.77h-9.446v4.887h9.453c-1.087,4.212-4.902,7.33-9.453,7.33
	c-5.397,0-9.773-4.376-9.773-9.773s4.376-9.773,9.773-9.773c2.454,0,4.69,0.911,6.406,2.405l3.472-3.469
	C-53.067,11.788-56.531,10.34-60.334,10.34z"/>
<path id="fb-logo" class="fbl0" d="M36.989,10.347H13.011c-1.472,0-2.664,1.192-2.664,2.664v23.978c0,1.472,1.192,2.664,2.664,2.664
	h13.321V27.664h-3.996v-3.996h3.996v-2.146c0-4.063,1.979-5.847,5.356-5.847c1.617,0,2.472,0.12,2.877,0.175v3.822h-2.303
	c-1.433,0-1.934,0.757-1.934,2.289v1.708h4.201l-0.57,3.996h-3.631v11.989h6.66c1.472,0,2.664-1.192,2.664-2.664V13.011
	C39.653,11.539,38.459,10.347,36.989,10.347z"/>
</svg>
