<?xml version="1.0" encoding="utf-8"?>
<!-- Generator: Adobe Illustrator 25.0.1, SVG Export Plug-In . SVG Version: 6.00 Build 0)  -->
<svg version="1.1" id="steps-icons" xmlns="http://www.w3.org/2000/svg" xmlns:xlink="http://www.w3.org/1999/xlink" x="0px"
	 y="0px" viewBox="0 0 1920 1080" style="enable-background:new 0 0 1920 1080;" xml:space="preserve">
<style type="text/css">
	.st0{fill:#E3E6EE;}
	.st1{opacity:0.59;fill:url(#SVGID_1_);}
	.st2{fill:#C2C7D7;}
	.st3{fill:#F1F2F6;}
	.st4{fill:url(#SVGID_2_);}
	.st5{fill:url(#SVGID_3_);}
	.st6{opacity:0.59;fill:url(#SVGID_4_);}
	.st7{fill:url(#SVGID_5_);}
	.st8{fill:url(#SVGID_6_);}
	.st9{opacity:0.59;fill:url(#SVGID_7_);}
	.st10{fill:url(#SVGID_8_);}
	.st11{opacity:0.59;fill:url(#SVGID_9_);}
	.st12{fill:url(#SVGID_10_);}
	.st13{opacity:0.59;fill:url(#SVGID_11_);}
	.st14{fill:url(#SVGID_12_);}
	.st15{opacity:0.59;fill:url(#SVGID_13_);}
	.st16{fill:url(#SVGID_14_);}
	.st17{opacity:0.59;fill:url(#SVGID_15_);}
	.st18{fill:url(#SVGID_16_);}
	.st19{opacity:0.59;fill:url(#SVGID_17_);}
	.st20{fill:url(#SVGID_18_);}
	.st21{fill:url(#SVGID_19_);}
	.st22{fill:url(#SVGID_20_);}
	.st23{opacity:0.73;fill:url(#SVGID_21_);}
	.st24{fill:url(#SVGID_22_);}
	.st25{fill:url(#SVGID_23_);}
	.st26{fill:url(#SVGID_24_);}
	.st27{fill:url(#SVGID_25_);}
	.st28{fill:#ED2E39;}
	.st29{fill:url(#SVGID_26_);}
</style>
<g id="rec05">
	<polygon class="st0" points="1169.6,696.3 1169.6,696.7 1237.9,719 1238,719 1238.2,719 1306.4,696.7 1306.4,696.3 1238.2,674 
		1238,674 1237.9,674 	"/>
	
		<linearGradient id="SVGID_1_" gradientUnits="userSpaceOnUse" x1="221.4004" y1="707.4772" x2="87.1512" y2="685.1024" gradientTransform="matrix(-1 0 0 1 1393.6951 0)">
		<stop  offset="0" style="stop-color:#C2C7D7;stop-opacity:0.7"/>
		<stop  offset="1" style="stop-color:#FFFFFF"/>
	</linearGradient>
	<polygon class="st1" points="1169.6,696.3 1169.6,696.7 1237.9,719 1238,719 1238.2,719 1306.4,696.7 1306.4,696.3 1238.2,674 
		1238,674 1237.9,674 	"/>
	<polygon class="st2" points="1238,719 1237.9,719 1237.9,900.1 1238,900.1 1238,900.1 1306.4,922.4 1306.4,696.7 1238.2,719 	"/>
	<polygon class="st2" points="1237.9,673.9 1237.9,674 1238,674 	"/>
	<polygon class="st3" points="1238,674 1238.1,674 1238.1,673.9 	"/>
	<polygon class="st3" points="1169.6,696.7 1169.6,922.4 1238,900.1 1238,900.1 1238.2,900.1 1238.2,719 1238,719 1237.9,719 	"/>
	<linearGradient id="SVGID_2_" gradientUnits="userSpaceOnUse" x1="1238.0211" y1="820.8962" x2="1306.6058" y2="820.8962">
		<stop  offset="0" style="stop-color:#FFFFFF"/>
		<stop  offset="1" style="stop-color:#C2C7D7"/>
	</linearGradient>
	<polygon class="st4" points="1238,719 1238,945.1 1306.6,922.8 1306.6,696.6 1306.4,696.7 1238.2,719 	"/>
	
		<linearGradient id="SVGID_3_" gradientUnits="userSpaceOnUse" x1="189.9663" y1="939.4294" x2="189.9663" y2="736.4598" gradientTransform="matrix(-1 0 0 1 1393.6951 0)">
		<stop  offset="0" style="stop-color:#FFFFFF"/>
		<stop  offset="1" style="stop-color:#C2C7D7"/>
	</linearGradient>
	<polygon class="st5" points="1169.4,696.6 1169.4,922.8 1238,945.1 1238,719 1237.9,719 1169.6,696.7 	"/>
</g>
<g id="rec06">
	<polygon class="st0" points="988.8,717.8 988.8,718.1 1047.1,737.1 1047.2,737.2 1047.3,737.1 1105.6,718.1 1105.6,717.8 
		1047.3,698.8 1047.2,698.7 1047.1,698.8 	"/>
	
		<linearGradient id="SVGID_4_" gradientUnits="userSpaceOnUse" x1="402.5713" y1="727.3142" x2="287.9951" y2="708.2182" gradientTransform="matrix(-1 0 0 1 1393.6951 0)">
		<stop  offset="0" style="stop-color:#C2C7D7;stop-opacity:0.7"/>
		<stop  offset="1" style="stop-color:#FFFFFF"/>
	</linearGradient>
	<polygon class="st6" points="988.8,717.8 988.8,718.1 1047.1,737.1 1047.2,737.2 1047.3,737.1 1105.6,718.1 1105.6,717.8 
		1047.3,698.8 1047.2,698.7 1047.1,698.8 	"/>
	<polygon class="st2" points="1047.2,737.2 1047.1,737.1 1047.1,891.7 1047.2,891.7 1047.2,891.7 1105.6,910.8 1105.6,718.1 
		1047.3,737.1 	"/>
	<polygon class="st2" points="1047.1,698.7 1047.1,698.8 1047.2,698.7 	"/>
	<polygon class="st3" points="1047.2,698.7 1047.3,698.8 1047.3,698.7 	"/>
	<polygon class="st3" points="988.8,718.1 988.8,910.8 1047.2,891.7 1047.2,891.7 1047.3,891.7 1047.3,737.1 1047.2,737.2 
		1047.1,737.1 	"/>
	<linearGradient id="SVGID_5_" gradientUnits="userSpaceOnUse" x1="1047.2186" y1="824.1126" x2="1105.7528" y2="824.1126">
		<stop  offset="0" style="stop-color:#FFFFFF"/>
		<stop  offset="1" style="stop-color:#C2C7D7"/>
	</linearGradient>
	<polygon class="st7" points="1047.2,737.2 1047.2,930.2 1105.8,911 1105.8,718.1 1105.6,718.1 1047.3,737.1 	"/>
	
		<linearGradient id="SVGID_6_" gradientUnits="userSpaceOnUse" x1="375.7437" y1="925.2759" x2="375.7437" y2="752.0497" gradientTransform="matrix(-1 0 0 1 1393.6951 0)">
		<stop  offset="0" style="stop-color:#FFFFFF"/>
		<stop  offset="1" style="stop-color:#C2C7D7"/>
	</linearGradient>
	<polygon class="st8" points="988.7,718.1 988.7,911 1047.2,930.2 1047.2,737.2 1047.1,737.1 988.8,718.1 	"/>
</g>
<g id="rec07">
	<polygon class="st0" points="507.6,745 507.6,745.3 565.9,764.3 566,764.4 566.1,764.3 624.4,745.3 624.4,745 566.1,725.9 
		566,725.9 565.9,725.9 	"/>
	
		<linearGradient id="SVGID_7_" gradientUnits="userSpaceOnUse" x1="883.7958" y1="754.4791" x2="769.2197" y2="735.3831" gradientTransform="matrix(-1 0 0 1 1393.6951 0)">
		<stop  offset="0" style="stop-color:#C2C7D7;stop-opacity:0.7"/>
		<stop  offset="1" style="stop-color:#FFFFFF"/>
	</linearGradient>
	<polygon class="st9" points="507.6,745 507.6,745.3 565.9,764.3 566,764.4 566.1,764.3 624.4,745.3 624.4,745 566.1,725.9 
		566,725.9 565.9,725.9 	"/>
	<polygon class="st2" points="566,764.4 565.9,764.3 565.9,918.8 566,918.9 566,918.9 624.4,937.9 624.4,745.3 566.1,764.3 	"/>
	<polygon class="st2" points="565.9,725.9 565.9,725.9 566,725.9 	"/>
	<polygon class="st3" points="566,725.9 566.1,725.9 566.1,725.9 	"/>
	<polygon class="st3" points="507.6,745.3 507.6,937.9 566,918.9 566,918.9 566.1,918.8 566.1,764.3 566,764.4 565.9,764.3 	"/>
	<polygon class="st3" points="566,764.4 566,957.3 624.5,938.2 624.5,745.2 624.4,745.3 566.1,764.3 	"/>
	
		<linearGradient id="SVGID_8_" gradientUnits="userSpaceOnUse" x1="856.9682" y1="952.4407" x2="856.9682" y2="779.2145" gradientTransform="matrix(-1 0 0 1 1393.6951 0)">
		<stop  offset="0" style="stop-color:#FFFFFF"/>
		<stop  offset="1" style="stop-color:#C2C7D7"/>
	</linearGradient>
	<polygon class="st10" points="507.5,745.2 507.5,938.2 566,957.3 566,764.4 565.9,764.3 507.6,745.3 	"/>
</g>
<g id="rec04">
	<polygon class="st0" points="1332.8,666 1332.8,666.3 1392.7,685.9 1392.8,685.9 1392.9,685.9 1452.8,666.3 1452.8,666 
		1392.9,646.5 1392.8,646.4 1392.7,646.5 	"/>
	
		<linearGradient id="SVGID_9_" gradientUnits="userSpaceOnUse" x1="58.5156" y1="675.7982" x2="-59.1889" y2="656.1807" gradientTransform="matrix(-1 0 0 1 1393.6951 0)">
		<stop  offset="0" style="stop-color:#C2C7D7;stop-opacity:0.7"/>
		<stop  offset="1" style="stop-color:#FFFFFF"/>
	</linearGradient>
	<polygon class="st11" points="1332.8,666 1332.8,666.3 1392.7,685.9 1392.8,685.9 1392.9,685.9 1452.8,666.3 1452.8,666 
		1392.9,646.5 1392.8,646.4 1392.7,646.5 	"/>
	<polygon class="st2" points="1392.8,685.9 1392.7,685.9 1392.7,844.6 1392.8,844.7 1392.8,844.7 1452.8,864.3 1452.8,666.3 
		1392.9,685.9 	"/>
	<polygon class="st2" points="1392.7,646.4 1392.7,646.5 1392.8,646.4 	"/>
	<polygon class="st3" points="1392.8,646.4 1392.9,646.5 1392.9,646.4 	"/>
	<polygon class="st3" points="1332.8,666.3 1332.8,864.3 1392.8,844.7 1392.8,844.7 1392.9,844.6 1392.9,685.9 1392.8,685.9 
		1392.7,685.9 	"/>
	<polygon class="st3" points="1392.8,685.9 1392.8,884.2 1452.9,864.5 1452.9,666.3 1452.8,666.3 1392.9,685.9 	"/>
	
		<linearGradient id="SVGID_10_" gradientUnits="userSpaceOnUse" x1="30.9555" y1="879.1649" x2="30.9555" y2="701.209" gradientTransform="matrix(-1 0 0 1 1393.6951 0)">
		<stop  offset="0" style="stop-color:#FFFFFF"/>
		<stop  offset="1" style="stop-color:#C2C7D7"/>
	</linearGradient>
	<polygon class="st12" points="1332.7,666.3 1332.7,864.5 1392.8,884.2 1392.8,685.9 1392.7,685.9 1332.8,666.3 	"/>
</g>
<g id="rec01">
	<polygon class="st0" points="832.4,494 832.4,494.6 952.2,533.7 952.5,533.8 952.7,533.7 1072.5,494.6 1072.5,494 952.7,454.9 
		952.4,454.8 952.2,454.9 	"/>
	
		<linearGradient id="SVGID_11_" gradientUnits="userSpaceOnUse" x1="1082.8512" y1="513.5232" x2="847.3196" y2="474.2679" gradientTransform="matrix(-1 0 0 1 1920 0)">
		<stop  offset="0" style="stop-color:#C2C7D7;stop-opacity:0.7"/>
		<stop  offset="1" style="stop-color:#FFFFFF"/>
	</linearGradient>
	<polygon class="st13" points="832.4,494 832.4,494.6 952.2,533.7 952.5,533.8 952.7,533.7 1072.5,494.6 1072.5,494 952.7,454.9 
		952.4,454.8 952.2,454.9 	"/>
	<polygon class="st2" points="952.5,533.8 952.2,533.7 952.2,851.4 952.4,851.5 952.5,851.5 1072.5,890.7 1072.5,494.6 952.7,533.7 
			"/>
	<polygon class="st2" points="952.3,454.7 952.3,454.9 952.5,454.8 	"/>
	<polygon class="st3" points="952.5,454.8 952.6,454.9 952.6,454.7 	"/>
	<polygon class="st3" points="832.4,494.6 832.4,890.7 952.4,851.5 952.5,851.5 952.7,851.4 952.7,533.7 952.5,533.8 952.2,533.7 	
		"/>
	<polygon class="st3" points="952.5,533.8 952.5,930.5 1072.8,891.2 1072.8,494.5 1072.5,494.6 952.7,533.7 	"/>
	
		<linearGradient id="SVGID_12_" gradientUnits="userSpaceOnUse" x1="1027.7023" y1="920.4686" x2="1027.7023" y2="564.3713" gradientTransform="matrix(-1 0 0 1 1920 0)">
		<stop  offset="0" style="stop-color:#FFFFFF"/>
		<stop  offset="1" style="stop-color:#C2C7D7"/>
	</linearGradient>
	<polygon class="st14" points="832.1,494.5 832.1,891.2 952.5,930.5 952.5,533.8 952.2,533.7 832.4,494.6 	"/>
</g>
<g id="rec02">
	<polygon class="st0" points="656.1,593.7 656.1,594.2 752.3,625.7 752.6,625.7 752.8,625.7 849,594.2 849,593.7 752.8,562.3 
		752.5,562.2 752.3,562.3 	"/>
	
		<linearGradient id="SVGID_13_" gradientUnits="userSpaceOnUse" x1="733.7973" y1="609.4316" x2="544.5379" y2="577.8884" gradientTransform="matrix(-1 0 0 1 1393.6951 0)">
		<stop  offset="0" style="stop-color:#C2C7D7;stop-opacity:0.7"/>
		<stop  offset="1" style="stop-color:#FFFFFF"/>
	</linearGradient>
	<polygon class="st15" points="656.1,593.7 656.1,594.2 752.3,625.7 752.6,625.7 752.8,625.7 849,594.2 849,593.7 752.8,562.3 
		752.5,562.2 752.3,562.3 	"/>
	<polygon class="st2" points="752.6,625.7 752.3,625.7 752.3,880.9 752.5,881 752.6,881 849,912.5 849,594.2 752.8,625.7 	"/>
	<polygon class="st2" points="752.4,562.2 752.4,562.3 752.5,562.2 	"/>
	<polygon class="st3" points="752.5,562.2 752.7,562.3 752.7,562.2 	"/>
	<polygon class="st3" points="656.1,594.2 656.1,912.5 752.5,881 752.6,881 752.8,880.9 752.8,625.7 752.6,625.7 752.3,625.7 	"/>
	<polygon class="st3" points="752.6,625.7 752.6,944.5 849.2,912.9 849.2,594.2 849,594.2 752.8,625.7 	"/>
	
		<linearGradient id="SVGID_14_" gradientUnits="userSpaceOnUse" x1="689.4828" y1="936.4291" x2="689.4828" y2="650.2902" gradientTransform="matrix(-1 0 0 1 1393.6951 0)">
		<stop  offset="0" style="stop-color:#FFFFFF"/>
		<stop  offset="1" style="stop-color:#C2C7D7"/>
	</linearGradient>
	<polygon class="st16" points="655.9,594.2 655.9,912.9 752.6,944.5 752.6,625.7 752.3,625.7 656.1,594.2 	"/>
</g>
<g id="rec03">
	<polygon class="st0" points="886.7,659.3 886.7,659.8 983,691.2 983.2,691.3 983.4,691.2 1079.7,659.8 1079.7,659.3 983.4,627.9 
		983.2,627.8 983,627.9 	"/>
	
		<linearGradient id="SVGID_15_" gradientUnits="userSpaceOnUse" x1="503.1651" y1="675.0021" x2="313.9057" y2="643.4588" gradientTransform="matrix(-1 0 0 1 1393.6951 0)">
		<stop  offset="0" style="stop-color:#C2C7D7;stop-opacity:0.7"/>
		<stop  offset="1" style="stop-color:#FFFFFF"/>
	</linearGradient>
	<polygon class="st17" points="886.7,659.3 886.7,659.8 983,691.2 983.2,691.3 983.4,691.2 1079.7,659.8 1079.7,659.3 983.4,627.9 
		983.2,627.8 983,627.9 	"/>
	<polygon class="st2" points="983.2,691.3 983,691.2 983,946.5 983.2,946.6 983.2,946.6 1079.7,978.1 1079.7,659.8 983.4,691.2 	"/>
	<polygon class="st2" points="983.1,627.7 983.1,627.9 983.2,627.8 	"/>
	<polygon class="st3" points="983.2,627.8 983.3,627.9 983.3,627.7 	"/>
	<polygon class="st3" points="886.7,659.8 886.7,978.1 983.2,946.6 983.2,946.6 983.4,946.5 983.4,691.2 983.2,691.3 983,691.2 	"/>
	<polygon class="st3" points="983.2,691.3 983.2,1010.1 1079.9,978.5 1079.9,659.7 1079.7,659.8 983.4,691.2 	"/>
	
		<linearGradient id="SVGID_16_" gradientUnits="userSpaceOnUse" x1="458.8506" y1="1001.9995" x2="458.8506" y2="715.8606" gradientTransform="matrix(-1 0 0 1 1393.6951 0)">
		<stop  offset="0" style="stop-color:#FFFFFF"/>
		<stop  offset="1" style="stop-color:#C2C7D7"/>
	</linearGradient>
	<polygon class="st18" points="886.5,659.7 886.5,978.5 983.2,1010.1 983.2,691.3 983,691.2 886.7,659.8 	"/>
</g>
<g>
	<polygon class="st0" points="1125.6,673.3 1125.6,673.7 1206.6,700.2 1206.7,700.2 1206.9,700.2 1287.9,673.7 1287.9,673.3 
		1206.9,646.9 1206.7,646.8 1206.6,646.9 	"/>
	
		<linearGradient id="SVGID_17_" gradientUnits="userSpaceOnUse" x1="264.9084" y1="686.5057" x2="105.6726" y2="659.9664" gradientTransform="matrix(-1 0 0 1 1393.6951 0)">
		<stop  offset="0" style="stop-color:#C2C7D7;stop-opacity:0.7"/>
		<stop  offset="1" style="stop-color:#FFFFFF"/>
	</linearGradient>
	<polygon class="st19" points="1125.6,673.3 1125.6,673.7 1206.6,700.2 1206.7,700.2 1206.9,700.2 1287.9,673.7 1287.9,673.3 
		1206.9,646.9 1206.7,646.8 1206.6,646.9 	"/>
	<polygon class="st2" points="1206.7,700.2 1206.6,700.2 1206.6,914.9 1206.7,915 1206.7,915 1287.9,941.5 1287.9,673.7 
		1206.9,700.2 	"/>
	<polygon class="st2" points="1206.6,646.7 1206.6,646.9 1206.7,646.8 	"/>
	<polygon class="st3" points="1206.7,646.8 1206.8,646.9 1206.8,646.7 	"/>
	<polygon class="st3" points="1125.6,673.7 1125.6,941.5 1206.7,915 1206.7,915 1206.9,914.9 1206.9,700.2 1206.7,700.2 
		1206.6,700.2 	"/>
	<polygon class="st3" points="1206.7,700.2 1206.7,968.4 1288.1,941.8 1288.1,673.7 1287.9,673.7 1206.9,700.2 	"/>
	
		<linearGradient id="SVGID_18_" gradientUnits="userSpaceOnUse" x1="227.6238" y1="961.6292" x2="227.6238" y2="720.8826" gradientTransform="matrix(-1 0 0 1 1393.6951 0)">
		<stop  offset="0" style="stop-color:#FFFFFF"/>
		<stop  offset="1" style="stop-color:#C2C7D7"/>
	</linearGradient>
	<polygon class="st20" points="1125.4,673.7 1125.4,941.8 1206.7,968.4 1206.7,700.2 1206.6,700.2 1125.6,673.7 	"/>
</g>
<g>
	
		<image style="overflow:visible;" width="994" height="439" xlink:href="D0F5924A.png"  transform="matrix(0.24 0 0 0.24 833.2689 441.6458)">
	</image>
</g>
<g id="red_cube">
	<g>
		<linearGradient id="SVGID_19_" gradientUnits="userSpaceOnUse" x1="891.2083" y1="379.0964" x2="1013.7004" y2="379.0964">
			<stop  offset="0" style="stop-color:#EE363C"/>
			<stop  offset="1" style="stop-color:#EF586A"/>
		</linearGradient>
		<polygon class="st21" points="891.2,378.9 891.2,379.3 952.3,400.4 952.5,400.5 952.6,400.4 1013.7,379.3 1013.7,378.9 
			952.6,357.8 952.5,357.7 952.3,357.8 		"/>
		<linearGradient id="SVGID_20_" gradientUnits="userSpaceOnUse" x1="891.2083" y1="379.0964" x2="1013.7004" y2="379.0964">
			<stop  offset="0" style="stop-color:#B12B2D"/>
			<stop  offset="1" style="stop-color:#EC1C2B"/>
		</linearGradient>
		<polygon class="st22" points="891.2,378.9 891.2,379.3 952.3,400.4 952.5,400.5 952.6,400.4 1013.7,379.3 1013.7,378.9 
			952.6,357.8 952.5,357.7 952.3,357.8 		"/>
		<linearGradient id="SVGID_21_" gradientUnits="userSpaceOnUse" x1="952.1224" y1="349.0606" x2="952.9651" y2="425.3244">
			<stop  offset="0" style="stop-color:#B12B2D;stop-opacity:0"/>
			<stop  offset="0.595" style="stop-color:#E47C79;stop-opacity:0.4832"/>
			<stop  offset="0.8944" style="stop-color:#E64F4E;stop-opacity:0.9039"/>
			<stop  offset="1" style="stop-color:#E54B4A;stop-opacity:0.5"/>
		</linearGradient>
		<polygon class="st23" points="891.2,378.9 891.2,379.3 952.3,400.4 952.5,400.5 952.6,400.4 1013.7,379.3 1013.7,378.9 
			952.6,357.8 952.5,357.7 952.3,357.8 		"/>
		<linearGradient id="SVGID_22_" gradientUnits="userSpaceOnUse" x1="952.3176" y1="427.889" x2="1013.6987" y2="427.889">
			<stop  offset="0" style="stop-color:#EE363C"/>
			<stop  offset="1" style="stop-color:#EF586A"/>
		</linearGradient>
		<polygon class="st24" points="1013.7,379.3 1013.7,455.3 952.6,476.5 952.5,476.5 952.3,476.5 952.3,400.4 952.5,400.5 
			952.6,400.4 		"/>
		<linearGradient id="SVGID_23_" gradientUnits="userSpaceOnUse" x1="952.3807" y1="357.7232" x2="952.4576" y2="357.7232">
			<stop  offset="0" style="stop-color:#EE363C"/>
			<stop  offset="1" style="stop-color:#EF586A"/>
		</linearGradient>
		<polygon class="st25" points="952.4,357.7 952.4,357.8 952.5,357.7 		"/>
		<linearGradient id="SVGID_24_" gradientUnits="userSpaceOnUse" x1="952.4576" y1="357.7232" x2="952.5342" y2="357.7232">
			<stop  offset="0" style="stop-color:#EE363C"/>
			<stop  offset="1" style="stop-color:#EF586A"/>
		</linearGradient>
		<polygon class="st26" points="952.5,357.7 952.5,357.8 952.5,357.7 		"/>
		<linearGradient id="SVGID_25_" gradientUnits="userSpaceOnUse" x1="891.2088" y1="427.8869" x2="952.59" y2="427.8869">
			<stop  offset="0" style="stop-color:#EE363C"/>
			<stop  offset="1" style="stop-color:#EF586A"/>
		</linearGradient>
		<polygon class="st27" points="952.6,400.4 952.6,476.5 952.5,476.5 952.3,476.5 891.2,455.3 891.2,379.3 952.3,400.4 952.5,400.5 
					"/>
		<g>
			<polygon class="st28" points="1013.8,379.2 1013.8,455.3 1013.7,455.3 952.6,476.5 952.5,476.5 952.5,400.5 952.6,400.4 
				1013.7,379.3 			"/>
		</g>
		<linearGradient id="SVGID_26_" gradientUnits="userSpaceOnUse" x1="922.0126" y1="415.0776" x2="920.7477" y2="482.1205">
			<stop  offset="0" style="stop-color:#B9292B"/>
			<stop  offset="0.2726" style="stop-color:#C4272A"/>
			<stop  offset="1" style="stop-color:#EE363C"/>
		</linearGradient>
		<polygon class="st29" points="952.5,400.5 952.5,476.5 952.3,476.5 891.2,455.3 891.1,455.3 891.1,379.2 891.2,379.3 952.3,400.4 
					"/>
	</g>
</g>
</svg>
