<?xml version="1.0" encoding="utf-8"?>
<!-- Generator: Adobe Illustrator 25.0.1, SVG Export Plug-In . SVG Version: 6.00 Build 0)  -->
<svg version="1.1" id="bs" xmlns="http://www.w3.org/2000/svg" xmlns:xlink="http://www.w3.org/1999/xlink" x="0px" y="0px"
	 viewBox="0 0 89 89" style="enable-background:new 0 0 89 89;" xml:space="preserve">
<style type="text/css">
	.bs0{fill:url(#BSID_1_);}
	.bs1{fill:url(#BSID_2_);}
	.bs2{fill:url(#BSID_3_);}
	.bs3{fill:url(#BSID_4_);}
	.bs4{fill:url(#BSID_5_);}
	.bs5{fill:url(#BSID_6_);}
	.bs6{fill:url(#BSID_7_);}
	.bs7{fill:url(#BSID_8_);}
	.bs8{fill:url(#BSID_9_);}
	.bs9{fill:url(#BSID_10_);}
	.bs10{fill:url(#BSID_11_);}
	.bs11{fill:url(#BSID_12_);}
	.bs12{fill:url(#BSID_13_);}
	.bs13{fill:url(#BSID_14_);}
	.bs14{fill:url(#BSID_15_);}
	.bs15{fill:url(#BSID_16_);}
	.bs16{fill:url(#BSID_17_);}
	.bs17{fill:url(#BSID_18_);}
	.bs18{fill:url(#BSID_19_);}
	.bs19{opacity:0.3;fill:#06033E;}
	.bs20{fill:#FFFFFF;}
	.bs21{fill:url(#BSID_20_);}
	.bs22{fill:url(#BSID_21_);}
	.bs23{opacity:0.36;fill:#F3FAFF;}
	.bs24{fill:url(#BSID_22_);}
	.bs25{opacity:0.7;fill:#FFFFFF;}
	.bs26{fill:url(#BSID_23_);}
	.bs27{fill:url(#BSID_24_);}
	.bs28{fill:url(#BSID_25_);}
	.bs29{fill:url(#BSID_26_);}
	.bs30{fill:url(#BSID_27_);}
	.bs31{fill:url(#BSID_28_);}
	.bs32{fill:url(#BSID_29_);}
	.bs33{fill:url(#BSID_30_);}
	.bs34{fill:url(#BSID_31_);}
	.bs35{fill:url(#BSID_32_);}
	.bs36{fill:url(#BSID_33_);}
	.bs37{fill:url(#BSID_34_);}
	.bs38{fill:url(#BSID_35_);}
	.bs39{fill:url(#BSID_36_);}
	.bs40{fill:url(#BSID_37_);}
	.bs41{fill:url(#BSID_38_);}
	.bs42{fill:url(#BSID_39_);}
	.bs43{fill:url(#BSID_40_);}
	.bs44{fill:url(#BSID_41_);}
	.bs45{fill:url(#BSID_42_);}
	.bs46{fill:url(#BSID_43_);}
	.bs47{fill:url(#BSID_44_);}
	.bs48{fill:url(#BSID_45_);}
	.bs49{fill:url(#BSID_46_);}
	.bs50{fill:url(#BSID_47_);}
	.bs51{fill:url(#BSID_48_);}
	.bs52{fill:url(#BSID_49_);}
	.bs53{fill:url(#BSID_50_);}
	.bs54{fill:url(#BSID_51_);}
	.bs55{fill:url(#BSID_52_);}
	.bs56{fill:url(#BSID_53_);}
	.bs57{fill:url(#BSID_54_);}
	.bs58{fill:url(#BSID_55_);}
	.bs59{fill:url(#BSID_56_);}
	.bs60{fill:url(#BSID_57_);}
	.bs61{fill:url(#BSID_58_);}
	.bs62{fill:url(#BSID_59_);}
	.bs63{fill:url(#BSID_60_);}
	.bs64{fill:url(#BSID_61_);}
	.bs65{fill:url(#BSID_62_);}
	.bs66{fill:url(#BSID_63_);}
	.bs67{fill:url(#BSID_64_);}
	.bs68{fill:url(#BSID_65_);}
	.bs69{fill:url(#BSID_66_);}
	.bs70{fill:url(#BSID_67_);}
	.bs71{fill:url(#BSID_68_);}
	.bs72{fill:url(#BSID_69_);}
	.bs73{fill:url(#BSID_70_);}
	.bs74{fill:url(#BSID_71_);}
	.bs75{fill:url(#BSID_72_);}
	.bs76{fill:url(#BSID_73_);}
	.bs77{fill:url(#BSID_74_);}
	.bs78{fill:url(#BSID_75_);}
	.bs79{fill:url(#BSID_76_);}
	.bs80{fill:url(#BSID_77_);}
	.bs81{fill:url(#BSID_78_);}
	.bs82{fill:url(#BSID_79_);}
	.bs83{fill:url(#BSID_80_);}
	.bs84{fill:url(#BSID_81_);}
	.bs85{fill:url(#BSID_82_);}
	.bs86{fill:url(#BSID_83_);}
	.bs87{fill:url(#BSID_84_);}
	.bs88{fill:url(#BSID_85_);}
	.bs89{fill:url(#BSID_86_);}
	.bs90{fill:url(#BSID_87_);}
	.bs91{fill:url(#BSID_88_);}
	.bs92{fill:url(#BSID_89_);}
	.bs93{fill:url(#BSID_90_);}
	.bs94{fill:url(#BSID_91_);}
	.bs95{fill:url(#BSID_92_);}
	.bs96{fill:url(#BSID_93_);}
	.bs97{fill:url(#BSID_94_);}
	.bs98{fill:url(#BSID_95_);}
	.bs99{fill:url(#BSID_96_);}
	.bs100{fill:url(#BSID_97_);}
	.bs101{fill:url(#BSID_98_);}
	.bs102{fill:url(#BSID_99_);}
	.bs103{fill:url(#BSID_100_);}
	.bs104{fill:url(#BSID_101_);}
	.bs105{fill:url(#BSID_102_);}
	.bs106{fill:url(#BSID_103_);}
	.bs107{fill:url(#BSID_104_);}
	.bs108{fill:url(#BSID_105_);}
	.bs109{fill:url(#BSID_106_);}
	.bs110{fill:url(#BSID_107_);}
	.bs111{fill:url(#BSID_108_);}
	.bs112{fill:url(#BSID_109_);}
	.bs113{fill:url(#BSID_110_);}
	.bs114{fill:url(#BSID_111_);}
	.bs115{fill:url(#BSID_112_);}
	.bs116{fill:url(#BSID_113_);}
	.bs117{fill:url(#BSID_114_);}
	.bs118{fill:url(#BSID_115_);}
	.bs119{fill:url(#BSID_116_);}
	.bs120{fill:url(#BSID_117_);}
	.bs121{fill:url(#BSID_118_);}
	.bs122{fill:url(#BSID_119_);}
	.bs123{fill:url(#BSID_120_);}
	.bs124{fill:url(#BSID_121_);}
	.bs125{fill:url(#BSID_122_);}
	.bs126{fill:url(#BSID_123_);}
	.bs127{fill:url(#BSID_124_);}
	.bs128{fill:url(#cloud-solid_1_);}
	.bs129{fill:#F3FAFF;}
	.bs130{fill:url(#red-cloud_1_);}
</style>
<g>
	<g>
		<g>
			<g>
				<g>
					<g>
						
							<linearGradient id="BSID_1_" gradientUnits="userSpaceOnUse" x1="-203.3757" y1="1079.7098" x2="-203.3757" y2="1050.7781" gradientTransform="matrix(0.866 0.5 0 1.1547 229.0156 -1095.481)">
							<stop  offset="0" style="stop-color:#2D0979"/>
							<stop  offset="1" style="stop-color:#5B04F7"/>
						</linearGradient>
						<path class="bs0" d="M59.4,53.3l-12.9-7.5c-0.5-0.3-0.9-1.1-0.9-1.7v-31c0-0.7,0.4-1,0.9-0.7l12.9,7.5
							c0.5,0.3,0.9,1.1,0.9,1.7v31C60.3,53.3,59.9,53.6,59.4,53.3z"/>
						<linearGradient id="BSID_2_" gradientUnits="userSpaceOnUse" x1="31.0519" y1="37.0878" x2="60.276" y2="37.0878">
							<stop  offset="0" style="stop-color:#E0363F"/>
							<stop  offset="1" style="stop-color:#720714"/>
						</linearGradient>
						<path class="bs1" d="M59.4,19.9l-12.9-7.5c-0.2-0.1-0.4-0.1-0.6-0.1l0,0l-14.8,8.5l0.7,2.6l13.5,38.4l14.7-8.5c0,0,0,0,0,0
							l0,0l0,0c0.2-0.1,0.3-0.4,0.3-0.7v-31C60.3,21,59.9,20.2,59.4,19.9z"/>
						<linearGradient id="BSID_3_" gradientUnits="userSpaceOnUse" x1="31.0519" y1="23.3773" x2="60.021" y2="23.3773">
							<stop  offset="0" style="stop-color:#E0636A"/>
							<stop  offset="0.9698" style="stop-color:#E0363F"/>
						</linearGradient>
						<path class="bs2" d="M59.4,19.9l-12.9-7.5c-0.2-0.1-0.4-0.1-0.6-0.1l0,0l-14.8,8.5l0.7,2.6L35.5,34l0.7,0.4L60,20.7
							C59.9,20.3,59.6,20.1,59.4,19.9z"/>
						<linearGradient id="BSID_4_" gradientUnits="userSpaceOnUse" x1="30.7408" y1="41.3873" x2="45.5084" y2="41.3873">
							<stop  offset="0.3039" style="stop-color:#E0363F"/>
							<stop  offset="1" style="stop-color:#AD2127"/>
						</linearGradient>
						<path class="bs3" d="M44.6,61.8l-12.9-7.5c-0.5-0.3-0.9-1.1-0.9-1.7v-31c0-0.7,0.4-1,0.9-0.7l12.9,7.5
							c0.5,0.3,0.9,1.1,0.9,1.7v31C45.5,61.8,45.1,62.1,44.6,61.8z"/>
						
							<linearGradient id="BSID_5_" gradientUnits="userSpaceOnUse" x1="-228.4581" y1="1081.7058" x2="-213.9196" y2="1078.4114" gradientTransform="matrix(0.866 0.5 0 1.1547 229.0156 -1095.481)">
							<stop  offset="0" style="stop-color:#3919BB"/>
							<stop  offset="1" style="stop-color:#6507FA"/>
						</linearGradient>
						<path class="bs4" d="M43.8,60l-11.3-6.5c-0.4-0.3-0.8-0.9-0.8-1.5V23.1c0-0.6,0.4-0.9,0.8-0.6l11.3,6.5
							c0.4,0.3,0.8,0.9,0.8,1.5v28.8C44.6,59.9,44.2,60.2,43.8,60z"/>
						
							<linearGradient id="BSID_6_" gradientUnits="userSpaceOnUse" x1="-228.4581" y1="1081.7058" x2="-213.9196" y2="1078.4114" gradientTransform="matrix(0.866 0.5 0 1.1547 229.0156 -1095.481)">
							<stop  offset="0" style="stop-color:#3919BB"/>
							<stop  offset="1" style="stop-color:#6507FA"/>
						</linearGradient>
						<path class="bs5" d="M43.8,60l-11.3-6.5c-0.4-0.3-0.8-0.9-0.8-1.5V23.1c0-0.6,0.4-0.9,0.8-0.6l11.3,6.5
							c0.4,0.3,0.8,0.9,0.8,1.5v28.8C44.6,59.9,44.2,60.2,43.8,60z"/>
						<linearGradient id="BSID_7_" gradientUnits="userSpaceOnUse" x1="31.6698" y1="41.2496" x2="44.5794" y2="41.2496">
							<stop  offset="0" style="stop-color:#E0363F"/>
							<stop  offset="0.2089" style="stop-color:#93171B"/>
							<stop  offset="0.5324" style="stop-color:#93171B"/>
							<stop  offset="1" style="stop-color:#720714"/>
						</linearGradient>
						<path class="bs6" d="M43.8,60l-11.3-6.5c-0.4-0.3-0.8-0.9-0.8-1.5V23.1c0-0.6,0.4-0.9,0.8-0.6l11.3,6.5
							c0.4,0.3,0.8,0.9,0.8,1.5v28.8C44.6,59.9,44.2,60.2,43.8,60z"/>
						<linearGradient id="BSID_8_" gradientUnits="userSpaceOnUse" x1="31.6698" y1="41.2495" x2="44.4651" y2="41.2495">
							<stop  offset="0" style="stop-color:#F1F1F2"/>
							<stop  offset="0.9698" style="stop-color:#E0363F"/>
						</linearGradient>
						<path class="bs7" d="M44.2,59.7l-11.3-6.5C32.4,53,32,52.3,32,51.7V22.9c0-0.2,0-0.4,0.1-0.5c-0.3,0-0.5,0.3-0.5,0.7v28.8
							c0,0.6,0.4,1.3,0.8,1.5L43.8,60c0.3,0.2,0.5,0.1,0.7-0.1C44.4,59.8,44.3,59.8,44.2,59.7z"/>
					</g>
				</g>
			</g>
			<g>
				<g>
					<linearGradient id="BSID_9_" gradientUnits="userSpaceOnUse" x1="32.8684" y1="49.6437" x2="44.5794" y2="49.6437">
						<stop  offset="0" style="stop-color:#E0363F"/>
						<stop  offset="0.2089" style="stop-color:#93171B"/>
						<stop  offset="0.5324" style="stop-color:#93171B"/>
						<stop  offset="1" style="stop-color:#720714"/>
					</linearGradient>
					<path class="bs8" d="M43.8,46.8l-4.2-2.4l-6.7,3.9L44.6,55v-6.7C44.6,47.7,44.2,47,43.8,46.8z"/>
					<linearGradient id="BSID_10_" gradientUnits="userSpaceOnUse" x1="32.8684" y1="43.7485" x2="44.5794" y2="43.7485">
						<stop  offset="0" style="stop-color:#E0363F"/>
						<stop  offset="0.2089" style="stop-color:#93171B"/>
						<stop  offset="0.5324" style="stop-color:#93171B"/>
						<stop  offset="1" style="stop-color:#720714"/>
					</linearGradient>
					<path class="bs9" d="M43.8,40.9l-4.2-2.4l-6.7,3.9l11.7,6.8v-6.7C44.6,41.8,44.2,41.1,43.8,40.9z"/>
					<linearGradient id="BSID_11_" gradientUnits="userSpaceOnUse" x1="32.8684" y1="37.8534" x2="44.5794" y2="37.8534">
						<stop  offset="0" style="stop-color:#E0363F"/>
						<stop  offset="0.2089" style="stop-color:#93171B"/>
						<stop  offset="0.5324" style="stop-color:#93171B"/>
						<stop  offset="1" style="stop-color:#720714"/>
					</linearGradient>
					<path class="bs10" d="M43.8,35l-4.2-2.4l-6.7,3.9l11.7,6.8v-6.7C44.6,35.9,44.2,35.2,43.8,35z"/>
					<linearGradient id="BSID_12_" gradientUnits="userSpaceOnUse" x1="32.8684" y1="31.9583" x2="44.5794" y2="31.9583">
						<stop  offset="0" style="stop-color:#E0363F"/>
						<stop  offset="0.2089" style="stop-color:#93171B"/>
						<stop  offset="0.5324" style="stop-color:#93171B"/>
						<stop  offset="1" style="stop-color:#720714"/>
					</linearGradient>
					<path class="bs11" d="M43.8,29.1l-4.2-2.4l-6.7,3.9l11.7,6.8v-6.7C44.6,30,44.2,29.3,43.8,29.1z"/>
					<linearGradient id="BSID_13_" gradientUnits="userSpaceOnUse" x1="32.8684" y1="27.5369" x2="44.5794" y2="27.5369">
						<stop  offset="0" style="stop-color:#E0363F"/>
						<stop  offset="0.2089" style="stop-color:#93171B"/>
						<stop  offset="0.5324" style="stop-color:#93171B"/>
						<stop  offset="1" style="stop-color:#720714"/>
					</linearGradient>
					<path class="bs12" d="M43.8,29.1l-9.3-5.4l-1.6,0.9l11.7,6.8v-0.8C44.6,30,44.2,29.3,43.8,29.1z"/>
				</g>
				<linearGradient id="BSID_14_" gradientUnits="userSpaceOnUse" x1="32.8684" y1="29.8626" x2="44.5794" y2="29.8626">
					<stop  offset="0.3039" style="stop-color:#E0363F"/>
					<stop  offset="1" style="stop-color:#AD2127"/>
				</linearGradient>
				<polygon class="bs13" points="44.6,31.4 32.9,24.6 32.9,28.3 44.6,35.1 				"/>
				<linearGradient id="BSID_15_" gradientUnits="userSpaceOnUse" x1="32.8684" y1="35.7577" x2="44.5794" y2="35.7577">
					<stop  offset="0.3039" style="stop-color:#E0363F"/>
					<stop  offset="1" style="stop-color:#AD2127"/>
				</linearGradient>
				<polygon class="bs14" points="44.6,37.3 32.9,30.5 32.9,34.2 44.6,41 				"/>
				<linearGradient id="BSID_16_" gradientUnits="userSpaceOnUse" x1="32.8684" y1="41.6528" x2="44.5794" y2="41.6528">
					<stop  offset="0.3039" style="stop-color:#E0363F"/>
					<stop  offset="1" style="stop-color:#AD2127"/>
				</linearGradient>
				<polygon class="bs15" points="44.6,43.2 32.9,36.4 32.9,40.1 44.6,46.9 				"/>
				<linearGradient id="BSID_17_" gradientUnits="userSpaceOnUse" x1="32.8684" y1="47.5479" x2="44.5794" y2="47.5479">
					<stop  offset="0.3039" style="stop-color:#E0363F"/>
					<stop  offset="1" style="stop-color:#AD2127"/>
				</linearGradient>
				<polygon class="bs16" points="44.6,49.1 32.9,42.3 32.9,46 44.6,52.8 				"/>
				<linearGradient id="BSID_18_" gradientUnits="userSpaceOnUse" x1="32.8684" y1="53.4431" x2="44.5794" y2="53.4431">
					<stop  offset="0.3039" style="stop-color:#E0363F"/>
					<stop  offset="1" style="stop-color:#AD2127"/>
				</linearGradient>
				<polygon class="bs17" points="44.6,55 32.9,48.2 32.9,51.9 44.6,58.7 				"/>
			</g>
			<g>
				<linearGradient id="BSID_19_" gradientUnits="userSpaceOnUse" x1="34.2749" y1="30.1319" x2="43.9976" y2="30.1319">
					<stop  offset="0" style="stop-color:#E0363F"/>
					<stop  offset="0.2089" style="stop-color:#93171B"/>
					<stop  offset="0.5324" style="stop-color:#93171B"/>
					<stop  offset="1" style="stop-color:#720714"/>
				</linearGradient>
				<path class="bs18" d="M43.5,33.8l-8.8-5.1c-0.2-0.1-0.5-0.5-0.5-0.9v-1c0-0.3,0.2-0.5,0.5-0.3l8.8,5.1c0.2,0.1,0.5,0.5,0.5,0.9
					v1C44,33.8,43.8,33.9,43.5,33.8z"/>
				<path class="bs19" d="M35.2,28.5c-0.2-0.1-0.5-0.5-0.5-0.9v-1c0-0.1,0-0.1,0-0.1l0,0c-0.2-0.1-0.5,0-0.5,0.3v1
					c0,0.3,0.2,0.7,0.5,0.9l8.8,5.1c0.2,0.1,0.4,0,0.4-0.2L35.2,28.5z"/>
				<path class="bs20" d="M40.8,31L35.5,28c-0.1-0.1-0.2-0.2-0.2-0.3v0c0-0.1,0.1-0.2,0.2-0.1l5.3,3.1c0.1,0.1,0.2,0.2,0.2,0.3l0,0
					C40.9,31,40.9,31.1,40.8,31z"/>
			</g>
			<g>
				<linearGradient id="BSID_20_" gradientUnits="userSpaceOnUse" x1="34.2749" y1="35.9907" x2="43.9976" y2="35.9907">
					<stop  offset="0" style="stop-color:#E0363F"/>
					<stop  offset="0.2089" style="stop-color:#93171B"/>
					<stop  offset="0.5324" style="stop-color:#93171B"/>
					<stop  offset="1" style="stop-color:#720714"/>
				</linearGradient>
				<path class="bs21" d="M43.5,39.6l-8.8-5.1c-0.2-0.1-0.5-0.5-0.5-0.9v-1c0-0.3,0.2-0.5,0.5-0.3l8.8,5.1c0.2,0.1,0.5,0.5,0.5,0.9
					v1C44,39.6,43.8,39.8,43.5,39.6z"/>
				<path class="bs19" d="M35.2,34.4c-0.2-0.1-0.5-0.5-0.5-0.9v-1c0-0.1,0-0.1,0-0.1l0,0c-0.2-0.1-0.5,0-0.5,0.3v1
					c0,0.3,0.2,0.7,0.5,0.9l8.8,5.1c0.2,0.1,0.4,0,0.4-0.2L35.2,34.4z"/>
				<path class="bs20" d="M40.8,36.9l-5.3-3.1c-0.1-0.1-0.2-0.2-0.2-0.3l0,0c0-0.1,0.1-0.2,0.2-0.1l5.3,3.1c0.1,0.1,0.2,0.2,0.2,0.3
					l0,0C40.9,36.9,40.9,37,40.8,36.9z"/>
			</g>
			<g>
				<linearGradient id="BSID_21_" gradientUnits="userSpaceOnUse" x1="34.2749" y1="41.904" x2="43.9976" y2="41.904">
					<stop  offset="0" style="stop-color:#E0363F"/>
					<stop  offset="0.2089" style="stop-color:#93171B"/>
					<stop  offset="0.5324" style="stop-color:#93171B"/>
					<stop  offset="1" style="stop-color:#720714"/>
				</linearGradient>
				<path class="bs22" d="M43.5,45.6l-8.8-5.1c-0.2-0.1-0.5-0.5-0.5-0.9v-1c0-0.3,0.2-0.5,0.5-0.3l8.8,5.1c0.2,0.1,0.5,0.5,0.5,0.9
					v1C44,45.5,43.8,45.7,43.5,45.6z"/>
				<path class="bs19" d="M35.2,40.3c-0.2-0.1-0.5-0.5-0.5-0.9v-1c0-0.1,0-0.1,0-0.1l0,0c-0.2-0.1-0.5,0-0.5,0.3v1
					c0,0.3,0.2,0.7,0.5,0.9l8.8,5.1c0.2,0.1,0.4,0,0.4-0.2L35.2,40.3z"/>
				<path class="bs23" d="M40.8,42.8l-5.3-3.1c-0.1-0.1-0.2-0.2-0.2-0.3l0,0c0-0.1,0.1-0.2,0.2-0.1l5.3,3.1c0.1,0.1,0.2,0.2,0.2,0.3
					l0,0C40.9,42.8,40.9,42.9,40.8,42.8z"/>
			</g>
			<g>
				<linearGradient id="BSID_22_" gradientUnits="userSpaceOnUse" x1="34.2749" y1="47.8719" x2="43.9976" y2="47.8719">
					<stop  offset="0" style="stop-color:#E0363F"/>
					<stop  offset="0.2089" style="stop-color:#93171B"/>
					<stop  offset="0.5324" style="stop-color:#93171B"/>
					<stop  offset="1" style="stop-color:#720714"/>
				</linearGradient>
				<path class="bs24" d="M43.5,51.5l-8.8-5.1c-0.2-0.1-0.5-0.5-0.5-0.9v-1c0-0.3,0.2-0.5,0.5-0.3l8.8,5.1c0.2,0.1,0.5,0.5,0.5,0.9
					v1C44,51.5,43.8,51.7,43.5,51.5z"/>
				<path class="bs19" d="M35.2,46.2c-0.2-0.1-0.5-0.5-0.5-0.9v-1c0-0.1,0-0.1,0-0.1l0,0c-0.2-0.1-0.5,0-0.5,0.3v1
					c0,0.3,0.2,0.7,0.5,0.9l8.8,5.1c0.2,0.1,0.4,0,0.4-0.2L35.2,46.2z"/>
				<path class="bs25" d="M40.8,48.8l-5.3-3.1c-0.1-0.1-0.2-0.2-0.2-0.3l0,0c0-0.1,0.1-0.2,0.2-0.1l5.3,3.1c0.1,0.1,0.2,0.2,0.2,0.3
					l0,0C40.9,48.8,40.9,48.8,40.8,48.8z"/>
			</g>
			<g>
				<linearGradient id="BSID_23_" gradientUnits="userSpaceOnUse" x1="34.2749" y1="53.7215" x2="43.9976" y2="53.7215">
					<stop  offset="0" style="stop-color:#E0363F"/>
					<stop  offset="0.2089" style="stop-color:#93171B"/>
					<stop  offset="0.5324" style="stop-color:#93171B"/>
					<stop  offset="1" style="stop-color:#720714"/>
				</linearGradient>
				<path class="bs26" d="M43.5,57.4l-8.8-5.1c-0.2-0.1-0.5-0.5-0.5-0.9v-1c0-0.3,0.2-0.5,0.5-0.3l8.8,5.1c0.2,0.1,0.5,0.5,0.5,0.9
					v1C44,57.4,43.8,57.5,43.5,57.4z"/>
				<path class="bs19" d="M35.2,52.1c-0.2-0.1-0.5-0.5-0.5-0.9v-1c0-0.1,0-0.1,0-0.1l0,0c-0.2-0.1-0.5,0-0.5,0.3v1
					c0,0.3,0.2,0.7,0.5,0.9l8.8,5.1c0.2,0.1,0.4,0,0.4-0.2L35.2,52.1z"/>
				<path class="bs23" d="M40.8,54.6l-5.3-3.1c-0.1-0.1-0.2-0.2-0.2-0.3l0,0c0-0.1,0.1-0.2,0.2-0.1l5.3,3.1c0.1,0.1,0.2,0.2,0.2,0.3
					l0,0C40.9,54.6,40.9,54.7,40.8,54.6z"/>
			</g>
			<linearGradient id="BSID_24_" gradientUnits="userSpaceOnUse" x1="32.8684" y1="26.7481" x2="33.7906" y2="26.7481">
				<stop  offset="0" style="stop-color:#E0363F"/>
				<stop  offset="0.2089" style="stop-color:#93171B"/>
				<stop  offset="0.5324" style="stop-color:#93171B"/>
				<stop  offset="1" style="stop-color:#720714"/>
			</linearGradient>
			<polygon class="bs27" points="32.9,24.6 33.8,25.2 33.8,28.9 32.9,28.3 			"/>
			<linearGradient id="BSID_25_" gradientUnits="userSpaceOnUse" x1="32.8684" y1="32.6433" x2="33.7906" y2="32.6433">
				<stop  offset="0" style="stop-color:#E0363F"/>
				<stop  offset="0.2089" style="stop-color:#93171B"/>
				<stop  offset="0.5324" style="stop-color:#93171B"/>
				<stop  offset="1" style="stop-color:#720714"/>
			</linearGradient>
			<polygon class="bs28" points="32.9,30.5 33.8,31 33.8,34.8 32.9,34.2 			"/>
			<linearGradient id="BSID_26_" gradientUnits="userSpaceOnUse" x1="32.8684" y1="38.5384" x2="33.7906" y2="38.5384">
				<stop  offset="0" style="stop-color:#E0363F"/>
				<stop  offset="0.2089" style="stop-color:#93171B"/>
				<stop  offset="0.5324" style="stop-color:#93171B"/>
				<stop  offset="1" style="stop-color:#720714"/>
			</linearGradient>
			<polygon class="bs29" points="32.9,36.4 33.8,36.9 33.8,40.7 32.9,40.1 			"/>
			<linearGradient id="BSID_27_" gradientUnits="userSpaceOnUse" x1="32.8684" y1="44.4335" x2="33.7906" y2="44.4335">
				<stop  offset="0" style="stop-color:#E0363F"/>
				<stop  offset="0.2089" style="stop-color:#93171B"/>
				<stop  offset="0.5324" style="stop-color:#93171B"/>
				<stop  offset="1" style="stop-color:#720714"/>
			</linearGradient>
			<polygon class="bs30" points="32.9,42.3 33.8,42.8 33.8,46.6 32.9,46 			"/>
			<linearGradient id="BSID_28_" gradientUnits="userSpaceOnUse" x1="32.8684" y1="50.3286" x2="33.7906" y2="50.3286">
				<stop  offset="0" style="stop-color:#E0363F"/>
				<stop  offset="0.2089" style="stop-color:#93171B"/>
				<stop  offset="0.5324" style="stop-color:#93171B"/>
				<stop  offset="1" style="stop-color:#720714"/>
			</linearGradient>
			<polygon class="bs31" points="32.9,48.2 33.8,48.7 33.8,52.5 32.9,51.9 			"/>
		</g>
		<path class="bs23" d="M41.8,31.4c0,0.1-0.1,0.2-0.2,0.1c-0.1-0.1-0.2-0.2-0.2-0.3c0-0.1,0.1-0.2,0.2-0.1
			C41.7,31.1,41.8,31.3,41.8,31.4z"/>
		<path class="bs25" d="M42.6,31.9c0,0.1-0.1,0.2-0.2,0.1c-0.1-0.1-0.2-0.2-0.2-0.3c0-0.1,0.1-0.2,0.2-0.1
			C42.5,31.6,42.6,31.7,42.6,31.9z"/>
		<path class="bs23" d="M43.4,32.3c0,0.1-0.1,0.2-0.2,0.1c-0.1-0.1-0.2-0.2-0.2-0.3c0-0.1,0.1-0.2,0.2-0.1
			C43.3,32.1,43.4,32.2,43.4,32.3z"/>
		<path class="bs25" d="M41.8,37.3c0,0.1-0.1,0.2-0.2,0.1c-0.1-0.1-0.2-0.2-0.2-0.3c0-0.1,0.1-0.2,0.2-0.1
			C41.7,37,41.8,37.2,41.8,37.3z"/>
		<path class="bs23" d="M42.6,37.8c0,0.1-0.1,0.2-0.2,0.1c-0.1-0.1-0.2-0.2-0.2-0.3c0-0.1,0.1-0.2,0.2-0.1
			C42.5,37.5,42.6,37.6,42.6,37.8z"/>
		<path class="bs20" d="M43.4,38.2c0,0.1-0.1,0.2-0.2,0.1C43.1,38.3,43,38.1,43,38c0-0.1,0.1-0.2,0.2-0.1
			C43.3,38,43.4,38.1,43.4,38.2z"/>
		<path class="bs20" d="M41.8,43.2c0,0.1-0.1,0.2-0.2,0.1c-0.1-0.1-0.2-0.2-0.2-0.3c0-0.1,0.1-0.2,0.2-0.1
			C41.7,43,41.8,43.1,41.8,43.2z"/>
		<path class="bs25" d="M42.6,43.7c0,0.1-0.1,0.2-0.2,0.1c-0.1-0.1-0.2-0.2-0.2-0.3c0-0.1,0.1-0.2,0.2-0.1
			C42.5,43.4,42.6,43.6,42.6,43.7z"/>
		<path class="bs20" d="M43.4,44.2c0,0.1-0.1,0.2-0.2,0.1c-0.1-0.1-0.2-0.2-0.2-0.3s0.1-0.2,0.2-0.1C43.3,43.9,43.4,44,43.4,44.2z"
			/>
		<path class="bs20" d="M41.8,49.1c0,0.1-0.1,0.2-0.2,0.1c-0.1-0.1-0.2-0.2-0.2-0.3c0-0.1,0.1-0.2,0.2-0.1
			C41.7,48.8,41.8,49,41.8,49.1z"/>
		<path class="bs23" d="M42.6,49.5c0,0.1-0.1,0.2-0.2,0.1c-0.1-0.1-0.2-0.2-0.2-0.3c0-0.1,0.1-0.2,0.2-0.1
			C42.5,49.3,42.6,49.4,42.6,49.5z"/>
		<path class="bs23" d="M43.4,50c0,0.1-0.1,0.2-0.2,0.1c-0.1-0.1-0.2-0.2-0.2-0.3c0-0.1,0.1-0.2,0.2-0.1
			C43.3,49.7,43.4,49.9,43.4,50z"/>
		<path class="bs20" d="M41.8,55c0,0.1-0.1,0.2-0.2,0.1c-0.1-0.1-0.2-0.2-0.2-0.3c0-0.1,0.1-0.2,0.2-0.1
			C41.7,54.8,41.8,54.9,41.8,55z"/>
		<path class="bs25" d="M42.6,55.5c0,0.1-0.1,0.2-0.2,0.1c-0.1-0.1-0.2-0.2-0.2-0.3c0-0.1,0.1-0.2,0.2-0.1
			C42.5,55.2,42.6,55.4,42.6,55.5z"/>
		<path class="bs23" d="M43.4,55.9c0,0.1-0.1,0.2-0.2,0.1C43.1,56,43,55.8,43,55.7c0-0.1,0.1-0.2,0.2-0.1
			C43.3,55.7,43.4,55.8,43.4,55.9z"/>
		<g>
			<linearGradient id="BSID_29_" gradientUnits="userSpaceOnUse" x1="47.4581" y1="41.2541" x2="58.5364" y2="41.2541">
				<stop  offset="0" style="stop-color:#FFFFFF"/>
				<stop  offset="1" style="stop-color:#C2C7D7"/>
			</linearGradient>
			<path class="bs32" d="M47.5,57.6V31.3l0.1,0l11-6.4v26.4l-0.1,0L47.5,57.6z M47.7,31.4v25.9l10.6-6.1V25.2L47.7,31.4z"/>
		</g>
		<g>
			<linearGradient id="BSID_30_" gradientUnits="userSpaceOnUse" x1="50.1287" y1="35.9905" x2="56.274" y2="35.9905">
				<stop  offset="0" style="stop-color:#E0363F"/>
				<stop  offset="0.2089" style="stop-color:#93171B"/>
				<stop  offset="0.5324" style="stop-color:#93171B"/>
				<stop  offset="1" style="stop-color:#720714"/>
			</linearGradient>
			<path class="bs33" d="M55.7,36.7l-4.9,2.9c-0.3,0.2-0.6,0-0.6-0.5v-2.7c0-0.4,0.3-1,0.6-1.1l4.9-2.9c0.3-0.2,0.6,0,0.6,0.5v2.7
				C56.3,36,56,36.5,55.7,36.7z"/>
			<linearGradient id="BSID_31_" gradientUnits="userSpaceOnUse" x1="50.1733" y1="35.9904" x2="56.2739" y2="35.9904">
				<stop  offset="0.3039" style="stop-color:#E0363F"/>
				<stop  offset="1" style="stop-color:#AD2127"/>
			</linearGradient>
			<path class="bs34" d="M55.8,32.3c0,0.1,0,0.2,0,0.3v2.7c0,0.4-0.3,1-0.6,1.1l-4.9,2.9c0,0-0.1,0-0.1,0.1c0.1,0.2,0.3,0.3,0.6,0.2
				l4.9-2.9c0.3-0.2,0.6-0.7,0.6-1.1v-2.7C56.3,32.5,56.1,32.3,55.8,32.3z"/>
			<g>
				<g>
					<path class="bs20" d="M54.8,35.1c0.1-0.1,0.2,0,0.2,0.1v0.6c0,0.1-0.1,0.2-0.2,0.3c-0.1,0.1-0.2,0-0.2-0.1v-0.6
						C54.6,35.3,54.7,35.1,54.8,35.1z"/>
					<path class="bs23" d="M54.1,35.6c0.1-0.1,0.2,0,0.2,0.1v0.5c0,0.1-0.1,0.2-0.2,0.3c-0.1,0.1-0.2,0-0.2-0.1v-0.5
						C53.9,35.8,54,35.6,54.1,35.6z"/>
					<path class="bs25" d="M53.4,35.4c0.1-0.1,0.2,0,0.2,0.1v1.2c0,0.1-0.1,0.2-0.2,0.3c-0.1,0.1-0.2,0-0.2-0.1v-1.2
						C53.2,35.6,53.3,35.4,53.4,35.4z"/>
					<path class="bs23" d="M52.6,35.1c0.1-0.1,0.2,0,0.2,0.1V37c0,0.1-0.1,0.2-0.2,0.3c-0.1,0.1-0.2,0-0.2-0.1v-1.8
						C52.5,35.3,52.6,35.2,52.6,35.1z"/>
					<path class="bs23" d="M51.9,35.7c0.1-0.1,0.2,0,0.2,0.1v1.6c0,0.1-0.1,0.2-0.2,0.3c-0.1,0.1-0.2,0-0.2-0.1V36
						C51.8,35.9,51.8,35.8,51.9,35.7z"/>
					<path class="bs20" d="M51.2,36.9c0.1-0.1,0.2,0,0.2,0.1v0.9c0,0.1-0.1,0.2-0.2,0.3s-0.2,0-0.2-0.1v-0.9
						C51.1,37.1,51.1,36.9,51.2,36.9z"/>
				</g>
				<path class="bs25" d="M54.6,34.8c0,0.1,0.1,0.1,0.2,0.1c0.1-0.1,0.2-0.2,0.2-0.3c0-0.1-0.1-0.1-0.2-0.1
					C54.7,34.5,54.6,34.7,54.6,34.8z"/>
				<path class="bs20" d="M54.6,34.2c0,0.1,0.1,0.1,0.2,0.1c0.1-0.1,0.2-0.2,0.2-0.3c0-0.1-0.1-0.1-0.2-0.1
					C54.7,34,54.6,34.1,54.6,34.2z"/>
			</g>
		</g>
	</g>
	<g>
		<g>
			<g>
				<g>
					<g>
						
							<linearGradient id="BSID_32_" gradientUnits="userSpaceOnUse" x1="-227.7851" y1="1100.0828" x2="-227.7851" y2="1071.151" gradientTransform="matrix(0.866 0.5 0 1.1547 229.0156 -1095.481)">
							<stop  offset="0" style="stop-color:#2D0979"/>
							<stop  offset="1" style="stop-color:#5B04F7"/>
						</linearGradient>
						<path class="bs35" d="M38.2,64.6l-12.9-7.5c-0.5-0.3-0.9-1.1-0.9-1.7v-31c0-0.7,0.4-1,0.9-0.7l12.9,7.5
							c0.5,0.3,0.9,1.1,0.9,1.7v31C39.1,64.6,38.7,64.9,38.2,64.6z"/>
						<linearGradient id="BSID_33_" gradientUnits="userSpaceOnUse" x1="9.9133" y1="48.4076" x2="39.1375" y2="48.4076">
							<stop  offset="0" style="stop-color:#E0363F"/>
							<stop  offset="1" style="stop-color:#720714"/>
						</linearGradient>
						<path class="bs36" d="M38.2,31.2l-12.9-7.5c-0.2-0.1-0.4-0.1-0.6-0.1l0,0L9.9,32.2l0.7,2.6l13.5,38.4l14.7-8.5c0,0,0,0,0,0
							l0,0l0,0c0.2-0.1,0.3-0.4,0.3-0.7V33C39.1,32.3,38.7,31.5,38.2,31.2z"/>
						<linearGradient id="BSID_34_" gradientUnits="userSpaceOnUse" x1="9.9133" y1="34.6971" x2="38.8825" y2="34.6971">
							<stop  offset="0" style="stop-color:#E0636A"/>
							<stop  offset="0.9698" style="stop-color:#E0363F"/>
						</linearGradient>
						<path class="bs37" d="M38.2,31.2l-12.9-7.5c-0.2-0.1-0.4-0.1-0.6-0.1l0,0L9.9,32.2l0.7,2.6l3.7,10.6l0.7,0.4L38.9,32
							C38.7,31.6,38.5,31.4,38.2,31.2z"/>
						<linearGradient id="BSID_35_" gradientUnits="userSpaceOnUse" x1="9.6023" y1="52.7072" x2="24.3699" y2="52.7072">
							<stop  offset="0.3039" style="stop-color:#E0363F"/>
							<stop  offset="1" style="stop-color:#AD2127"/>
						</linearGradient>
						<path class="bs38" d="M23.5,73.1l-12.9-7.5c-0.5-0.3-0.9-1.1-0.9-1.7V33c0-0.7,0.4-1,0.9-0.7l12.9,7.5
							c0.5,0.3,0.9,1.1,0.9,1.7v31C24.4,73.1,24,73.4,23.5,73.1z"/>
						
							<linearGradient id="BSID_36_" gradientUnits="userSpaceOnUse" x1="-252.8674" y1="1102.0787" x2="-238.329" y2="1098.7843" gradientTransform="matrix(0.866 0.5 0 1.1547 229.0156 -1095.481)">
							<stop  offset="0" style="stop-color:#3919BB"/>
							<stop  offset="1" style="stop-color:#6507FA"/>
						</linearGradient>
						<path class="bs39" d="M22.6,71.3l-11.3-6.5c-0.4-0.3-0.8-0.9-0.8-1.5V34.5c0-0.6,0.4-0.9,0.8-0.6l11.3,6.5
							c0.4,0.3,0.8,0.9,0.8,1.5v28.8C23.4,71.3,23.1,71.5,22.6,71.3z"/>
						
							<linearGradient id="BSID_37_" gradientUnits="userSpaceOnUse" x1="-252.8674" y1="1102.0787" x2="-238.329" y2="1098.7843" gradientTransform="matrix(0.866 0.5 0 1.1547 229.0156 -1095.481)">
							<stop  offset="0" style="stop-color:#3919BB"/>
							<stop  offset="1" style="stop-color:#6507FA"/>
						</linearGradient>
						<path class="bs40" d="M22.6,71.3l-11.3-6.5c-0.4-0.3-0.8-0.9-0.8-1.5V34.5c0-0.6,0.4-0.9,0.8-0.6l11.3,6.5
							c0.4,0.3,0.8,0.9,0.8,1.5v28.8C23.4,71.3,23.1,71.5,22.6,71.3z"/>
						<linearGradient id="BSID_38_" gradientUnits="userSpaceOnUse" x1="10.5313" y1="52.5694" x2="23.4409" y2="52.5694">
							<stop  offset="0" style="stop-color:#E0363F"/>
							<stop  offset="0.2089" style="stop-color:#93171B"/>
							<stop  offset="0.5324" style="stop-color:#93171B"/>
							<stop  offset="1" style="stop-color:#720714"/>
						</linearGradient>
						<path class="bs41" d="M22.6,71.3l-11.3-6.5c-0.4-0.3-0.8-0.9-0.8-1.5V34.5c0-0.6,0.4-0.9,0.8-0.6l11.3,6.5
							c0.4,0.3,0.8,0.9,0.8,1.5v28.8C23.4,71.3,23.1,71.5,22.6,71.3z"/>
						<linearGradient id="BSID_39_" gradientUnits="userSpaceOnUse" x1="10.5313" y1="52.5693" x2="23.3266" y2="52.5693">
							<stop  offset="0" style="stop-color:#F1F1F2"/>
							<stop  offset="0.9698" style="stop-color:#E0363F"/>
						</linearGradient>
						<path class="bs42" d="M23,71.1l-11.3-6.5c-0.4-0.3-0.8-0.9-0.8-1.5V34.2c0-0.2,0-0.4,0.1-0.5c-0.3,0-0.5,0.3-0.5,0.7v28.8
							c0,0.6,0.4,1.3,0.8,1.5l11.3,6.5c0.3,0.2,0.5,0.1,0.7-0.1C23.2,71.2,23.1,71.1,23,71.1z"/>
					</g>
				</g>
			</g>
			<g>
				<g>
					<linearGradient id="BSID_40_" gradientUnits="userSpaceOnUse" x1="11.7299" y1="60.9635" x2="23.4409" y2="60.9635">
						<stop  offset="0" style="stop-color:#E0363F"/>
						<stop  offset="0.2089" style="stop-color:#93171B"/>
						<stop  offset="0.5324" style="stop-color:#93171B"/>
						<stop  offset="1" style="stop-color:#720714"/>
					</linearGradient>
					<path class="bs43" d="M22.6,58.1l-4.2-2.4l-6.7,3.9l11.7,6.8v-6.7C23.4,59,23.1,58.3,22.6,58.1z"/>
					<linearGradient id="BSID_41_" gradientUnits="userSpaceOnUse" x1="11.7299" y1="55.0684" x2="23.4409" y2="55.0684">
						<stop  offset="0" style="stop-color:#E0363F"/>
						<stop  offset="0.2089" style="stop-color:#93171B"/>
						<stop  offset="0.5324" style="stop-color:#93171B"/>
						<stop  offset="1" style="stop-color:#720714"/>
					</linearGradient>
					<path class="bs44" d="M22.6,52.2l-4.2-2.4l-6.7,3.9l11.7,6.8v-6.7C23.4,53.1,23.1,52.4,22.6,52.2z"/>
					<linearGradient id="BSID_42_" gradientUnits="userSpaceOnUse" x1="11.7299" y1="49.1733" x2="23.4409" y2="49.1733">
						<stop  offset="0" style="stop-color:#E0363F"/>
						<stop  offset="0.2089" style="stop-color:#93171B"/>
						<stop  offset="0.5324" style="stop-color:#93171B"/>
						<stop  offset="1" style="stop-color:#720714"/>
					</linearGradient>
					<path class="bs45" d="M22.6,46.3l-4.2-2.4l-6.7,3.9l11.7,6.8v-6.7C23.4,47.2,23.1,46.5,22.6,46.3z"/>
					<linearGradient id="BSID_43_" gradientUnits="userSpaceOnUse" x1="11.7299" y1="43.2782" x2="23.4409" y2="43.2782">
						<stop  offset="0" style="stop-color:#E0363F"/>
						<stop  offset="0.2089" style="stop-color:#93171B"/>
						<stop  offset="0.5324" style="stop-color:#93171B"/>
						<stop  offset="1" style="stop-color:#720714"/>
					</linearGradient>
					<path class="bs46" d="M22.6,40.4L18.4,38l-6.7,3.9l11.7,6.8v-6.7C23.4,41.3,23.1,40.6,22.6,40.4z"/>
					<linearGradient id="BSID_44_" gradientUnits="userSpaceOnUse" x1="11.7299" y1="38.8567" x2="23.4409" y2="38.8567">
						<stop  offset="0" style="stop-color:#E0363F"/>
						<stop  offset="0.2089" style="stop-color:#93171B"/>
						<stop  offset="0.5324" style="stop-color:#93171B"/>
						<stop  offset="1" style="stop-color:#720714"/>
					</linearGradient>
					<path class="bs47" d="M22.6,40.4L13.3,35l-1.6,0.9l11.7,6.8v-0.8C23.4,41.3,23.1,40.6,22.6,40.4z"/>
				</g>
				<linearGradient id="BSID_45_" gradientUnits="userSpaceOnUse" x1="11.7299" y1="41.1825" x2="23.4409" y2="41.1825">
					<stop  offset="0.3039" style="stop-color:#E0363F"/>
					<stop  offset="1" style="stop-color:#AD2127"/>
				</linearGradient>
				<polygon class="bs48" points="23.4,42.7 11.7,35.9 11.7,39.7 23.4,46.4 				"/>
				<linearGradient id="BSID_46_" gradientUnits="userSpaceOnUse" x1="11.7299" y1="47.0776" x2="23.4409" y2="47.0776">
					<stop  offset="0.3039" style="stop-color:#E0363F"/>
					<stop  offset="1" style="stop-color:#AD2127"/>
				</linearGradient>
				<polygon class="bs49" points="23.4,48.6 11.7,41.8 11.7,45.6 23.4,52.3 				"/>
				<linearGradient id="BSID_47_" gradientUnits="userSpaceOnUse" x1="11.7299" y1="52.9727" x2="23.4409" y2="52.9727">
					<stop  offset="0.3039" style="stop-color:#E0363F"/>
					<stop  offset="1" style="stop-color:#AD2127"/>
				</linearGradient>
				<polygon class="bs50" points="23.4,54.5 11.7,47.7 11.7,51.5 23.4,58.2 				"/>
				<linearGradient id="BSID_48_" gradientUnits="userSpaceOnUse" x1="11.7299" y1="58.8678" x2="23.4409" y2="58.8678">
					<stop  offset="0.3039" style="stop-color:#E0363F"/>
					<stop  offset="1" style="stop-color:#AD2127"/>
				</linearGradient>
				<polygon class="bs51" points="23.4,60.4 11.7,53.6 11.7,57.4 23.4,64.1 				"/>
				<linearGradient id="BSID_49_" gradientUnits="userSpaceOnUse" x1="11.7299" y1="64.7629" x2="23.4409" y2="64.7629">
					<stop  offset="0.3039" style="stop-color:#E0363F"/>
					<stop  offset="1" style="stop-color:#AD2127"/>
				</linearGradient>
				<polygon class="bs52" points="23.4,66.3 11.7,59.5 11.7,63.2 23.4,70 				"/>
			</g>
			<g>
				<linearGradient id="BSID_50_" gradientUnits="userSpaceOnUse" x1="13.1363" y1="41.4518" x2="22.859" y2="41.4518">
					<stop  offset="0" style="stop-color:#E0363F"/>
					<stop  offset="0.2089" style="stop-color:#93171B"/>
					<stop  offset="0.5324" style="stop-color:#93171B"/>
					<stop  offset="1" style="stop-color:#720714"/>
				</linearGradient>
				<path class="bs53" d="M22.4,45.1L13.6,40c-0.2-0.1-0.5-0.5-0.5-0.9v-1c0-0.3,0.2-0.5,0.5-0.3l8.8,5.1c0.2,0.1,0.5,0.5,0.5,0.9v1
					C22.9,45.1,22.7,45.2,22.4,45.1z"/>
				<path class="bs19" d="M14,39.8c-0.2-0.1-0.5-0.5-0.5-0.9v-1c0-0.1,0-0.1,0-0.1l0,0c-0.2-0.1-0.5,0-0.5,0.3v1
					c0,0.3,0.2,0.7,0.5,0.9l8.8,5.1c0.2,0.1,0.4,0,0.4-0.2L14,39.8z"/>
				<path class="bs20" d="M19.6,42.4l-5.3-3.1c-0.1-0.1-0.2-0.2-0.2-0.3l0,0c0-0.1,0.1-0.2,0.2-0.1l5.3,3.1c0.1,0.1,0.2,0.2,0.2,0.3
					l0,0C19.8,42.4,19.7,42.4,19.6,42.4z"/>
			</g>
			<g>
				<linearGradient id="BSID_51_" gradientUnits="userSpaceOnUse" x1="13.1363" y1="47.3105" x2="22.859" y2="47.3105">
					<stop  offset="0" style="stop-color:#E0363F"/>
					<stop  offset="0.2089" style="stop-color:#93171B"/>
					<stop  offset="0.5324" style="stop-color:#93171B"/>
					<stop  offset="1" style="stop-color:#720714"/>
				</linearGradient>
				<path class="bs54" d="M22.4,51l-8.8-5.1c-0.2-0.1-0.5-0.5-0.5-0.9v-1c0-0.3,0.2-0.5,0.5-0.3l8.8,5.1c0.2,0.1,0.5,0.5,0.5,0.9v1
					C22.9,50.9,22.7,51.1,22.4,51z"/>
				<path class="bs19" d="M14,45.7c-0.2-0.1-0.5-0.5-0.5-0.9v-1c0-0.1,0-0.1,0-0.1l0,0c-0.2-0.1-0.5,0-0.5,0.3v1
					c0,0.3,0.2,0.7,0.5,0.9l8.8,5.1c0.2,0.1,0.4,0,0.4-0.2L14,45.7z"/>
				<path class="bs20" d="M19.6,48.2l-5.3-3.1c-0.1-0.1-0.2-0.2-0.2-0.3l0,0c0-0.1,0.1-0.2,0.2-0.1l5.3,3.1c0.1,0.1,0.2,0.2,0.2,0.3
					l0,0C19.8,48.2,19.7,48.3,19.6,48.2z"/>
			</g>
			<g>
				<linearGradient id="BSID_52_" gradientUnits="userSpaceOnUse" x1="13.1363" y1="53.2239" x2="22.859" y2="53.2239">
					<stop  offset="0" style="stop-color:#E0363F"/>
					<stop  offset="0.2089" style="stop-color:#93171B"/>
					<stop  offset="0.5324" style="stop-color:#93171B"/>
					<stop  offset="1" style="stop-color:#720714"/>
				</linearGradient>
				<path class="bs55" d="M22.4,56.9l-8.8-5.1c-0.2-0.1-0.5-0.5-0.5-0.9v-1c0-0.3,0.2-0.5,0.5-0.3l8.8,5.1c0.2,0.1,0.5,0.5,0.5,0.9
					v1C22.9,56.9,22.7,57,22.4,56.9z"/>
				<path class="bs19" d="M14,51.6c-0.2-0.1-0.5-0.5-0.5-0.9v-1c0-0.1,0-0.1,0-0.1l0,0c-0.2-0.1-0.5,0-0.5,0.3v1
					c0,0.3,0.2,0.7,0.5,0.9l8.8,5.1c0.2,0.1,0.4,0,0.4-0.2L14,51.6z"/>
				<path class="bs23" d="M19.6,54.1l-5.3-3.1c-0.1-0.1-0.2-0.2-0.2-0.3l0,0c0-0.1,0.1-0.2,0.2-0.1l5.3,3.1c0.1,0.1,0.2,0.2,0.2,0.3
					l0,0C19.8,54.1,19.7,54.2,19.6,54.1z"/>
			</g>
			<g>
				<linearGradient id="BSID_53_" gradientUnits="userSpaceOnUse" x1="13.1363" y1="59.1917" x2="22.859" y2="59.1917">
					<stop  offset="0" style="stop-color:#E0363F"/>
					<stop  offset="0.2089" style="stop-color:#93171B"/>
					<stop  offset="0.5324" style="stop-color:#93171B"/>
					<stop  offset="1" style="stop-color:#720714"/>
				</linearGradient>
				<path class="bs56" d="M22.4,62.8l-8.8-5.1c-0.2-0.1-0.5-0.5-0.5-0.9v-1c0-0.3,0.2-0.5,0.5-0.3l8.8,5.1c0.2,0.1,0.5,0.5,0.5,0.9
					v1C22.9,62.8,22.7,63,22.4,62.8z"/>
				<path class="bs19" d="M14,57.6c-0.2-0.1-0.5-0.5-0.5-0.9v-1c0-0.1,0-0.1,0-0.1l0,0c-0.2-0.1-0.5,0-0.5,0.3v1
					c0,0.3,0.2,0.7,0.5,0.9l8.8,5.1c0.2,0.1,0.4,0,0.4-0.2L14,57.6z"/>
				<path class="bs25" d="M19.6,60.1L14.3,57c-0.1-0.1-0.2-0.2-0.2-0.3l0,0c0-0.1,0.1-0.2,0.2-0.1l5.3,3.1c0.1,0.1,0.2,0.2,0.2,0.3
					l0,0C19.8,60.1,19.7,60.2,19.6,60.1z"/>
			</g>
			<g>
				<linearGradient id="BSID_54_" gradientUnits="userSpaceOnUse" x1="13.1363" y1="65.0414" x2="22.859" y2="65.0414">
					<stop  offset="0" style="stop-color:#E0363F"/>
					<stop  offset="0.2089" style="stop-color:#93171B"/>
					<stop  offset="0.5324" style="stop-color:#93171B"/>
					<stop  offset="1" style="stop-color:#720714"/>
				</linearGradient>
				<path class="bs57" d="M22.4,68.7l-8.8-5.1c-0.2-0.1-0.5-0.5-0.5-0.9v-1c0-0.3,0.2-0.5,0.5-0.3l8.8,5.1c0.2,0.1,0.5,0.5,0.5,0.9
					v1C22.9,68.7,22.7,68.8,22.4,68.7z"/>
				<path class="bs19" d="M14,63.4c-0.2-0.1-0.5-0.5-0.5-0.9v-1c0-0.1,0-0.1,0-0.1l0,0c-0.2-0.1-0.5,0-0.5,0.3v1
					c0,0.3,0.2,0.7,0.5,0.9l8.8,5.1c0.2,0.1,0.4,0,0.4-0.2L14,63.4z"/>
				<path class="bs23" d="M19.6,66l-5.3-3.1c-0.1-0.1-0.2-0.2-0.2-0.3l0,0c0-0.1,0.1-0.2,0.2-0.1l5.3,3.1c0.1,0.1,0.2,0.2,0.2,0.3
					l0,0C19.8,65.9,19.7,66,19.6,66z"/>
			</g>
			<linearGradient id="BSID_55_" gradientUnits="userSpaceOnUse" x1="11.7299" y1="38.068" x2="12.6521" y2="38.068">
				<stop  offset="0" style="stop-color:#E0363F"/>
				<stop  offset="0.2089" style="stop-color:#93171B"/>
				<stop  offset="0.5324" style="stop-color:#93171B"/>
				<stop  offset="1" style="stop-color:#720714"/>
			</linearGradient>
			<polygon class="bs58" points="11.7,35.9 12.7,36.5 12.7,40.2 11.7,39.7 			"/>
			<linearGradient id="BSID_56_" gradientUnits="userSpaceOnUse" x1="11.7299" y1="43.9631" x2="12.6521" y2="43.9631">
				<stop  offset="0" style="stop-color:#E0363F"/>
				<stop  offset="0.2089" style="stop-color:#93171B"/>
				<stop  offset="0.5324" style="stop-color:#93171B"/>
				<stop  offset="1" style="stop-color:#720714"/>
			</linearGradient>
			<polygon class="bs59" points="11.7,41.8 12.7,42.4 12.7,46.1 11.7,45.6 			"/>
			<linearGradient id="BSID_57_" gradientUnits="userSpaceOnUse" x1="11.7299" y1="49.8582" x2="12.6521" y2="49.8582">
				<stop  offset="0" style="stop-color:#E0363F"/>
				<stop  offset="0.2089" style="stop-color:#93171B"/>
				<stop  offset="0.5324" style="stop-color:#93171B"/>
				<stop  offset="1" style="stop-color:#720714"/>
			</linearGradient>
			<polygon class="bs60" points="11.7,47.7 12.7,48.3 12.7,52 11.7,51.5 			"/>
			<linearGradient id="BSID_58_" gradientUnits="userSpaceOnUse" x1="11.7299" y1="55.7534" x2="12.6521" y2="55.7534">
				<stop  offset="0" style="stop-color:#E0363F"/>
				<stop  offset="0.2089" style="stop-color:#93171B"/>
				<stop  offset="0.5324" style="stop-color:#93171B"/>
				<stop  offset="1" style="stop-color:#720714"/>
			</linearGradient>
			<polygon class="bs61" points="11.7,53.6 12.7,54.2 12.7,57.9 11.7,57.4 			"/>
			<linearGradient id="BSID_59_" gradientUnits="userSpaceOnUse" x1="11.7299" y1="61.6485" x2="12.6521" y2="61.6485">
				<stop  offset="0" style="stop-color:#E0363F"/>
				<stop  offset="0.2089" style="stop-color:#93171B"/>
				<stop  offset="0.5324" style="stop-color:#93171B"/>
				<stop  offset="1" style="stop-color:#720714"/>
			</linearGradient>
			<polygon class="bs62" points="11.7,59.5 12.7,60.1 12.7,63.8 11.7,63.2 			"/>
		</g>
		<path class="bs23" d="M20.7,42.7c0,0.1-0.1,0.2-0.2,0.1c-0.1-0.1-0.2-0.2-0.2-0.3s0.1-0.2,0.2-0.1C20.6,42.5,20.7,42.6,20.7,42.7z
			"/>
		<path class="bs25" d="M21.5,43.2c0,0.1-0.1,0.2-0.2,0.1c-0.1-0.1-0.2-0.2-0.2-0.3s0.1-0.2,0.2-0.1C21.4,42.9,21.5,43.1,21.5,43.2z
			"/>
		<path class="bs23" d="M22.3,43.6c0,0.1-0.1,0.2-0.2,0.1c-0.1-0.1-0.2-0.2-0.2-0.3c0-0.1,0.1-0.2,0.2-0.1
			C22.2,43.4,22.3,43.5,22.3,43.6z"/>
		<path class="bs25" d="M20.7,48.6c0,0.1-0.1,0.2-0.2,0.1c-0.1-0.1-0.2-0.2-0.2-0.3s0.1-0.2,0.2-0.1C20.6,48.4,20.7,48.5,20.7,48.6z
			"/>
		<path class="bs23" d="M21.5,49.1c0,0.1-0.1,0.2-0.2,0.1c-0.1-0.1-0.2-0.2-0.2-0.3c0-0.1,0.1-0.2,0.2-0.1
			C21.4,48.8,21.5,49,21.5,49.1z"/>
		<path class="bs20" d="M22.3,49.5c0,0.1-0.1,0.2-0.2,0.1c-0.1-0.1-0.2-0.2-0.2-0.3c0-0.1,0.1-0.2,0.2-0.1
			C22.2,49.3,22.3,49.4,22.3,49.5z"/>
		<path class="bs20" d="M20.7,54.6c0,0.1-0.1,0.2-0.2,0.1c-0.1-0.1-0.2-0.2-0.2-0.3s0.1-0.2,0.2-0.1C20.6,54.3,20.7,54.4,20.7,54.6z
			"/>
		<path class="bs25" d="M21.5,55c0,0.1-0.1,0.2-0.2,0.1c-0.1-0.1-0.2-0.2-0.2-0.3c0-0.1,0.1-0.2,0.2-0.1
			C21.4,54.8,21.5,54.9,21.5,55z"/>
		<path class="bs20" d="M22.3,55.5c0,0.1-0.1,0.2-0.2,0.1c-0.1-0.1-0.2-0.2-0.2-0.3c0-0.1,0.1-0.2,0.2-0.1
			C22.2,55.2,22.3,55.4,22.3,55.5z"/>
		<path class="bs20" d="M20.7,60.4c0,0.1-0.1,0.2-0.2,0.1c-0.1-0.1-0.2-0.2-0.2-0.3c0-0.1,0.1-0.2,0.2-0.1
			C20.6,60.1,20.7,60.3,20.7,60.4z"/>
		<path class="bs23" d="M21.5,60.9c0,0.1-0.1,0.2-0.2,0.1c-0.1-0.1-0.2-0.2-0.2-0.3c0-0.1,0.1-0.2,0.2-0.1
			C21.4,60.6,21.5,60.7,21.5,60.9z"/>
		<path class="bs23" d="M22.3,61.3c0,0.1-0.1,0.2-0.2,0.1c-0.1-0.1-0.2-0.2-0.2-0.3c0-0.1,0.1-0.2,0.2-0.1
			C22.2,61.1,22.3,61.2,22.3,61.3z"/>
		<path class="bs20" d="M20.7,66.3c0,0.1-0.1,0.2-0.2,0.1c-0.1-0.1-0.2-0.2-0.2-0.3c0-0.1,0.1-0.2,0.2-0.1
			C20.6,66.1,20.7,66.2,20.7,66.3z"/>
		<path class="bs25" d="M21.5,66.8c0,0.1-0.1,0.2-0.2,0.1c-0.1-0.1-0.2-0.2-0.2-0.3c0-0.1,0.1-0.2,0.2-0.1
			C21.4,66.5,21.5,66.7,21.5,66.8z"/>
		<path class="bs23" d="M22.3,67.3c0,0.1-0.1,0.2-0.2,0.1c-0.1-0.1-0.2-0.2-0.2-0.3c0-0.1,0.1-0.2,0.2-0.1
			C22.2,67,22.3,67.1,22.3,67.3z"/>
		<g>
			<linearGradient id="BSID_60_" gradientUnits="userSpaceOnUse" x1="26.3196" y1="52.5739" x2="37.3979" y2="52.5739">
				<stop  offset="0" style="stop-color:#FFFFFF"/>
				<stop  offset="1" style="stop-color:#C2C7D7"/>
			</linearGradient>
			<path class="bs63" d="M26.3,69V42.6l0.1,0l11-6.4v26.4l-0.1,0L26.3,69z M26.5,42.7v25.9l10.6-6.1V36.6L26.5,42.7z"/>
		</g>
		<g>
			<linearGradient id="BSID_61_" gradientUnits="userSpaceOnUse" x1="28.9901" y1="47.3103" x2="35.1354" y2="47.3103">
				<stop  offset="3.463660e-02" style="stop-color:#93171B"/>
				<stop  offset="0.3207" style="stop-color:#720714"/>
			</linearGradient>
			<path class="bs64" d="M34.5,48.1l-4.9,2.9c-0.3,0.2-0.6,0-0.6-0.5v-2.7c0-0.4,0.3-1,0.6-1.1l4.9-2.9c0.3-0.2,0.6,0,0.6,0.5v2.7
				C35.1,47.3,34.9,47.9,34.5,48.1z"/>
			<linearGradient id="BSID_62_" gradientUnits="userSpaceOnUse" x1="29.0347" y1="47.3103" x2="35.1354" y2="47.3103">
				<stop  offset="0.3039" style="stop-color:#E0363F"/>
				<stop  offset="1" style="stop-color:#AD2127"/>
			</linearGradient>
			<path class="bs65" d="M34.7,43.7c0,0.1,0,0.2,0,0.3v2.7c0,0.4-0.3,1-0.6,1.1l-4.9,2.9c0,0-0.1,0-0.1,0.1c0.1,0.2,0.3,0.3,0.6,0.2
				l4.9-2.9c0.3-0.2,0.6-0.7,0.6-1.1v-2.7C35.1,43.8,34.9,43.6,34.7,43.7z"/>
			<g>
				<g>
					<path class="bs20" d="M33.6,46.4c0.1-0.1,0.2,0,0.2,0.1v0.6c0,0.1-0.1,0.2-0.2,0.3c-0.1,0.1-0.2,0-0.2-0.1v-0.6
						C33.5,46.6,33.5,46.5,33.6,46.4z"/>
					<path class="bs23" d="M32.9,46.9c0.1-0.1,0.2,0,0.2,0.1v0.5c0,0.1-0.1,0.2-0.2,0.3c-0.1,0.1-0.2,0-0.2-0.1v-0.5
						C32.8,47.1,32.8,46.9,32.9,46.9z"/>
					<path class="bs25" d="M32.2,46.7c0.1-0.1,0.2,0,0.2,0.1v1.2c0,0.1-0.1,0.2-0.2,0.3c-0.1,0.1-0.2,0-0.2-0.1V47
						C32,46.9,32.1,46.7,32.2,46.7z"/>
					<path class="bs23" d="M31.5,46.4c0.1-0.1,0.2,0,0.2,0.1v1.8c0,0.1-0.1,0.2-0.2,0.3c-0.1,0.1-0.2,0-0.2-0.1v-1.8
						C31.3,46.6,31.4,46.5,31.5,46.4z"/>
					<path class="bs23" d="M30.8,47c0.1-0.1,0.2,0,0.2,0.1v1.6c0,0.1-0.1,0.2-0.2,0.3c-0.1,0.1-0.2,0-0.2-0.1v-1.6
						C30.6,47.2,30.7,47.1,30.8,47z"/>
					<path class="bs20" d="M30.1,48.2c0.1-0.1,0.2,0,0.2,0.1v0.9c0,0.1-0.1,0.2-0.2,0.3c-0.1,0.1-0.2,0-0.2-0.1v-0.9
						C29.9,48.4,30,48.2,30.1,48.2z"/>
				</g>
				<path class="bs25" d="M33.5,46.1c0,0.1,0.1,0.1,0.2,0.1c0.1-0.1,0.2-0.2,0.2-0.3c0-0.1-0.1-0.1-0.2-0.1
					C33.5,45.9,33.5,46,33.5,46.1z"/>
				<path class="bs20" d="M33.5,45.5c0,0.1,0.1,0.1,0.2,0.1c0.1-0.1,0.2-0.2,0.2-0.3c0-0.1-0.1-0.1-0.2-0.1
					C33.5,45.3,33.5,45.4,33.5,45.5z"/>
			</g>
		</g>
	</g>
	<g>
		<g>
			<g>
				<g>
					<g>
						
							<linearGradient id="BSID_63_" gradientUnits="userSpaceOnUse" x1="-181.2952" y1="1079.6959" x2="-181.2952" y2="1050.7642" gradientTransform="matrix(0.866 0.5 0 1.1547 229.0156 -1095.481)">
							<stop  offset="0" style="stop-color:#2D0979"/>
							<stop  offset="1" style="stop-color:#5B04F7"/>
						</linearGradient>
						<path class="bs66" d="M78.5,64.3l-12.9-7.5c-0.5-0.3-0.9-1.1-0.9-1.7v-31c0-0.7,0.4-1,0.9-0.7l12.9,7.5
							c0.5,0.3,0.9,1.1,0.9,1.7v31C79.4,64.3,79,64.6,78.5,64.3z"/>
						<linearGradient id="BSID_64_" gradientUnits="userSpaceOnUse" x1="50.1736" y1="48.1119" x2="79.3977" y2="48.1119">
							<stop  offset="0" style="stop-color:#E0363F"/>
							<stop  offset="1" style="stop-color:#720714"/>
						</linearGradient>
						<path class="bs67" d="M78.5,30.9l-12.9-7.5c-0.2-0.1-0.4-0.1-0.6-0.1l0,0l-14.8,8.5l0.7,2.6l13.5,38.4l14.7-8.5c0,0,0,0,0,0
							l0,0l0,0c0.2-0.1,0.3-0.4,0.3-0.7v-31C79.4,32,79,31.2,78.5,30.9z"/>
						<linearGradient id="BSID_65_" gradientUnits="userSpaceOnUse" x1="50.1736" y1="34.4014" x2="79.1427" y2="34.4014">
							<stop  offset="0" style="stop-color:#E0636A"/>
							<stop  offset="0.9698" style="stop-color:#E0363F"/>
						</linearGradient>
						<path class="bs68" d="M78.5,30.9l-12.9-7.5c-0.2-0.1-0.4-0.1-0.6-0.1l0,0l-14.8,8.5l0.7,2.6l3.7,10.6l0.7,0.4l23.9-13.8
							C79,31.4,78.7,31.1,78.5,30.9z"/>
						<linearGradient id="BSID_66_" gradientUnits="userSpaceOnUse" x1="49.8625" y1="52.4114" x2="64.6301" y2="52.4114">
							<stop  offset="0.3039" style="stop-color:#E0363F"/>
							<stop  offset="1" style="stop-color:#AD2127"/>
						</linearGradient>
						<path class="bs69" d="M63.7,72.9l-12.9-7.5c-0.5-0.3-0.9-1.1-0.9-1.7v-31c0-0.7,0.4-1,0.9-0.7l12.9,7.5
							c0.5,0.3,0.9,1.1,0.9,1.7v31C64.6,72.8,64.2,73.1,63.7,72.9z"/>
						
							<linearGradient id="BSID_67_" gradientUnits="userSpaceOnUse" x1="-206.3776" y1="1081.6919" x2="-191.8391" y2="1078.3975" gradientTransform="matrix(0.866 0.5 0 1.1547 229.0156 -1095.481)">
							<stop  offset="0" style="stop-color:#3919BB"/>
							<stop  offset="1" style="stop-color:#6507FA"/>
						</linearGradient>
						<path class="bs70" d="M62.9,71l-11.3-6.5c-0.4-0.3-0.8-0.9-0.8-1.5V34.2c0-0.6,0.4-0.9,0.8-0.6l11.3,6.5
							c0.4,0.3,0.8,0.9,0.8,1.5v28.8C63.7,71,63.3,71.2,62.9,71z"/>
						
							<linearGradient id="BSID_68_" gradientUnits="userSpaceOnUse" x1="-206.3776" y1="1081.6919" x2="-191.8391" y2="1078.3975" gradientTransform="matrix(0.866 0.5 0 1.1547 229.0156 -1095.481)">
							<stop  offset="0" style="stop-color:#3919BB"/>
							<stop  offset="1" style="stop-color:#6507FA"/>
						</linearGradient>
						<path class="bs71" d="M62.9,71l-11.3-6.5c-0.4-0.3-0.8-0.9-0.8-1.5V34.2c0-0.6,0.4-0.9,0.8-0.6l11.3,6.5
							c0.4,0.3,0.8,0.9,0.8,1.5v28.8C63.7,71,63.3,71.2,62.9,71z"/>
						<linearGradient id="BSID_69_" gradientUnits="userSpaceOnUse" x1="50.7915" y1="52.2737" x2="63.7011" y2="52.2737">
							<stop  offset="0" style="stop-color:#E0363F"/>
							<stop  offset="0.2089" style="stop-color:#93171B"/>
							<stop  offset="0.5324" style="stop-color:#93171B"/>
							<stop  offset="1" style="stop-color:#720714"/>
						</linearGradient>
						<path class="bs72" d="M62.9,71l-11.3-6.5c-0.4-0.3-0.8-0.9-0.8-1.5V34.2c0-0.6,0.4-0.9,0.8-0.6l11.3,6.5
							c0.4,0.3,0.8,0.9,0.8,1.5v28.8C63.7,71,63.3,71.2,62.9,71z"/>
						<linearGradient id="BSID_70_" gradientUnits="userSpaceOnUse" x1="50.7915" y1="52.2736" x2="63.5868" y2="52.2736">
							<stop  offset="0" style="stop-color:#F1F1F2"/>
							<stop  offset="0.9698" style="stop-color:#E0363F"/>
						</linearGradient>
						<path class="bs73" d="M63.3,70.8L52,64.2c-0.4-0.3-0.8-0.9-0.8-1.5V33.9c0-0.2,0-0.4,0.1-0.5c-0.3,0-0.5,0.3-0.5,0.7v28.8
							c0,0.6,0.4,1.3,0.8,1.5L62.9,71c0.3,0.2,0.5,0.1,0.7-0.1C63.5,70.9,63.4,70.8,63.3,70.8z"/>
					</g>
				</g>
			</g>
			<g>
				<g>
					<linearGradient id="BSID_71_" gradientUnits="userSpaceOnUse" x1="51.9901" y1="60.6678" x2="63.7011" y2="60.6678">
						<stop  offset="0" style="stop-color:#E0363F"/>
						<stop  offset="0.2089" style="stop-color:#93171B"/>
						<stop  offset="0.5324" style="stop-color:#93171B"/>
						<stop  offset="1" style="stop-color:#720714"/>
					</linearGradient>
					<path class="bs74" d="M62.9,57.8l-4.2-2.4L52,59.2L63.7,66v-6.7C63.7,58.7,63.3,58,62.9,57.8z"/>
					<linearGradient id="BSID_72_" gradientUnits="userSpaceOnUse" x1="51.9901" y1="54.7726" x2="63.7011" y2="54.7726">
						<stop  offset="0" style="stop-color:#E0363F"/>
						<stop  offset="0.2089" style="stop-color:#93171B"/>
						<stop  offset="0.5324" style="stop-color:#93171B"/>
						<stop  offset="1" style="stop-color:#720714"/>
					</linearGradient>
					<path class="bs75" d="M62.9,51.9l-4.2-2.4L52,53.3l11.7,6.8v-6.7C63.7,52.8,63.3,52.1,62.9,51.9z"/>
					<linearGradient id="BSID_73_" gradientUnits="userSpaceOnUse" x1="51.9901" y1="48.8775" x2="63.7011" y2="48.8775">
						<stop  offset="0" style="stop-color:#E0363F"/>
						<stop  offset="0.2089" style="stop-color:#93171B"/>
						<stop  offset="0.5324" style="stop-color:#93171B"/>
						<stop  offset="1" style="stop-color:#720714"/>
					</linearGradient>
					<path class="bs76" d="M62.9,46l-4.2-2.4L52,47.4l11.7,6.8v-6.7C63.7,46.9,63.3,46.2,62.9,46z"/>
					<linearGradient id="BSID_74_" gradientUnits="userSpaceOnUse" x1="51.9901" y1="42.9824" x2="63.7011" y2="42.9824">
						<stop  offset="0" style="stop-color:#E0363F"/>
						<stop  offset="0.2089" style="stop-color:#93171B"/>
						<stop  offset="0.5324" style="stop-color:#93171B"/>
						<stop  offset="1" style="stop-color:#720714"/>
					</linearGradient>
					<path class="bs77" d="M62.9,40.1l-4.2-2.4L52,41.5l11.7,6.8v-6.7C63.7,41,63.3,40.3,62.9,40.1z"/>
					<linearGradient id="BSID_75_" gradientUnits="userSpaceOnUse" x1="51.9901" y1="38.561" x2="63.7011" y2="38.561">
						<stop  offset="0" style="stop-color:#E0363F"/>
						<stop  offset="0.2089" style="stop-color:#93171B"/>
						<stop  offset="0.5324" style="stop-color:#93171B"/>
						<stop  offset="1" style="stop-color:#720714"/>
					</linearGradient>
					<path class="bs78" d="M62.9,40.1l-9.3-5.4L52,35.6l11.7,6.8v-0.8C63.7,41,63.3,40.3,62.9,40.1z"/>
				</g>
				<linearGradient id="BSID_76_" gradientUnits="userSpaceOnUse" x1="51.9901" y1="40.8867" x2="63.7011" y2="40.8867">
					<stop  offset="0.3039" style="stop-color:#E0363F"/>
					<stop  offset="1" style="stop-color:#AD2127"/>
				</linearGradient>
				<polygon class="bs79" points="63.7,42.4 52,35.6 52,39.4 63.7,46.1 				"/>
				<linearGradient id="BSID_77_" gradientUnits="userSpaceOnUse" x1="51.9901" y1="46.7818" x2="63.7011" y2="46.7818">
					<stop  offset="0.3039" style="stop-color:#E0363F"/>
					<stop  offset="1" style="stop-color:#AD2127"/>
				</linearGradient>
				<polygon class="bs80" points="63.7,48.3 52,41.5 52,45.3 63.7,52 				"/>
				<linearGradient id="BSID_78_" gradientUnits="userSpaceOnUse" x1="51.9901" y1="52.6769" x2="63.7011" y2="52.6769">
					<stop  offset="0.3039" style="stop-color:#E0363F"/>
					<stop  offset="1" style="stop-color:#AD2127"/>
				</linearGradient>
				<polygon class="bs81" points="63.7,54.2 52,47.4 52,51.2 63.7,57.9 				"/>
				<linearGradient id="BSID_79_" gradientUnits="userSpaceOnUse" x1="51.9901" y1="58.572" x2="63.7011" y2="58.572">
					<stop  offset="0.3039" style="stop-color:#E0363F"/>
					<stop  offset="1" style="stop-color:#AD2127"/>
				</linearGradient>
				<polygon class="bs82" points="63.7,60.1 52,53.3 52,57.1 63.7,63.8 				"/>
				<linearGradient id="BSID_80_" gradientUnits="userSpaceOnUse" x1="51.9901" y1="64.4672" x2="63.7011" y2="64.4672">
					<stop  offset="0.3039" style="stop-color:#E0363F"/>
					<stop  offset="1" style="stop-color:#AD2127"/>
				</linearGradient>
				<polygon class="bs83" points="63.7,66 52,59.2 52,62.9 63.7,69.7 				"/>
			</g>
			<g>
				<linearGradient id="BSID_81_" gradientUnits="userSpaceOnUse" x1="53.3965" y1="41.156" x2="63.1193" y2="41.156">
					<stop  offset="0" style="stop-color:#E0363F"/>
					<stop  offset="0.2089" style="stop-color:#93171B"/>
					<stop  offset="0.5324" style="stop-color:#93171B"/>
					<stop  offset="1" style="stop-color:#720714"/>
				</linearGradient>
				<path class="bs84" d="M62.7,44.8l-8.8-5.1c-0.2-0.1-0.5-0.5-0.5-0.9v-1c0-0.3,0.2-0.5,0.5-0.3l8.8,5.1c0.2,0.1,0.5,0.5,0.5,0.9
					v1C63.1,44.8,62.9,44.9,62.7,44.8z"/>
				<path class="bs19" d="M54.3,39.5c-0.2-0.1-0.5-0.5-0.5-0.9v-1c0-0.1,0-0.1,0-0.1l0,0c-0.2-0.1-0.5,0-0.5,0.3v1
					c0,0.3,0.2,0.7,0.5,0.9l8.8,5.1c0.2,0.1,0.4,0,0.4-0.2L54.3,39.5z"/>
				<path class="bs20" d="M59.9,42.1L54.6,39c-0.1-0.1-0.2-0.2-0.2-0.3l0,0c0-0.1,0.1-0.2,0.2-0.1l5.3,3.1c0.1,0.1,0.2,0.2,0.2,0.3
					l0,0C60.1,42.1,60,42.1,59.9,42.1z"/>
			</g>
			<g>
				<linearGradient id="BSID_82_" gradientUnits="userSpaceOnUse" x1="53.3965" y1="47.0148" x2="63.1193" y2="47.0148">
					<stop  offset="0" style="stop-color:#E0363F"/>
					<stop  offset="0.2089" style="stop-color:#93171B"/>
					<stop  offset="0.5324" style="stop-color:#93171B"/>
					<stop  offset="1" style="stop-color:#720714"/>
				</linearGradient>
				<path class="bs85" d="M62.7,50.7l-8.8-5.1c-0.2-0.1-0.5-0.5-0.5-0.9v-1c0-0.3,0.2-0.5,0.5-0.3l8.8,5.1c0.2,0.1,0.5,0.5,0.5,0.9
					v1C63.1,50.7,62.9,50.8,62.7,50.7z"/>
				<path class="bs19" d="M54.3,45.4c-0.2-0.1-0.5-0.5-0.5-0.9v-1c0-0.1,0-0.1,0-0.1l0,0c-0.2-0.1-0.5,0-0.5,0.3v1
					c0,0.3,0.2,0.7,0.5,0.9l8.8,5.1c0.2,0.1,0.4,0,0.4-0.2L54.3,45.4z"/>
				<path class="bs20" d="M59.9,47.9l-5.3-3.1c-0.1-0.1-0.2-0.2-0.2-0.3l0,0c0-0.1,0.1-0.2,0.2-0.1l5.3,3.1c0.1,0.1,0.2,0.2,0.2,0.3
					l0,0C60.1,47.9,60,48,59.9,47.9z"/>
			</g>
			<g>
				<linearGradient id="BSID_83_" gradientUnits="userSpaceOnUse" x1="53.3965" y1="52.9281" x2="63.1193" y2="52.9281">
					<stop  offset="0" style="stop-color:#E0363F"/>
					<stop  offset="0.2089" style="stop-color:#93171B"/>
					<stop  offset="0.5324" style="stop-color:#93171B"/>
					<stop  offset="1" style="stop-color:#720714"/>
				</linearGradient>
				<path class="bs86" d="M62.7,56.6l-8.8-5.1c-0.2-0.1-0.5-0.5-0.5-0.9v-1c0-0.3,0.2-0.5,0.5-0.3l8.8,5.1c0.2,0.1,0.5,0.5,0.5,0.9
					v1C63.1,56.6,62.9,56.7,62.7,56.6z"/>
				<path class="bs19" d="M54.3,51.3c-0.2-0.1-0.5-0.5-0.5-0.9v-1c0-0.1,0-0.1,0-0.1l0,0c-0.2-0.1-0.5,0-0.5,0.3v1
					c0,0.3,0.2,0.7,0.5,0.9l8.8,5.1c0.2,0.1,0.4,0,0.4-0.2L54.3,51.3z"/>
				<path class="bs23" d="M59.9,53.8l-5.3-3.1c-0.1-0.1-0.2-0.2-0.2-0.3l0,0c0-0.1,0.1-0.2,0.2-0.1l5.3,3.1c0.1,0.1,0.2,0.2,0.2,0.3
					l0,0C60.1,53.8,60,53.9,59.9,53.8z"/>
			</g>
			<g>
				<linearGradient id="BSID_84_" gradientUnits="userSpaceOnUse" x1="53.3965" y1="58.896" x2="63.1193" y2="58.896">
					<stop  offset="0" style="stop-color:#E0363F"/>
					<stop  offset="0.2089" style="stop-color:#93171B"/>
					<stop  offset="0.5324" style="stop-color:#93171B"/>
					<stop  offset="1" style="stop-color:#720714"/>
				</linearGradient>
				<path class="bs87" d="M62.7,62.5l-8.8-5.1c-0.2-0.1-0.5-0.5-0.5-0.9v-1c0-0.3,0.2-0.5,0.5-0.3l8.8,5.1c0.2,0.1,0.5,0.5,0.5,0.9
					v1C63.1,62.5,62.9,62.7,62.7,62.5z"/>
				<path class="bs19" d="M54.3,57.3c-0.2-0.1-0.5-0.5-0.5-0.9v-1c0-0.1,0-0.1,0-0.1l0,0c-0.2-0.1-0.5,0-0.5,0.3v1
					c0,0.3,0.2,0.7,0.5,0.9l8.8,5.1c0.2,0.1,0.4,0,0.4-0.2L54.3,57.3z"/>
				<path class="bs25" d="M59.9,59.8l-5.3-3.1c-0.1-0.1-0.2-0.2-0.2-0.3l0,0c0-0.1,0.1-0.2,0.2-0.1l5.3,3.1c0.1,0.1,0.2,0.2,0.2,0.3
					l0,0C60.1,59.8,60,59.9,59.9,59.8z"/>
			</g>
			<g>
				<linearGradient id="BSID_85_" gradientUnits="userSpaceOnUse" x1="53.3965" y1="64.7456" x2="63.1193" y2="64.7456">
					<stop  offset="0" style="stop-color:#E0363F"/>
					<stop  offset="0.2089" style="stop-color:#93171B"/>
					<stop  offset="0.5324" style="stop-color:#93171B"/>
					<stop  offset="1" style="stop-color:#720714"/>
				</linearGradient>
				<path class="bs88" d="M62.7,68.4l-8.8-5.1c-0.2-0.1-0.5-0.5-0.5-0.9v-1c0-0.3,0.2-0.5,0.5-0.3l8.8,5.1c0.2,0.1,0.5,0.5,0.5,0.9
					v1C63.1,68.4,62.9,68.5,62.7,68.4z"/>
				<path class="bs19" d="M54.3,63.1c-0.2-0.1-0.5-0.5-0.5-0.9v-1c0-0.1,0-0.1,0-0.1l0,0c-0.2-0.1-0.5,0-0.5,0.3v1
					c0,0.3,0.2,0.7,0.5,0.9l8.8,5.1c0.2,0.1,0.4,0,0.4-0.2L54.3,63.1z"/>
				<path class="bs23" d="M59.9,65.7l-5.3-3.1c-0.1-0.1-0.2-0.2-0.2-0.3l0,0c0-0.1,0.1-0.2,0.2-0.1l5.3,3.1c0.1,0.1,0.2,0.2,0.2,0.3
					l0,0C60.1,65.7,60,65.7,59.9,65.7z"/>
			</g>
			<linearGradient id="BSID_86_" gradientUnits="userSpaceOnUse" x1="51.9901" y1="37.7722" x2="52.9123" y2="37.7722">
				<stop  offset="0" style="stop-color:#E0363F"/>
				<stop  offset="0.2089" style="stop-color:#93171B"/>
				<stop  offset="0.5324" style="stop-color:#93171B"/>
				<stop  offset="1" style="stop-color:#720714"/>
			</linearGradient>
			<polygon class="bs89" points="52,35.6 52.9,36.2 52.9,39.9 52,39.4 			"/>
			<linearGradient id="BSID_87_" gradientUnits="userSpaceOnUse" x1="51.9901" y1="43.6674" x2="52.9123" y2="43.6674">
				<stop  offset="0" style="stop-color:#E0363F"/>
				<stop  offset="0.2089" style="stop-color:#93171B"/>
				<stop  offset="0.5324" style="stop-color:#93171B"/>
				<stop  offset="1" style="stop-color:#720714"/>
			</linearGradient>
			<polygon class="bs90" points="52,41.5 52.9,42.1 52.9,45.8 52,45.3 			"/>
			<linearGradient id="BSID_88_" gradientUnits="userSpaceOnUse" x1="51.9901" y1="49.5625" x2="52.9123" y2="49.5625">
				<stop  offset="0" style="stop-color:#E0363F"/>
				<stop  offset="0.2089" style="stop-color:#93171B"/>
				<stop  offset="0.5324" style="stop-color:#93171B"/>
				<stop  offset="1" style="stop-color:#720714"/>
			</linearGradient>
			<polygon class="bs91" points="52,47.4 52.9,48 52.9,51.7 52,51.2 			"/>
			<linearGradient id="BSID_89_" gradientUnits="userSpaceOnUse" x1="51.9901" y1="55.4576" x2="52.9123" y2="55.4576">
				<stop  offset="0" style="stop-color:#E0363F"/>
				<stop  offset="0.2089" style="stop-color:#93171B"/>
				<stop  offset="0.5324" style="stop-color:#93171B"/>
				<stop  offset="1" style="stop-color:#720714"/>
			</linearGradient>
			<polygon class="bs92" points="52,53.3 52.9,53.9 52.9,57.6 52,57.1 			"/>
			<linearGradient id="BSID_90_" gradientUnits="userSpaceOnUse" x1="51.9901" y1="61.3527" x2="52.9123" y2="61.3527">
				<stop  offset="0" style="stop-color:#E0363F"/>
				<stop  offset="0.2089" style="stop-color:#93171B"/>
				<stop  offset="0.5324" style="stop-color:#93171B"/>
				<stop  offset="1" style="stop-color:#720714"/>
			</linearGradient>
			<polygon class="bs93" points="52,59.2 52.9,59.8 52.9,63.5 52,62.9 			"/>
		</g>
		<path class="bs23" d="M60.9,42.4c0,0.1-0.1,0.2-0.2,0.1c-0.1-0.1-0.2-0.2-0.2-0.3c0-0.1,0.1-0.2,0.2-0.1
			C60.9,42.2,60.9,42.3,60.9,42.4z"/>
		<path class="bs25" d="M61.7,42.9c0,0.1-0.1,0.2-0.2,0.1c-0.1-0.1-0.2-0.2-0.2-0.3c0-0.1,0.1-0.2,0.2-0.1
			C61.7,42.6,61.7,42.8,61.7,42.9z"/>
		<path class="bs23" d="M62.5,43.3c0,0.1-0.1,0.2-0.2,0.1c-0.1-0.1-0.2-0.2-0.2-0.3c0-0.1,0.1-0.2,0.2-0.1
			C62.4,43.1,62.5,43.2,62.5,43.3z"/>
		<path class="bs25" d="M60.9,48.3c0,0.1-0.1,0.2-0.2,0.1c-0.1-0.1-0.2-0.2-0.2-0.3s0.1-0.2,0.2-0.1C60.9,48.1,60.9,48.2,60.9,48.3z
			"/>
		<path class="bs23" d="M61.7,48.8c0,0.1-0.1,0.2-0.2,0.1c-0.1-0.1-0.2-0.2-0.2-0.3c0-0.1,0.1-0.2,0.2-0.1
			C61.7,48.5,61.7,48.7,61.7,48.8z"/>
		<path class="bs20" d="M62.5,49.2c0,0.1-0.1,0.2-0.2,0.1c-0.1-0.1-0.2-0.2-0.2-0.3c0-0.1,0.1-0.2,0.2-0.1
			C62.4,49,62.5,49.1,62.5,49.2z"/>
		<path class="bs20" d="M60.9,54.3c0,0.1-0.1,0.2-0.2,0.1c-0.1-0.1-0.2-0.2-0.2-0.3c0-0.1,0.1-0.2,0.2-0.1
			C60.9,54,60.9,54.1,60.9,54.3z"/>
		<path class="bs25" d="M61.7,54.7c0,0.1-0.1,0.2-0.2,0.1c-0.1-0.1-0.2-0.2-0.2-0.3c0-0.1,0.1-0.2,0.2-0.1
			C61.7,54.5,61.7,54.6,61.7,54.7z"/>
		<path class="bs20" d="M62.5,55.2c0,0.1-0.1,0.2-0.2,0.1c-0.1-0.1-0.2-0.2-0.2-0.3c0-0.1,0.1-0.2,0.2-0.1
			C62.4,54.9,62.5,55.1,62.5,55.2z"/>
		<path class="bs20" d="M60.9,60.1c0,0.1-0.1,0.2-0.2,0.1c-0.1-0.1-0.2-0.2-0.2-0.3c0-0.1,0.1-0.2,0.2-0.1
			C60.9,59.9,60.9,60,60.9,60.1z"/>
		<path class="bs23" d="M61.7,60.6c0,0.1-0.1,0.2-0.2,0.1c-0.1-0.1-0.2-0.2-0.2-0.3c0-0.1,0.1-0.2,0.2-0.1
			C61.7,60.3,61.7,60.5,61.7,60.6z"/>
		<path class="bs23" d="M62.5,61c0,0.1-0.1,0.2-0.2,0.1c-0.1-0.1-0.2-0.2-0.2-0.3c0-0.1,0.1-0.2,0.2-0.1
			C62.4,60.8,62.5,60.9,62.5,61z"/>
		<path class="bs20" d="M60.9,66c0,0.1-0.1,0.2-0.2,0.1c-0.1-0.1-0.2-0.2-0.2-0.3c0-0.1,0.1-0.2,0.2-0.1
			C60.9,65.8,60.9,65.9,60.9,66z"/>
		<path class="bs25" d="M61.7,66.5c0,0.1-0.1,0.2-0.2,0.1c-0.1-0.1-0.2-0.2-0.2-0.3c0-0.1,0.1-0.2,0.2-0.1
			C61.7,66.2,61.7,66.4,61.7,66.5z"/>
		<path class="bs23" d="M62.5,67c0,0.1-0.1,0.2-0.2,0.1c-0.1-0.1-0.2-0.2-0.2-0.3c0-0.1,0.1-0.2,0.2-0.1
			C62.4,66.7,62.5,66.8,62.5,67z"/>
		<g>
			<linearGradient id="BSID_91_" gradientUnits="userSpaceOnUse" x1="66.5798" y1="52.2782" x2="77.6581" y2="52.2782">
				<stop  offset="0" style="stop-color:#FFFFFF"/>
				<stop  offset="1" style="stop-color:#C2C7D7"/>
			</linearGradient>
			<path class="bs94" d="M66.6,68.7V42.3l0.1,0l11-6.4v26.4l-0.1,0L66.6,68.7z M66.8,42.4v25.9l10.6-6.1V36.3L66.8,42.4z"/>
		</g>
		<g>
			<linearGradient id="BSID_92_" gradientUnits="userSpaceOnUse" x1="69.2503" y1="47.0145" x2="75.3956" y2="47.0145">
				<stop  offset="3.463660e-02" style="stop-color:#93171B"/>
				<stop  offset="0.3207" style="stop-color:#720714"/>
			</linearGradient>
			<path class="bs95" d="M74.8,47.8l-4.9,2.9c-0.3,0.2-0.6,0-0.6-0.5v-2.7c0-0.4,0.3-1,0.6-1.1l4.9-2.9c0.3-0.2,0.6,0,0.6,0.5v2.7
				C75.4,47.1,75.1,47.6,74.8,47.8z"/>
			<linearGradient id="BSID_93_" gradientUnits="userSpaceOnUse" x1="69.2949" y1="47.0145" x2="75.3956" y2="47.0145">
				<stop  offset="0.3039" style="stop-color:#E0363F"/>
				<stop  offset="1" style="stop-color:#AD2127"/>
			</linearGradient>
			<path class="bs96" d="M74.9,43.4c0,0.1,0,0.2,0,0.3v2.7c0,0.4-0.3,1-0.6,1.1l-4.9,2.9c0,0-0.1,0-0.1,0.1c0.1,0.2,0.3,0.3,0.6,0.2
				l4.9-2.9c0.3-0.2,0.6-0.7,0.6-1.1v-2.7C75.4,43.5,75.2,43.3,74.9,43.4z"/>
			<g>
				<g>
					<path class="bs20" d="M73.9,46.1c0.1-0.1,0.2,0,0.2,0.1v0.6c0,0.1-0.1,0.2-0.2,0.3c-0.1,0.1-0.2,0-0.2-0.1v-0.6
						C73.7,46.3,73.8,46.2,73.9,46.1z"/>
					<path class="bs23" d="M73.2,46.6c0.1-0.1,0.2,0,0.2,0.1v0.5c0,0.1-0.1,0.2-0.2,0.3c-0.1,0.1-0.2,0-0.2-0.1v-0.5
						C73,46.8,73.1,46.6,73.2,46.6z"/>
					<path class="bs25" d="M72.5,46.4c0.1-0.1,0.2,0,0.2,0.1v1.2c0,0.1-0.1,0.2-0.2,0.3c-0.1,0.1-0.2,0-0.2-0.1v-1.2
						C72.3,46.6,72.4,46.4,72.5,46.4z"/>
					<path class="bs23" d="M71.8,46.1c0.1-0.1,0.2,0,0.2,0.1v1.8c0,0.1-0.1,0.2-0.2,0.3c-0.1,0.1-0.2,0-0.2-0.1v-1.8
						C71.6,46.3,71.7,46.2,71.8,46.1z"/>
					<path class="bs23" d="M71.1,46.7c0.1-0.1,0.2,0,0.2,0.1v1.6c0,0.1-0.1,0.2-0.2,0.3c-0.1,0.1-0.2,0-0.2-0.1V47
						C70.9,46.9,71,46.8,71.1,46.7z"/>
					<path class="bs20" d="M70.3,47.9c0.1-0.1,0.2,0,0.2,0.1v0.9c0,0.1-0.1,0.2-0.2,0.3c-0.1,0.1-0.2,0-0.2-0.1v-0.9
						C70.2,48.1,70.3,47.9,70.3,47.9z"/>
				</g>
				<path class="bs25" d="M73.7,45.8c0,0.1,0.1,0.1,0.2,0.1c0.1-0.1,0.2-0.2,0.2-0.3c0-0.1-0.1-0.1-0.2-0.1
					C73.8,45.6,73.7,45.7,73.7,45.8z"/>
				<path class="bs20" d="M73.7,45.2c0,0.1,0.1,0.1,0.2,0.1c0.1-0.1,0.2-0.2,0.2-0.3c0-0.1-0.1-0.1-0.2-0.1
					C73.8,45,73.7,45.1,73.7,45.2z"/>
			</g>
		</g>
	</g>
	<g>
		<g>
			<g>
				<g>
					<g>
						
							<linearGradient id="BSID_94_" gradientUnits="userSpaceOnUse" x1="-204.5304" y1="1100.441" x2="-204.5304" y2="1071.5092" gradientTransform="matrix(0.866 0.5 0 1.1547 229.0156 -1095.481)">
							<stop  offset="0" style="stop-color:#2D0979"/>
							<stop  offset="1" style="stop-color:#5B04F7"/>
						</linearGradient>
						<path class="bs97" d="M58.4,76.7l-12.9-7.5c-0.5-0.3-0.9-1.1-0.9-1.7v-31c0-0.7,0.4-1,0.9-0.7l12.9,7.5
							c0.5,0.3,0.9,1.1,0.9,1.7v31C59.3,76.7,58.9,77,58.4,76.7z"/>
						<linearGradient id="BSID_95_" gradientUnits="userSpaceOnUse" x1="30.0519" y1="60.4486" x2="59.2761" y2="60.4486">
							<stop  offset="0" style="stop-color:#E0363F"/>
							<stop  offset="1" style="stop-color:#720714"/>
						</linearGradient>
						<path class="bs98" d="M58.4,43.3l-12.9-7.5c-0.2-0.1-0.4-0.1-0.6-0.1l0,0l-14.8,8.5l0.7,2.6l13.5,38.4l14.7-8.5c0,0,0,0,0,0
							l0,0l0,0c0.2-0.1,0.3-0.4,0.3-0.7V45C59.3,44.3,58.9,43.6,58.4,43.3z"/>
						<linearGradient id="BSID_96_" gradientUnits="userSpaceOnUse" x1="30.0519" y1="46.7381" x2="59.0211" y2="46.7381">
							<stop  offset="0" style="stop-color:#E0636A"/>
							<stop  offset="0.9698" style="stop-color:#E0363F"/>
						</linearGradient>
						<path class="bs99" d="M58.4,43.3l-12.9-7.5c-0.2-0.1-0.4-0.1-0.6-0.1l0,0l-14.8,8.5l0.7,2.6l3.7,10.6l0.7,0.4L59,44
							C58.9,43.7,58.6,43.4,58.4,43.3z"/>
						<linearGradient id="BSID_97_" gradientUnits="userSpaceOnUse" x1="29.7409" y1="64.7481" x2="44.5085" y2="64.7481">
							<stop  offset="0.3039" style="stop-color:#E0363F"/>
							<stop  offset="1" style="stop-color:#AD2127"/>
						</linearGradient>
						<path class="bs100" d="M43.6,85.2l-12.9-7.5c-0.5-0.3-0.9-1.1-0.9-1.7V45c0-0.7,0.4-1,0.9-0.7l12.9,7.5
							c0.5,0.3,0.9,1.1,0.9,1.7v31C44.5,85.2,44.1,85.5,43.6,85.2z"/>
						
							<linearGradient id="BSID_98_" gradientUnits="userSpaceOnUse" x1="-229.6128" y1="1102.4369" x2="-215.0743" y2="1099.1425" gradientTransform="matrix(0.866 0.5 0 1.1547 229.0156 -1095.481)">
							<stop  offset="0" style="stop-color:#3919BB"/>
							<stop  offset="1" style="stop-color:#6507FA"/>
						</linearGradient>
						<path class="bs101" d="M42.8,83.3l-11.3-6.5c-0.4-0.3-0.8-0.9-0.8-1.5V46.5c0-0.6,0.4-0.9,0.8-0.6l11.3,6.5
							c0.4,0.3,0.8,0.9,0.8,1.5v28.8C43.6,83.3,43.2,83.6,42.8,83.3z"/>
						
							<linearGradient id="BSID_99_" gradientUnits="userSpaceOnUse" x1="-229.6128" y1="1102.4369" x2="-215.0743" y2="1099.1425" gradientTransform="matrix(0.866 0.5 0 1.1547 229.0156 -1095.481)">
							<stop  offset="0" style="stop-color:#3919BB"/>
							<stop  offset="1" style="stop-color:#6507FA"/>
						</linearGradient>
						<path class="bs102" d="M42.8,83.3l-11.3-6.5c-0.4-0.3-0.8-0.9-0.8-1.5V46.5c0-0.6,0.4-0.9,0.8-0.6l11.3,6.5
							c0.4,0.3,0.8,0.9,0.8,1.5v28.8C43.6,83.3,43.2,83.6,42.8,83.3z"/>
						<linearGradient id="BSID_100_" gradientUnits="userSpaceOnUse" x1="30.6698" y1="64.6104" x2="43.5794" y2="64.6104">
							<stop  offset="0" style="stop-color:#E0363F"/>
							<stop  offset="0.2089" style="stop-color:#93171B"/>
							<stop  offset="0.5324" style="stop-color:#93171B"/>
							<stop  offset="1" style="stop-color:#720714"/>
						</linearGradient>
						<path class="bs103" d="M42.8,83.3l-11.3-6.5c-0.4-0.3-0.8-0.9-0.8-1.5V46.5c0-0.6,0.4-0.9,0.8-0.6l11.3,6.5
							c0.4,0.3,0.8,0.9,0.8,1.5v28.8C43.6,83.3,43.2,83.6,42.8,83.3z"/>
						<linearGradient id="BSID_101_" gradientUnits="userSpaceOnUse" x1="30.6698" y1="64.6103" x2="43.4651" y2="64.6103">
							<stop  offset="0" style="stop-color:#F1F1F2"/>
							<stop  offset="0.9698" style="stop-color:#E0363F"/>
						</linearGradient>
						<path class="bs104" d="M43.2,83.1l-11.3-6.5c-0.4-0.3-0.8-0.9-0.8-1.5V46.3c0-0.2,0-0.4,0.1-0.5c-0.3,0-0.5,0.3-0.5,0.7v28.8
							c0,0.6,0.4,1.3,0.8,1.5l11.3,6.5c0.3,0.2,0.5,0.1,0.7-0.1C43.4,83.2,43.3,83.2,43.2,83.1z"/>
					</g>
				</g>
			</g>
			<g>
				<g>
					<linearGradient id="BSID_102_" gradientUnits="userSpaceOnUse" x1="31.8685" y1="73.0045" x2="43.5794" y2="73.0045">
						<stop  offset="0" style="stop-color:#E0363F"/>
						<stop  offset="0.2089" style="stop-color:#93171B"/>
						<stop  offset="0.5324" style="stop-color:#93171B"/>
						<stop  offset="1" style="stop-color:#720714"/>
					</linearGradient>
					<path class="bs105" d="M42.8,70.1l-4.2-2.4l-6.7,3.9l11.7,6.8v-6.7C43.6,71.1,43.2,70.4,42.8,70.1z"/>
					<linearGradient id="BSID_103_" gradientUnits="userSpaceOnUse" x1="31.8685" y1="67.1094" x2="43.5794" y2="67.1094">
						<stop  offset="0" style="stop-color:#E0363F"/>
						<stop  offset="0.2089" style="stop-color:#93171B"/>
						<stop  offset="0.5324" style="stop-color:#93171B"/>
						<stop  offset="1" style="stop-color:#720714"/>
					</linearGradient>
					<path class="bs106" d="M42.8,64.2l-4.2-2.4l-6.7,3.9l11.7,6.8v-6.7C43.6,65.2,43.2,64.5,42.8,64.2z"/>
					<linearGradient id="BSID_104_" gradientUnits="userSpaceOnUse" x1="31.8685" y1="61.2143" x2="43.5794" y2="61.2143">
						<stop  offset="0" style="stop-color:#E0363F"/>
						<stop  offset="0.2089" style="stop-color:#93171B"/>
						<stop  offset="0.5324" style="stop-color:#93171B"/>
						<stop  offset="1" style="stop-color:#720714"/>
					</linearGradient>
					<path class="bs107" d="M42.8,58.3l-4.2-2.4l-6.7,3.9l11.7,6.8v-6.7C43.6,59.3,43.2,58.6,42.8,58.3z"/>
					<linearGradient id="BSID_105_" gradientUnits="userSpaceOnUse" x1="31.8685" y1="55.3192" x2="43.5794" y2="55.3192">
						<stop  offset="0" style="stop-color:#E0363F"/>
						<stop  offset="0.2089" style="stop-color:#93171B"/>
						<stop  offset="0.5324" style="stop-color:#93171B"/>
						<stop  offset="1" style="stop-color:#720714"/>
					</linearGradient>
					<path class="bs108" d="M42.8,52.4L38.6,50l-6.7,3.9l11.7,6.8V54C43.6,53.4,43.2,52.7,42.8,52.4z"/>
					<linearGradient id="BSID_106_" gradientUnits="userSpaceOnUse" x1="31.8685" y1="50.8977" x2="43.5794" y2="50.8977">
						<stop  offset="0" style="stop-color:#E0363F"/>
						<stop  offset="0.2089" style="stop-color:#93171B"/>
						<stop  offset="0.5324" style="stop-color:#93171B"/>
						<stop  offset="1" style="stop-color:#720714"/>
					</linearGradient>
					<path class="bs109" d="M42.8,52.4l-9.3-5.4L31.9,48l11.7,6.8V54C43.6,53.4,43.2,52.7,42.8,52.4z"/>
				</g>
				<linearGradient id="BSID_107_" gradientUnits="userSpaceOnUse" x1="31.8685" y1="53.2234" x2="43.5794" y2="53.2234">
					<stop  offset="0.3039" style="stop-color:#E0363F"/>
					<stop  offset="1" style="stop-color:#AD2127"/>
				</linearGradient>
				<polygon class="bs110" points="43.6,54.7 31.9,48 31.9,51.7 43.6,58.5 				"/>
				<linearGradient id="BSID_108_" gradientUnits="userSpaceOnUse" x1="31.8685" y1="59.1186" x2="43.5794" y2="59.1186">
					<stop  offset="0.3039" style="stop-color:#E0363F"/>
					<stop  offset="1" style="stop-color:#AD2127"/>
				</linearGradient>
				<polygon class="bs111" points="43.6,60.6 31.9,53.9 31.9,57.6 43.6,64.4 				"/>
				<linearGradient id="BSID_109_" gradientUnits="userSpaceOnUse" x1="31.8685" y1="65.0137" x2="43.5794" y2="65.0137">
					<stop  offset="0.3039" style="stop-color:#E0363F"/>
					<stop  offset="1" style="stop-color:#AD2127"/>
				</linearGradient>
				<polygon class="bs112" points="43.6,66.5 31.9,59.8 31.9,63.5 43.6,70.3 				"/>
				<linearGradient id="BSID_110_" gradientUnits="userSpaceOnUse" x1="31.8685" y1="70.9088" x2="43.5794" y2="70.9088">
					<stop  offset="0.3039" style="stop-color:#E0363F"/>
					<stop  offset="1" style="stop-color:#AD2127"/>
				</linearGradient>
				<polygon class="bs113" points="43.6,72.4 31.9,65.7 31.9,69.4 43.6,76.2 				"/>
				<linearGradient id="BSID_111_" gradientUnits="userSpaceOnUse" x1="31.8685" y1="76.8039" x2="43.5794" y2="76.8039">
					<stop  offset="0.3039" style="stop-color:#E0363F"/>
					<stop  offset="1" style="stop-color:#AD2127"/>
				</linearGradient>
				<polygon class="bs114" points="43.6,78.3 31.9,71.6 31.9,75.3 43.6,82 				"/>
			</g>
			<g>
				<linearGradient id="BSID_112_" gradientUnits="userSpaceOnUse" x1="33.2749" y1="53.4928" x2="42.9976" y2="53.4928">
					<stop  offset="0" style="stop-color:#E0363F"/>
					<stop  offset="0.2089" style="stop-color:#93171B"/>
					<stop  offset="0.5324" style="stop-color:#93171B"/>
					<stop  offset="1" style="stop-color:#720714"/>
				</linearGradient>
				<path class="bs115" d="M42.5,57.1L33.7,52c-0.2-0.1-0.5-0.5-0.5-0.9v-1c0-0.3,0.2-0.5,0.5-0.3l8.8,5.1c0.2,0.1,0.5,0.5,0.5,0.9
					v1C43,57.1,42.8,57.3,42.5,57.1z"/>
				<path class="bs19" d="M34.2,51.9c-0.2-0.1-0.5-0.5-0.5-0.9v-1c0-0.1,0-0.1,0-0.1l0,0c-0.2-0.1-0.5,0-0.5,0.3v1
					c0,0.3,0.2,0.7,0.5,0.9l8.8,5.1c0.2,0.1,0.4,0,0.4-0.2L34.2,51.9z"/>
				<path class="bs20" d="M39.8,54.4l-5.3-3.1c-0.1-0.1-0.2-0.2-0.2-0.3l0,0c0-0.1,0.1-0.2,0.2-0.1l5.3,3.1c0.1,0.1,0.2,0.2,0.2,0.3
					l0,0C39.9,54.4,39.9,54.5,39.8,54.4z"/>
			</g>
			<g>
				<linearGradient id="BSID_113_" gradientUnits="userSpaceOnUse" x1="33.2749" y1="59.3515" x2="42.9976" y2="59.3515">
					<stop  offset="0" style="stop-color:#E0363F"/>
					<stop  offset="0.2089" style="stop-color:#93171B"/>
					<stop  offset="0.5324" style="stop-color:#93171B"/>
					<stop  offset="1" style="stop-color:#720714"/>
				</linearGradient>
				<path class="bs116" d="M42.5,63l-8.8-5.1c-0.2-0.1-0.5-0.5-0.5-0.9v-1c0-0.3,0.2-0.5,0.5-0.3l8.8,5.1c0.2,0.1,0.5,0.5,0.5,0.9v1
					C43,63,42.8,63.1,42.5,63z"/>
				<path class="bs19" d="M34.2,57.7c-0.2-0.1-0.5-0.5-0.5-0.9v-1c0-0.1,0-0.1,0-0.1l0,0c-0.2-0.1-0.5,0-0.5,0.3v1
					c0,0.3,0.2,0.7,0.5,0.9l8.8,5.1c0.2,0.1,0.4,0,0.4-0.2L34.2,57.7z"/>
				<path class="bs20" d="M39.8,60.3l-5.3-3.1c-0.1-0.1-0.2-0.2-0.2-0.3l0,0c0-0.1,0.1-0.2,0.2-0.1l5.3,3.1c0.1,0.1,0.2,0.2,0.2,0.3
					l0,0C39.9,60.3,39.9,60.3,39.8,60.3z"/>
			</g>
			<g>
				<linearGradient id="BSID_114_" gradientUnits="userSpaceOnUse" x1="33.2749" y1="65.2648" x2="42.9976" y2="65.2648">
					<stop  offset="0" style="stop-color:#E0363F"/>
					<stop  offset="0.2089" style="stop-color:#93171B"/>
					<stop  offset="0.5324" style="stop-color:#93171B"/>
					<stop  offset="1" style="stop-color:#720714"/>
				</linearGradient>
				<path class="bs117" d="M42.5,68.9l-8.8-5.1c-0.2-0.1-0.5-0.5-0.5-0.9v-1c0-0.3,0.2-0.5,0.5-0.3l8.8,5.1c0.2,0.1,0.5,0.5,0.5,0.9
					v1C43,68.9,42.8,69.1,42.5,68.9z"/>
				<path class="bs19" d="M34.2,63.6c-0.2-0.1-0.5-0.5-0.5-0.9v-1c0-0.1,0-0.1,0-0.1l0,0c-0.2-0.1-0.5,0-0.5,0.3v1
					c0,0.3,0.2,0.7,0.5,0.9l8.8,5.1c0.2,0.1,0.4,0,0.4-0.2L34.2,63.6z"/>
				<path class="bs23" d="M39.8,66.2l-5.3-3.1c-0.1-0.1-0.2-0.2-0.2-0.3l0,0c0-0.1,0.1-0.2,0.2-0.1l5.3,3.1c0.1,0.1,0.2,0.2,0.2,0.3
					l0,0C39.9,66.2,39.9,66.2,39.8,66.2z"/>
			</g>
			<g>
				<linearGradient id="BSID_115_" gradientUnits="userSpaceOnUse" x1="33.2749" y1="71.2327" x2="42.9976" y2="71.2327">
					<stop  offset="0" style="stop-color:#E0363F"/>
					<stop  offset="0.2089" style="stop-color:#93171B"/>
					<stop  offset="0.5324" style="stop-color:#93171B"/>
					<stop  offset="1" style="stop-color:#720714"/>
				</linearGradient>
				<path class="bs118" d="M42.5,74.9l-8.8-5.1c-0.2-0.1-0.5-0.5-0.5-0.9v-1c0-0.3,0.2-0.5,0.5-0.3l8.8,5.1c0.2,0.1,0.5,0.5,0.5,0.9
					v1C43,74.9,42.8,75,42.5,74.9z"/>
				<path class="bs19" d="M34.2,69.6c-0.2-0.1-0.5-0.5-0.5-0.9v-1c0-0.1,0-0.1,0-0.1l0,0c-0.2-0.1-0.5,0-0.5,0.3v1
					c0,0.3,0.2,0.7,0.5,0.9l8.8,5.1c0.2,0.1,0.4,0,0.4-0.2L34.2,69.6z"/>
				<path class="bs25" d="M39.8,72.1l-5.3-3.1c-0.1-0.1-0.2-0.2-0.2-0.3l0,0c0-0.1,0.1-0.2,0.2-0.1l5.3,3.1c0.1,0.1,0.2,0.2,0.2,0.3
					l0,0C39.9,72.1,39.9,72.2,39.8,72.1z"/>
			</g>
			<g>
				<linearGradient id="BSID_116_" gradientUnits="userSpaceOnUse" x1="33.2749" y1="77.0824" x2="42.9976" y2="77.0824">
					<stop  offset="0" style="stop-color:#E0363F"/>
					<stop  offset="0.2089" style="stop-color:#93171B"/>
					<stop  offset="0.5324" style="stop-color:#93171B"/>
					<stop  offset="1" style="stop-color:#720714"/>
				</linearGradient>
				<path class="bs119" d="M42.5,80.7l-8.8-5.1c-0.2-0.1-0.5-0.5-0.5-0.9v-1c0-0.3,0.2-0.5,0.5-0.3l8.8,5.1c0.2,0.1,0.5,0.5,0.5,0.9
					v1C43,80.7,42.8,80.9,42.5,80.7z"/>
				<path class="bs19" d="M34.2,75.4c-0.2-0.1-0.5-0.5-0.5-0.9v-1c0-0.1,0-0.1,0-0.1l0,0c-0.2-0.1-0.5,0-0.5,0.3v1
					c0,0.3,0.2,0.7,0.5,0.9l8.8,5.1c0.2,0.1,0.4,0,0.4-0.2L34.2,75.4z"/>
				<path class="bs23" d="M39.8,78l-5.3-3.1c-0.1-0.1-0.2-0.2-0.2-0.3l0,0c0-0.1,0.1-0.2,0.2-0.1l5.3,3.1c0.1,0.1,0.2,0.2,0.2,0.3
					l0,0C39.9,78,39.9,78,39.8,78z"/>
			</g>
			<linearGradient id="BSID_117_" gradientUnits="userSpaceOnUse" x1="31.8685" y1="50.109" x2="32.7907" y2="50.109">
				<stop  offset="0" style="stop-color:#E0363F"/>
				<stop  offset="0.2089" style="stop-color:#93171B"/>
				<stop  offset="0.5324" style="stop-color:#93171B"/>
				<stop  offset="1" style="stop-color:#720714"/>
			</linearGradient>
			<polygon class="bs120" points="31.9,48 32.8,48.5 32.8,52.2 31.9,51.7 			"/>
			<linearGradient id="BSID_118_" gradientUnits="userSpaceOnUse" x1="31.8685" y1="56.0041" x2="32.7907" y2="56.0041">
				<stop  offset="0" style="stop-color:#E0363F"/>
				<stop  offset="0.2089" style="stop-color:#93171B"/>
				<stop  offset="0.5324" style="stop-color:#93171B"/>
				<stop  offset="1" style="stop-color:#720714"/>
			</linearGradient>
			<polygon class="bs121" points="31.9,53.9 32.8,54.4 32.8,58.1 31.9,57.6 			"/>
			<linearGradient id="BSID_119_" gradientUnits="userSpaceOnUse" x1="31.8685" y1="61.8992" x2="32.7907" y2="61.8992">
				<stop  offset="0" style="stop-color:#E0363F"/>
				<stop  offset="0.2089" style="stop-color:#93171B"/>
				<stop  offset="0.5324" style="stop-color:#93171B"/>
				<stop  offset="1" style="stop-color:#720714"/>
			</linearGradient>
			<polygon class="bs122" points="31.9,59.8 32.8,60.3 32.8,64 31.9,63.5 			"/>
			<linearGradient id="BSID_120_" gradientUnits="userSpaceOnUse" x1="31.8685" y1="67.7943" x2="32.7907" y2="67.7943">
				<stop  offset="0" style="stop-color:#E0363F"/>
				<stop  offset="0.2089" style="stop-color:#93171B"/>
				<stop  offset="0.5324" style="stop-color:#93171B"/>
				<stop  offset="1" style="stop-color:#720714"/>
			</linearGradient>
			<polygon class="bs123" points="31.9,65.7 32.8,66.2 32.8,69.9 31.9,69.4 			"/>
			<linearGradient id="BSID_121_" gradientUnits="userSpaceOnUse" x1="31.8685" y1="73.6895" x2="32.7907" y2="73.6895">
				<stop  offset="0" style="stop-color:#E0363F"/>
				<stop  offset="0.2089" style="stop-color:#93171B"/>
				<stop  offset="0.5324" style="stop-color:#93171B"/>
				<stop  offset="1" style="stop-color:#720714"/>
			</linearGradient>
			<polygon class="bs124" points="31.9,71.6 32.8,72.1 32.8,75.8 31.9,75.3 			"/>
		</g>
		<path class="bs23" d="M40.8,54.8c0,0.1-0.1,0.2-0.2,0.1c-0.1-0.1-0.2-0.2-0.2-0.3c0-0.1,0.1-0.2,0.2-0.1
			C40.7,54.5,40.8,54.7,40.8,54.8z"/>
		<path class="bs25" d="M41.6,55.2c0,0.1-0.1,0.2-0.2,0.1c-0.1-0.1-0.2-0.2-0.2-0.3c0-0.1,0.1-0.2,0.2-0.1
			C41.5,55,41.6,55.1,41.6,55.2z"/>
		<path class="bs23" d="M42.4,55.7c0,0.1-0.1,0.2-0.2,0.1c-0.1-0.1-0.2-0.2-0.2-0.3c0-0.1,0.1-0.2,0.2-0.1
			C42.3,55.4,42.4,55.6,42.4,55.7z"/>
		<path class="bs25" d="M40.8,60.7c0,0.1-0.1,0.2-0.2,0.1c-0.1-0.1-0.2-0.2-0.2-0.3c0-0.1,0.1-0.2,0.2-0.1
			C40.7,60.4,40.8,60.5,40.8,60.7z"/>
		<path class="bs23" d="M41.6,61.1c0,0.1-0.1,0.2-0.2,0.1c-0.1-0.1-0.2-0.2-0.2-0.3c0-0.1,0.1-0.2,0.2-0.1
			C41.5,60.9,41.6,61,41.6,61.1z"/>
		<path class="bs20" d="M42.4,61.6c0,0.1-0.1,0.2-0.2,0.1c-0.1-0.1-0.2-0.2-0.2-0.3c0-0.1,0.1-0.2,0.2-0.1
			C42.3,61.3,42.4,61.5,42.4,61.6z"/>
		<path class="bs20" d="M40.8,66.6c0,0.1-0.1,0.2-0.2,0.1c-0.1-0.1-0.2-0.2-0.2-0.3c0-0.1,0.1-0.2,0.2-0.1
			C40.7,66.3,40.8,66.5,40.8,66.6z"/>
		<path class="bs25" d="M41.6,67.1c0,0.1-0.1,0.2-0.2,0.1c-0.1-0.1-0.2-0.2-0.2-0.3c0-0.1,0.1-0.2,0.2-0.1
			C41.5,66.8,41.6,66.9,41.6,67.1z"/>
		<path class="bs20" d="M42.4,67.5c0,0.1-0.1,0.2-0.2,0.1c-0.1-0.1-0.2-0.2-0.2-0.3c0-0.1,0.1-0.2,0.2-0.1
			C42.3,67.3,42.4,67.4,42.4,67.5z"/>
		<path class="bs20" d="M40.8,72.5c0,0.1-0.1,0.2-0.2,0.1c-0.1-0.1-0.2-0.2-0.2-0.3c0-0.1,0.1-0.2,0.2-0.1
			C40.7,72.2,40.8,72.3,40.8,72.5z"/>
		<path class="bs23" d="M41.6,72.9c0,0.1-0.1,0.2-0.2,0.1c-0.1-0.1-0.2-0.2-0.2-0.3s0.1-0.2,0.2-0.1C41.5,72.6,41.6,72.8,41.6,72.9z
			"/>
		<path class="bs23" d="M42.4,73.4c0,0.1-0.1,0.2-0.2,0.1c-0.1-0.1-0.2-0.2-0.2-0.3c0-0.1,0.1-0.2,0.2-0.1
			C42.3,73.1,42.4,73.2,42.4,73.4z"/>
		<path class="bs20" d="M40.8,78.4c0,0.1-0.1,0.2-0.2,0.1c-0.1-0.1-0.2-0.2-0.2-0.3c0-0.1,0.1-0.2,0.2-0.1
			C40.7,78.1,40.8,78.3,40.8,78.4z"/>
		<path class="bs25" d="M41.6,78.8c0,0.1-0.1,0.2-0.2,0.1c-0.1-0.1-0.2-0.2-0.2-0.3c0-0.1,0.1-0.2,0.2-0.1
			C41.5,78.6,41.6,78.7,41.6,78.8z"/>
		<path class="bs23" d="M42.4,79.3c0,0.1-0.1,0.2-0.2,0.1c-0.1-0.1-0.2-0.2-0.2-0.3c0-0.1,0.1-0.2,0.2-0.1
			C42.3,79,42.4,79.2,42.4,79.3z"/>
		<g>
			<linearGradient id="BSID_122_" gradientUnits="userSpaceOnUse" x1="46.4581" y1="64.6149" x2="57.5364" y2="64.6149">
				<stop  offset="0" style="stop-color:#FFFFFF"/>
				<stop  offset="1" style="stop-color:#C2C7D7"/>
			</linearGradient>
			<path class="bs125" d="M46.5,81V54.6l0.1,0l11-6.4v26.4l-0.1,0L46.5,81z M46.7,54.8v25.9l10.6-6.1V48.6L46.7,54.8z"/>
		</g>
		<g>
			<linearGradient id="BSID_123_" gradientUnits="userSpaceOnUse" x1="49.1287" y1="59.3513" x2="55.274" y2="59.3513">
				<stop  offset="3.463660e-02" style="stop-color:#93171B"/>
				<stop  offset="0.3207" style="stop-color:#720714"/>
			</linearGradient>
			<path class="bs126" d="M54.7,60.1L49.7,63c-0.3,0.2-0.6,0-0.6-0.5v-2.7c0-0.4,0.3-1,0.6-1.1l4.9-2.9c0.3-0.2,0.6,0,0.6,0.5v2.7
				C55.3,59.4,55,59.9,54.7,60.1z"/>
			<linearGradient id="BSID_124_" gradientUnits="userSpaceOnUse" x1="49.1733" y1="59.3513" x2="55.274" y2="59.3513">
				<stop  offset="0.3039" style="stop-color:#E0363F"/>
				<stop  offset="1" style="stop-color:#AD2127"/>
			</linearGradient>
			<path class="bs127" d="M54.8,55.7c0,0.1,0,0.2,0,0.3v2.7c0,0.4-0.3,1-0.6,1.1l-4.9,2.9c0,0-0.1,0-0.1,0.1
				c0.1,0.2,0.3,0.3,0.6,0.2l4.9-2.9c0.3-0.2,0.6-0.7,0.6-1.1v-2.7C55.3,55.8,55.1,55.6,54.8,55.7z"/>
			<g>
				<g>
					<path class="bs20" d="M53.8,58.4c0.1-0.1,0.2,0,0.2,0.1v0.6c0,0.1-0.1,0.2-0.2,0.3c-0.1,0.1-0.2,0-0.2-0.1v-0.6
						C53.6,58.6,53.7,58.5,53.8,58.4z"/>
					<path class="bs23" d="M53.1,58.9c0.1-0.1,0.2,0,0.2,0.1v0.5c0,0.1-0.1,0.2-0.2,0.3c-0.1,0.1-0.2,0-0.2-0.1v-0.5
						C52.9,59.1,53,59,53.1,58.9z"/>
					<path class="bs25" d="M52.4,58.7c0.1-0.1,0.2,0,0.2,0.1V60c0,0.1-0.1,0.2-0.2,0.3c-0.1,0.1-0.2,0-0.2-0.1V59
						C52.2,58.9,52.3,58.8,52.4,58.7z"/>
					<path class="bs23" d="M51.6,58.5c0.1-0.1,0.2,0,0.2,0.1v1.8c0,0.1-0.1,0.2-0.2,0.3c-0.1,0.1-0.2,0-0.2-0.1v-1.8
						C51.5,58.7,51.6,58.5,51.6,58.5z"/>
					<path class="bs23" d="M50.9,59.1c0.1-0.1,0.2,0,0.2,0.1v1.6c0,0.1-0.1,0.2-0.2,0.3c-0.1,0.1-0.2,0-0.2-0.1v-1.6
						C50.8,59.3,50.8,59.1,50.9,59.1z"/>
					<path class="bs20" d="M50.2,60.2c0.1-0.1,0.2,0,0.2,0.1v0.9c0,0.1-0.1,0.2-0.2,0.3c-0.1,0.1-0.2,0-0.2-0.1v-0.9
						C50.1,60.4,50.1,60.3,50.2,60.2z"/>
				</g>
				<path class="bs25" d="M53.6,58.1c0,0.1,0.1,0.1,0.2,0.1c0.1-0.1,0.2-0.2,0.2-0.3c0-0.1-0.1-0.1-0.2-0.1
					C53.7,57.9,53.6,58,53.6,58.1z"/>
				<path class="bs20" d="M53.6,57.5c0,0.1,0.1,0.1,0.2,0.1c0.1-0.1,0.2-0.2,0.2-0.3c0-0.1-0.1-0.1-0.2-0.1
					C53.7,57.3,53.6,57.4,53.6,57.5z"/>
			</g>
		</g>
	</g>
</g>
<g>
	<linearGradient id="cloud-solid_1_" gradientUnits="userSpaceOnUse" x1="45.7112" y1="21.7877" x2="52.9453" y2="18.2132">
		<stop  offset="0" style="stop-color:#FFFFFF"/>
		<stop  offset="1" style="stop-color:#C2C7D7"/>
	</linearGradient>
	<path id="cloud-solid" class="bs128" d="M62.7,33.1c0.6-0.4,0.9-1.1,0.9-2.1c0-0.7-0.2-1.4-0.4-2.2c-0.6-1.5-1.7-2.9-2.9-3.6
		l-0.1-0.1c-0.5-3.2-2.7-6.6-5.4-8.2l-0.1,0c-0.5-4.5-3.6-9.6-7.4-11.8c-2.2-1.3-4.2-1.3-5.5-0.4c0,0-3.9,2.4-4,2.4c0,0,0,0,0,0
		c-1.4-0.7-2.6-0.7-3.5-0.1c0,0-4.7,2.8-4.7,2.8c0,0-0.1,0-0.1,0.1c0,0,0,0-0.1,0c-1,0.6-1.7,1.8-1.7,3.6c0,2.8,1.5,6,3.6,8.1
		c0.6,0.6,1.2,1.1,1.9,1.5l22.1,12.7c0.1,0.1,0.2,0.1,0.3,0.2c0.9,0.4,1.6,0.4,2.2,0c0,0,0,0,0.1,0C57.9,36,62.7,33.2,62.7,33.1z"/>
	<path id="cloud-white-outlined" class="bs129" d="M35.7,13.7l0.1-1.3c0.4-3.6,3.1-4.8,6.5-2.9c3.2,1.9,6,6.2,6.4,10.1l0.1,1.1
		l1,0.6l0,0c2.1,1.2,3.9,4,4.3,6.6l0.2,1.3l1,0.3c0.8,0.5,1.5,1.4,2,2.5c0.2,0.5,0.3,1,0.3,1.5c0,1.4-0.9,2-2.1,1.4l-0.2-0.1
		L33.3,22c-0.5-0.3-1.1-0.7-1.5-1.2c-1.8-1.8-3-4.4-3-6.6c0-2.8,2-4,4.5-2.6c0.4,0.2,0.8,0.5,1.3,0.9L35.7,13.7 M42.3,8.2
		c-3.9-2.2-7.1-0.7-7.5,3.4c-0.5-0.4-1-0.8-1.5-1.2c-3.1-1.8-5.5-0.4-5.6,3.1c0,2.8,1.5,6,3.6,8.1c0.6,0.6,1.2,1.1,1.9,1.5
		l22.1,12.7c0.1,0.1,0.2,0.1,0.3,0.2c1.7,0.8,3-0.1,3-2.1c0-0.7-0.2-1.5-0.4-2.2c-0.6-1.5-1.7-2.9-2.9-3.6l-0.1-0.1
		c-0.5-3.2-2.7-6.6-5.4-8.2l-0.1,0C49.3,15.5,46.1,10.4,42.3,8.2"/>
	<linearGradient id="red-cloud_1_" gradientUnits="userSpaceOnUse" x1="44.8543" y1="9.4339" x2="42.4288" y2="30.4977">
		<stop  offset="0.3039" style="stop-color:#E0363F"/>
		<stop  offset="1" style="stop-color:#93171B"/>
	</linearGradient>
	<path id="red-cloud" class="bs130" d="M57.6,33.4c0,1.4-0.9,2-2.1,1.4l-0.2-0.1L33.3,22c-0.5-0.3-1.1-0.7-1.5-1.2
		c-1.8-1.8-3-4.4-3-6.6c0-2.8,2-4,4.5-2.6c0.4,0.2,0.8,0.6,1.3,0.9l1.2,1.1l0.1-1.3c0.4-3.6,3.2-4.8,6.5-2.9c3.2,1.9,6,6.2,6.4,10.1
		l0.1,1.1l1,0.6l0,0c2.1,1.2,3.9,4,4.3,6.6l0.2,1.3l1,0.3c0.8,0.5,1.6,1.4,2,2.4C57.5,32.4,57.6,33,57.6,33.4z"/>
	<g id="cycle-sign">
		<path class="bs20" d="M41.6,13.1l-1,1l-1,1l1.6,1.1l1.6,1.1l-0.5-1.2c1.3,0.6,1.9,2,2.4,3.2c0.5,1.4,0.3,2.5-0.3,3.1l0.7,2.2
			c1.4-0.6,1.8-2.7,1-5.3c-0.7-2.2-2.3-4.1-3.8-5c-0.2-0.1-0.3-0.2-0.5-0.2L41.6,13.1"/>
		<path class="bs20" d="M38.6,13.9c-1.4,0.6-1.8,2.7-1,5.3c0.7,2.2,2.3,4.1,3.8,5c0.2,0.1,0.3,0.2,0.5,0.2l0.3,1l1-1l1-0.9l-1.6-1.1
			l-1.6-1.1l0.3,1.2c-0.9-0.6-1.8-2-2.2-3.2c-0.5-1.4-0.3-2.5,0.3-3.1L38.6,13.9"/>
	</g>
</g>
</svg>
