<?xml version="1.0" encoding="utf-8"?>
<!-- Generator: Adobe Illustrator 25.0.1, SVG Export Plug-In . SVG Version: 6.00 Build 0)  -->
<svg version="1.1" id="ep-icon" xmlns="http://www.w3.org/2000/svg" xmlns:xlink="http://www.w3.org/1999/xlink" x="0px" y="0px"
	 viewBox="0 0 89 89" style="enable-background:new 0 0 89 89;" xml:space="preserve">
<style type="text/css">
	.ep0{fill:url(#EPID_1_);}
	.ep1{fill:url(#EPID_2_);}
	.ep2{fill:url(#EPID_3_);}
	.ep3{fill:url(#EPID_4_);}
	.ep4{fill:url(#EPID_5_);}
	.ep5{fill:url(#EPID_6_);}
	.ep6{fill:url(#EPID_7_);}
	.ep7{fill:url(#EPID_8_);}
	.ep8{fill:url(#EPID_9_);}
	.ep9{fill:url(#EPID_10_);}
	.ep10{fill:#BBBDBF;}
	.ep11{fill:url(#EPID_11_);}
	.ep12{fill:url(#EPID_12_);}
	.ep13{fill:url(#EPID_13_);}
	.ep14{fill:url(#EPID_14_);}
	.ep15{fill:url(#EPID_15_);}
	.ep16{fill:url(#EPID_16_);}
	.ep17{fill:url(#EPID_17_);}
	.ep18{fill:url(#EPID_18_);}
	.ep19{fill:url(#EPID_19_);}
	.ep20{fill:url(#EPID_20_);}
	.ep21{fill:url(#EPID_21_);}
	.ep22{fill:url(#EPID_22_);}
	.ep23{fill:url(#EPID_23_);}
	.ep24{fill:url(#EPID_24_);}
	.ep25{fill:url(#EPID_25_);}
	.ep26{fill:url(#EPID_26_);}
	.ep27{fill:url(#EPID_27_);}
	.ep28{fill:url(#EPID_28_);}
	.ep29{fill:url(#EPID_29_);}
	.ep30{fill:url(#EPID_30_);}
	.ep31{fill:url(#EPID_31_);}
	.ep32{fill:url(#EPID_32_);}
	.ep33{fill:url(#EPID_33_);}
	.ep34{fill:url(#EPID_34_);}
	.ep35{fill:url(#EPID_35_);}
	.ep36{fill:url(#EPID_36_);}
	.ep37{fill:url(#EPID_37_);}
	.ep38{fill:url(#EPID_38_);}
	.ep39{fill:#FFFFFF;}
	.ep40{fill:url(#EPID_39_);}
	.ep41{clip-path:url(#EPID_41_);}
	.ep42{fill:url(#EPID_42_);}
	.ep43{fill:url(#EPID_43_);}
	.ep44{fill:url(#EPID_44_);}
	.ep45{fill:url(#EPID_45_);}
	.ep46{fill:url(#EPID_46_);}
	.ep47{fill:url(#EPID_47_);}
	.ep48{fill:url(#EPID_48_);}
	.ep49{fill:url(#EPID_49_);}
	.ep50{fill:url(#EPID_50_);}
	.ep51{fill:url(#EPID_51_);}
	.ep52{fill:url(#EPID_52_);}
	.ep53{fill:url(#EPID_53_);}
	.ep54{fill:url(#EPID_54_);}
	.ep55{fill:url(#EPID_55_);}
	.ep56{fill:url(#EPID_56_);}
	.ep57{fill:url(#EPID_57_);}
	.ep58{fill:url(#EPID_58_);}
	.ep59{fill:url(#EPID_59_);}
	.ep60{fill:url(#EPID_60_);}
	.ep61{fill:url(#EPID_61_);}
	.ep62{fill:url(#EPID_62_);}
	.ep63{fill:url(#EPID_63_);}
	.ep64{fill:url(#EPID_64_);}
	.ep65{fill:url(#EPID_65_);}
	.ep66{fill:url(#EPID_66_);}
	.ep67{fill:url(#EPID_67_);}
	.ep68{fill:url(#EPID_68_);}
	.ep69{fill:url(#EPID_69_);}
	.ep70{fill:url(#EPID_70_);}
	.ep71{fill:url(#EPID_71_);}
	.ep72{fill:url(#EPID_72_);}
</style>
<g id="ep-monitor">
	<g id="feet">
		<g>
			<linearGradient id="EPID_1_" gradientUnits="userSpaceOnUse" x1="43.7556" y1="57.265" x2="67.6139" y2="57.265">
				<stop  offset="3.016748e-02" style="stop-color:#C1C6D4"/>
				<stop  offset="1" style="stop-color:#5D5961"/>
			</linearGradient>
			<path class="ep0" d="M66.9,56.3l-9.5-5.5c-0.8-0.4-1.8-0.6-2.5-0.3l-10.6,4.3c-0.8,0.3-0.7,1.1,0.2,1.6l12.6,7.3
				c0.9,0.5,2.2,0.6,2.8,0.1l7.5-6.1C67.8,57.3,67.6,56.7,66.9,56.3"/>
			<linearGradient id="EPID_2_" gradientUnits="userSpaceOnUse" x1="43.7556" y1="57.1689" x2="67.6139" y2="57.1689">
				<stop  offset="3.016748e-02" style="stop-color:#C0C5D2"/>
				<stop  offset="1" style="stop-color:#66636A"/>
			</linearGradient>
			<path class="ep1" d="M66.9,56.2l-9.5-5.5c-0.8-0.4-1.8-0.6-2.5-0.3l-10.6,4.3c-0.8,0.3-0.7,1.1,0.2,1.6l12.6,7.3
				c0.9,0.5,2.2,0.6,2.8,0.1l7.5-6.1C67.8,57.2,67.6,56.6,66.9,56.2"/>
			<linearGradient id="EPID_3_" gradientUnits="userSpaceOnUse" x1="43.7556" y1="57.0728" x2="67.6139" y2="57.0728">
				<stop  offset="3.016748e-02" style="stop-color:#C0C4D0"/>
				<stop  offset="1" style="stop-color:#706D74"/>
			</linearGradient>
			<path class="ep2" d="M66.9,56.1l-9.5-5.5c-0.8-0.4-1.8-0.6-2.5-0.3l-10.6,4.3c-0.8,0.3-0.7,1.1,0.2,1.6l12.6,7.3
				c0.9,0.5,2.2,0.6,2.8,0.1l7.5-6.1C67.8,57.1,67.6,56.5,66.9,56.1"/>
			<linearGradient id="EPID_4_" gradientUnits="userSpaceOnUse" x1="43.7556" y1="56.9767" x2="67.6139" y2="56.9767">
				<stop  offset="3.016748e-02" style="stop-color:#BFC3CE"/>
				<stop  offset="1" style="stop-color:#79777D"/>
			</linearGradient>
			<path class="ep3" d="M66.9,56l-9.5-5.5c-0.8-0.4-1.8-0.6-2.5-0.3l-10.6,4.3c-0.8,0.3-0.7,1.1,0.2,1.6l12.6,7.3
				c0.9,0.5,2.2,0.6,2.8,0.1l7.5-6.1C67.8,57,67.6,56.4,66.9,56"/>
			<linearGradient id="EPID_5_" gradientUnits="userSpaceOnUse" x1="43.7556" y1="56.8806" x2="67.6139" y2="56.8806">
				<stop  offset="3.016748e-02" style="stop-color:#BFC2CC"/>
				<stop  offset="1" style="stop-color:#838187"/>
			</linearGradient>
			<path class="ep4" d="M66.9,55.9l-9.5-5.5c-0.8-0.4-1.8-0.6-2.5-0.3l-10.6,4.3c-0.8,0.3-0.7,1.1,0.2,1.6l12.6,7.3
				c0.9,0.5,2.2,0.6,2.8,0.1l7.5-6.1C67.8,56.9,67.6,56.3,66.9,55.9"/>
			<linearGradient id="EPID_6_" gradientUnits="userSpaceOnUse" x1="43.7556" y1="56.7845" x2="67.6139" y2="56.7845">
				<stop  offset="3.016748e-02" style="stop-color:#BEC2CA"/>
				<stop  offset="1" style="stop-color:#8C8B90"/>
			</linearGradient>
			<path class="ep5" d="M66.9,55.8l-9.5-5.5c-0.8-0.4-1.8-0.6-2.5-0.3l-10.6,4.3c-0.8,0.3-0.7,1.1,0.2,1.6l12.6,7.3
				c0.9,0.5,2.2,0.6,2.8,0.1l7.5-6.1C67.8,56.8,67.6,56.2,66.9,55.8"/>
			<linearGradient id="EPID_7_" gradientUnits="userSpaceOnUse" x1="43.7556" y1="56.6884" x2="67.6139" y2="56.6884">
				<stop  offset="3.016748e-02" style="stop-color:#BDC1C7"/>
				<stop  offset="1" style="stop-color:#959599"/>
			</linearGradient>
			<path class="ep6" d="M66.9,55.7l-9.5-5.5c-0.8-0.4-1.8-0.6-2.5-0.3l-10.6,4.3c-0.8,0.3-0.7,1.1,0.2,1.6l12.6,7.3
				c0.9,0.5,2.2,0.6,2.8,0.1l7.5-6.1C67.8,56.7,67.6,56.1,66.9,55.7"/>
			<linearGradient id="EPID_8_" gradientUnits="userSpaceOnUse" x1="43.7556" y1="56.5924" x2="67.6139" y2="56.5924">
				<stop  offset="3.016748e-02" style="stop-color:#BDC0C5"/>
				<stop  offset="1" style="stop-color:#9F9FA3"/>
			</linearGradient>
			<path class="ep7" d="M66.9,55.6l-9.5-5.5c-0.8-0.4-1.8-0.6-2.5-0.3l-10.6,4.3c-0.8,0.3-0.7,1.1,0.2,1.6l12.6,7.3
				c0.9,0.5,2.2,0.6,2.8,0.1l7.5-6.1C67.8,56.6,67.6,56,66.9,55.6"/>
			<linearGradient id="EPID_9_" gradientUnits="userSpaceOnUse" x1="43.7556" y1="56.4963" x2="67.6139" y2="56.4963">
				<stop  offset="3.016748e-02" style="stop-color:#BCBFC3"/>
				<stop  offset="1" style="stop-color:#A8A9AC"/>
			</linearGradient>
			<path class="ep8" d="M66.9,55.5L57.4,50c-0.8-0.4-1.8-0.6-2.5-0.3l-10.6,4.3c-0.8,0.3-0.7,1.1,0.2,1.6L57.1,63
				c0.9,0.5,2.2,0.6,2.8,0.1l7.5-6.1C67.8,56.5,67.6,55.9,66.9,55.5"/>
			<linearGradient id="EPID_10_" gradientUnits="userSpaceOnUse" x1="43.7556" y1="56.4002" x2="67.6139" y2="56.4002">
				<stop  offset="3.016748e-02" style="stop-color:#BCBEC1"/>
				<stop  offset="1" style="stop-color:#B2B3B6"/>
			</linearGradient>
			<path class="ep9" d="M66.9,55.4l-9.5-5.5c-0.8-0.4-1.8-0.6-2.5-0.3L44.3,54c-0.8,0.3-0.7,1.1,0.2,1.6l12.6,7.3
				c0.9,0.5,2.2,0.6,2.8,0.1l7.5-6.1C67.8,56.5,67.6,55.8,66.9,55.4"/>
			<path class="ep10" d="M66.9,55.3l-9.5-5.5c-0.8-0.4-1.8-0.6-2.5-0.3l-10.6,4.3c-0.8,0.3-0.7,1.1,0.2,1.6l12.6,7.3
				c0.9,0.5,2.2,0.6,2.8,0.1l7.5-6.1C67.8,56.4,67.6,55.7,66.9,55.3"/>
		</g>
		<linearGradient id="EPID_11_" gradientUnits="userSpaceOnUse" x1="55.4513" y1="55.733" x2="61.196" y2="47.5628">
			<stop  offset="5.584909e-04" style="stop-color:#F7F3FF"/>
			<stop  offset="1" style="stop-color:#96949B"/>
		</linearGradient>
		<path class="ep11" d="M66.9,55.3l-9.5-5.5c-0.8-0.4-1.8-0.6-2.5-0.3l-10.6,4.3c-0.8,0.3-0.7,1.1,0.2,1.6l12.6,7.3
			c0.9,0.5,2.2,0.6,2.8,0.1l7.5-6.1C67.8,56.4,67.6,55.7,66.9,55.3"/>
	</g>
	<g>
		<linearGradient id="EPID_12_" gradientUnits="userSpaceOnUse" x1="36.0219" y1="32.0084" x2="82.4678" y2="32.0084">
			<stop  offset="0" style="stop-color:#FFFFFF"/>
			<stop  offset="1" style="stop-color:#C2C7D7"/>
		</linearGradient>
		<path class="ep12" d="M82.5,30.2l-0.1,30.4c0,1.3-0.9,1.8-2.1,1.2L38.1,37.4c-1.1-0.7-2.1-2.3-2.1-3.6l0.1-30.4
			c0-1.3,0.9-1.8,2.1-1.2l42.2,24.4C81.5,27.3,82.5,28.9,82.5,30.2z"/>
		<linearGradient id="EPID_13_" gradientUnits="userSpaceOnUse" x1="35.9352" y1="32.0564" x2="82.3812" y2="32.0564">
			<stop  offset="0" style="stop-color:#FCFDFD"/>
			<stop  offset="1" style="stop-color:#C2C7D6"/>
		</linearGradient>
		<path class="ep13" d="M82.4,30.3l-0.1,30.4c0,1.3-0.9,1.8-2.1,1.2L38,37.4c-1.1-0.7-2.1-2.3-2.1-3.6L36,3.5c0-1.3,0.9-1.8,2.1-1.2
			l42.2,24.4C81.5,27.3,82.4,28.9,82.4,30.3z"/>
		<linearGradient id="EPID_14_" gradientUnits="userSpaceOnUse" x1="35.8486" y1="32.1043" x2="82.2946" y2="32.1043">
			<stop  offset="0" style="stop-color:#FAFAFA"/>
			<stop  offset="1" style="stop-color:#C1C6D5"/>
		</linearGradient>
		<path class="ep14" d="M82.3,30.3l-0.1,30.4c0,1.3-0.9,1.8-2.1,1.2L37.9,37.5c-1.1-0.7-2.1-2.3-2.1-3.6l0.1-30.4
			c0-1.3,0.9-1.8,2.1-1.2l42.2,24.4C81.4,27.4,82.3,29,82.3,30.3z"/>
		<linearGradient id="EPID_15_" gradientUnits="userSpaceOnUse" x1="35.762" y1="32.1522" x2="82.208" y2="32.1522">
			<stop  offset="0" style="stop-color:#F7F8F8"/>
			<stop  offset="1" style="stop-color:#C1C6D4"/>
		</linearGradient>
		<path class="ep15" d="M82.2,30.3l-0.1,30.4c0,1.3-0.9,1.8-2.1,1.2L37.8,37.5c-1.1-0.7-2.1-2.3-2.1-3.6l0.1-30.4
			c0-1.3,0.9-1.8,2.1-1.2l42.2,24.4C81.3,27.4,82.2,29,82.2,30.3z"/>
		<linearGradient id="EPID_16_" gradientUnits="userSpaceOnUse" x1="35.6754" y1="32.2001" x2="82.1213" y2="32.2001">
			<stop  offset="0" style="stop-color:#F5F5F6"/>
			<stop  offset="1" style="stop-color:#C1C6D3"/>
		</linearGradient>
		<path class="ep16" d="M82.1,30.4L82,60.8c0,1.3-0.9,1.8-2.1,1.2L37.7,37.6c-1.1-0.7-2.1-2.3-2.1-3.6l0.1-30.4
			c0-1.3,0.9-1.8,2.1-1.2L80,26.8C81.2,27.5,82.1,29.1,82.1,30.4z"/>
		<linearGradient id="EPID_17_" gradientUnits="userSpaceOnUse" x1="35.5887" y1="32.2481" x2="82.0347" y2="32.2481">
			<stop  offset="0" style="stop-color:#F2F3F3"/>
			<stop  offset="1" style="stop-color:#C1C5D3"/>
		</linearGradient>
		<path class="ep17" d="M82,30.4l-0.1,30.4c0,1.3-0.9,1.8-2.1,1.2L37.7,37.6c-1.1-0.7-2.1-2.3-2.1-3.6l0.1-30.4
			c0-1.3,0.9-1.8,2.1-1.2L80,26.9C81.1,27.5,82,29.1,82,30.4z"/>
		<linearGradient id="EPID_18_" gradientUnits="userSpaceOnUse" x1="35.5021" y1="32.296" x2="81.9481" y2="32.296">
			<stop  offset="0" style="stop-color:#F0F0F1"/>
			<stop  offset="1" style="stop-color:#C0C5D2"/>
		</linearGradient>
		<path class="ep18" d="M81.9,30.5l-0.1,30.4c0,1.3-0.9,1.8-2.1,1.2L37.6,37.7c-1.1-0.7-2.1-2.3-2.1-3.6l0.1-30.4
			c0-1.3,0.9-1.8,2.1-1.2l42.2,24.4C81,27.6,81.9,29.2,81.9,30.5z"/>
		<linearGradient id="EPID_19_" gradientUnits="userSpaceOnUse" x1="35.4155" y1="32.3439" x2="81.8614" y2="32.3439">
			<stop  offset="0" style="stop-color:#EDEEEE"/>
			<stop  offset="1" style="stop-color:#C0C4D1"/>
		</linearGradient>
		<path class="ep19" d="M81.9,30.5l-0.1,30.4c0,1.3-0.9,1.8-2.1,1.2L37.5,37.7c-1.1-0.7-2.1-2.3-2.1-3.6l0.1-30.4
			c0-1.3,0.9-1.8,2.1-1.2L79.8,27C80.9,27.6,81.9,29.2,81.9,30.5z"/>
		<linearGradient id="EPID_20_" gradientUnits="userSpaceOnUse" x1="35.3288" y1="32.3918" x2="81.7748" y2="32.3918">
			<stop  offset="0" style="stop-color:#EBEBEC"/>
			<stop  offset="1" style="stop-color:#C0C4D0"/>
		</linearGradient>
		<path class="ep20" d="M81.8,30.6L81.7,61c0,1.3-0.9,1.8-2.1,1.2L37.4,37.8c-1.1-0.7-2.1-2.3-2.1-3.6l0.1-30.4
			c0-1.3,0.9-1.8,2.1-1.2L79.7,27C80.8,27.7,81.8,29.3,81.8,30.6z"/>
		<linearGradient id="EPID_21_" gradientUnits="userSpaceOnUse" x1="35.2422" y1="32.4398" x2="81.6882" y2="32.4398">
			<stop  offset="0" style="stop-color:#E8E9EA"/>
			<stop  offset="1" style="stop-color:#C0C4CF"/>
		</linearGradient>
		<path class="ep21" d="M81.7,30.6L81.6,61c0,1.3-0.9,1.8-2.1,1.2L37.3,37.8c-1.1-0.7-2.1-2.3-2.1-3.6l0.1-30.4
			c0-1.3,0.9-1.8,2.1-1.2l42.2,24.4C80.8,27.7,81.7,29.3,81.7,30.6z"/>
		<linearGradient id="EPID_22_" gradientUnits="userSpaceOnUse" x1="35.1556" y1="32.4877" x2="81.6016" y2="32.4877">
			<stop  offset="0" style="stop-color:#E6E7E7"/>
			<stop  offset="1" style="stop-color:#BFC3CE"/>
		</linearGradient>
		<path class="ep22" d="M81.6,30.7l-0.1,30.4c0,1.3-0.9,1.8-2.1,1.2L37.2,37.9c-1.1-0.7-2.1-2.3-2.1-3.6l0.1-30.4
			c0-1.3,0.9-1.8,2.1-1.2l42.2,24.4C80.7,27.8,81.6,29.4,81.6,30.7z"/>
		<linearGradient id="EPID_23_" gradientUnits="userSpaceOnUse" x1="35.0689" y1="32.5356" x2="81.5149" y2="32.5356">
			<stop  offset="0" style="stop-color:#E3E4E5"/>
			<stop  offset="1" style="stop-color:#BFC3CD"/>
		</linearGradient>
		<path class="ep23" d="M81.5,30.7l-0.1,30.4c0,1.3-0.9,1.8-2.1,1.2L37.1,37.9c-1.1-0.7-2.1-2.3-2.1-3.6L35.1,4
			c0-1.3,0.9-1.8,2.1-1.2l42.2,24.4C80.6,27.8,81.5,29.4,81.5,30.7z"/>
		<linearGradient id="EPID_24_" gradientUnits="userSpaceOnUse" x1="34.9823" y1="32.5835" x2="81.4283" y2="32.5835">
			<stop  offset="0" style="stop-color:#E1E2E3"/>
			<stop  offset="1" style="stop-color:#BFC3CC"/>
		</linearGradient>
		<path class="ep24" d="M81.4,30.8l-0.1,30.4c0,1.3-0.9,1.8-2.1,1.2L37,38c-1.1-0.7-2.1-2.3-2.1-3.6L35.1,4c0-1.3,0.9-1.8,2.1-1.2
			l42.2,24.4C80.5,27.9,81.4,29.5,81.4,30.8z"/>
		<linearGradient id="EPID_25_" gradientUnits="userSpaceOnUse" x1="34.8957" y1="32.6314" x2="81.3417" y2="32.6314">
			<stop  offset="0" style="stop-color:#DEDFE0"/>
			<stop  offset="1" style="stop-color:#BFC2CB"/>
		</linearGradient>
		<path class="ep25" d="M81.3,30.8l-0.1,30.4c0,1.3-0.9,1.8-2.1,1.2L37,38c-1.1-0.7-2.1-2.3-2.1-3.6L35,4.1c0-1.3,0.9-1.8,2.1-1.2
			l42.2,24.4C80.4,27.9,81.3,29.5,81.3,30.8z"/>
		<linearGradient id="EPID_26_" gradientUnits="userSpaceOnUse" x1="34.8091" y1="32.6794" x2="81.255" y2="32.6794">
			<stop  offset="0" style="stop-color:#DCDDDE"/>
			<stop  offset="1" style="stop-color:#BEC2CB"/>
		</linearGradient>
		<path class="ep26" d="M81.3,30.9l-0.1,30.4c0,1.3-0.9,1.8-2.1,1.2L36.9,38.1c-1.1-0.7-2.1-2.3-2.1-3.6l0.1-30.4
			c0-1.3,0.9-1.8,2.1-1.2l42.2,24.4C80.3,28,81.3,29.6,81.3,30.9z"/>
		<linearGradient id="EPID_27_" gradientUnits="userSpaceOnUse" x1="34.7224" y1="32.7273" x2="81.1684" y2="32.7273">
			<stop  offset="0" style="stop-color:#D9DADB"/>
			<stop  offset="1" style="stop-color:#BEC1CA"/>
		</linearGradient>
		<path class="ep27" d="M81.2,30.9l-0.1,30.4c0,1.3-0.9,1.8-2.1,1.2L36.8,38.1c-1.1-0.7-2.1-2.3-2.1-3.6l0.1-30.4
			c0-1.3,0.9-1.8,2.1-1.2l42.2,24.4C80.2,28,81.2,29.6,81.2,30.9z"/>
		<linearGradient id="EPID_28_" gradientUnits="userSpaceOnUse" x1="34.6358" y1="32.7752" x2="81.0818" y2="32.7752">
			<stop  offset="0" style="stop-color:#D7D8D9"/>
			<stop  offset="1" style="stop-color:#BEC1C9"/>
		</linearGradient>
		<path class="ep28" d="M81.1,31L81,61.3c0,1.3-0.9,1.8-2.1,1.2L36.7,38.1c-1.1-0.7-2.1-2.3-2.1-3.6l0.1-30.4c0-1.3,0.9-1.8,2.1-1.2
			L79,27.4C80.2,28.1,81.1,29.7,81.1,31z"/>
		<linearGradient id="EPID_29_" gradientUnits="userSpaceOnUse" x1="34.5492" y1="32.8231" x2="80.9952" y2="32.8231">
			<stop  offset="0" style="stop-color:#D4D5D7"/>
			<stop  offset="1" style="stop-color:#BEC1C8"/>
		</linearGradient>
		<path class="ep29" d="M81,31l-0.1,30.4c0,1.3-0.9,1.8-2.1,1.2L36.6,38.2c-1.1-0.7-2.1-2.3-2.1-3.6l0.1-30.4c0-1.3,0.9-1.8,2.1-1.2
			l42.2,24.4C80.1,28.1,81,29.7,81,31z"/>
		<linearGradient id="EPID_30_" gradientUnits="userSpaceOnUse" x1="34.4625" y1="32.8711" x2="80.9085" y2="32.8711">
			<stop  offset="0" style="stop-color:#D2D3D4"/>
			<stop  offset="1" style="stop-color:#BDC0C7"/>
		</linearGradient>
		<path class="ep30" d="M80.9,31.1l-0.1,30.4c0,1.3-0.9,1.8-2.1,1.2L36.5,38.2c-1.1-0.7-2.1-2.3-2.1-3.6l0.1-30.4
			c0-1.3,0.9-1.8,2.1-1.2l42.2,24.4C80,28.2,80.9,29.8,80.9,31.1z"/>
		<linearGradient id="EPID_31_" gradientUnits="userSpaceOnUse" x1="34.3759" y1="32.919" x2="80.8219" y2="32.919">
			<stop  offset="0" style="stop-color:#CFD1D2"/>
			<stop  offset="1" style="stop-color:#BDC0C6"/>
		</linearGradient>
		<path class="ep31" d="M80.8,31.1l-0.1,30.4c0,1.3-0.9,1.8-2.1,1.2L36.4,38.3c-1.1-0.7-2.1-2.3-2.1-3.6l0.1-30.4
			c0-1.3,0.9-1.8,2.1-1.2l42.2,24.4C79.9,28.2,80.8,29.8,80.8,31.1z"/>
		<linearGradient id="EPID_32_" gradientUnits="userSpaceOnUse" x1="34.2893" y1="32.9669" x2="80.7353" y2="32.9669">
			<stop  offset="0" style="stop-color:#CDCED0"/>
			<stop  offset="1" style="stop-color:#BDC0C5"/>
		</linearGradient>
		<path class="ep32" d="M80.7,31.2l-0.1,30.4c0,1.3-0.9,1.8-2.1,1.2L36.4,38.3c-1.1-0.7-2.1-2.3-2.1-3.6l0.1-30.4
			c0-1.3,0.9-1.8,2.1-1.2l42.2,24.4C79.8,28.2,80.7,29.9,80.7,31.2z"/>
		<linearGradient id="EPID_33_" gradientUnits="userSpaceOnUse" x1="34.2027" y1="33.0148" x2="80.6486" y2="33.0148">
			<stop  offset="0" style="stop-color:#CACCCD"/>
			<stop  offset="1" style="stop-color:#BDBFC4"/>
		</linearGradient>
		<path class="ep33" d="M80.6,31.2l-0.1,30.4c0,1.3-0.9,1.8-2.1,1.2L36.3,38.4c-1.1-0.7-2.1-2.3-2.1-3.6l0.1-30.4
			c0-1.3,0.9-1.8,2.1-1.2l42.2,24.4C79.7,28.3,80.6,29.9,80.6,31.2z"/>
		<linearGradient id="EPID_34_" gradientUnits="userSpaceOnUse" x1="34.116" y1="33.0627" x2="80.562" y2="33.0627">
			<stop  offset="0" style="stop-color:#C8C9CB"/>
			<stop  offset="1" style="stop-color:#BCBFC3"/>
		</linearGradient>
		<path class="ep34" d="M80.6,31.3l-0.1,30.4c0,1.3-0.9,1.8-2.1,1.2L36.2,38.4c-1.1-0.7-2.1-2.3-2.1-3.6l0.1-30.4
			c0-1.3,0.9-1.8,2.1-1.2l42.2,24.4C79.6,28.3,80.6,29.9,80.6,31.3z"/>
		<linearGradient id="EPID_35_" gradientUnits="userSpaceOnUse" x1="34.0294" y1="33.1107" x2="80.4754" y2="33.1107">
			<stop  offset="0" style="stop-color:#C5C7C8"/>
			<stop  offset="1" style="stop-color:#BCBEC3"/>
		</linearGradient>
		<path class="ep35" d="M80.5,31.3l-0.1,30.4c0,1.3-0.9,1.8-2.1,1.2L36.1,38.5c-1.1-0.7-2.1-2.3-2.1-3.6l0.1-30.4
			c0-1.3,0.9-1.8,2.1-1.2l42.2,24.4C79.5,28.4,80.5,30,80.5,31.3z"/>
		<linearGradient id="EPID_36_" gradientUnits="userSpaceOnUse" x1="33.9428" y1="33.1586" x2="80.3887" y2="33.1586">
			<stop  offset="0" style="stop-color:#C3C4C6"/>
			<stop  offset="1" style="stop-color:#BCBEC2"/>
		</linearGradient>
		<path class="ep36" d="M80.4,31.4l-0.1,30.4c0,1.3-0.9,1.8-2.1,1.2L36,38.5c-1.1-0.7-2.1-2.3-2.1-3.6L34,4.6c0-1.3,0.9-1.8,2.1-1.2
			l42.2,24.4C79.5,28.4,80.4,30,80.4,31.4z"/>
		<linearGradient id="EPID_37_" gradientUnits="userSpaceOnUse" x1="33.8561" y1="33.2065" x2="80.3021" y2="33.2065">
			<stop  offset="0" style="stop-color:#C0C2C4"/>
			<stop  offset="1" style="stop-color:#BCBEC1"/>
		</linearGradient>
		<path class="ep37" d="M80.3,31.4l-0.1,30.4c0,1.3-0.9,1.8-2.1,1.2L35.9,38.6c-1.1-0.7-2.1-2.3-2.1-3.6l0.1-30.4
			c0-1.3,0.9-1.8,2.1-1.2l42.2,24.4C79.4,28.5,80.3,30.1,80.3,31.4z"/>
		<linearGradient id="EPID_38_" gradientUnits="userSpaceOnUse" x1="33.7695" y1="33.2544" x2="80.2155" y2="33.2544">
			<stop  offset="0" style="stop-color:#BEBFC1"/>
			<stop  offset="1" style="stop-color:#BBBDC0"/>
		</linearGradient>
		<path class="ep38" d="M80.2,31.4l-0.1,30.4c0,1.3-0.9,1.8-2.1,1.2L35.8,38.6c-1.1-0.7-2.1-2.3-2.1-3.6l0.1-30.4
			c0-1.3,0.9-1.8,2.1-1.2l42.2,24.4C79.3,28.5,80.2,30.1,80.2,31.4z"/>
		<path class="ep10" d="M80.1,31.5L80,61.9c0,1.3-0.9,1.8-2.1,1.2L35.7,38.7c-1.1-0.7-2.1-2.3-2.1-3.6l0.1-30.4
			c0-1.3,0.9-1.8,2.1-1.2l42.2,24.4C79.2,28.6,80.1,30.2,80.1,31.5z"/>
	</g>
	<path class="ep39" d="M80.1,31.5L80,61.9c0,1.3-0.9,1.8-2.1,1.2L35.7,38.7c-1.1-0.7-2.1-2.3-2.1-3.6l0.1-30.4
		c0-1.3,0.9-1.8,2.1-1.2l42.2,24.4C79.2,28.6,80.1,30.2,80.1,31.5z"/>
	<g id="ep-screen">
		<linearGradient id="EPID_39_" gradientUnits="userSpaceOnUse" x1="55.665" y1="36.2042" x2="50.2182" y2="48.9701">
			<stop  offset="0" style="stop-color:#EBEBEC"/>
			<stop  offset="1" style="stop-color:#C0C4D0"/>
		</linearGradient>
		<path class="ep40" d="M75.8,29.5L38,7.7c-1-0.6-1.7-0.1-1.8,1l-0.1,25.4c0,1.1,0.8,2.5,1.7,3l37.8,21.8c1,0.6,1.7,0.1,1.8-1
			l0.1-25.4C77.6,31.4,76.8,30,75.8,29.5"/>
		<g>
			<defs>
				<path id="EPID_40_" d="M75.8,29.5L38,7.7c-1-0.6-1.7-0.1-1.8,1l-0.1,25.4c0,1.1,0.8,2.5,1.7,3l37.8,21.8c1,0.6,1.7,0.1,1.8-1
					l0.1-25.4C77.6,31.4,76.8,30,75.8,29.5"/>
			</defs>
			<clipPath id="EPID_41_">
				<use xlink:href="#EPID_40_"  style="overflow:visible;"/>
			</clipPath>
			<g class="ep41">
				<linearGradient id="EPID_42_" gradientUnits="userSpaceOnUse" x1="44.9407" y1="33.3092" x2="69.0227" y2="33.3092">
					<stop  offset="0.2458" style="stop-color:#E0363F"/>
					<stop  offset="0.6084" style="stop-color:#CD2E36"/>
					<stop  offset="1" style="stop-color:#93171B"/>
				</linearGradient>
				<path class="ep42" d="M66.7,30.7c-0.1,0-0.2,0-0.3,0c1.4,3.1,2.3,6.3,2.3,9.3c0,7.4-5.3,10.4-11.7,6.7
					c-6.4-3.7-11.6-12.6-11.6-20c-0.1,0-0.1,0-0.2-0.1c-0.1,0-0.1-0.1-0.2-0.1c0.1,7.6,5.4,16.8,12,20.6C63.6,51,69,47.9,69,40.3
					C69,37.2,68.2,33.9,66.7,30.7 M57,19.5c-6.3-3.6-11.5-1.1-12,5.7c0,0,0.1,0,0.1,0.1c0.1,0,0.2,0.1,0.2,0.2
					c0.5-6.6,5.6-9,11.7-5.5c2.9,1.7,5.5,4.4,7.6,7.6c0-0.1,0.1-0.2,0.2-0.3C62.7,24,60,21.2,57,19.5"/>
				<linearGradient id="EPID_43_" gradientUnits="userSpaceOnUse" x1="49.1663" y1="33.3092" x2="64.796" y2="33.3092">
					<stop  offset="0.2458" style="stop-color:#E0363F"/>
					<stop  offset="0.6084" style="stop-color:#CD2E36"/>
					<stop  offset="1" style="stop-color:#93171B"/>
				</linearGradient>
				<path class="ep43" d="M57,24.3c-4.3-2.5-7.8-0.5-7.8,4.5c0,2.6,0.9,5.5,2.5,8c0.1-0.1,0.1-0.1,0.2-0.2c-1.5-2.4-2.4-5.2-2.3-7.6
					c0-4.7,3.4-6.6,7.5-4.3c4.1,2.4,7.4,8.1,7.4,12.9c0,4.7-3.4,6.6-7.5,4.3c-1.3-0.8-2.6-1.9-3.7-3.3c0,0.1-0.1,0.2-0.2,0.2
					c1.1,1.4,2.5,2.6,3.9,3.4c4.3,2.5,7.8,0.5,7.8-4.5C64.8,32.9,61.3,26.8,57,24.3"/>
				<linearGradient id="EPID_44_" gradientUnits="userSpaceOnUse" x1="64.4848" y1="28.8608" x2="67.3898" y2="28.8608">
					<stop  offset="0.2458" style="stop-color:#E0363F"/>
					<stop  offset="0.6084" style="stop-color:#CD2E36"/>
					<stop  offset="1" style="stop-color:#93171B"/>
				</linearGradient>
				<path class="ep44" d="M65.9,27.2c-0.5-0.3-0.9-0.3-1.2,0c-0.1,0.1-0.1,0.2-0.2,0.3c-0.1,0.2-0.1,0.3-0.1,0.6
					c0,0.9,0.6,2,1.5,2.5c0.2,0.1,0.3,0.1,0.4,0.2c0.1,0,0.2,0,0.3,0c0.4-0.1,0.7-0.4,0.7-1C67.4,28.8,66.7,27.7,65.9,27.2"/>
				<linearGradient id="EPID_45_" gradientUnits="userSpaceOnUse" x1="41.1343" y1="33.309" x2="72.8279" y2="33.309">
					<stop  offset="0.2458" style="stop-color:#E0363F"/>
					<stop  offset="0.6084" style="stop-color:#CD2E36"/>
					<stop  offset="1" style="stop-color:#93171B"/>
				</linearGradient>
				<path class="ep45" d="M57,15.1c-8.7-5-15.9-1-15.9,9.1c0,10,7.1,22.3,15.8,27.4c3.5,2,6.8,2.6,9.4,1.9c-0.1-0.2-0.1-0.3-0.1-0.5
					c-2.6,0.7-5.8,0.2-9.2-1.8c-8.5-4.9-15.5-16.9-15.4-26.7c0-9.8,7-13.8,15.5-8.9c8.5,4.9,15.5,16.9,15.4,26.7
					c0,4.4-1.4,7.6-3.7,9.4c0.1,0.1,0.2,0.2,0.3,0.4c2.3-1.8,3.8-5.1,3.8-9.6C72.9,32.4,65.8,20.1,57,15.1"/>
				<linearGradient id="EPID_46_" gradientUnits="userSpaceOnUse" x1="66.0664" y1="53.2343" x2="69.9036" y2="53.2343">
					<stop  offset="0.2458" style="stop-color:#E0363F"/>
					<stop  offset="0.6084" style="stop-color:#CD2E36"/>
					<stop  offset="1" style="stop-color:#93171B"/>
				</linearGradient>
				<path class="ep46" d="M68,51c-1.1-0.6-1.9-0.1-1.9,1.1c0,0.3,0,0.5,0.1,0.8c0,0.2,0.1,0.3,0.1,0.5c0.3,0.8,0.9,1.6,1.7,2
					c1.1,0.6,1.9,0.1,1.9-1.1c0-0.8-0.3-1.6-0.8-2.3c-0.1-0.1-0.2-0.3-0.3-0.4C68.5,51.4,68.3,51.2,68,51"/>
				<linearGradient id="EPID_47_" gradientUnits="userSpaceOnUse" x1="51.4957" y1="37.7852" x2="53.3154" y2="37.7852">
					<stop  offset="0.2458" style="stop-color:#E0363F"/>
					<stop  offset="0.6084" style="stop-color:#CD2E36"/>
					<stop  offset="1" style="stop-color:#93171B"/>
				</linearGradient>
				<path class="ep47" d="M52.4,36.7c-0.2-0.1-0.4-0.1-0.5-0.1c-0.1,0-0.2,0.1-0.2,0.2c-0.1,0.1-0.1,0.3-0.1,0.5
					c0,0.6,0.4,1.3,0.9,1.6c0.3,0.2,0.5,0.2,0.7,0c0.1-0.1,0.1-0.1,0.2-0.2c0-0.1,0-0.2,0-0.3C53.3,37.7,52.9,37,52.4,36.7"/>
				<linearGradient id="EPID_48_" gradientUnits="userSpaceOnUse" x1="44.475" y1="25.9675" x2="45.7583" y2="25.9675">
					<stop  offset="0.2458" style="stop-color:#E0363F"/>
					<stop  offset="0.6084" style="stop-color:#CD2E36"/>
					<stop  offset="1" style="stop-color:#93171B"/>
				</linearGradient>
				<path class="ep48" d="M45.1,25.2c0,0-0.1,0-0.1-0.1c-0.3-0.1-0.5,0.1-0.5,0.4c0,0.3,0.2,0.7,0.5,1c0.1,0.1,0.1,0.1,0.2,0.1
					c0.1,0,0.1,0.1,0.2,0.1c0.3,0.1,0.5-0.1,0.5-0.4c0-0.3-0.2-0.7-0.4-0.9C45.3,25.3,45.2,25.3,45.1,25.2"/>
				<g>
					<linearGradient id="EPID_49_" gradientUnits="userSpaceOnUse" x1="53.6991" y1="33.8845" x2="60.2643" y2="33.8845">
						<stop  offset="0.2458" style="stop-color:#E0363F"/>
						<stop  offset="0.6084" style="stop-color:#CD2E36"/>
						<stop  offset="1" style="stop-color:#93171B"/>
					</linearGradient>
					<path class="ep49" d="M59.6,32.6c-0.2-0.1-0.3-0.1-0.5-0.1l-3.1,1.8l-1.3-2.2c-0.1-0.2-0.3-0.4-0.5-0.5c-0.2-0.1-0.3-0.1-0.5,0
						c-0.3,0.1-0.3,0.6,0,1.1l1.7,3c0.1,0.2,0.3,0.4,0.5,0.5c0.2,0.1,0.3,0.1,0.5,0l3.5-2c0.3-0.1,0.3-0.6,0-1.1
						C59.9,32.9,59.8,32.7,59.6,32.6"/>
				</g>
			</g>
		</g>
	</g>
</g>
<g id="ep-keyboard">
	<linearGradient id="EPID_50_" gradientUnits="userSpaceOnUse" x1="55.9906" y1="79.6371" x2="43.7353" y2="72.6158">
		<stop  offset="0" style="stop-color:#D9DADB"/>
		<stop  offset="1" style="stop-color:#A5A8B0"/>
	</linearGradient>
	<path class="ep50" d="M69.2,77.3c0-0.3-0.2-0.6-0.6-0.8L24.7,51.1c-0.7-0.4-2-0.4-2.7,0L7.4,59.6c-0.4,0.2-0.6,0.5-0.5,0.8
		c0,0,0,0.1,0,0.1c0,0,0,0.1,0,0.1c0,0,0,0.1,0,0.1c0,0,0,0.1,0,0.1c0,0,0,0.1,0,0.1c0,0,0,0.1,0,0.1c0,0,0,0.1,0,0.1
		c0,0,0,0.1,0,0.1c0,0,0,0.1,0,0.1c0,0.3,0.2,0.6,0.6,0.8l43.9,25.4c0.7,0.4,2,0.4,2.7,0l14.6-8.5c0.4-0.2,0.6-0.5,0.5-0.8
		c0,0,0-0.1,0-0.1c0,0,0-0.1,0-0.1c0,0,0-0.1,0-0.1c0,0,0-0.1,0-0.1c0,0,0-0.1,0-0.1c0,0,0-0.1,0-0.1c0,0,0-0.1,0-0.1
		c0,0,0-0.1,0-0.1C69.2,77.4,69.2,77.3,69.2,77.3z M24.4,54.6l-0.5,0.3l-0.5-0.3l0.5-0.3L24.4,54.6z M32,58.9l-0.5,0.3l-4.3-2.5
		l0.5-0.3L32,58.9z M39,63l-0.5,0.3l-4.3-2.5l0.5-0.3L39,63z M46.1,67.1l-0.5,0.3l-4.3-2.5l0.5-0.3L46.1,67.1z M40.3,76.2l-0.5,0.3
		L12.7,60.7l0.5-0.3L40.3,76.2z M47.8,71.8l-0.5,0.3L20.2,56.4l0.5-0.3L47.8,71.8z M46,72.9l-0.5,0.3L18.3,57.5l0.5-0.3L46,72.9z
		 M44.1,74l-0.5,0.3L16.5,58.6l0.5-0.3L44.1,74z M42.2,75.1l-0.5,0.3L14.6,59.6l0.5-0.3L42.2,75.1z M46.4,77.5l0.5,0.3l-0.5,0.3
		L46,77.8L46.4,77.5z M47,80l-0.5,0.3l-4.3-2.5l0.5-0.3L47,80z M54.5,75.7l-0.5,0.3l-4.3-2.5l0.5-0.3L54.5,75.7z M52.7,76.7L52.2,77
		l-4.3-2.5l0.5-0.3L52.7,76.7z M50.6,80.4l0.5-0.3l4.3,2.5l-0.5,0.3L50.6,80.4z M52.5,79.4l0.5-0.3l4.3,2.5l-0.5,0.3L52.5,79.4z
		 M54.4,78.3l0.5-0.3l4.3,2.5l-0.5,0.3L54.4,78.3z M56.2,77.2l0.5-0.3l4.3,2.5l-0.5,0.3L56.2,77.2z M48.7,81.5l0.5-0.3l4.3,2.5
		L53.1,84L48.7,81.5z M57.7,73.8L57.2,74l-4.3-2.5l0.5-0.3L57.7,73.8z"/>
	<path class="ep39" d="M11.8,60.2l1.4-0.8l28.1,16.2l-1.4,0.8L11.8,60.2 M41.3,77.2l1.4-0.8l5.2,3l-1.4,0.8L41.3,77.2 M47.8,81
		l1.4-0.8l5.2,3L53.1,84L47.8,81 M13.7,59.1l1.4-0.8l28.1,16.2l-1.4,0.8L13.7,59.1 M45,77.2l1.4-0.8l1.4,0.8l-1.4,0.8L45,77.2
		 M49.7,79.9l1.4-0.8l5.2,3l-1.4,0.8L49.7,79.9 M15.5,58l1.4-0.8L45,73.4l-1.4,0.8L15.5,58 M51.6,78.8l1.4-0.8l5.2,3l-1.4,0.8
		L51.6,78.8 M17.4,56.9l1.4-0.8l28.1,16.2l-1.4,0.8L17.4,56.9 M47,74l1.4-0.8l5.2,3L52.2,77L47,74 M53.5,77.7l1.4-0.8l5.2,3
		l-1.4,0.8L53.5,77.7 M19.3,55.9l1.4-0.8l28.1,16.2l-1.4,0.8L19.3,55.9 M48.8,72.9l1.4-0.8l5.2,3l-1.4,0.8L48.8,72.9 M55.3,76.7
		l1.4-0.8l5.2,3l-1.4,0.8L55.3,76.7 M22.5,54l1.4-0.8l1.4,0.8l-1.4,0.8L22.5,54 M26.3,56.2l1.4-0.8l5.2,3l-1.4,0.8L26.3,56.2
		 M33.3,60.2l1.4-0.8l5.2,3l-1.4,0.8L33.3,60.2 M40.4,64.3l1.4-0.8l5.2,3l-1.4,0.8L40.4,64.3 M52,71l1.4-0.8l5.2,3L57.2,74L52,71
		 M68.6,76.5L24.7,51.1c-0.7-0.4-2-0.4-2.7,0L7.4,59.6c-0.7,0.4-0.7,1.1,0,1.6l43.9,25.4c0.7,0.4,2,0.4,2.7,0L68.6,78
		C69.4,77.6,69.3,76.9,68.6,76.5"/>
	<g>
		<linearGradient id="EPID_51_" gradientUnits="userSpaceOnUse" x1="19.2858" y1="63.5629" x2="48.7555" y2="63.5629">
			<stop  offset="0" style="stop-color:#CBCCCE"/>
			<stop  offset="1" style="stop-color:#BDBFC5"/>
		</linearGradient>
		<polyline class="ep51" points="48.8,71.3 20.7,55.1 19.3,55.9 47.4,72.1 48.8,71.3 		"/>
		<linearGradient id="EPID_52_" gradientUnits="userSpaceOnUse" x1="17.415" y1="64.652" x2="46.8779" y2="64.652">
			<stop  offset="0" style="stop-color:#CBCCCE"/>
			<stop  offset="1" style="stop-color:#BDBFC5"/>
		</linearGradient>
		<polyline class="ep52" points="46.9,72.4 18.8,56.1 17.4,56.9 45.5,73.2 46.9,72.4 		"/>
		<linearGradient id="EPID_53_" gradientUnits="userSpaceOnUse" x1="15.5442" y1="65.7392" x2="45.0071" y2="65.7392">
			<stop  offset="0" style="stop-color:#CBCCCE"/>
			<stop  offset="1" style="stop-color:#BDBFC5"/>
		</linearGradient>
		<polyline class="ep53" points="45,73.4 16.9,57.2 15.5,58 43.6,74.2 45,73.4 		"/>
		<linearGradient id="EPID_54_" gradientUnits="userSpaceOnUse" x1="13.6733" y1="66.8264" x2="43.1363" y2="66.8264">
			<stop  offset="0" style="stop-color:#CBCCCE"/>
			<stop  offset="1" style="stop-color:#BDBFC5"/>
		</linearGradient>
		<polyline class="ep54" points="43.1,74.5 15,58.3 13.7,59.1 41.8,75.3 43.1,74.5 		"/>
		<linearGradient id="EPID_55_" gradientUnits="userSpaceOnUse" x1="11.8025" y1="67.9136" x2="41.2655" y2="67.9136">
			<stop  offset="0" style="stop-color:#CBCCCE"/>
			<stop  offset="1" style="stop-color:#BDBFC5"/>
		</linearGradient>
		<polyline class="ep55" points="41.3,75.6 13.2,59.4 11.8,60.2 39.9,76.4 41.3,75.6 		"/>
		<linearGradient id="EPID_56_" gradientUnits="userSpaceOnUse" x1="41.2745" y1="78.3358" x2="47.8968" y2="78.3358">
			<stop  offset="0" style="stop-color:#CBCCCE"/>
			<stop  offset="1" style="stop-color:#BDBFC5"/>
		</linearGradient>
		<polyline class="ep56" points="47.9,79.5 42.6,76.4 41.3,77.2 46.5,80.3 47.9,79.5 		"/>
		<linearGradient id="EPID_57_" gradientUnits="userSpaceOnUse" x1="47.8313" y1="82.1194" x2="54.4469" y2="82.1194">
			<stop  offset="0" style="stop-color:#CBCCCE"/>
			<stop  offset="1" style="stop-color:#BDBFC5"/>
		</linearGradient>
		<polyline class="ep57" points="54.4,83.2 49.2,80.2 47.8,81 53.1,84 54.4,83.2 		"/>
		<linearGradient id="EPID_58_" gradientUnits="userSpaceOnUse" x1="49.7021" y1="81.0322" x2="56.3177" y2="81.0322">
			<stop  offset="0" style="stop-color:#CBCCCE"/>
			<stop  offset="1" style="stop-color:#BDBFC5"/>
		</linearGradient>
		<polyline class="ep58" points="56.3,82.1 51.1,79.1 49.7,79.9 54.9,82.9 56.3,82.1 		"/>
		<linearGradient id="EPID_59_" gradientUnits="userSpaceOnUse" x1="45.0487" y1="77.2485" x2="47.8643" y2="77.2485">
			<stop  offset="0" style="stop-color:#CBCCCE"/>
			<stop  offset="1" style="stop-color:#BDBFC5"/>
		</linearGradient>
		<polyline class="ep59" points="47.9,77.3 46.4,76.4 45,77.2 46.5,78.1 47.9,77.3 		"/>
		<linearGradient id="EPID_60_" gradientUnits="userSpaceOnUse" x1="22.4958" y1="54.0069" x2="25.3114" y2="54.0069">
			<stop  offset="0" style="stop-color:#CBCCCE"/>
			<stop  offset="1" style="stop-color:#BDBFC5"/>
		</linearGradient>
		<polyline class="ep60" points="25.3,54 23.9,53.2 22.5,54 23.9,54.8 25.3,54 		"/>
		<linearGradient id="EPID_61_" gradientUnits="userSpaceOnUse" x1="51.573" y1="79.945" x2="58.1886" y2="79.945">
			<stop  offset="0" style="stop-color:#CBCCCE"/>
			<stop  offset="1" style="stop-color:#BDBFC5"/>
		</linearGradient>
		<polyline class="ep61" points="58.2,81.1 52.9,78 51.6,78.8 56.8,81.9 58.2,81.1 		"/>
		<linearGradient id="EPID_62_" gradientUnits="userSpaceOnUse" x1="53.4707" y1="78.8421" x2="60.0863" y2="78.8421">
			<stop  offset="0" style="stop-color:#CBCCCE"/>
			<stop  offset="1" style="stop-color:#BDBFC5"/>
		</linearGradient>
		<polyline class="ep62" points="60.1,80 54.8,76.9 53.5,77.7 58.7,80.8 60.1,80 		"/>
		<linearGradient id="EPID_63_" gradientUnits="userSpaceOnUse" x1="55.3146" y1="77.7686" x2="61.9369" y2="77.7686">
			<stop  offset="0" style="stop-color:#CBCCCE"/>
			<stop  offset="1" style="stop-color:#BDBFC5"/>
		</linearGradient>
		<polyline class="ep63" points="61.9,78.9 56.7,75.9 55.3,76.7 60.6,79.7 61.9,78.9 		"/>
		<linearGradient id="EPID_64_" gradientUnits="userSpaceOnUse" x1="46.9748" y1="75.0937" x2="53.5972" y2="75.0937">
			<stop  offset="0" style="stop-color:#CBCCCE"/>
			<stop  offset="1" style="stop-color:#BDBFC5"/>
		</linearGradient>
		<polyline class="ep64" points="53.6,76.2 48.3,73.2 47,74 52.2,77 53.6,76.2 		"/>
		<linearGradient id="EPID_65_" gradientUnits="userSpaceOnUse" x1="48.8187" y1="74.0202" x2="55.4478" y2="74.0202">
			<stop  offset="0" style="stop-color:#CBCCCE"/>
			<stop  offset="1" style="stop-color:#BDBFC5"/>
		</linearGradient>
		<polyline class="ep65" points="55.4,75.1 50.2,72.1 48.8,72.9 54.1,75.9 55.4,75.1 		"/>
		<linearGradient id="EPID_66_" gradientUnits="userSpaceOnUse" x1="26.2823" y1="57.292" x2="32.9046" y2="57.292">
			<stop  offset="0" style="stop-color:#CBCCCE"/>
			<stop  offset="1" style="stop-color:#BDBFC5"/>
		</linearGradient>
		<polyline class="ep66" points="32.9,58.4 27.7,55.4 26.3,56.2 31.5,59.2 32.9,58.4 		"/>
		<linearGradient id="EPID_67_" gradientUnits="userSpaceOnUse" x1="33.32" y1="61.3552" x2="39.9424" y2="61.3552">
			<stop  offset="0" style="stop-color:#CBCCCE"/>
			<stop  offset="1" style="stop-color:#BDBFC5"/>
		</linearGradient>
		<polyline class="ep67" points="39.9,62.5 34.7,59.4 33.3,60.2 38.6,63.3 39.9,62.5 		"/>
		<linearGradient id="EPID_68_" gradientUnits="userSpaceOnUse" x1="40.3578" y1="65.4165" x2="46.9734" y2="65.4165">
			<stop  offset="0" style="stop-color:#CBCCCE"/>
			<stop  offset="1" style="stop-color:#BDBFC5"/>
		</linearGradient>
		<polyline class="ep68" points="47,66.5 41.7,63.5 40.4,64.3 45.6,67.3 47,66.5 		"/>
		<linearGradient id="EPID_69_" gradientUnits="userSpaceOnUse" x1="51.9678" y1="72.1215" x2="58.5901" y2="72.1215">
			<stop  offset="0" style="stop-color:#CBCCCE"/>
			<stop  offset="1" style="stop-color:#BDBFC5"/>
		</linearGradient>
		<polyline class="ep69" points="58.6,73.2 53.3,70.2 52,71 57.2,74 58.6,73.2 		"/>
	</g>
</g>
<g id="ep-lock">
	<g>
		<g>
			<linearGradient id="EPID_70_" gradientUnits="userSpaceOnUse" x1="23.5512" y1="52.2953" x2="48.4923" y2="52.2953">
				<stop  offset="0" style="stop-color:#E0363F"/>
				<stop  offset="0.2358" style="stop-color:#93171B"/>
				<stop  offset="0.6307" style="stop-color:#93171B"/>
				<stop  offset="1" style="stop-color:#720714"/>
			</linearGradient>
			<path class="ep70" d="M48.5,47.7c0-0.5-0.2-1-0.9-1.3L28.7,35.4c-1.2-0.7-3.1-0.7-4.3,0c-0.6,0.4-0.9,0.8-0.9,1.3
				c0,0.1,0,0.1,0,0.2c0,0.1,0,0.1,0,0.2c0,0.1,0,0.1,0,0.2c0,0.1,0,0.1,0,0.2c0,0.1,0,0.1,0,0.2c0,0.1,0,0.1,0,0.2
				c0,0.1,0,0.1,0,0.2c0,0.1,0,0.1,0,0.2c0,0.1,0,0.1,0,0.2c0,0.1,0,0.1,0,0.2c0,0.1,0,0.1,0,0.2c0,0.1,0,0.1,0,0.2
				c0,0.1,0,0.1,0,0.2c0,0.1,0,0.1,0,0.2c0,0.1,0,0.1,0,0.2c0,0.1,0,0.1,0,0.2c0,0.1,0,0.1,0,0.2c0,0.1,0,0.1,0,0.2
				c0,0.1,0,0.1,0,0.2c0,0.1,0,0.1,0,0.2c0,0.1,0,0.1,0,0.2c0,0.1,0,0.1,0,0.2c0,0.1,0,0.1,0,0.2c0,0.1,0,0.1,0,0.2
				c0,0.1,0,0.1,0,0.2c0,0.1,0,0.1,0,0.2c0,0.1,0,0.1,0,0.2c0,0.1,0,0.1,0,0.2c0,0.1,0,0.1,0,0.2c0,0.1,0,0.1,0,0.2
				c0,0.1,0,0.1,0,0.2c0,0.1,0,0.1,0,0.2c0,0.1,0,0.1,0,0.2c0,0.1,0,0.1,0,0.2c0,0.1,0,0.1,0,0.2c0,0.1,0,0.1,0,0.2
				c0,0.1,0,0.1,0,0.2c0,0.1,0,0.1,0,0.2c0,0.1,0,0.1,0,0.2c0,0.1,0,0.1,0,0.2c0,0.1,0,0.1,0,0.2c0,0.1,0,0.1,0,0.2
				c0,0.1,0,0.1,0,0.2c0,0.1,0,0.1,0,0.2c0,0.1,0,0.1,0,0.2c0,0.1,0,0.1,0,0.2c0,0.1,0,0.1,0,0.2c0,0.1,0,0.1,0,0.2
				c0,0.1,0,0.1,0,0.2c0,0.1,0,0.1,0,0.2c0,0.1,0,0.1,0,0.2c0,0.1,0,0.1,0,0.2c0,0.1,0,0.1,0,0.2c0,0.1,0,0.1,0,0.2
				c0,0.1,0,0.1,0,0.2c0,0.1,0,0.1,0,0.2c0,0.1,0,0.1,0,0.2c0,0.1,0,0.1,0,0.2c0,0.1,0,0.1,0,0.2c0,0.1,0,0.1,0,0.2
				c0,0.1,0,0.1,0,0.2c0,0.1,0,0.1,0,0.2c0,0.1,0,0.1,0,0.2c0,0.1,0,0.1,0,0.2c0,0.1,0,0.1,0,0.2c0,0.1,0,0.1,0,0.2
				c0,0.1,0,0.1,0,0.2c0,0.1,0,0.1,0,0.2c0,0.1,0,0.1,0,0.2c0,0.1,0,0.1,0,0.2c0,0.1,0,0.1,0,0.2c0,0.1,0,0.1,0,0.2
				c0,0.1,0,0.1,0,0.2c0,0.1,0,0.1,0,0.2c0,0.1,0,0.1,0,0.2c0,0.1,0,0.1,0,0.2c0,0.1,0,0.1,0,0.2c0,0.1,0,0.1,0,0.2
				c0,0.1,0,0.1,0,0.2c0,0.1,0,0.1,0,0.2c0,0.1,0,0.1,0,0.2c0,0.1,0,0.1,0,0.2c0,0.1,0,0.1,0,0.2c0,0.1,0,0.1,0,0.2
				c0,0.1,0,0.1,0,0.2c0,0.1,0,0.1,0,0.2c0,0.1,0,0.1,0,0.2c0,0.1,0,0.1,0,0.2c0,0.1,0,0.1,0,0.2c0,0.1,0,0.1,0,0.2
				c0,0.1,0,0.1,0,0.2c0,0.1,0,0.1,0,0.2c0,0.1,0,0.1,0,0.2c0,0.1,0,0.1,0,0.2c0,0.1,0,0.1,0,0.2c0,0.1,0,0.1,0,0.2
				c0,0.1,0,0.1,0,0.2c0,0.1,0,0.1,0,0.2c0,0.1,0,0.1,0,0.2c0,0.1,0,0.1,0,0.2c0,0.1,0,0.1,0,0.2c0,0.1,0,0.1,0,0.2
				c0,0.1,0,0.1,0,0.2c0,0.1,0,0.1,0,0.2c0,0.1,0,0.1,0,0.2c0,0.1,0,0.1,0,0.2c0,0.1,0,0.1,0,0.2c0,0.1,0,0.1,0,0.2
				c0,0.1,0,0.1,0,0.2c0,0.5,0.2,1,0.9,1.3l18.9,10.9c1.2,0.7,3.1,0.7,4.3,0c0.6-0.4,0.9-0.9,0.9-1.3c0-0.1,0-0.1,0-0.2
				c0-0.1,0-0.1,0-0.2c0-0.1,0-0.1,0-0.2c0-0.1,0-0.1,0-0.2c0-0.1,0-0.1,0-0.2c0-0.1,0-0.1,0-0.2c0-0.1,0-0.1,0-0.2
				c0-0.1,0-0.1,0-0.2c0-0.1,0-0.1,0-0.2c0-0.1,0-0.1,0-0.2c0-0.1,0-0.1,0-0.2c0-0.1,0-0.1,0-0.2c0-0.1,0-0.1,0-0.2
				c0-0.1,0-0.1,0-0.2c0-0.1,0-0.1,0-0.2c0-0.1,0-0.1,0-0.2c0-0.1,0-0.1,0-0.2c0-0.1,0-0.1,0-0.2c0-0.1,0-0.1,0-0.2
				c0-0.1,0-0.1,0-0.2c0-0.1,0-0.1,0-0.2c0-0.1,0-0.1,0-0.2c0-0.1,0-0.1,0-0.2c0-0.1,0-0.1,0-0.2c0-0.1,0-0.1,0-0.2
				c0-0.1,0-0.1,0-0.2c0-0.1,0-0.1,0-0.2c0-0.1,0-0.1,0-0.2c0-0.1,0-0.1,0-0.2c0-0.1,0-0.1,0-0.2c0-0.1,0-0.1,0-0.2
				c0-0.1,0-0.1,0-0.2c0-0.1,0-0.1,0-0.2c0-0.1,0-0.1,0-0.2c0-0.1,0-0.1,0-0.2c0-0.1,0-0.1,0-0.2c0-0.1,0-0.1,0-0.2
				c0-0.1,0-0.1,0-0.2c0-0.1,0-0.1,0-0.2c0-0.1,0-0.1,0-0.2c0-0.1,0-0.1,0-0.2c0-0.1,0-0.1,0-0.2c0-0.1,0-0.1,0-0.2
				c0-0.1,0-0.1,0-0.2c0-0.1,0-0.1,0-0.2c0-0.1,0-0.1,0-0.2c0-0.1,0-0.1,0-0.2c0-0.1,0-0.1,0-0.2c0-0.1,0-0.1,0-0.2
				c0-0.1,0-0.1,0-0.2c0-0.1,0-0.1,0-0.2c0-0.1,0-0.1,0-0.2c0-0.1,0-0.1,0-0.2c0-0.1,0-0.1,0-0.2c0-0.1,0-0.1,0-0.2
				c0-0.1,0-0.1,0-0.2c0-0.1,0-0.1,0-0.2c0-0.1,0-0.1,0-0.2c0-0.1,0-0.1,0-0.2c0-0.1,0-0.1,0-0.2c0-0.1,0-0.1,0-0.2
				c0-0.1,0-0.1,0-0.2c0-0.1,0-0.1,0-0.2c0-0.1,0-0.1,0-0.2c0-0.1,0-0.1,0-0.2c0-0.1,0-0.1,0-0.2c0-0.1,0-0.1,0-0.2
				c0-0.1,0-0.1,0-0.2c0-0.1,0-0.1,0-0.2c0-0.1,0-0.1,0-0.2c0-0.1,0-0.1,0-0.2c0-0.1,0-0.1,0-0.2c0-0.1,0-0.1,0-0.2
				c0-0.1,0-0.1,0-0.2c0-0.1,0-0.1,0-0.2c0-0.1,0-0.1,0-0.2c0-0.1,0-0.1,0-0.2c0-0.1,0-0.1,0-0.2c0-0.1,0-0.1,0-0.2
				c0-0.1,0-0.1,0-0.2c0-0.1,0-0.1,0-0.2c0-0.1,0-0.1,0-0.2c0-0.1,0-0.1,0-0.2c0-0.1,0-0.1,0-0.2c0-0.1,0-0.1,0-0.2
				c0-0.1,0-0.1,0-0.2c0-0.1,0-0.1,0-0.2c0-0.1,0-0.1,0-0.2c0-0.1,0-0.1,0-0.2c0-0.1,0-0.1,0-0.2c0-0.1,0-0.1,0-0.2
				c0-0.1,0-0.1,0-0.2c0-0.1,0-0.1,0-0.2c0-0.1,0-0.1,0-0.2c0-0.1,0-0.1,0-0.2c0-0.1,0-0.1,0-0.2c0-0.1,0-0.1,0-0.2
				c0-0.1,0-0.1,0-0.2c0-0.1,0-0.1,0-0.2c0-0.1,0-0.1,0-0.2c0-0.1,0-0.1,0-0.2c0-0.1,0-0.1,0-0.2c0-0.1,0-0.1,0-0.2
				c0-0.1,0-0.1,0-0.2c0-0.1,0-0.1,0-0.2c0-0.1,0-0.1,0-0.2c0-0.1,0-0.1,0-0.2c0-0.1,0-0.1,0-0.2C48.5,47.8,48.5,47.7,48.5,47.7z"/>
			<linearGradient id="EPID_71_" gradientUnits="userSpaceOnUse" x1="23.5406" y1="42.1014" x2="48.5032" y2="42.1014">
				<stop  offset="0.2458" style="stop-color:#E0363F"/>
				<stop  offset="0.6084" style="stop-color:#CD2E36"/>
				<stop  offset="1" style="stop-color:#93171B"/>
			</linearGradient>
			<path class="ep71" d="M47.6,46.3L28.7,35.4c-1.2-0.7-3.1-0.7-4.3,0s-1.2,1.8,0,2.5l18.9,10.9c1.2,0.7,3.1,0.7,4.3,0
				S48.8,47,47.6,46.3"/>
		</g>
		
			<linearGradient id="EPID_72_" gradientUnits="userSpaceOnUse" x1="33.6379" y1="30.429" x2="39.4856" y2="47.6435" gradientTransform="matrix(0.9999 -1.324682e-02 1.324682e-02 0.9999 -0.5534 0.4967)">
			<stop  offset="0" style="stop-color:#E0363F"/>
			<stop  offset="0.3207" style="stop-color:#93171B"/>
			<stop  offset="0.5592" style="stop-color:#93171B"/>
			<stop  offset="1" style="stop-color:#720714"/>
		</linearGradient>
		<path class="ep72" d="M44.5,43.4l0,2c0,0.6-0.5,1.2-1.8,1.2c-1,0-1.7-0.5-1.7-1.1c0,0,0-2.8,0-3.7c0-1.6-0.1-4.2-0.6-6
			c-0.5-1.7-1.7-4.2-3.7-5.1c-3.9-1.8-6.2,1.5-6.2,4.6l-0.1,2.8c-0.1,0.6-0.7,0.9-1.4,0.9c-0.7,0-1.4-0.3-1.5-0.9
			c0,0,0.1-3.5,0.1-3.5c0.2-3.5,2.8-8.8,9.2-7.4c0,0,0.1,0,0.2,0c2.7,0.7,5.7,3.2,6.7,8.2C44.4,38.4,44.4,40.8,44.5,43.4z"/>
	</g>
	<g>
		<path class="ep39" d="M33.5,48.7c-1.3-0.7-2.3-0.2-2.3,1.3c0,1.3,0.7,2.7,1.7,3.6l0,2.8l1.2,0.7l0-2.8c1,0.3,1.7-0.3,1.7-1.6
			C35.8,51.2,34.8,49.4,33.5,48.7"/>
	</g>
</g>
</svg>
