<?xml version="1.0" encoding="utf-8"?>
<!-- Generator: Adobe Illustrator 25.0.1, SVG Export Plug-In . SVG Version: 6.00 Build 0)  -->
<svg version="1.1" id="fa" xmlns="http://www.w3.org/2000/svg" xmlns:xlink="http://www.w3.org/1999/xlink" x="0px" y="0px"
	 viewBox="0 0 89 89" style="enable-background:new 0 0 89 89;" xml:space="preserve">
<style type="text/css">
	.fa0{fill:#FFFFFF;}
	.fa1{fill:url(#FAID_1_);}
	.fa2{fill:url(#FAID_2_);}
	.fa3{fill:url(#FAID_3_);}
	.fa4{fill:url(#FAID_4_);}
	.fa5{fill:url(#FAID_5_);}
	.fa6{fill:url(#FAID_6_);}
	.fa7{fill:url(#FAID_7_);}
	.fa8{fill:url(#FAID_8_);}
	.fa9{fill:url(#FAID_9_);}
	.fa10{fill:url(#FAID_10_);}
	.fa11{fill:url(#FAID_11_);}
	.fa12{fill:url(#FAID_12_);}
	.fa13{fill:url(#FAID_13_);}
	.fa14{fill:url(#FAID_14_);}
	.fa15{fill:url(#FAID_15_);}
	.fa16{fill:url(#FAID_16_);}
	.fa17{fill:url(#FAID_17_);}
	.fa18{fill:#F1F1F2;}
	.fa19{fill:url(#FAID_18_);}
	.fa20{fill:none;}
	.fa21{fill:url(#FAID_19_);}
	.fa22{fill:url(#FAID_20_);}
	.fa23{fill:url(#FAID_21_);}
	.fa24{fill:url(#FAID_22_);}
	.fa25{fill:url(#FAID_23_);}
	.fa26{opacity:0.86;}
	.fa27{opacity:0.2;fill:#FFFFFF;}
	.fa28{opacity:0.3608;fill:#FFFFFF;}
	.fa29{fill:url(#FAID_24_);}
	.fa30{fill:url(#FAID_25_);}
	.fa31{fill:url(#FAID_26_);}
	.fa32{fill:url(#FAID_27_);}
	.fa33{fill:url(#FAID_28_);}
	.fa34{opacity:0.15;fill:#FFFFFF;}
	.fa35{fill:url(#FAID_29_);}
	.fa36{opacity:0.2;fill:url(#FAID_30_);}
	.fa37{fill:url(#FAID_31_);}
	.fa38{fill:url(#FAID_32_);}
	.fa39{fill:url(#FAID_33_);}
	.fa40{fill:url(#FAID_34_);}
	.fa41{fill:#E6E7E8;}
	.fa42{fill:url(#FAID_35_);}
</style>
<g id="finnace-graph">
	<g>
		<g>
			<g>
				<path class="fa0" d="M14.7,56.9v-0.5c0-0.1,0.1-0.1,0.1-0.1c0.1,0,0.1,0.1,0.1,0.1v0.5c0,0.1-0.1,0.1-0.1,0.1
					C14.8,57,14.7,57,14.7,56.9z M14.7,55.6V55c0-0.1,0.1-0.1,0.1-0.1c0.1,0,0.1,0.1,0.1,0.1v0.5c0,0.1-0.1,0.1-0.1,0.1
					C14.8,55.7,14.7,55.6,14.7,55.6z M14.7,54.2v-0.5c0-0.1,0.1-0.1,0.1-0.1c0.1,0,0.1,0.1,0.1,0.1v0.5c0,0.1-0.1,0.1-0.1,0.1
					C14.8,54.4,14.7,54.3,14.7,54.2z M14.7,52.9v-0.5c0-0.1,0.1-0.1,0.1-0.1c0.1,0,0.1,0.1,0.1,0.1v0.5c0,0.1-0.1,0.1-0.1,0.1
					C14.8,53,14.7,53,14.7,52.9z M14.7,51.6V51c0-0.1,0.1-0.1,0.1-0.1c0.1,0,0.1,0.1,0.1,0.1v0.5c0,0.1-0.1,0.1-0.1,0.1
					C14.8,51.7,14.7,51.6,14.7,51.6z M14.7,50.2v-0.5c0-0.1,0.1-0.1,0.1-0.1c0.1,0,0.1,0.1,0.1,0.1v0.5c0,0.1-0.1,0.1-0.1,0.1
					C14.8,50.4,14.7,50.3,14.7,50.2z M14.7,48.9v-0.4c0-0.1,0.1-0.1,0.1-0.1c0.1,0,0.1,0.1,0.1,0.1v0.4c0,0.1-0.1,0.1-0.1,0.1
					C14.8,49,14.7,49,14.7,48.9z"/>
			</g>
			<g>
				<path class="fa0" d="M6,60.5V60c0-0.1,0.1-0.1,0.1-0.1c0.1,0,0.1,0.1,0.1,0.1v0.5c0,0.1-0.1,0.1-0.1,0.1C6,60.6,6,60.6,6,60.5z
					 M6,59.2v-0.5c0-0.1,0.1-0.1,0.1-0.1c0.1,0,0.1,0.1,0.1,0.1v0.5c0,0.1-0.1,0.1-0.1,0.1C6,59.3,6,59.2,6,59.2z"/>
			</g>
			<g>
				<path class="fa0" d="M10.3,59.3v-0.5c0-0.1,0.1-0.1,0.1-0.1c0.1,0,0.1,0.1,0.1,0.1v0.5c0,0.1-0.1,0.1-0.1,0.1
					C10.4,59.5,10.3,59.4,10.3,59.3z M10.3,58v-0.5c0-0.1,0.1-0.1,0.1-0.1c0.1,0,0.1,0.1,0.1,0.1V58c0,0.1-0.1,0.1-0.1,0.1
					C10.4,58.1,10.3,58.1,10.3,58z M10.3,56.7v-0.5c0-0.1,0.1-0.1,0.1-0.1c0.1,0,0.1,0.1,0.1,0.1v0.5c0,0.1-0.1,0.1-0.1,0.1
					C10.4,56.8,10.3,56.8,10.3,56.7z M10.3,55.3v-0.5c0-0.1,0.1-0.1,0.1-0.1c0.1,0,0.1,0.1,0.1,0.1v0.5c0,0.1-0.1,0.1-0.1,0.1
					C10.4,55.5,10.3,55.4,10.3,55.3z M10.3,54v-0.5c0-0.1,0.1-0.1,0.1-0.1c0.1,0,0.1,0.1,0.1,0.1V54c0,0.1-0.1,0.1-0.1,0.1
					C10.4,54.1,10.3,54.1,10.3,54z M10.3,52.7v-0.5c0-0.1,0.1-0.1,0.1-0.1c0.1,0,0.1,0.1,0.1,0.1v0.5c0,0.1-0.1,0.1-0.1,0.1
					C10.4,52.8,10.3,52.8,10.3,52.7z"/>
			</g>
			<g>
				<path class="fa0" d="M19,54.4v-0.5c0-0.1,0.1-0.1,0.1-0.1s0.1,0.1,0.1,0.1v0.5c0,0.1-0.1,0.1-0.1,0.1S19,54.5,19,54.4z M19,53.1
					v-0.5c0-0.1,0.1-0.1,0.1-0.1s0.1,0.1,0.1,0.1v0.5c0,0.1-0.1,0.1-0.1,0.1S19,53.1,19,53.1z M19,51.7v-0.5c0-0.1,0.1-0.1,0.1-0.1
					s0.1,0.1,0.1,0.1v0.5c0,0.1-0.1,0.1-0.1,0.1S19,51.8,19,51.7z M19,50.4v-0.5c0-0.1,0.1-0.1,0.1-0.1s0.1,0.1,0.1,0.1v0.5
					c0,0.1-0.1,0.1-0.1,0.1S19,50.5,19,50.4z M19,49.1v-0.5c0-0.1,0.1-0.1,0.1-0.1s0.1,0.1,0.1,0.1v0.5c0,0.1-0.1,0.1-0.1,0.1
					S19,49.2,19,49.1z M19,47.7v-0.5c0-0.1,0.1-0.1,0.1-0.1s0.1,0.1,0.1,0.1v0.5c0,0.1-0.1,0.1-0.1,0.1S19,47.8,19,47.7z M19,46.4
					v-0.5c0-0.1,0.1-0.1,0.1-0.1s0.1,0.1,0.1,0.1v0.5c0,0.1-0.1,0.1-0.1,0.1S19,46.5,19,46.4z M19,45.1v-0.5c0-0.1,0.1-0.1,0.1-0.1
					s0.1,0.1,0.1,0.1v0.5c0,0.1-0.1,0.1-0.1,0.1S19,45.2,19,45.1z M19,43.7v-0.5c0-0.1,0.1-0.1,0.1-0.1s0.1,0.1,0.1,0.1v0.5
					c0,0.1-0.1,0.1-0.1,0.1S19,43.8,19,43.7z M19,42.4v-0.5c0-0.1,0.1-0.1,0.1-0.1s0.1,0.1,0.1,0.1v0.5c0,0.1-0.1,0.1-0.1,0.1
					S19,42.5,19,42.4z M19,41.1v-0.5c0-0.1,0.1-0.1,0.1-0.1s0.1,0.1,0.1,0.1v0.5c0,0.1-0.1,0.1-0.1,0.1S19,41.2,19,41.1z"/>
			</g>
			<g>
				<path class="fa0" d="M23.4,51.9v-0.5c0-0.1,0.1-0.1,0.1-0.1c0.1,0,0.1,0.1,0.1,0.1v0.5c0,0.1-0.1,0.1-0.1,0.1
					C23.5,52,23.4,51.9,23.4,51.9z M23.4,50.5V50c0-0.1,0.1-0.1,0.1-0.1c0.1,0,0.1,0.1,0.1,0.1v0.5c0,0.1-0.1,0.1-0.1,0.1
					C23.5,50.7,23.4,50.6,23.4,50.5z M23.4,49.2v-0.5c0-0.1,0.1-0.1,0.1-0.1c0.1,0,0.1,0.1,0.1,0.1v0.5c0,0.1-0.1,0.1-0.1,0.1
					C23.5,49.3,23.4,49.3,23.4,49.2z M23.4,47.9v-0.5c0-0.1,0.1-0.1,0.1-0.1c0.1,0,0.1,0.1,0.1,0.1v0.5c0,0.1-0.1,0.1-0.1,0.1
					C23.5,48,23.4,47.9,23.4,47.9z M23.4,46.5V46c0-0.1,0.1-0.1,0.1-0.1c0.1,0,0.1,0.1,0.1,0.1v0.5c0,0.1-0.1,0.1-0.1,0.1
					C23.5,46.7,23.4,46.6,23.4,46.5z M23.4,45.2v-0.5c0-0.1,0.1-0.1,0.1-0.1c0.1,0,0.1,0.1,0.1,0.1v0.5c0,0.1-0.1,0.1-0.1,0.1
					C23.5,45.3,23.4,45.3,23.4,45.2z M23.4,43.9v-0.5c0-0.1,0.1-0.1,0.1-0.1c0.1,0,0.1,0.1,0.1,0.1v0.5c0,0.1-0.1,0.1-0.1,0.1
					C23.5,44,23.4,44,23.4,43.9z M23.4,42.5V42c0-0.1,0.1-0.1,0.1-0.1c0.1,0,0.1,0.1,0.1,0.1v0.5c0,0.1-0.1,0.1-0.1,0.1
					C23.5,42.7,23.4,42.6,23.4,42.5z M23.4,41.2v-0.5c0-0.1,0.1-0.1,0.1-0.1c0.1,0,0.1,0.1,0.1,0.1v0.5c0,0.1-0.1,0.1-0.1,0.1
					C23.5,41.3,23.4,41.3,23.4,41.2z M23.4,39.9v-0.5c0-0.1,0.1-0.1,0.1-0.1c0.1,0,0.1,0.1,0.1,0.1v0.5c0,0.1-0.1,0.1-0.1,0.1
					C23.5,40,23.4,40,23.4,39.9z M23.4,38.5V38c0-0.1,0.1-0.1,0.1-0.1c0.1,0,0.1,0.1,0.1,0.1v0.5c0,0.1-0.1,0.1-0.1,0.1
					C23.5,38.7,23.4,38.6,23.4,38.5z M23.4,37.2v-0.5c0-0.1,0.1-0.1,0.1-0.1c0.1,0,0.1,0.1,0.1,0.1v0.5c0,0.1-0.1,0.1-0.1,0.1
					C23.5,37.3,23.4,37.3,23.4,37.2z M23.4,35.9v-0.5c0-0.1,0.1-0.1,0.1-0.1c0.1,0,0.1,0.1,0.1,0.1v0.5c0,0.1-0.1,0.1-0.1,0.1
					C23.5,36,23.4,36,23.4,35.9z M23.4,34.6V34c0-0.1,0.1-0.1,0.1-0.1c0.1,0,0.1,0.1,0.1,0.1v0.5c0,0.1-0.1,0.1-0.1,0.1
					C23.5,34.7,23.4,34.6,23.4,34.6z"/>
			</g>
			<g>
				<path class="fa0" d="M27.7,49.2v-0.5c0-0.1,0.1-0.1,0.1-0.1c0.1,0,0.1,0.1,0.1,0.1v0.5c0,0.1-0.1,0.1-0.1,0.1
					C27.8,49.4,27.7,49.3,27.7,49.2z M27.7,47.9v-0.5c0-0.1,0.1-0.1,0.1-0.1c0.1,0,0.1,0.1,0.1,0.1v0.5c0,0.1-0.1,0.1-0.1,0.1
					C27.8,48,27.7,48,27.7,47.9z M27.7,46.6V46c0-0.1,0.1-0.1,0.1-0.1c0.1,0,0.1,0.1,0.1,0.1v0.5c0,0.1-0.1,0.1-0.1,0.1
					C27.8,46.7,27.7,46.6,27.7,46.6z M27.7,45.2v-0.5c0-0.1,0.1-0.1,0.1-0.1c0.1,0,0.1,0.1,0.1,0.1v0.5c0,0.1-0.1,0.1-0.1,0.1
					C27.8,45.4,27.7,45.3,27.7,45.2z M27.7,43.9v-0.5c0-0.1,0.1-0.1,0.1-0.1c0.1,0,0.1,0.1,0.1,0.1v0.5c0,0.1-0.1,0.1-0.1,0.1
					C27.8,44,27.7,44,27.7,43.9z M27.7,42.6V42c0-0.1,0.1-0.1,0.1-0.1c0.1,0,0.1,0.1,0.1,0.1v0.5c0,0.1-0.1,0.1-0.1,0.1
					C27.8,42.7,27.7,42.6,27.7,42.6z M27.7,41.2v-0.5c0-0.1,0.1-0.1,0.1-0.1c0.1,0,0.1,0.1,0.1,0.1v0.5c0,0.1-0.1,0.1-0.1,0.1
					C27.8,41.4,27.7,41.3,27.7,41.2z M27.7,39.9v-0.5c0-0.1,0.1-0.1,0.1-0.1c0.1,0,0.1,0.1,0.1,0.1v0.5c0,0.1-0.1,0.1-0.1,0.1
					C27.8,40,27.7,40,27.7,39.9z M27.7,38.6v-0.5c0-0.1,0.1-0.1,0.1-0.1c0.1,0,0.1,0.1,0.1,0.1v0.5c0,0.1-0.1,0.1-0.1,0.1
					C27.8,38.7,27.7,38.6,27.7,38.6z"/>
			</g>
			<g>
				<path class="fa0" d="M32.1,46.7v-0.5c0-0.1,0.1-0.1,0.1-0.1c0.1,0,0.1,0.1,0.1,0.1v0.5c0,0.1-0.1,0.1-0.1,0.1
					C32.1,46.9,32.1,46.8,32.1,46.7z M32.1,45.4v-0.5c0-0.1,0.1-0.1,0.1-0.1c0.1,0,0.1,0.1,0.1,0.1v0.5c0,0.1-0.1,0.1-0.1,0.1
					C32.1,45.5,32.1,45.5,32.1,45.4z M32.1,44.1v-0.5c0-0.1,0.1-0.1,0.1-0.1c0.1,0,0.1,0.1,0.1,0.1v0.5c0,0.1-0.1,0.1-0.1,0.1
					C32.1,44.2,32.1,44.1,32.1,44.1z M32.1,42.7v-0.5c0-0.1,0.1-0.1,0.1-0.1c0.1,0,0.1,0.1,0.1,0.1v0.5c0,0.1-0.1,0.1-0.1,0.1
					C32.1,42.9,32.1,42.8,32.1,42.7z M32.1,41.4v-0.5c0-0.1,0.1-0.1,0.1-0.1c0.1,0,0.1,0.1,0.1,0.1v0.5c0,0.1-0.1,0.1-0.1,0.1
					C32.1,41.5,32.1,41.5,32.1,41.4z M32.1,40.1v-0.5c0-0.1,0.1-0.1,0.1-0.1c0.1,0,0.1,0.1,0.1,0.1v0.5c0,0.1-0.1,0.1-0.1,0.1
					C32.1,40.2,32.1,40.2,32.1,40.1z M32.1,38.7v-0.5c0-0.1,0.1-0.1,0.1-0.1c0.1,0,0.1,0.1,0.1,0.1v0.5c0,0.1-0.1,0.1-0.1,0.1
					C32.1,38.9,32.1,38.8,32.1,38.7z"/>
			</g>
			<g>
				<g>
					<path class="fa0" d="M32.5,36c-0.1,0-0.2,0-0.3,0.1c-0.2,0.1-0.4,0.4-0.5,0.6l-2.9-0.1c0-0.1,0-0.1,0-0.2
						c0-0.4-0.2-0.6-0.5-0.6c-0.1,0-0.2,0-0.3,0.1c-0.1,0.1-0.2,0.1-0.3,0.2l-3.6-3.2c0.1-0.2,0.2-0.4,0.2-0.6
						c0-0.4-0.2-0.6-0.5-0.6c-0.1,0-0.2,0-0.3,0.1c-0.4,0.2-0.7,0.7-0.7,1.1c0,0.1,0,0.2,0.1,0.3l-3.2,4.3c-0.1,0-0.1,0-0.2,0
						c-0.1,0-0.2,0-0.3,0.1c-0.4,0.2-0.7,0.7-0.7,1.1c0,0.2,0.1,0.4,0.2,0.5l-3.5,7.2c-0.1,0-0.2,0-0.3,0.1
						c-0.4,0.2-0.6,0.7-0.7,1.1l-2.9,1.9c-0.1-0.2-0.3-0.3-0.4-0.3c-0.1,0-0.2,0-0.3,0.1c-0.4,0.2-0.7,0.7-0.7,1.1
						c0,0.2,0,0.3,0.1,0.4l-3.4,5.6c0,0-0.1,0-0.1,0c-0.1,0-0.2,0-0.3,0.1c-0.4,0.2-0.7,0.7-0.7,1.1c0,0.4,0.2,0.6,0.5,0.6
						c0.1,0,0.2,0,0.3-0.1c0.4-0.2,0.7-0.7,0.7-1.1c0-0.2,0-0.3-0.1-0.4l3.4-5.6c0,0,0.1,0,0.1,0c0.1,0,0.2,0,0.3-0.1
						c0.4-0.2,0.6-0.7,0.7-1.1l0,0l2.9-1.9c0.1,0.2,0.3,0.3,0.4,0.3c0.1,0,0.2,0,0.3-0.1c0.4-0.2,0.7-0.7,0.7-1.1
						c0-0.2-0.1-0.4-0.2-0.5l3.5-7.2c0.1,0,0.2,0,0.3-0.1c0.4-0.2,0.7-0.7,0.7-1.1c0-0.1,0-0.2-0.1-0.3l3.2-4.3c0.1,0,0.1,0,0.2,0
						c0.1,0,0.2,0,0.3-0.1c0.1-0.1,0.2-0.1,0.3-0.2l3.6,3.2c-0.1,0.2-0.2,0.4-0.2,0.6c0,0.4,0.2,0.6,0.5,0.6c0.1,0,0.2,0,0.3-0.1
						c0.2-0.1,0.4-0.4,0.5-0.6l2.9,0.1c0,0.1,0,0.1,0,0.2c0,0.4,0.2,0.6,0.5,0.6c0.1,0,0.2,0,0.3-0.1c0.4-0.2,0.7-0.7,0.7-1.1
						C33,36.2,32.7,36,32.5,36z M6.1,57.9c-0.1,0-0.1,0.1-0.2,0.1c-0.1,0-0.1-0.1-0.1-0.2c0-0.3,0.2-0.7,0.5-0.8
						c0.1,0,0.1-0.1,0.2-0.1c0.1,0,0.1,0.1,0.1,0.2C6.5,57.3,6.3,57.7,6.1,57.9z M10.5,50.7c-0.1,0-0.1,0.1-0.2,0.1
						c-0.1,0-0.1-0.1-0.1-0.2c0-0.3,0.2-0.7,0.5-0.8c0.1,0,0.1-0.1,0.2-0.1c0.1,0,0.1,0.1,0.1,0.2C11,50.1,10.8,50.5,10.5,50.7z
						 M14.8,47.9c-0.1,0-0.1,0.1-0.2,0.1c-0.1,0-0.1-0.1-0.1-0.2c0-0.3,0.2-0.7,0.5-0.8c0.1,0,0.1-0.1,0.2-0.1
						c0.1,0,0.1,0.1,0.1,0.2C15.3,47.3,15,47.7,14.8,47.9z M19.1,39C19.1,39,19,39,18.9,39c-0.1,0-0.1-0.1-0.1-0.2
						c0-0.3,0.2-0.7,0.5-0.8c0.1,0,0.1-0.1,0.2-0.1c0.1,0,0.1,0.1,0.1,0.2C19.6,38.4,19.4,38.8,19.1,39z M23.4,33.2
						c-0.1,0-0.1,0.1-0.2,0.1c-0.1,0-0.1-0.1-0.1-0.2c0-0.3,0.2-0.7,0.5-0.8c0.1,0,0.1-0.1,0.2-0.1c0.1,0,0.1,0.1,0.1,0.2
						C23.9,32.6,23.7,33,23.4,33.2z M28,37.3c-0.1,0-0.1,0.1-0.2,0.1c-0.1,0-0.1-0.1-0.1-0.2c0-0.3,0.2-0.7,0.5-0.8
						c0.1,0,0.1-0.1,0.2-0.1c0.1,0,0.1,0.1,0.1,0.2C28.4,36.7,28.2,37.1,28,37.3z M32.2,37.5c-0.1,0-0.1,0.1-0.2,0.1
						c-0.1,0-0.1-0.1-0.1-0.2c0-0.3,0.2-0.7,0.5-0.8c0.1,0,0.1-0.1,0.2-0.1c0.1,0,0.1,0.1,0.1,0.2C32.6,36.9,32.4,37.3,32.2,37.5z"
						/>
					<path class="fa0" d="M5.3,57.7c0-0.4,0.3-1,0.7-1.2c0.1-0.1,0.3-0.1,0.4-0.1l3.4-5.5c-0.1-0.1-0.1-0.2-0.1-0.4
						c0-0.4,0.3-1,0.7-1.2c0.3-0.2,0.6-0.1,0.8,0.1l2.8-1.8c0-0.4,0.3-0.9,0.7-1.1c0.1-0.1,0.2-0.1,0.3-0.1l3.5-7.1
						c-0.1-0.1-0.2-0.2-0.2-0.5c0-0.4,0.3-1,0.7-1.2c0.2-0.1,0.4-0.1,0.5-0.1l3.1-4.2c0-0.1-0.1-0.2-0.1-0.3c0-0.4,0.3-1,0.7-1.2
						c0.1-0.1,0.3-0.1,0.4-0.1c0.3,0,0.6,0.2,0.6,0.6c0,0.2-0.1,0.4-0.2,0.6l3.5,3.2c0.1-0.1,0.2-0.2,0.3-0.2
						c0.1-0.1,0.3-0.1,0.4-0.1c0.3,0,0.6,0.2,0.6,0.6c0,0,0,0.1,0,0.1l2.8,0.1c0.1-0.3,0.3-0.5,0.5-0.6c0.1-0.1,0.3-0.1,0.4-0.1
						c0.3,0,0.6,0.2,0.6,0.6c0,0.4-0.3,1-0.7,1.2c-0.1,0.1-0.3,0.1-0.4,0.1c-0.3,0-0.6-0.2-0.6-0.6c0,0,0-0.1,0-0.1L28.7,37
						c-0.1,0.3-0.3,0.5-0.5,0.6c-0.1,0.1-0.3,0.1-0.4,0.1c-0.3,0-0.6-0.2-0.6-0.6c0-0.2,0.1-0.4,0.2-0.6l-3.5-3.2
						c-0.1,0.1-0.2,0.2-0.3,0.2c-0.2,0.1-0.4,0.1-0.5,0.1L20,37.9c0,0.1,0.1,0.2,0.1,0.3c0,0.4-0.3,1-0.7,1.2
						c-0.1,0.1-0.2,0.1-0.3,0.1l-3.5,7.1c0.1,0.1,0.2,0.2,0.2,0.5c0,0.4-0.3,1-0.7,1.2c-0.3,0.2-0.6,0.1-0.8-0.1l-2.8,1.8
						c0,0.4-0.3,0.9-0.7,1.1c-0.1,0.1-0.3,0.1-0.4,0.1l-3.4,5.5c0.1,0.1,0.1,0.2,0.1,0.4c0,0.4-0.3,1-0.7,1.2
						c-0.1,0.1-0.3,0.1-0.4,0.1C5.6,58.3,5.3,58.1,5.3,57.7z M10.2,51C10.3,51,10.3,51,10.2,51c0.2,0,0.3,0,0.4-0.1
						c0.3-0.2,0.6-0.7,0.6-1l0-0.2l0.1,0.1l2.8-1.9l0.1,0l0,0.1c0.1,0.2,0.4,0.3,0.7,0.1c0.3-0.2,0.6-0.7,0.6-1.1
						c0-0.2-0.1-0.3-0.1-0.4l0,0l3.6-7.3h0c0.1,0,0.2,0,0.3-0.1c0.3-0.2,0.6-0.7,0.6-1.1c0-0.1,0-0.2-0.1-0.3l0,0l3.2-4.4l0,0
						c0.1,0.1,0.3,0,0.5-0.1c0.1-0.1,0.2-0.1,0.3-0.2l0,0l3.7,3.3l0,0c-0.1,0.2-0.2,0.4-0.2,0.6c0,0.4,0.2,0.5,0.4,0.5
						c0.1,0,0.2,0,0.3-0.1c0.2-0.1,0.4-0.3,0.5-0.6l0,0l3,0.1l0,0.1c0,0.1,0,0.1,0,0.2c0,0.4,0.2,0.5,0.4,0.5c0.1,0,0.2,0,0.3-0.1
						c0.3-0.2,0.6-0.7,0.6-1.1c0-0.4-0.2-0.5-0.4-0.5c-0.1,0-0.2,0-0.3,0.1c-0.2,0.1-0.4,0.3-0.5,0.6l0,0l-3-0.1l0-0.1
						c0-0.1,0-0.1,0-0.2c0-0.4-0.2-0.5-0.4-0.5c-0.1,0-0.2,0-0.3,0.1c-0.1,0.1-0.2,0.1-0.3,0.2l0,0L24,33l0,0
						c0.1-0.2,0.2-0.4,0.2-0.6c0-0.4-0.2-0.5-0.4-0.5c-0.1,0-0.2,0-0.3,0.1c-0.3,0.2-0.6,0.7-0.6,1.1c0,0.1,0,0.2,0.1,0.3l0,0
						l-3.2,4.4l0,0c-0.1-0.1-0.3,0-0.5,0.1c-0.3,0.2-0.6,0.7-0.6,1.1c0,0.2,0.1,0.3,0.1,0.4l0,0l-3.5,7.2l0,0h0
						c-0.1,0-0.2,0-0.3,0.1c-0.3,0.2-0.6,0.6-0.6,1l0,0l-3,2l0-0.1c-0.1-0.2-0.4-0.3-0.7-0.1c-0.3,0.2-0.6,0.7-0.6,1.1
						c0,0.1,0,0.2,0.1,0.3l0,0l-3.5,5.6l0,0l0,0c-0.1,0-0.3,0-0.4,0.1c-0.3,0.2-0.6,0.7-0.6,1.1c0,0.4,0.2,0.5,0.4,0.5
						c0.1,0,0.2,0,0.3-0.1c0.3-0.2,0.6-0.7,0.6-1.1c0-0.1,0-0.2-0.1-0.3l0,0L10.2,51L10.2,51L10.2,51z M5.7,57.7
						c0-0.3,0.2-0.7,0.5-0.9c0.1,0,0.1-0.1,0.2-0.1c0.1,0,0.2,0.1,0.2,0.3c0,0.3-0.2,0.7-0.5,0.9C6,58,5.9,58,5.9,58
						C5.8,58,5.7,57.9,5.7,57.7z M6.3,56.9C6,57,5.8,57.4,5.8,57.7c0,0.1,0,0.2,0.1,0.2c0,0,0.1,0,0.1,0c0.2-0.1,0.5-0.5,0.5-0.8
						c0-0.1,0-0.2-0.1-0.2C6.4,56.8,6.3,56.9,6.3,56.9z M10.1,50.5c0-0.3,0.2-0.7,0.5-0.9c0.1,0,0.1-0.1,0.2-0.1
						c0.1,0,0.2,0.1,0.2,0.3c0,0.3-0.2,0.7-0.5,0.9c-0.1,0-0.1,0.1-0.2,0.1C10.2,50.8,10.1,50.7,10.1,50.5z M10.7,49.7
						c-0.2,0.1-0.5,0.5-0.5,0.8c0,0.1,0,0.2,0.1,0.2c0,0,0.1,0,0.1,0c0.2-0.1,0.5-0.5,0.5-0.8c0-0.1,0-0.2-0.1-0.2
						C10.8,49.7,10.8,49.7,10.7,49.7z M14.4,47.7c0-0.3,0.2-0.7,0.5-0.9c0.1,0,0.1-0.1,0.2-0.1c0.1,0,0.2,0.1,0.2,0.3
						c0,0.3-0.2,0.7-0.5,0.9c-0.1,0-0.1,0.1-0.2,0.1C14.5,48,14.4,47.9,14.4,47.7z M15,46.9c-0.2,0.1-0.5,0.5-0.5,0.8
						c0,0.1,0,0.2,0.1,0.2c0,0,0.1,0,0.1,0c0.2-0.1,0.5-0.5,0.5-0.8c0-0.1,0-0.2-0.1-0.2C15.1,46.8,15,46.9,15,46.9z M18.7,38.8
						c0-0.3,0.2-0.7,0.5-0.9c0.1,0,0.1-0.1,0.2-0.1c0.1,0,0.2,0.1,0.2,0.3c0,0.3-0.2,0.7-0.5,0.9c-0.1,0-0.1,0.1-0.2,0.1
						C18.8,39.1,18.7,39,18.7,38.8z M19.3,38c-0.2,0.1-0.5,0.5-0.5,0.8c0,0.1,0,0.2,0.1,0.2c0,0,0.1,0,0.1,0
						c0.2-0.1,0.5-0.5,0.5-0.8c0-0.1,0-0.2-0.1-0.2C19.4,38,19.4,38,19.3,38z M31.8,37.3c0-0.3,0.2-0.7,0.5-0.9
						c0.1,0,0.1-0.1,0.2-0.1c0.1,0,0.2,0.1,0.2,0.3c0,0.3-0.2,0.7-0.5,0.9c-0.1,0-0.1,0.1-0.2,0.1C31.9,37.6,31.8,37.5,31.8,37.3z
						 M32.4,36.5c-0.2,0.1-0.5,0.5-0.5,0.8c0,0.1,0,0.2,0.1,0.2c0,0,0.1,0,0.1,0c0.2-0.1,0.5-0.5,0.5-0.8c0-0.1,0-0.2-0.1-0.2
						C32.5,36.5,32.4,36.5,32.4,36.5z M27.6,37.1c0-0.3,0.2-0.7,0.5-0.9c0.1,0,0.1-0.1,0.2-0.1c0.1,0,0.2,0.1,0.2,0.3
						c0,0.3-0.2,0.7-0.5,0.9c-0.1,0-0.1,0.1-0.2,0.1C27.7,37.4,27.6,37.3,27.6,37.1z M28.2,36.3c-0.2,0.1-0.5,0.5-0.5,0.8
						c0,0.1,0,0.2,0.1,0.2c0,0,0.1,0,0.1,0c0.2-0.1,0.5-0.5,0.5-0.8c0-0.1,0-0.2-0.1-0.2C28.3,36.3,28.2,36.3,28.2,36.3z M23,33
						c0-0.3,0.2-0.7,0.5-0.9c0.1,0,0.1-0.1,0.2-0.1c0.1,0,0.2,0.1,0.2,0.3c0,0.3-0.2,0.7-0.5,0.9c-0.1,0-0.1,0.1-0.2,0.1
						C23.1,33.3,23,33.2,23,33z M23.6,32.2c-0.2,0.1-0.5,0.5-0.5,0.8c0,0.1,0,0.2,0.1,0.2c0,0,0.1,0,0.1,0c0.2-0.1,0.5-0.5,0.5-0.8
						c0-0.1,0-0.2-0.1-0.2C23.7,32.2,23.7,32.2,23.6,32.2z"/>
				</g>
				<g>
					<path class="fa0" d="M24.1,33.1l3.6,3.2c0.1-0.1,0.2-0.2,0.3-0.2c0.1-0.1,0.2-0.1,0.3-0.1c0.1,0,0.3,0.1,0.4,0.2
						c-0.1-0.2-0.3-0.3-0.4-0.3c-0.1,0-0.2,0-0.3,0.1c-0.1,0.1-0.2,0.1-0.3,0.2L24.1,33.1C24.1,33,24.1,33,24.1,33.1z"/>
					<path class="fa0" d="M5.9,58C6,58,6,58,6.1,58c0.3-0.2,0.5-0.5,0.5-0.8c0-0.1,0-0.2-0.1-0.2c0,0,0,0.1,0,0.1
						c0,0.3-0.2,0.7-0.5,0.8c-0.1,0-0.1,0.1-0.2,0.1c0,0-0.1,0-0.1,0C5.8,57.9,5.9,58,5.9,58z"/>
					<path class="fa0" d="M10.4,50.8c0,0,0.1,0,0.2-0.1c0.3-0.2,0.5-0.5,0.5-0.8c0-0.1,0-0.2-0.1-0.2c0,0,0,0.1,0,0.1
						c0,0.3-0.2,0.7-0.5,0.8c-0.1,0-0.1,0.1-0.2,0.1c0,0-0.1,0-0.1,0C10.3,50.8,10.3,50.8,10.4,50.8z"/>
					<path class="fa0" d="M28.8,36.7l2.9,0.1c0.1-0.3,0.3-0.5,0.5-0.6c0.1-0.1,0.2-0.1,0.3-0.1c0.1,0,0.3,0.1,0.4,0.2
						c-0.1-0.2-0.3-0.3-0.4-0.3c-0.1,0-0.2,0-0.3,0.1c-0.2,0.1-0.4,0.4-0.5,0.6l-2.8-0.1C28.8,36.7,28.8,36.7,28.8,36.7z"/>
					<path class="fa0" d="M32,37.6c0,0,0.1,0,0.2-0.1c0.3-0.2,0.5-0.5,0.5-0.8c0-0.1,0-0.2-0.1-0.2c0,0,0,0.1,0,0.1
						c0,0.3-0.2,0.7-0.5,0.8c-0.1,0-0.1,0.1-0.2,0.1c0,0-0.1,0-0.1,0C31.9,37.6,32,37.6,32,37.6z"/>
					<path class="fa0" d="M27.8,37.4c0,0,0.1,0,0.2-0.1c0.3-0.2,0.5-0.5,0.5-0.8c0-0.1,0-0.2-0.1-0.2c0,0,0,0.1,0,0.1
						c0,0.3-0.2,0.7-0.5,0.8c-0.1,0-0.1,0.1-0.2,0.1c0,0-0.1,0-0.1,0C27.7,37.4,27.8,37.4,27.8,37.4z"/>
					<path class="fa0" d="M14.7,48c0,0,0.1,0,0.2-0.1c0.3-0.2,0.5-0.5,0.5-0.8c0-0.1,0-0.2-0.1-0.2c0,0,0,0.1,0,0.1
						c0,0.3-0.2,0.7-0.5,0.8c-0.1,0-0.1,0.1-0.2,0.1c0,0-0.1,0-0.1,0C14.5,47.9,14.6,48,14.7,48z"/>
					<path class="fa0" d="M15.5,46.7C15.5,46.7,15.5,46.7,15.5,46.7C15.5,46.7,15.5,46.7,15.5,46.7L15.5,46.7z"/>
					<path class="fa0" d="M19,39.2c0,0,0.1,0,0.2-0.1c0.3-0.2,0.5-0.5,0.5-0.8c0-0.1,0-0.2-0.1-0.2c0,0,0,0.1,0,0.1
						c0,0.3-0.2,0.7-0.5,0.8C19.1,39,19,39,18.9,39c0,0-0.1,0-0.1,0C18.9,39.1,18.9,39.2,19,39.2z"/>
					<path class="fa0" d="M31.6,37.4c0-0.1,0-0.1,0-0.2l-0.1,0c0,0,0,0.1,0,0.1c0,0.2,0,0.3,0.1,0.4C31.6,37.6,31.6,37.5,31.6,37.4z
						"/>
					<path class="fa0" d="M5.4,57.8c0-0.4,0.3-0.9,0.7-1.1c0.1-0.1,0.2-0.1,0.3-0.1c0,0,0.1,0,0.1,0L10,51c-0.1-0.1-0.1-0.2-0.1-0.4
						c0-0.4,0.3-0.9,0.7-1.1c0.1-0.1,0.2-0.1,0.3-0.1c0.2,0,0.3,0.1,0.4,0.3l2.9-1.9c0-0.4,0.3-0.9,0.7-1.1c0.1-0.1,0.2-0.1,0.3-0.1
						l3.5-7.2c0,0,0,0-0.1-0.1l-3.5,7.1c-0.1,0-0.2,0-0.3,0.1c-0.4,0.2-0.6,0.7-0.7,1.1l-2.9,1.9c-0.1-0.2-0.3-0.3-0.4-0.3
						c-0.1,0-0.2,0-0.3,0.1c-0.4,0.2-0.7,0.7-0.7,1.1c0,0.2,0,0.3,0.1,0.4l-3.4,5.6c0,0-0.1,0-0.1,0c-0.1,0-0.2,0-0.3,0.1
						c-0.4,0.2-0.7,0.7-0.7,1.1c0,0.2,0,0.3,0.1,0.4C5.5,58,5.4,57.9,5.4,57.8z"/>
					<path class="fa0" d="M27.4,37.2c0-0.2,0.1-0.4,0.2-0.6l-0.1-0.1c-0.1,0.2-0.2,0.4-0.2,0.6c0,0.2,0,0.3,0.1,0.4
						C27.4,37.4,27.4,37.3,27.4,37.2z"/>
					<path class="fa0" d="M23.3,33.3c0,0,0.1,0,0.2-0.1c0.3-0.2,0.5-0.5,0.5-0.8c0-0.1,0-0.2-0.1-0.2c0,0,0,0.1,0,0.1
						c0,0.3-0.2,0.7-0.5,0.8c-0.1,0-0.1,0.1-0.2,0.1c0,0-0.1,0-0.1,0C23.2,33.3,23.2,33.3,23.3,33.3z"/>
					<path class="fa0" d="M18.5,38.9c0-0.4,0.3-0.9,0.7-1.1c0.1-0.1,0.2-0.1,0.3-0.1c0.1,0,0.1,0,0.2,0l3.2-4.3
						c0-0.1-0.1-0.2-0.1-0.3c0-0.4,0.3-0.9,0.7-1.1c0.1-0.1,0.2-0.1,0.3-0.1c0.1,0,0.3,0.1,0.4,0.2c-0.1-0.2-0.3-0.3-0.4-0.3
						c-0.1,0-0.2,0-0.3,0.1c-0.4,0.2-0.7,0.7-0.7,1.1c0,0.1,0,0.2,0.1,0.3l-3.2,4.3c-0.1,0-0.1,0-0.2,0c-0.1,0-0.2,0-0.3,0.1
						c-0.4,0.2-0.7,0.7-0.7,1.1c0,0.2,0,0.3,0.1,0.4C18.5,39.1,18.5,39,18.5,38.9z"/>
				</g>
			</g>
			<g>
				<g>
					<linearGradient id="FAID_1_" gradientUnits="userSpaceOnUse" x1="5.4142" y1="41.0606" x2="32.9758" y2="41.0606">
						<stop  offset="0.3039" style="stop-color:#E0363F"/>
						<stop  offset="1" style="stop-color:#93171B"/>
					</linearGradient>
					<path class="fa1" d="M32.5,29.5c-0.1,0-0.2,0-0.3,0.1c-0.3,0.2-0.6,0.6-0.6,0.9l-2.8,2.8c-0.1-0.2-0.3-0.3-0.4-0.3
						c-0.1,0-0.2,0-0.3,0.1c-0.4,0.2-0.6,0.7-0.7,1.1l-3.1,1.2c-0.1-0.3-0.3-0.4-0.5-0.4c-0.1,0-0.2,0-0.3,0.1
						c-0.4,0.2-0.7,0.7-0.7,1.1c0,0.1,0,0.1,0,0.2l-3.1,6.7c0,0-0.1,0-0.1,0c-0.1,0-0.2,0-0.3,0.1c-0.4,0.2-0.7,0.7-0.7,1.1
						c0,0.1,0,0.2,0.1,0.3l-3.1,4.2c-0.1-0.1-0.2-0.2-0.4-0.2c-0.1,0-0.2,0-0.3,0.1c-0.2,0.1-0.4,0.3-0.5,0.6l-2.9-2.6
						c0-0.1,0-0.2,0-0.3c0-0.4-0.2-0.6-0.5-0.6c-0.1,0-0.2,0-0.3,0.1c-0.4,0.2-0.7,0.7-0.7,1.1c0,0,0,0,0,0.1L6.8,51
						c-0.1-0.1-0.2-0.2-0.4-0.2c-0.1,0-0.2,0-0.3,0.1c-0.4,0.2-0.7,0.7-0.7,1.1c0,0.4,0.2,0.6,0.5,0.6c0.1,0,0.2,0,0.3-0.1
						c0.3-0.2,0.6-0.7,0.7-1.1l3.1-3.8c0.1,0.1,0.2,0.2,0.3,0.2c0.1,0,0.2,0,0.3-0.1c0.2-0.1,0.4-0.3,0.5-0.5l2.9,2.6
						c0,0.1,0,0.1,0,0.2c0,0.4,0.2,0.6,0.5,0.6c0.1,0,0.2,0,0.3-0.1c0.4-0.2,0.7-0.7,0.7-1.1l0,0l3.2-4.4c0.1,0,0.1,0,0.2,0
						c0.1,0,0.2,0,0.3-0.1c0.4-0.2,0.7-0.7,0.7-1.1c0-0.1,0-0.2-0.1-0.3l3.1-6.6c0.1,0,0.1,0.1,0.2,0.1c0.1,0,0.2,0,0.3-0.1
						c0.3-0.2,0.6-0.6,0.6-1l3.2-1.2c0.1,0.2,0.3,0.3,0.4,0.3c0.1,0,0.2,0,0.3-0.1c0.3-0.2,0.6-0.7,0.7-1.1l2.7-2.7
						c0.1,0.2,0.3,0.3,0.4,0.3c0.1,0,0.2,0,0.3-0.1c0.4-0.2,0.7-0.7,0.7-1.1C33,29.7,32.7,29.5,32.5,29.5z M6.1,52.2
						c-0.1,0-0.1,0.1-0.2,0.1c-0.1,0-0.1-0.2-0.1-0.2c0-0.3,0.2-0.7,0.5-0.9c0.1,0,0.1-0.1,0.2-0.1c0.1,0,0.1,0.2,0.1,0.2
						C6.6,51.7,6.3,52.1,6.1,52.2z M10.5,47.4c-0.1,0-0.1,0.1-0.2,0.1c-0.1,0-0.1-0.2-0.1-0.2c0-0.3,0.2-0.7,0.5-0.9
						c0.1,0,0.1-0.1,0.2-0.1c0.1,0,0.1,0.2,0.1,0.2C11,46.8,10.8,47.2,10.5,47.4z M14.8,50.1c-0.1,0-0.1,0.1-0.2,0.1
						c-0.1,0-0.1-0.2-0.1-0.2c0-0.3,0.2-0.7,0.5-0.9c0.1,0,0.1-0.1,0.2-0.1c0.1,0,0.1,0.2,0.1,0.2C15.2,49.6,15,50,14.8,50.1z
						 M19.2,44.6c-0.1,0-0.1,0.1-0.2,0.1c-0.1,0-0.1-0.2-0.1-0.2c0-0.3,0.2-0.7,0.5-0.9c0.1,0,0.1-0.1,0.2-0.1
						c0.1,0,0.1,0.2,0.1,0.2C19.6,44,19.4,44.4,19.2,44.6z M23.4,36.5c-0.1,0-0.1,0.1-0.2,0.1c-0.1,0-0.1-0.2-0.1-0.2
						c0-0.3,0.2-0.7,0.5-0.9c0.1,0,0.1-0.1,0.2-0.1c0.1,0,0.1,0.2,0.1,0.2C23.9,35.9,23.7,36.3,23.4,36.5z M28,34.5
						c-0.1,0-0.1,0.1-0.2,0.1c-0.1,0-0.1-0.2-0.1-0.2c0-0.3,0.2-0.7,0.5-0.9c0.1,0,0.1-0.1,0.2-0.1c0.1,0,0.1,0.2,0.1,0.2
						C28.5,34,28.3,34.4,28,34.5z M32.1,30.9C32.1,31,32,31,32,31c-0.1,0-0.1-0.2-0.1-0.2c0-0.3,0.2-0.7,0.5-0.9
						c0.1,0,0.1-0.1,0.2-0.1c0.1,0,0.1,0.2,0.1,0.2C32.6,30.4,32.4,30.8,32.1,30.9z"/>
					<linearGradient id="FAID_2_" gradientUnits="userSpaceOnUse" x1="5.3482" y1="41.0606" x2="33.042" y2="41.0606">
						<stop  offset="0.3039" style="stop-color:#E0363F"/>
						<stop  offset="1" style="stop-color:#93171B"/>
					</linearGradient>
					<path class="fa2" d="M5.3,52c0-0.4,0.3-1,0.7-1.2c0.3-0.2,0.6-0.1,0.8,0.1l3-3.7c0,0,0,0,0,0c0-0.4,0.3-1,0.7-1.2
						c0.1-0.1,0.3-0.1,0.4-0.1c0.3,0,0.6,0.2,0.6,0.6c0,0.1,0,0.2,0,0.3l2.8,2.5c0.1-0.2,0.3-0.4,0.5-0.5c0.3-0.2,0.6-0.1,0.8,0
						l3-4.1c0-0.1-0.1-0.2-0.1-0.3c0-0.4,0.3-1,0.7-1.2c0.2-0.1,0.3-0.1,0.5-0.1l3.1-6.6c0-0.1,0-0.1,0-0.2c0-0.4,0.3-1,0.7-1.2
						c0.1-0.1,0.3-0.1,0.4-0.1c0.2,0,0.4,0.1,0.5,0.4l3-1.1c0-0.4,0.3-0.9,0.7-1.1c0.3-0.2,0.6-0.1,0.8,0.1l2.7-2.7
						c0.1-0.4,0.3-0.8,0.7-1c0.1-0.1,0.3-0.1,0.4-0.1c0.3,0,0.6,0.2,0.6,0.6c0,0.4-0.3,1-0.7,1.2c-0.3,0.2-0.7,0.1-0.8-0.2l-2.6,2.6
						c0,0.4-0.3,0.9-0.7,1.1c-0.1,0.1-0.3,0.1-0.4,0.1c-0.2,0-0.4-0.1-0.5-0.3l-3.1,1.2c-0.1,0.4-0.3,0.8-0.7,1
						c-0.2,0.1-0.4,0.1-0.6,0.1l-3,6.5c0,0.1,0.1,0.2,0.1,0.3c0,0.4-0.3,1-0.7,1.2C19.2,45,19,45.1,18.8,45l-3.2,4.3l0,0
						c0,0.4-0.3,0.9-0.7,1.1c-0.1,0.1-0.3,0.1-0.4,0.1c-0.3,0-0.6-0.2-0.6-0.6c0-0.1,0-0.1,0-0.2l-2.9-2.5c-0.1,0.2-0.3,0.4-0.5,0.5
						c-0.3,0.1-0.5,0.1-0.7,0L7,51.5c0,0.4-0.3,0.9-0.7,1.1c-0.1,0.1-0.3,0.1-0.4,0.1C5.6,52.7,5.3,52.5,5.3,52z M10.1,47.6
						c0.1,0.2,0.4,0.2,0.6,0c0.2-0.1,0.3-0.3,0.4-0.5l0-0.1l3,2.7l0,0c0,0.1,0,0.1,0,0.2c0,0.4,0.2,0.5,0.4,0.5c0.1,0,0.2,0,0.3-0.1
						c0.3-0.2,0.6-0.7,0.6-1.1l0-0.1l0.1,0.1l3.2-4.3l0,0l0,0c0.1,0.1,0.3,0,0.5-0.1c0.4-0.2,0.6-0.7,0.6-1.1c0-0.1,0-0.2-0.1-0.3
						l0,0l3.1-6.7l0.1,0c0.2,0.1,0.3,0.1,0.5,0c0.3-0.2,0.5-0.5,0.6-0.9l0,0l3.3-1.2l0,0.1c0.1,0.3,0.4,0.3,0.7,0.2
						c0.3-0.2,0.6-0.6,0.6-1l0,0l2.8-2.8l0,0.1c0.1,0.3,0.4,0.4,0.7,0.2c0.4-0.2,0.6-0.7,0.6-1.1c0-0.4-0.2-0.5-0.4-0.5
						c-0.1,0-0.2,0-0.3,0.1c-0.3,0.2-0.5,0.5-0.6,0.9l0,0l-2.8,2.9l0-0.1c-0.1-0.2-0.4-0.3-0.7-0.1c-0.3,0.2-0.6,0.6-0.6,1l0,0
						l-3.2,1.2l0-0.1c-0.1-0.3-0.2-0.3-0.4-0.3c-0.1,0-0.2,0-0.3,0.1c-0.4,0.2-0.6,0.7-0.6,1.1c0,0.1,0,0.1,0,0.2l0,0l-3.2,6.8
						l-0.1,0c0,0-0.1,0-0.1,0c-0.1,0-0.2,0-0.3,0.1c-0.4,0.2-0.6,0.7-0.6,1.1c0,0.1,0,0.2,0.1,0.3l0,0l-3.1,4.2L15.5,49l-0.1-0.1
						c-0.1-0.2-0.4-0.2-0.6-0.1c-0.2,0.1-0.4,0.3-0.5,0.6l0,0.1l-3-2.6l0,0l0,0c0-0.1,0-0.2,0-0.3c0-0.4-0.2-0.5-0.4-0.5
						c-0.1,0-0.2,0-0.3,0.1c-0.4,0.2-0.6,0.7-0.6,1.1c0,0,0,0,0,0l0,0l-3.1,3.9l0-0.1c-0.1-0.2-0.4-0.2-0.6-0.1
						c-0.4,0.2-0.6,0.7-0.6,1.1c0,0.4,0.2,0.5,0.4,0.5c0.1,0,0.2,0,0.3-0.1c0.3-0.2,0.6-0.6,0.6-1l0,0L10.1,47.6L10.1,47.6z M5.7,52
						c0-0.3,0.2-0.7,0.5-0.9c0.1,0,0.1-0.1,0.2-0.1c0.1,0,0.2,0.1,0.2,0.3c0,0.3-0.2,0.7-0.5,0.9c-0.1,0-0.1,0.1-0.2,0.1
						C5.8,52.3,5.7,52.2,5.7,52z M6.3,51.2C6,51.4,5.8,51.8,5.8,52c0,0.1,0,0.2,0.1,0.2c0,0,0.1,0,0.1,0c0.2-0.1,0.5-0.5,0.5-0.8
						c0-0.1,0-0.2-0.1-0.2C6.4,51.2,6.3,51.2,6.3,51.2z M14.4,50c0-0.3,0.2-0.7,0.5-0.9C15,49,15,49,15.1,49c0.1,0,0.2,0.1,0.2,0.3
						c0,0.3-0.2,0.7-0.5,0.9c-0.1,0-0.1,0.1-0.2,0.1C14.4,50.3,14.4,50.1,14.4,50z M15,49.2c-0.2,0.1-0.5,0.5-0.5,0.8
						c0,0.1,0,0.2,0.1,0.2c0,0,0.1,0,0.1,0c0.2-0.1,0.5-0.5,0.5-0.8c0-0.1,0-0.2-0.1-0.2C15.1,49.1,15,49.1,15,49.2z M10.1,47.2
						c0-0.3,0.2-0.7,0.5-0.9c0.1,0,0.1-0.1,0.2-0.1c0.1,0,0.2,0.1,0.2,0.3c0,0.3-0.2,0.7-0.5,0.9c-0.1,0-0.1,0.1-0.2,0.1
						C10.2,47.5,10.1,47.4,10.1,47.2z M10.7,46.4c-0.2,0.1-0.5,0.5-0.5,0.8c0,0.1,0,0.2,0.1,0.2c0,0,0.1,0,0.1,0
						c0.2-0.1,0.5-0.5,0.5-0.8c0-0.1,0-0.2-0.1-0.2C10.8,46.3,10.8,46.3,10.7,46.4z M18.8,44.4c0-0.3,0.2-0.7,0.5-0.9
						c0.1,0,0.1-0.1,0.2-0.1c0.1,0,0.2,0.1,0.2,0.3c0,0.3-0.2,0.7-0.5,0.9c-0.1,0-0.1,0.1-0.2,0.1C18.8,44.7,18.8,44.6,18.8,44.4z
						 M19.4,43.6c-0.2,0.1-0.5,0.5-0.5,0.8c0,0.1,0,0.2,0.1,0.2c0,0,0.1,0,0.1,0c0.2-0.1,0.5-0.5,0.5-0.8c0-0.1,0-0.2-0.1-0.2
						C19.5,43.5,19.4,43.6,19.4,43.6z M23,36.3c0-0.3,0.2-0.7,0.5-0.9c0.1,0,0.1-0.1,0.2-0.1c0.1,0,0.2,0.1,0.2,0.3
						c0,0.3-0.2,0.7-0.5,0.9c-0.1,0-0.1,0.1-0.2,0.1C23.1,36.6,23,36.5,23,36.3z M23.6,35.5c-0.2,0.1-0.5,0.5-0.5,0.8
						c0,0.1,0,0.2,0.1,0.2c0,0,0.1,0,0.1,0c0.2-0.1,0.5-0.5,0.5-0.8c0-0.1,0-0.2-0.1-0.2C23.7,35.4,23.7,35.5,23.6,35.5z M27.6,34.3
						c0-0.3,0.2-0.7,0.5-0.9c0.1,0,0.1-0.1,0.2-0.1c0.1,0,0.2,0.1,0.2,0.3c0,0.3-0.2,0.7-0.5,0.9c-0.1,0-0.1,0.1-0.2,0.1
						C27.7,34.6,27.6,34.5,27.6,34.3z M28.2,33.5c-0.2,0.1-0.5,0.5-0.5,0.8c0,0.1,0,0.2,0.1,0.2c0,0,0.1,0,0.1,0
						c0.2-0.1,0.5-0.5,0.5-0.8c0-0.1,0-0.2-0.1-0.2C28.3,33.5,28.2,33.5,28.2,33.5z M31.8,30.8c0-0.3,0.2-0.7,0.5-0.9
						c0.1,0,0.1-0.1,0.2-0.1c0.1,0,0.2,0.1,0.2,0.3c0,0.3-0.2,0.7-0.5,0.9c-0.1,0-0.1,0.1-0.2,0.1C31.8,31.1,31.8,30.9,31.8,30.8z
						 M32.3,30c-0.2,0.1-0.5,0.5-0.5,0.8c0,0.1,0,0.2,0.1,0.2c0,0,0.1,0,0.1,0c0.2-0.1,0.5-0.5,0.5-0.8c0-0.1,0-0.2-0.1-0.2
						C32.5,29.9,32.4,29.9,32.3,30z"/>
				</g>
				<g>
					<linearGradient id="FAID_3_" gradientUnits="userSpaceOnUse" x1="14.5237" y1="49.7118" x2="15.3164" y2="49.7118">
						<stop  offset="0.3039" style="stop-color:#E0363F"/>
						<stop  offset="1" style="stop-color:#93171B"/>
					</linearGradient>
					<path class="fa3" d="M14.7,50.3c0,0,0.1,0,0.2-0.1c0.3-0.2,0.5-0.5,0.5-0.9c0-0.1,0-0.2-0.1-0.2c0,0,0,0.1,0,0.1
						c0,0.3-0.2,0.7-0.5,0.9C14.7,50.2,14.6,50.2,14.7,50.3c-0.1-0.1-0.1-0.1-0.1-0.1C14.5,50.2,14.6,50.3,14.7,50.3z"/>
					<linearGradient id="FAID_4_" gradientUnits="userSpaceOnUse" x1="11.3822" y1="42.2501" x2="24.1361" y2="42.2501">
						<stop  offset="0.3039" style="stop-color:#E0363F"/>
						<stop  offset="1" style="stop-color:#93171B"/>
					</linearGradient>
					<path class="fa4" d="M11.4,46.9l2.9,2.6c0.1-0.2,0.3-0.5,0.5-0.6c0.1-0.1,0.2-0.1,0.3-0.1c0.1,0,0.3,0.1,0.4,0.2l3.1-4.2
						c0-0.1-0.1-0.2-0.1-0.3c0-0.4,0.3-0.9,0.7-1.1c0.1-0.1,0.2-0.1,0.3-0.1c0,0,0.1,0,0.1,0l3.1-6.7c0-0.1,0-0.1,0-0.2
						c0-0.4,0.3-0.9,0.7-1.1c0.1-0.1,0.2-0.1,0.3-0.1c0.1,0,0.2,0.1,0.3,0.1C24,35.1,23.9,35,23.7,35c-0.1,0-0.2,0-0.3,0.1
						c-0.4,0.2-0.7,0.7-0.7,1.1c0,0.1,0,0.1,0,0.2l-3.1,6.7c0,0-0.1,0-0.1,0c-0.1,0-0.2,0-0.3,0.1c-0.4,0.2-0.7,0.7-0.7,1.1
						c0,0.1,0,0.2,0.1,0.3l-3.1,4.2c-0.1-0.1-0.2-0.2-0.4-0.2c-0.1,0-0.2,0-0.3,0.1c-0.2,0.1-0.4,0.3-0.5,0.6L11.4,46.9
						C11.4,46.9,11.4,46.9,11.4,46.9z"/>
					<linearGradient id="FAID_5_" gradientUnits="userSpaceOnUse" x1="18.9254" y1="44.1496" x2="19.7181" y2="44.1496">
						<stop  offset="0.3039" style="stop-color:#E0363F"/>
						<stop  offset="1" style="stop-color:#93171B"/>
					</linearGradient>
					<path class="fa5" d="M19.1,44.7c0,0,0.1,0,0.2-0.1c0.3-0.2,0.5-0.5,0.5-0.9c0-0.1,0-0.2-0.1-0.2c0,0,0,0.1,0,0.1
						c0,0.3-0.2,0.7-0.5,0.9C19.1,44.6,19,44.6,19.1,44.7c-0.1-0.1-0.1-0.1-0.1-0.1C18.9,44.7,19,44.7,19.1,44.7z"/>
					<linearGradient id="FAID_6_" gradientUnits="userSpaceOnUse" x1="24.2379" y1="34.2961" x2="28.7142" y2="34.2961">
						<stop  offset="0.3039" style="stop-color:#E0363F"/>
						<stop  offset="1" style="stop-color:#93171B"/>
					</linearGradient>
					<path class="fa6" d="M24.3,35.5l3.1-1.2c0-0.4,0.3-0.9,0.7-1.1c0.1-0.1,0.2-0.1,0.3-0.1c0.1,0,0.2,0,0.3,0.1
						c-0.1-0.1-0.2-0.2-0.4-0.2c-0.1,0-0.2,0-0.3,0.1c-0.4,0.2-0.6,0.7-0.7,1.1L24.3,35.5C24.3,35.5,24.3,35.5,24.3,35.5z"/>
					<linearGradient id="FAID_7_" gradientUnits="userSpaceOnUse" x1="27.7644" y1="34.0839" x2="28.5571" y2="34.0839">
						<stop  offset="0.3039" style="stop-color:#E0363F"/>
						<stop  offset="1" style="stop-color:#93171B"/>
					</linearGradient>
					<path class="fa7" d="M27.9,34.7c0,0,0.1,0,0.2-0.1c0.3-0.2,0.5-0.5,0.5-0.9c0-0.1,0-0.2-0.1-0.2c0,0,0,0.1,0,0.1
						c0,0.3-0.2,0.7-0.5,0.9C27.9,34.5,27.9,34.6,27.9,34.7c-0.1-0.1-0.1-0.1-0.1-0.1C27.8,34.6,27.8,34.7,27.9,34.7z"/>
					<linearGradient id="FAID_8_" gradientUnits="userSpaceOnUse" x1="31.9166" y1="30.5134" x2="32.7093" y2="30.5134">
						<stop  offset="0.3039" style="stop-color:#E0363F"/>
						<stop  offset="1" style="stop-color:#93171B"/>
					</linearGradient>
					<path class="fa8" d="M32,31.1c0,0,0.1,0,0.2-0.1c0.3-0.2,0.5-0.5,0.5-0.9c0-0.1,0-0.2-0.1-0.2c0,0,0,0.1,0,0.1
						c0,0.3-0.2,0.7-0.5,0.9C32.1,31,32,31,32,31.1C31.9,31,31.9,31,31.9,31C31.9,31,32,31.1,32,31.1z"/>
					<linearGradient id="FAID_9_" gradientUnits="userSpaceOnUse" x1="28.7544" y1="31.4579" x2="32.8758" y2="31.4579">
						<stop  offset="0.3039" style="stop-color:#E0363F"/>
						<stop  offset="1" style="stop-color:#93171B"/>
					</linearGradient>
					<path class="fa9" d="M28.8,33.4l2.8-2.8c0.1-0.4,0.3-0.8,0.6-0.9c0.1-0.1,0.2-0.1,0.3-0.1c0.1,0,0.2,0,0.3,0.1
						c-0.1-0.1-0.2-0.2-0.4-0.2c-0.1,0-0.2,0-0.3,0.1c-0.3,0.2-0.6,0.6-0.6,0.9L28.8,33.4C28.8,33.3,28.8,33.4,28.8,33.4z"/>
					<linearGradient id="FAID_10_" gradientUnits="userSpaceOnUse" x1="23.1667" y1="36.0396" x2="23.9594" y2="36.0396">
						<stop  offset="0.3039" style="stop-color:#E0363F"/>
						<stop  offset="1" style="stop-color:#93171B"/>
					</linearGradient>
					<path class="fa10" d="M23.3,36.6c0,0,0.1,0,0.2-0.1c0.3-0.2,0.5-0.5,0.5-0.9c0-0.1,0-0.2-0.1-0.2c0,0,0,0.1,0,0.1
						c0,0.3-0.2,0.7-0.5,0.9C23.3,36.5,23.3,36.5,23.3,36.6c-0.1-0.1-0.1-0.1-0.1-0.1C23.2,36.6,23.2,36.6,23.3,36.6z"/>
					<linearGradient id="FAID_11_" gradientUnits="userSpaceOnUse" x1="14.0928" y1="50.0814" x2="14.2641" y2="50.0814">
						<stop  offset="0.3039" style="stop-color:#E0363F"/>
						<stop  offset="1" style="stop-color:#93171B"/>
					</linearGradient>
					<path class="fa11" d="M14.2,50c0-0.1,0-0.1,0-0.2l-0.1-0.1C14.1,49.8,14.1,49.9,14.2,50c-0.1,0.1,0,0.3,0.1,0.4
						C14.2,50.3,14.2,50.2,14.2,50z"/>
					<linearGradient id="FAID_12_" gradientUnits="userSpaceOnUse" x1="27.4395" y1="34.7364" x2="27.5105" y2="34.7364">
						<stop  offset="0.3039" style="stop-color:#E0363F"/>
						<stop  offset="1" style="stop-color:#93171B"/>
					</linearGradient>
					<path class="fa12" d="M27.5,34.7L27.5,34.7C27.5,34.7,27.5,34.8,27.5,34.7C27.5,34.8,27.5,34.7,27.5,34.7z"/>
					<linearGradient id="FAID_13_" gradientUnits="userSpaceOnUse" x1="31.5822" y1="31.1532" x2="31.6578" y2="31.1532">
						<stop  offset="0.3039" style="stop-color:#E0363F"/>
						<stop  offset="1" style="stop-color:#93171B"/>
					</linearGradient>
					<path class="fa13" d="M31.6,31.1L31.6,31.1c0,0.1,0,0.1,0.1,0.1C31.6,31.2,31.6,31.1,31.6,31.1z"/>
					<linearGradient id="FAID_14_" gradientUnits="userSpaceOnUse" x1="10.3003" y1="46.9307" x2="11.093" y2="46.9307">
						<stop  offset="0.3039" style="stop-color:#E0363F"/>
						<stop  offset="1" style="stop-color:#93171B"/>
					</linearGradient>
					<path class="fa14" d="M10.4,47.5c0,0,0.1,0,0.2-0.1c0.3-0.2,0.5-0.5,0.5-0.9c0-0.1,0-0.2-0.1-0.2c0,0,0,0.1,0,0.1
						c0,0.3-0.2,0.7-0.5,0.9C10.5,47.4,10.4,47.4,10.4,47.5c-0.1-0.1-0.1-0.1-0.1-0.1C10.3,47.5,10.4,47.5,10.4,47.5z"/>
					<linearGradient id="FAID_15_" gradientUnits="userSpaceOnUse" x1="5.4142" y1="51.6384" x2="6.7984" y2="51.6384">
						<stop  offset="0.3039" style="stop-color:#E0363F"/>
						<stop  offset="1" style="stop-color:#93171B"/>
					</linearGradient>
					<path class="fa15" d="M5.5,52.1c0-0.4,0.3-0.9,0.7-1.1c0.1-0.1,0.2-0.1,0.3-0.1c0.1,0,0.2,0,0.3,0.1c-0.1-0.1-0.2-0.2-0.4-0.2
						c-0.1,0-0.2,0-0.3,0.1C5.7,51.1,5.4,51.6,5.5,52.1c-0.1,0.1,0,0.3,0.1,0.4C5.5,52.4,5.5,52.3,5.5,52.1z"/>
					<linearGradient id="FAID_16_" gradientUnits="userSpaceOnUse" x1="5.8452" y1="51.7931" x2="6.6378" y2="51.7931">
						<stop  offset="0.3039" style="stop-color:#E0363F"/>
						<stop  offset="1" style="stop-color:#93171B"/>
					</linearGradient>
					<path class="fa16" d="M6,52.4c0,0,0.1,0,0.2-0.1c0.3-0.2,0.5-0.5,0.5-0.9c0-0.1,0-0.2-0.1-0.2c0,0,0,0.1,0,0.1
						c0,0.3-0.2,0.7-0.5,0.9C6,52.3,6,52.3,6,52.4c-0.1-0.1-0.1-0.1-0.1-0.1C5.9,52.3,5.9,52.4,6,52.4z"/>
					<linearGradient id="FAID_17_" gradientUnits="userSpaceOnUse" x1="6.8125" y1="48.5043" x2="11.2595" y2="48.5043">
						<stop  offset="0.3039" style="stop-color:#E0363F"/>
						<stop  offset="1" style="stop-color:#93171B"/>
					</linearGradient>
					<path class="fa17" d="M6.8,51C6.8,51,6.9,51.1,6.8,51l3.1-3.7c0,0,0,0,0-0.1c0-0.4,0.3-0.9,0.7-1.1c0.1-0.1,0.2-0.1,0.3-0.1
						c0.1,0,0.2,0,0.3,0.1c-0.1-0.1-0.2-0.2-0.4-0.2c-0.1,0-0.2,0-0.3,0.1c-0.4,0.2-0.7,0.7-0.7,1.1c0,0,0,0,0,0.1L6.8,51z"/>
				</g>
			</g>
		</g>
	</g>
</g>
<g id="td-histogram">
	<g>
		<polygon class="fa18" points="17.9,52.5 17.9,70.7 17.8,70.7 13.1,68 13.1,55.2 		"/>
		<linearGradient id="FAID_18_" gradientUnits="userSpaceOnUse" x1="20.2587" y1="71.8093" x2="20.2587" y2="61.4699">
			<stop  offset="0" style="stop-color:#FFFFFF"/>
			<stop  offset="1" style="stop-color:#C2C7D7"/>
		</linearGradient>
		<polygon class="fa19" points="22.7,55.2 22.7,68 17.9,70.7 17.9,52.5 17.9,52.5 		"/>
		<polygon class="fa0" points="22.7,55.2 17.9,58 17.8,58 13.1,55.2 17.9,52.5 17.9,52.5 		"/>
		<line class="fa20" x1="13.1" y1="68.2" x2="13.1" y2="68"/>
	</g>
	<g>
		<polygon class="fa18" points="20,52.5 20,71.9 24.8,74.6 24.8,74.6 24.8,62 24.8,55.3 		"/>
		
			<linearGradient id="FAID_19_" gradientUnits="userSpaceOnUse" x1="58.9218" y1="75.9511" x2="58.9218" y2="63.4316" gradientTransform="matrix(-1 0 0 1 86.1507 0)">
			<stop  offset="0" style="stop-color:#FFFFFF"/>
			<stop  offset="1" style="stop-color:#C2C7D7"/>
		</linearGradient>
		<polygon class="fa21" points="24.8,55.3 24.8,74.6 29.6,71.9 29.6,52.5 		"/>
		<polygon class="fa0" points="20,52.5 24.8,55.3 24.8,55.3 29.6,52.5 24.8,49.7 		"/>
		<line class="fa20" x1="20" y1="72.1" x2="20" y2="71.9"/>
	</g>
	<g>
		<polygon class="fa18" points="31.7,60.6 31.7,78.9 31.7,78.9 26.9,76.1 26.9,63.4 		"/>
		<linearGradient id="FAID_20_" gradientUnits="userSpaceOnUse" x1="34.0974" y1="79.9425" x2="34.0974" y2="69.6031">
			<stop  offset="0" style="stop-color:#FFFFFF"/>
			<stop  offset="1" style="stop-color:#C2C7D7"/>
		</linearGradient>
		<polygon class="fa22" points="36.5,63.4 36.5,76.1 31.7,78.9 31.7,60.6 31.7,60.6 		"/>
		<polygon class="fa0" points="36.5,63.4 31.7,66.1 31.7,66.1 26.9,63.4 31.7,60.6 31.7,60.6 		"/>
		<line class="fa20" x1="26.9" y1="76.3" x2="26.9" y2="76.1"/>
	</g>
	<g>
		<polygon class="fa18" points="38.9,68.1 38.9,82.7 38.9,82.7 34.1,80 34.1,70.9 38.9,68.1 		"/>
		<linearGradient id="FAID_21_" gradientUnits="userSpaceOnUse" x1="41.2801" y1="83.5752" x2="41.2801" y2="75.3283">
			<stop  offset="0" style="stop-color:#FFFFFF"/>
			<stop  offset="1" style="stop-color:#C2C7D7"/>
		</linearGradient>
		<polygon class="fa23" points="43.7,70.9 43.7,80 38.9,82.7 38.9,73.7 38.9,68.1 38.9,68.1 38.9,68.1 		"/>
		<polygon class="fa0" points="43.7,70.9 38.9,73.7 38.9,73.7 34.1,70.9 38.9,68.1 38.9,68.1 38.9,68.1 		"/>
		<line class="fa20" x1="34.1" y1="80.2" x2="34.1" y2="80"/>
	</g>
	<g>
		<polygon class="fa18" points="41.3,78.3 41.3,83.9 46,86.7 46.1,86.7 46.1,81.1 46,81.1 		"/>
		
			<linearGradient id="FAID_22_" gradientUnits="userSpaceOnUse" x1="37.2161" y1="89.1697" x2="37.6278" y2="83.5425" gradientTransform="matrix(-1 0 0 1 86.1507 0)">
			<stop  offset="0" style="stop-color:#FFFFFF"/>
			<stop  offset="1" style="stop-color:#C2C7D7"/>
		</linearGradient>
		<polygon class="fa24" points="46.1,81.1 46.1,86.7 50.8,83.9 50.8,78.3 		"/>
		<polygon class="fa0" points="41.3,78.3 46,81.1 46.1,81.1 50.8,78.3 46.1,75.6 46.1,75.6 		"/>
		<line class="fa20" x1="41.3" y1="84.1" x2="41.3" y2="83.9"/>
	</g>
</g>
<g id="Finance-ana-board">
	<g>
		<g id="PresenationBoard02_1_">
			<g>
				<g>
					
						<linearGradient id="FAID_23_" gradientUnits="userSpaceOnUse" x1="-155.3924" y1="56.9086" x2="-155.3924" y2="20.8611" gradientTransform="matrix(-1 0 0 1 -95.4451 0)">
						<stop  offset="0.3039" style="stop-color:#E0363F"/>
						<stop  offset="1" style="stop-color:#93171B"/>
					</linearGradient>
					<path class="fa25" d="M37.5,3l45,26c1,0.6,1.7,1.9,1.7,3l-0.1,35.2c0,1.1-0.8,1.5-1.7,1l-45-26c-1-0.6-1.7-1.9-1.7-3L35.8,4
						C35.8,2.9,36.6,2.4,37.5,3"/>
				</g>
			</g>
		</g>
	</g>
	<g class="fa26">
		<polyline class="fa27" points="40.5,22.7 38.7,21.7 38.6,37.8 38.6,23.4 40.5,24.4 40.5,22.7 		"/>
		<polyline class="fa27" points="43.2,20.5 41.4,19.4 41.3,39.5 41.4,21.1 43.2,22.2 43.2,20.5 		"/>
		<polyline class="fa27" points="45.9,27.6 44,26.6 44,41.1 44,28.2 45.8,29.2 45.9,27.6 		"/>
		<polyline class="fa27" points="48.6,19.2 46.8,18.2 46.7,42.6 46.8,20 48.6,21 48.6,19.2 		"/>
		<polyline class="fa27" points="51.3,17.2 49.5,16.1 49.4,44.1 49.5,17.4 51.3,18.5 51.3,17.2 		"/>
		<polyline class="fa27" points="54,27 52.1,26 52.1,45.7 52.1,27.8 54,28.8 54,27 		"/>
		<polyline class="fa27" points="56.7,25.1 54.9,24 54.8,47.3 54.8,25.8 56.7,26.8 56.7,25.1 		"/>
		<polyline class="fa27" points="59.3,39 57.5,38 57.5,48.8 57.5,39.5 59.3,40.6 59.3,39 		"/>
		<polyline class="fa27" points="62,36 60.2,34.9 60.2,50.3 60.2,36.6 62,37.6 62,36 		"/>
		<polyline class="fa27" points="64.7,41.3 62.9,40.3 62.9,51.9 62.9,41.8 64.7,42.9 64.7,41.3 		"/>
		<polyline class="fa27" points="67.4,32.6 65.6,31.6 65.6,53.5 65.6,33.3 67.4,34.4 67.4,32.6 		"/>
		<polyline class="fa27" points="70.2,28.6 68.3,27.5 68.3,55 68.3,29.5 70.2,30.5 70.2,28.6 		"/>
		<polyline class="fa27" points="72.9,27.9 71,26.8 71,56.6 71,28.8 72.9,29.9 72.9,27.9 		"/>
		<polyline class="fa27" points="75.5,38.9 73.7,37.8 73.7,58.1 73.7,39.6 75.5,40.7 75.5,38.9 		"/>
		<polyline class="fa27" points="78.2,36.1 76.4,35 76.4,59.7 76.4,36.9 78.2,37.9 78.2,36.1 		"/>
		<polyline class="fa27" points="80.9,47.8 79.1,46.7 79,61.3 79.1,48.3 80.9,49.3 80.9,47.8 		"/>
		<polyline class="fa28" points="40.5,24.4 38.6,23.4 38.6,37.8 38.6,25.6 40.5,26.6 40.5,24.4 		"/>
		<polyline class="fa28" points="43.2,22.2 41.4,21.1 41.3,39.5 41.4,22.1 43.2,23.1 43.2,22.2 		"/>
		<polyline class="fa28" points="45.8,29.2 44,28.2 44,41.1 44,29 45.8,30 45.8,29.2 		"/>
		<polyline class="fa28" points="48.6,21 46.8,20 46.7,42.6 46.8,21.6 48.6,22.7 48.6,21 		"/>
		<polyline class="fa28" points="51.3,18.5 49.5,17.4 49.4,44.1 49.5,19.9 51.3,21 51.3,18.5 		"/>
		<polyline class="fa28" points="54,28.8 52.1,27.8 52.1,45.7 52.1,30 53.9,31 54,28.8 		"/>
		<polyline class="fa28" points="56.7,26.8 54.8,25.8 54.8,47.3 54.8,26.8 56.7,27.9 56.7,26.8 		"/>
		<polyline class="fa28" points="59.3,40.6 57.5,39.5 57.5,48.8 57.5,41.6 59.3,42.6 59.3,40.6 		"/>
		<polyline class="fa28" points="62,37.6 60.2,36.6 60.2,50.3 60.2,38.3 62,39.4 62,37.6 		"/>
		<polyline class="fa28" points="64.7,42.9 62.9,41.8 62.9,51.9 62.9,43.1 64.7,44.2 64.7,42.9 		"/>
		<polyline class="fa28" points="67.4,34.4 65.6,33.3 65.6,53.5 65.6,34.8 67.4,35.9 67.4,34.4 		"/>
		<polyline class="fa28" points="70.2,30.5 68.3,29.5 68.3,55 68.3,32.6 70.1,33.6 70.2,30.5 		"/>
		<polyline class="fa28" points="72.9,29.9 71,28.8 71,56.6 71,32.2 72.8,33.2 72.9,29.9 		"/>
		<polyline class="fa28" points="75.5,40.7 73.7,39.6 73.7,58.1 73.7,41.9 75.5,42.9 75.5,40.7 		"/>
		<polyline class="fa28" points="78.2,37.9 76.4,36.9 76.4,59.7 76.4,38.6 78.2,39.6 78.2,37.9 		"/>
		<polyline class="fa28" points="80.9,49.3 79.1,48.3 79,61.3 79.1,49.2 80.9,50.3 80.9,49.3 		"/>
		<polyline class="fa0" points="40.5,26.6 38.6,25.6 38.6,37.8 38.6,39.2 40.4,40.2 40.5,26.6 		"/>
		<polyline class="fa0" points="43.2,23.1 41.4,22.1 41.3,39.5 41.3,40.7 43.1,41.8 43.2,23.1 		"/>
		<polyline class="fa0" points="45.8,30 44,29 44,41.1 44,42.3 45.8,43.3 45.8,30 		"/>
		<polyline class="fa0" points="48.6,22.7 46.8,21.6 46.7,42.6 46.7,43.8 48.5,44.9 48.6,22.7 		"/>
		<polyline class="fa0" points="51.3,21 49.5,19.9 49.4,44.1 49.4,45.4 51.2,46.4 51.3,21 		"/>
		<polyline class="fa0" points="53.9,31 52.1,30 52.1,45.7 52.1,47 53.9,48 53.9,31 		"/>
		<polyline class="fa0" points="56.7,27.9 54.8,26.8 54.8,47.3 54.8,48.5 56.6,49.6 56.7,27.9 		"/>
		<polyline class="fa0" points="59.3,42.6 57.5,41.6 57.5,48.8 57.5,50.1 59.3,51.1 59.3,42.6 		"/>
		<polyline class="fa0" points="62,39.4 60.2,38.3 60.2,50.3 60.2,51.6 62,52.7 62,39.4 		"/>
		<polyline class="fa0" points="64.7,44.2 62.9,43.1 62.9,51.9 62.9,53.2 64.7,54.2 64.7,44.2 		"/>
		<polyline class="fa0" points="67.4,35.9 65.6,34.8 65.6,53.5 65.6,54.7 67.4,55.8 67.4,35.9 		"/>
		<polyline class="fa0" points="70.1,33.6 68.3,32.6 68.3,55 68.3,56.3 70.1,57.3 70.1,33.6 		"/>
		<polyline class="fa0" points="72.8,33.2 71,32.2 71,56.6 71,57.8 72.8,58.9 72.8,33.2 		"/>
		<polyline class="fa0" points="75.5,42.9 73.7,41.9 73.7,58.1 73.6,59.4 75.5,60.4 75.5,42.9 		"/>
		<polyline class="fa0" points="78.2,39.6 76.4,38.6 76.4,59.7 76.3,61 78.2,62 78.2,39.6 		"/>
		<polyline class="fa0" points="80.9,50.3 79.1,49.2 79,61.3 79,62.5 80.9,63.6 80.9,50.3 		"/>
	</g>
</g>
<g>
	<g>
		
			<linearGradient id="FAID_24_" gradientUnits="userSpaceOnUse" x1="1217.5717" y1="378.0702" x2="1221.6951" y2="378.0702" gradientTransform="matrix(0.8803 -0.4744 0.4744 0.8803 -1198.6018 315.8377)">
			<stop  offset="0" style="stop-color:#FFFFFF"/>
			<stop  offset="1" style="stop-color:#C2C7D7"/>
		</linearGradient>
		<path class="fa29" d="M56.2,69.1c0.5,1,0.2,2.3-0.8,2.8c-1,0.5-2.3,0.2-2.8-0.8c-0.5-1-0.2-2.3,0.8-2.8
			C54.4,67.7,55.7,68.1,56.2,69.1z"/>
		<linearGradient id="FAID_25_" gradientUnits="userSpaceOnUse" x1="49.0301" y1="63.3098" x2="54.7025" y2="60.2555">
			<stop  offset="0" style="stop-color:#E0363F"/>
			<stop  offset="0.2358" style="stop-color:#93171B"/>
			<stop  offset="0.6307" style="stop-color:#93171B"/>
			<stop  offset="1" style="stop-color:#720714"/>
		</linearGradient>
		<path class="fa30" d="M48,53.1l-4.5,2.4l8.3,15.3l0,0c0,0,0,0,0,0c0.4,0.7,1.7,0.8,2.9,0.1c1.2-0.7,1.9-1.8,1.5-2.5c0,0,0,0,0,0
			l0,0L48,53.1z"/>
		
			<linearGradient id="FAID_26_" gradientUnits="userSpaceOnUse" x1="38.196" y1="50.779" x2="36.9134" y2="56.0469" gradientTransform="matrix(1 0 0 1 8.4766 0)">
			<stop  offset="0" style="stop-color:#93171B"/>
			<stop  offset="0.6961" style="stop-color:#E0363F"/>
		</linearGradient>
		<path class="fa31" d="M48,53.1c0.4,0.7-0.3,1.8-1.5,2.5c-1.2,0.7-2.5,0.6-2.9-0.1c-0.4-0.7,0.3-1.8,1.5-2.5
			C46.3,52.4,47.7,52.4,48,53.1z"/>
		
			<linearGradient id="FAID_27_" gradientUnits="userSpaceOnUse" x1="1218.0173" y1="358.6575" x2="1221.0101" y2="358.6575" gradientTransform="matrix(0.8803 -0.4744 0.4744 0.8803 -1198.6018 315.8377)">
			<stop  offset="0" style="stop-color:#FFFFFF"/>
			<stop  offset="1" style="stop-color:#C2C7D7"/>
		</linearGradient>
		<path class="fa32" d="M45.4,50.5l-2.7,1.4l1.6,2.9l0,0c0,0,0,0,0,0c0.2,0.4,1,0.5,1.7,0.1c0.7-0.4,1.1-1.1,0.9-1.5c0,0,0,0,0,0
			l0,0L45.4,50.5z"/>
	</g>
	<g>
		
			<linearGradient id="FAID_28_" gradientUnits="userSpaceOnUse" x1="14.727" y1="24.3616" x2="34.9915" y2="60.4299" gradientTransform="matrix(1 0 0 1 8.4766 0)">
			<stop  offset="0" style="stop-color:#E6E7E8"/>
			<stop  offset="0.4475" style="stop-color:#CED2DF"/>
			<stop  offset="0.8883" style="stop-color:#C2C7D7"/>
		</linearGradient>
		<path class="fa33" d="M37.2,49.4c-7-4-12.7-13.9-12.7-21.9c0-3.2,0.9-5.7,2.5-7.2c-3,1-4.9,4-4.9,8.7c0,8,5.7,17.9,12.7,21.9
			c4.2,2.4,7.9,2.2,10.2,0C42.9,51.5,40.1,51.1,37.2,49.4z"/>
		
			<ellipse transform="matrix(0.8633 -0.5047 0.5047 0.8633 -13.244 22.7659)" class="fa34" cx="35.4" cy="35.8" rx="9.8" ry="16.9"/>
		<g>
			
				<linearGradient id="FAID_29_" gradientUnits="userSpaceOnUse" x1="23.5172" y1="18.0569" x2="39.5567" y2="48.7582" gradientTransform="matrix(1 0 0 1 8.4766 0)">
				<stop  offset="0" style="stop-color:#FFFFFF"/>
				<stop  offset="1" style="stop-color:#C2C7D7"/>
			</linearGradient>
			<path class="fa35" d="M37.5,20.2c-3.4-2-6.6-2.2-8.9-1c-0.1,0-3.3,1.9-3.5,2c2.3-1.8,5.8-1.7,9.6,0.5c7,4,12.7,13.9,12.7,21.9
				c0,4.1-1.5,7-3.9,8.2c0.2,0,0.4-0.1,0.6-0.3c0.1,0,2.3-1.4,2.4-1.4c2.2-1.3,3.6-4.1,3.6-8.1C50.2,34,44.5,24.2,37.5,20.2z"/>
		</g>
		<path class="fa0" d="M34.8,21.7c-7-4-12.7-0.8-12.7,7.2c0,8,5.7,17.9,12.7,21.9c7,4,12.7,0.8,12.7-7.2S41.8,25.7,34.8,21.7z
			 M34.7,49.9C28.2,46.1,23,37.1,23,29.7c0-7.4,5.2-10.4,11.7-6.7c6.5,3.7,11.7,12.8,11.7,20.2S41.2,53.6,34.7,49.9z"/>
		
			<radialGradient id="FAID_30_" cx="32.1461" cy="25.9342" r="13.719" gradientTransform="matrix(1 0 0 1 8.4766 0)" gradientUnits="userSpaceOnUse">
			<stop  offset="0" style="stop-color:#FFFFFF"/>
			<stop  offset="1" style="stop-color:#C2C7D7"/>
		</radialGradient>
		<path class="fa36" d="M35.4,21.4c-3.4-1.9-6.4-2.2-8.7-1.1c2.1-0.6,5.2-0.3,8.1,1.4c7,4,12.7,13.9,12.7,21.9c0,4.2-2,7.2-4.5,8.4
			c3.1-0.9,5.1-4,5.1-8.7C48.1,35.2,42.4,25.4,35.4,21.4z"/>
	</g>
</g>
<g id="finance-chart">
	<linearGradient id="FAID_31_" gradientUnits="userSpaceOnUse" x1="74.3045" y1="78.5941" x2="86.9962" y2="72.4671">
		<stop  offset="0" style="stop-color:#E0363F"/>
		<stop  offset="0.2849" style="stop-color:#93171B"/>
		<stop  offset="0.8184" style="stop-color:#93171B"/>
		<stop  offset="1" style="stop-color:#720714"/>
	</linearGradient>
	<path class="fa37" d="M76.4,73.9v5.1c0,1.3-0.8,2.6-2.5,3.5v-5.1C75.6,76.4,76.4,75.1,76.4,73.9z"/>
	<g>
		<linearGradient id="FAID_32_" gradientUnits="userSpaceOnUse" x1="57.2274" y1="75.0923" x2="72.162" y2="78.8669">
			<stop  offset="0" style="stop-color:#E0363F"/>
			<stop  offset="0.2358" style="stop-color:#93171B"/>
			<stop  offset="0.6307" style="stop-color:#93171B"/>
			<stop  offset="1" style="stop-color:#720714"/>
		</linearGradient>
		<path class="fa38" d="M73.9,77.3v5.1l-6-3.5h0l-8.4,0.6c0-0.2-0.1-0.4-0.1-0.6v-5.2c0,0.2,0,0.4,0.1,0.6l8.4-0.6h0L73.9,77.3z"/>
		<linearGradient id="FAID_33_" gradientUnits="userSpaceOnUse" x1="76.7774" y1="73.1167" x2="62.7363" y2="73.1167">
			<stop  offset="0" style="stop-color:#93171B"/>
			<stop  offset="1" style="stop-color:#E0363F"/>
		</linearGradient>
		<path class="fa39" d="M76.4,73.9c0,1.3-0.8,2.5-2.5,3.4l-6-3.5h0l-8.4,0.6c-0.1-0.2-0.1-0.4-0.1-0.6c0-0.9,0.5-1.9,1.4-2.7
			c0.2-0.1,0.3-0.3,0.5-0.4c0.2-0.1,0.4-0.3,0.6-0.4c1.7-1,3.8-1.4,6-1.4c2.2,0,4.4,0.5,6,1.4C75.6,71.3,76.4,72.6,76.4,73.9z"/>
		<linearGradient id="FAID_34_" gradientUnits="userSpaceOnUse" x1="67.0225" y1="79.3759" x2="72.6754" y2="80.1053">
			<stop  offset="0" style="stop-color:#E0E3EB"/>
			<stop  offset="1" style="stop-color:#A1A5AD"/>
		</linearGradient>
		<path class="fa40" d="M74.3,78.9C74.3,78.9,74.3,78.9,74.3,78.9l-6-3.5l0,0l0,0.1l0,0l0,0.1l0,0l0,0.1l0,0l0,0.1l0,0l0,0.1l0,0
			l0,0.1l0,0l0,0.1l0,0l0,0.1l0,0l0,0.1l0,0l0,0.1l0,0l0,0.1l0,0l0,0.1l0,0l0,0.1l0,0l0,0.1l0,0l0,0.1l0,0l0,0.1l0,0l0,0.1l0,0
			l0,0.1l0,0l0,0.1l0,0l0,0.1l0,0l0,0.1l0,0l0,0.1l0,0l0,0.1l0,0l0,0.1l0,0l0,0.1l0,0l0,0.1l0,0l0,0.1l0,0l0,0.1l0,0l0,0.1l0,0
			l0,0.1l0,0l0,0.1l0,0l0,0.1l0,0l0,0.1l0,0l0,0.1l0,0l0,0.1l0,0l0,0.1l0,0l0,0.1l0,0l0,0.1l0,0l0,0.1l0,0l0,0.1l0,0l0,4.9
			c1,0,2-0.1,3-0.3c1.1-0.2,2.1-0.6,3-1.1l-0.1,0c0,0,0.1,0,0.1,0l-0.1,0c0,0,0.1,0,0.1,0l-0.1,0c0,0,0.1,0,0.1,0l-0.1,0
			c0,0,0.1,0,0.1,0l-0.1,0c0,0,0.1,0,0.1,0l-0.1,0c0,0,0.1,0,0.1,0l-0.1,0c0,0,0.1,0,0.1,0l-0.1,0c0,0,0.1,0,0.1,0l-0.1,0
			c0,0,0.1,0,0.1,0l-0.1,0c0,0,0.1,0,0.1,0l-0.1,0c0,0,0.1,0,0.1,0l-0.1,0c0,0,0.1,0,0.1,0l-0.1,0c0,0,0.1,0,0.1,0l-0.1,0
			c0,0,0.1,0,0.1,0l-0.1,0c0,0,0.1,0,0.1,0l-0.1,0c0,0,0.1,0,0.1,0l-0.1,0c0,0,0.1,0,0.1,0l-0.1,0c0,0,0.1,0,0.1,0l-0.1,0
			c0,0,0.1,0,0.1,0l-0.1,0c0,0,0.1,0,0.1,0l-0.1,0c0,0,0.1,0,0.1,0l-0.1,0c0,0,0.1,0,0.1,0l-0.1,0c0,0,0.1,0,0.1,0l-0.1,0
			c0,0,0.1,0,0.1,0l-0.1,0c0,0,0.1,0,0.1,0l-0.1,0c0,0,0.1,0,0.1,0l-0.1,0c0,0,0.1,0,0.1,0l-0.1,0c0,0,0.1,0,0.1,0l-0.1,0
			c0,0,0.1,0,0.1,0l-0.1,0c0,0,0.1,0,0.1,0l-0.1,0c0,0,0.1,0,0.1,0l-0.1,0c0,0,0.1,0,0.1,0l-0.1,0c0,0,0.1,0,0.1,0l-0.1,0
			c0,0,0.1,0,0.1,0l-0.1,0c0,0,0.1,0,0.1,0l-0.1,0c0,0,0.1,0,0.1,0l-0.1,0c0,0,0.1,0,0.1,0l-0.1,0c0,0,0.1,0,0.1,0L74.3,78.9
			C74.3,79,74.3,79,74.3,78.9L74.3,78.9z"/>
		<path class="fa41" d="M74.4,78.9l-6-3.5l0,0l0,4.9c1,0,2-0.1,3-0.3C72.4,79.7,73.5,79.4,74.4,78.9"/>
		<linearGradient id="FAID_35_" gradientUnits="userSpaceOnUse" x1="59.0013" y1="79.8639" x2="67.4687" y2="79.8639">
			<stop  offset="0" style="stop-color:#FFFFFF"/>
			<stop  offset="1" style="stop-color:#C2C7D7"/>
		</linearGradient>
		<path class="fa42" d="M67.5,81C67.5,81,67.5,81,67.5,81l0-4.9L59,76.7c0,0,0,0.1,0,0.1l0,0c0,0,0,0.1,0,0.1l0,0c0,0,0,0.1,0,0.1
			l0,0c0,0,0,0.1,0,0.1l0,0c0,0,0,0.1,0,0.1l0,0c0,0,0,0.1,0,0.1l0,0c0,0,0,0.1,0,0.1l0,0c0,0,0,0.1,0,0.1l0,0c0,0,0,0.1,0,0.1l0,0
			c0,0,0,0.1,0,0.1l0,0c0,0,0,0.1,0,0.1l0,0c0,0,0,0.1,0,0.1l0,0c0,0,0,0.1,0,0.1l0,0c0,0,0,0.1,0,0.1l0,0c0,0,0,0.1,0,0.1l0,0
			c0,0,0,0.1,0,0.1l0,0c0,0,0,0.1,0,0.1l0,0c0,0,0,0.1,0,0.1l0,0c0,0,0,0.1,0,0.1l0,0c0,0,0,0.1,0,0.1l0,0c0,0,0,0.1,0,0.1l0,0
			c0,0,0,0.1,0,0.1l0,0c0,0,0,0.1,0,0.1l0,0c0,0,0,0.1,0,0.1l0,0c0,0,0,0.1,0,0.1l0,0c0,0,0,0.1,0,0.1l0,0c0,0,0,0.1,0,0.1l0,0
			c0,0,0,0.1,0,0.1l0,0c0,0,0,0.1,0,0.1l0,0c0,0,0,0.1,0,0.1l0,0c0.1,0.3,0.2,0.7,0.4,1c0.4,0.7,1.1,1.3,2,1.9c1.7,1,3.8,1.4,6,1.4
			l0-0.1c0,0,0,0,0,0l0-0.1c0,0,0,0,0,0l0-0.1c0,0,0,0,0,0l0-0.1c0,0,0,0,0,0l0-0.1c0,0,0,0,0,0l0-0.1c0,0,0,0,0,0l0-0.1
			c0,0,0,0,0,0l0-0.1c0,0,0,0,0,0l0-0.1c0,0,0,0,0,0l0-0.1c0,0,0,0,0,0l0-0.1c0,0,0,0,0,0l0-0.1c0,0,0,0,0,0l0-0.1c0,0,0,0,0,0
			l0-0.1c0,0,0,0,0,0l0-0.1c0,0,0,0,0,0l0-0.1c0,0,0,0,0,0l0-0.1c0,0,0,0,0,0l0-0.1c0,0,0,0,0,0l0-0.1c0,0,0,0,0,0l0-0.1
			c0,0,0,0,0,0l0-0.1c0,0,0,0,0,0l0-0.1c0,0,0,0,0,0l0-0.1c0,0,0,0,0,0l0-0.1c0,0,0,0,0,0l0-0.1c0,0,0,0,0,0l0-0.1c0,0,0,0,0,0
			l0-0.1c0,0,0,0,0,0l0-0.1c0,0,0,0,0,0L67.5,81C67.5,81.1,67.5,81.1,67.5,81L67.5,81z"/>
		<path class="fa0" d="M67.4,76.1L59,76.7c0.1,0.3,0.2,0.7,0.4,1c0.4,0.7,1.1,1.3,2,1.9c1.7,1,3.8,1.4,6,1.4L67.4,76.1"/>
	</g>
</g>
</svg>
