<?xml version="1.0" encoding="utf-8"?>
<!-- Generator: Adobe Illustrator 25.0.1, SVG Export Plug-In . SVG Version: 6.00 Build 0)  -->
<svg version="1.1" id="Layer_2" xmlns="http://www.w3.org/2000/svg" xmlns:xlink="http://www.w3.org/1999/xlink" width="180px" height="180px" x="0px" y="0px"
	 viewBox="0 0 89 89" style="enable-background:new 0 0 89 89;" xml:space="preserve">
<style type="text/css">
	.msp0{fill:url(#MSPID_1_);}
	.msp1{fill:url(#MSPID_2_);}
	.msp2{fill:url(#MSPID_3_);}
	.msp3{fill:url(#MSPID_4_);}
	.msp4{fill:#D0D2D3;}
	.msp5{fill:#F1F1F2;}
	.msp6{fill:url(#MSPID_5_);}
	.msp7{fill:url(#MSPID_6_);}
</style>
<g>
	<linearGradient id="MSPID_1_" gradientUnits="userSpaceOnUse" x1="8.1838" y1="21.8074" x2="26.0918" y2="21.8074">
		<stop  offset="0.1257" style="stop-color:#B3242A"/>
		<stop  offset="0.6693" style="stop-color:#93171B"/>
		<stop  offset="0.9821" style="stop-color:#720714"/>
	</linearGradient>
	<path class="msp0" d="M26.092,26.39l-1.55-1.428c0.03-0.539-0.018-1.111-0.1-1.695l0.093-0.004l-0.017-0.046l0.105-0.005
		l-0.017-0.046l0.105-0.005l-0.017-0.046l0.105-0.005l-0.017-0.046l0.105-0.005l-0.017-0.046l0.105-0.005l-0.017-0.046l0.105-0.005
		l-0.017-0.046l0.105-0.005l-0.017-0.046l0.105-0.005l-0.017-0.046l0.105-0.005l-0.017-0.046l0.105-0.005l-0.017-0.046l0.105-0.005
		l-0.017-0.046l0.105-0.005l-0.017-0.046l0.105-0.005l-0.017-0.046l0.105-0.005l-1.322-3.595l-1.426,0.061
		c-0.427-0.801-0.936-1.577-1.511-2.288l0.467-1.516l-2.679-2.466l-0.032,0.103L19.214,12.8l-0.032,0.103l-0.057-0.052l-0.032,0.103
		l-0.057-0.052l-0.032,0.103l-0.057-0.052l-0.032,0.103l-0.057-0.052l-0.032,0.103l-0.057-0.052l-0.032,0.103l-0.057-0.052
		l-0.032,0.103l-0.057-0.052l-0.032,0.103l-0.057-0.052l-0.032,0.103l-0.057-0.052l-0.032,0.103l-0.057-0.052l-0.032,0.103
		l-0.057-0.052l-0.032,0.103l-0.057-0.052l-0.032,0.103l-0.057-0.052l-0.032,0.103l-0.057-0.052l-0.032,0.103l-0.057-0.052
		l-0.032,0.103l-0.057-0.052l-0.025,0.082c-0.298-0.132-0.593-0.243-0.881-0.32l-0.764-2.079l-2.467,0.109l0.017,0.046l-0.105,0.005
		l0.017,0.046l-0.105,0.005l0.017,0.046l-0.105,0.005l0.017,0.046l-0.105,0.005l0.017,0.046l-0.105,0.005l0.017,0.046l-0.105,0.005
		l0.017,0.046l-0.105,0.005l0.017,0.046l-0.105,0.005l0.017,0.046l-0.105,0.005l0.017,0.046l-0.105,0.005l0.017,0.046l-0.105,0.005
		l0.017,0.046l-0.105,0.005l0.017,0.046l-0.105,0.005l0.017,0.046l-0.105,0.005l0.017,0.046l-0.105,0.005l0.017,0.046l-0.105,0.005
		l0.017,0.046l-0.105,0.005l0.017,0.046l-0.105,0.005l0.017,0.046l-0.105,0.005L12,12.413l-0.105,0.005l0.017,0.046l-0.105,0.005
		l0.017,0.046l-0.105,0.005l0.017,0.046l-0.105,0.005l0.017,0.046l-0.105,0.005l0.017,0.046l-0.105,0.005l0.017,0.046l-0.105,0.005
		l0.017,0.046l-0.105,0.005l0.017,0.046l-0.105,0.005l0.017,0.046l-0.105,0.005l0.017,0.046l-0.105,0.005l0.174,0.473l-0.014,0.047
		l-0.057-0.052l-0.032,0.103l-0.057-0.052l-0.032,0.103l-0.057-0.052l-0.032,0.103l-0.057-0.052l-0.032,0.103l-0.057-0.052
		l-0.032,0.103l-0.057-0.052l-0.032,0.103l-0.057-0.052l-0.032,0.103l-0.057-0.052l-0.032,0.103l-0.057-0.052l-0.032,0.103
		l-0.057-0.052l-0.032,0.103l-0.057-0.052l-0.032,0.103l-0.057-0.052l-0.032,0.103l-0.057-0.052l-0.032,0.103l-0.057-0.052
		l-0.032,0.103l-0.057-0.052l-0.032,0.103l-0.057-0.052l-0.032,0.103l-0.057-0.052l-0.032,0.103L9.61,14.254l-0.032,0.103
		l-0.057-0.052L9.49,14.408l-0.057-0.052l-0.032,0.103l-0.057-0.052l-0.032,0.103l-0.057-0.052L9.225,14.56l-0.057-0.052
		l-0.032,0.103L9.08,14.559l-0.032,0.103l-0.057-0.052l-0.808,2.618l1.55,1.428c-0.03,0.539,0.018,1.111,0.1,1.693l-0.095,0.004
		l0.017,0.046L9.65,20.404l0.017,0.046l-0.105,0.005L9.579,20.5l-0.105,0.005l0.017,0.046l-0.105,0.005l0.017,0.046l-0.105,0.005
		l0.017,0.046l-0.105,0.005l0.017,0.046L9.12,20.708l0.017,0.046l-0.105,0.005l0.017,0.046l-0.105,0.005l0.017,0.046L8.854,20.86
		l0.017,0.046l-0.105,0.005l0.017,0.046l-0.105,0.005l0.017,0.046l-0.105,0.005l0.017,0.046l-0.105,0.005l1.324,3.596l1.428-0.063
		c0.425,0.803,0.934,1.576,1.509,2.287L12.292,28.4l2.679,2.466l0.032-0.103l0.057,0.052l0.032-0.103l0.057,0.052l0.032-0.103
		l0.057,0.052l0.032-0.103l0.057,0.052l0.032-0.103l0.057,0.052l0.032-0.103l0.057,0.052l0.032-0.103l0.057,0.052l0.032-0.103
		l0.057,0.052l0.032-0.103l0.057,0.052l0.032-0.103l0.057,0.052l0.032-0.103l0.057,0.052l0.032-0.103l0.057,0.052l0.032-0.103
		l0.057,0.052l0.032-0.103l0.057,0.052l0.032-0.103l0.057,0.052l0.032-0.103l0.057,0.052l0.032-0.103l0.057,0.052L16.5,29.92
		c0.019,0.008,0.038,0.021,0.057,0.029l0.005,0.005l0.001-0.002c0.276,0.119,0.549,0.217,0.817,0.289l0.766,2.08l2.464-0.108
		l-0.017-0.046l0.105-0.005l-0.017-0.046l0.105-0.005l-0.017-0.046l0.105-0.005l-0.017-0.046l0.105-0.005l-0.017-0.046l0.105-0.005
		l-0.017-0.046l0.105-0.005l-0.017-0.046l0.105-0.005l-0.017-0.046l0.105-0.005l-0.017-0.046l0.105-0.005l-0.017-0.046l0.105-0.005
		l-0.017-0.046l0.105-0.005l-0.017-0.046l0.105-0.005l-0.017-0.046l0.105-0.005l-0.017-0.046l0.105-0.005l-0.017-0.046l0.105-0.005
		l-0.017-0.046l0.105-0.005l-0.017-0.046l0.105-0.005l-0.017-0.046l0.105-0.005l-0.017-0.046l0.105-0.005l-0.017-0.046l0.105-0.005
		l-0.017-0.046l0.105-0.005l-0.017-0.046l0.105-0.005l-0.017-0.046l0.105-0.005L22.627,31l0.105-0.005l-0.017-0.046l0.105-0.005
		l-0.017-0.046l0.105-0.005l-0.017-0.046l0.105-0.005l-0.017-0.046l0.105-0.005l-0.017-0.046l0.105-0.005l-0.017-0.046l0.105-0.005
		l-0.173-0.469l0.015-0.049l0.057,0.052l0.032-0.103l0.057,0.052l0.032-0.103l0.057,0.052l0.032-0.103l0.057,0.052l0.032-0.103
		l0.057,0.052l0.032-0.103l0.057,0.052l0.032-0.103l0.057,0.052l0.032-0.103l0.057,0.052l0.032-0.103l0.057,0.052l0.032-0.103
		l0.057,0.052l0.032-0.103l0.057,0.052l0.032-0.103l0.057,0.052l0.032-0.103l0.057,0.052l0.032-0.103l0.057,0.052l0.032-0.103
		l0.057,0.052l0.032-0.103l0.057,0.052l0.032-0.103l0.057,0.052l0.032-0.103l0.057,0.052l0.032-0.103l0.057,0.052l0.032-0.103
		l0.057,0.052l0.032-0.103l0.057,0.052l0.032-0.103l0.057,0.052l0.032-0.103l0.057,0.052l0.032-0.103l0.057,0.052l0.032-0.103
		l0.057,0.052L26.092,26.39z M18.896,24.858c-0.146-0.06-0.294-0.128-0.444-0.215c-0.295-0.171-0.596-0.392-0.893-0.666
		c-1.506-1.386-2.403-3.61-2.181-5.222c0.146,0.06,0.293,0.128,0.442,0.214c0.296,0.171,0.596,0.393,0.894,0.667
		C18.219,21.022,19.118,23.247,18.896,24.858z"/>
	<linearGradient id="MSPID_2_" gradientUnits="userSpaceOnUse" x1="8.1838" y1="22.5683" x2="23.4394" y2="22.5683">
		<stop  offset="0.6436" style="stop-color:#E0363F"/>
		<stop  offset="1" style="stop-color:#93171B"/>
	</linearGradient>
	<path class="msp1" d="M15.8,26.165c-0.295-0.171-0.596-0.392-0.893-0.666c-1.655-1.524-2.591-4.07-2.094-5.69
		c0.41-1.326,1.658-1.618,3.006-0.84c0.296,0.171,0.596,0.393,0.894,0.667c1.655,1.524,2.593,4.074,2.094,5.692
		C18.398,26.655,17.149,26.943,15.8,26.165 M16.65,14.271l-0.467,1.516c-0.122-0.079-0.244-0.153-0.365-0.223
		c-0.538-0.311-1.068-0.533-1.578-0.669l-0.764-2.079l-2.467,0.109l0.766,2.08c-0.483,0.215-0.904,0.559-1.235,1.03l-1.55-1.426
		l-0.808,2.618l1.55,1.428c-0.041,0.739,0.028,1.533,0.195,2.345l-1.428,0.063l1.324,3.596l1.428-0.063
		c0.425,0.803,0.934,1.576,1.509,2.287L12.292,28.4l2.679,2.466l0.469-1.517c0.12,0.077,0.239,0.15,0.358,0.219
		c0.54,0.312,1.071,0.536,1.583,0.672l0.766,2.08l2.464-0.108l-0.766-2.083c0.485-0.214,0.904-0.557,1.235-1.028l1.552,1.427
		l0.808-2.618l-1.55-1.428c0.041-0.739-0.028-1.533-0.195-2.347l1.426-0.061l-1.322-3.595l-1.426,0.061
		c-0.427-0.801-0.936-1.577-1.511-2.288l0.467-1.516L16.65,14.271"/>
</g>
<g>
	<linearGradient id="MSPID_3_" gradientUnits="userSpaceOnUse" x1="6.5495" y1="70.6728" x2="16.0372" y2="63.6519">
		<stop  offset="0.1257" style="stop-color:#B3242A"/>
		<stop  offset="0.6693" style="stop-color:#93171B"/>
		<stop  offset="0.9821" style="stop-color:#720714"/>
	</linearGradient>
	<path class="msp2" d="M31.192,65.543l0.104,0.015l-1.513-5.526l-2.343-0.337c-0.553-1.274-1.242-2.528-2.056-3.718l1.038-2.022
		l-3.933-4.32l-0.046,0.09L22.4,49.679l-0.046,0.09l-0.042-0.046l-0.046,0.09l-0.042-0.046l-0.046,0.09l-0.042-0.046l-0.046,0.09
		l-0.042-0.046l-0.046,0.09l-0.042-0.046l-0.046,0.09l-0.042-0.046l-0.046,0.09l-0.042-0.046l-0.046,0.09l-0.042-0.046l-0.046,0.09
		l-0.042-0.046l-0.046,0.09l-0.042-0.046l-0.046,0.09l-0.042-0.046l-0.046,0.09l-0.042-0.046l-0.046,0.09l-0.042-0.046l-0.046,0.09
		l-0.042-0.046l-0.046,0.09l-0.042-0.046l-0.046,0.09l-0.042-0.046l-0.046,0.09l-0.042-0.046l-0.046,0.09l-0.042-0.046l-0.046,0.09
		l-0.042-0.046l-0.046,0.09l-0.042-0.046l-0.046,0.09l-0.042-0.046l-0.148,0.289c-0.247-0.165-0.495-0.326-0.741-0.469
		c-0.411-0.237-0.819-0.442-1.223-0.615l-0.875-3.195l-4.047-0.58l0.016,0.059l-0.104-0.015l0.016,0.059l-0.104-0.015l0.016,0.059
		l-0.104-0.015l0.016,0.059l-0.104-0.015l0.016,0.059l-0.104-0.015l0.016,0.059l-0.104-0.015l0.016,0.059L12.9,46.343l0.016,0.059
		l-0.104-0.015l0.016,0.059l-0.104-0.015l0.016,0.059l-0.104-0.015l0.016,0.059l-0.104-0.015l0.016,0.059l-0.104-0.015l0.016,0.059
		l-0.104-0.015l0.016,0.059l-0.104-0.015l0.016,0.059l-0.104-0.015l0.016,0.059l-0.104-0.015l0.016,0.059l-0.104-0.015l0.016,0.059
		l-0.104-0.015l0.016,0.059l-0.104-0.015l0.016,0.059l-0.104-0.015l0.016,0.059l-0.104-0.015l0.016,0.059l-0.104-0.015l0.829,3.027
		c-0.011,0.006-0.021,0.013-0.032,0.019c-0.029,0.014-0.059,0.029-0.088,0.044c-0.03,0.014-0.059,0.029-0.088,0.044
		c-0.03,0.014-0.059,0.029-0.088,0.044c-0.015,0.007-0.031,0.012-0.046,0.019l-2.154-2.364l-0.046,0.09l-0.042-0.046l-0.046,0.09
		l-0.042-0.046l-0.046,0.09l-0.042-0.046l-0.046,0.09L9.56,48.013l-0.046,0.09l-0.042-0.046l-0.046,0.09l-0.042-0.046l-0.046,0.09
		l-0.042-0.046l-0.046,0.09l-0.042-0.046l-0.046,0.09l-0.042-0.046l-0.046,0.09l-0.042-0.046l-0.046,0.09l-0.042-0.046l-0.046,0.09
		l-0.042-0.046l-0.046,0.09l-0.042-0.046l-0.046,0.09l-0.042-0.046l-0.046,0.09l-0.042-0.046l-0.046,0.09l-0.042-0.046l-0.046,0.09
		l-0.042-0.046l-0.046,0.09l-0.042-0.046l-0.046,0.09l-0.042-0.046l-0.046,0.09L8.15,48.717l-0.046,0.09l-0.042-0.046l-0.046,0.09
		l-0.042-0.046l-1.794,3.498L8.458,54.8c-0.13,0.676-0.182,1.4-0.173,2.153l-0.337-0.048l0.016,0.059L7.86,56.949l0.016,0.059
		l-0.104-0.015l0.016,0.059l-0.104-0.015L7.7,57.096l-0.104-0.015l0.016,0.059l-0.104-0.015l0.016,0.059L7.42,57.169l0.016,0.059
		l-0.104-0.015l0.016,0.059l-0.104-0.015l0.016,0.059l-0.104-0.015l0.016,0.059l-0.104-0.015l0.016,0.059l-0.104-0.015l0.016,0.059
		l-0.104-0.015l0.016,0.059l-0.104-0.015l0.016,0.059l-0.104-0.015l0.016,0.059l-0.104-0.015l0.016,0.059l-0.104-0.015l0.016,0.059
		l-0.104-0.015l0.016,0.059l-0.104-0.015l0.016,0.059l-0.104-0.015L6.291,57.8l-0.104-0.015l0.016,0.059l-0.104-0.015l0.016,0.059
		l-0.104-0.015L7.524,63.4l2.343,0.337c0.553,1.27,1.245,2.526,2.056,3.714l-1.038,2.025l3.933,4.32l0.046-0.09l0.042,0.046
		l0.046-0.09l0.042,0.046l0.046-0.09l0.042,0.046l0.046-0.09l0.042,0.046l0.046-0.09l0.042,0.046l0.046-0.09l0.042,0.046l0.046-0.09
		l0.042,0.046l0.046-0.09l0.042,0.046l0.046-0.09l0.042,0.046l0.046-0.09l0.042,0.046l0.046-0.09l0.042,0.046l0.046-0.09
		l0.042,0.046l0.046-0.09l0.042,0.046l0.046-0.09l0.042,0.046l0.046-0.09l0.042,0.046l0.046-0.09l0.042,0.046l0.046-0.09
		l0.042,0.046l0.046-0.09l0.042,0.046l0.046-0.09l0.042,0.046l0.046-0.09l0.042,0.046l0.046-0.09l0.042,0.046l0.046-0.09
		l0.042,0.046l0.15-0.294c0.251,0.168,0.502,0.332,0.752,0.476c0.405,0.234,0.808,0.436,1.207,0.606l0.878,3.2l4.047,0.58
		l-0.016-0.059l0.104,0.015l-0.016-0.059l0.104,0.015l-0.016-0.059l0.104,0.015l-0.016-0.059l0.104,0.015l-0.016-0.059l0.104,0.015
		l-0.016-0.059l0.104,0.015l-0.016-0.059l0.104,0.015l-0.016-0.059l0.104,0.015l-0.016-0.059l0.104,0.015l-0.016-0.059l0.104,0.015
		l-0.016-0.059l0.104,0.015l-0.016-0.059l0.104,0.015l-0.016-0.059l0.104,0.015l-0.016-0.059l0.104,0.015l-0.016-0.059l0.104,0.015
		l-0.016-0.059l0.104,0.015l-0.016-0.059l0.104,0.015l-0.016-0.059l0.104,0.015l-0.016-0.059l0.104,0.015l-0.016-0.059l0.104,0.015
		l-0.016-0.059l0.104,0.015l-0.016-0.059l0.104,0.015l-0.829-3.032c0.01-0.005,0.019-0.012,0.029-0.017
		c0.029-0.014,0.058-0.029,0.088-0.044c0.03-0.014,0.059-0.029,0.088-0.044c0.03-0.014,0.059-0.029,0.088-0.044
		c0.015-0.007,0.032-0.012,0.047-0.02l2.156,2.368l0.046-0.09l0.042,0.046l0.046-0.09l0.042,0.046l0.046-0.09l0.042,0.046
		l0.046-0.09l0.042,0.046l0.046-0.09l0.042,0.046l0.046-0.09l0.042,0.046l0.046-0.09l0.042,0.046l0.046-0.09l0.042,0.046l0.046-0.09
		l0.042,0.046l0.046-0.09l0.042,0.046l0.046-0.09l0.042,0.046l0.046-0.09l0.042,0.046l0.046-0.09l0.042,0.046l0.046-0.09
		l0.042,0.046l0.046-0.09l0.042,0.046l0.046-0.09l0.042,0.046l0.046-0.09l0.042,0.046l0.046-0.09l0.042,0.046l0.046-0.09
		l0.042,0.046l0.046-0.09l0.042,0.046l0.046-0.09l0.042,0.046l0.046-0.09l0.042,0.046l1.791-3.5l-2.274-2.499
		c0.13-0.673,0.182-1.397,0.173-2.15l0.337,0.048l-0.016-0.059l0.104,0.015l-0.016-0.059l0.104,0.015l-0.016-0.059l0.104,0.015
		l-0.016-0.059l0.104,0.015l-0.016-0.059l0.104,0.015l-0.016-0.059l0.104,0.015l-0.016-0.059l0.104,0.015l-0.016-0.059l0.104,0.015
		l-0.016-0.059l0.104,0.015l-0.016-0.059l0.104,0.015l-0.016-0.059l0.104,0.015l-0.016-0.059l0.104,0.015l-0.016-0.059l0.104,0.015
		l-0.016-0.059l0.104,0.015l-0.016-0.059l0.104,0.015l-0.016-0.059l0.104,0.015l-0.016-0.059l0.104,0.015L30.84,65.72l0.104,0.015
		l-0.016-0.059l0.104,0.015l-0.016-0.059l0.104,0.015l-0.016-0.059l0.104,0.015L31.192,65.543z M19.605,66.784
		c-0.667-0.385-1.344-0.935-1.99-1.645c-2.428-2.663-3.499-6.579-2.395-8.739c0.078-0.151,0.171-0.278,0.265-0.405
		c0.684-0.01,1.442,0.199,2.218,0.648c0.665,0.384,1.34,0.933,1.985,1.641c2.431,2.669,3.502,6.584,2.395,8.747
		c-0.077,0.15-0.17,0.276-0.263,0.402C21.137,67.441,20.381,67.232,19.605,66.784z"/>
	<linearGradient id="MSPID_4_" gradientUnits="userSpaceOnUse" x1="9.1871" y1="55.5108" x2="27.0239" y2="69.5526">
		<stop  offset="0.6436" style="stop-color:#E0363F"/>
		<stop  offset="1" style="stop-color:#93171B"/>
	</linearGradient>
	<path class="msp3" d="M17.667,67.753c-0.667-0.385-1.344-0.935-1.99-1.645c-2.428-2.663-3.499-6.579-2.395-8.739
		c0.814-1.589,2.578-1.789,4.421-0.726c0.665,0.384,1.34,0.933,1.985,1.641c2.431,2.669,3.502,6.584,2.395,8.747
		C21.27,68.618,19.508,68.816,17.667,67.753 M15.626,47.583l-4.047-0.58l0.875,3.195c-0.831,0.164-1.578,0.528-2.205,1.102
		l-2.274-2.495l-1.794,3.498L8.458,54.8c-0.201,1.044-0.233,2.197-0.104,3.407l-2.343-0.333L7.524,63.4l2.343,0.337
		c0.553,1.27,1.245,2.526,2.056,3.714l-1.038,2.025l3.933,4.32l1.038-2.029c0.599,0.482,1.203,0.897,1.802,1.243
		c0.405,0.234,0.808,0.436,1.207,0.606l0.878,3.2l4.047,0.58l-0.875-3.198c0.828-0.162,1.575-0.53,2.202-1.104l2.277,2.5l1.791-3.5
		l-2.274-2.499c0.201-1.041,0.233-2.194,0.104-3.407l2.343,0.337l-1.513-5.526l-2.343-0.337c-0.553-1.274-1.242-2.528-2.056-3.718
		l1.038-2.022l-3.933-4.32l-1.035,2.024c-0.596-0.479-1.196-0.891-1.792-1.234c-0.411-0.237-0.819-0.442-1.223-0.615L15.626,47.583"
		/>
</g>
<g>
	<path class="msp4" d="M64.154,51.977l-4.382-2.53c-0.401-2.244-1.089-4.533-2.002-6.77l3.106-1.77l-5.333-9.237l-0.074,0.042
		l-0.001-0.001l-0.074,0.042l-0.001-0.001l-0.074,0.042l-0.001-0.001l-0.074,0.042l-0.001-0.001l-0.074,0.042l-0.001-0.001
		l-0.074,0.042l-0.001-0.001l-0.074,0.042l-0.001-0.001l-0.074,0.042l-0.001-0.001l-0.074,0.042l-0.001-0.001l-0.074,0.042
		l-0.001-0.001l-0.074,0.042l-0.001-0.001l-0.074,0.042l-0.001-0.001l-0.074,0.042l-0.001-0.001l-0.074,0.042l-0.001-0.001
		l-0.074,0.042l-0.001-0.001l-0.074,0.042l-0.001-0.001l-0.074,0.042l-0.001-0.001l-0.074,0.042l-0.001-0.001l-0.074,0.042
		l-0.001-0.001L54.045,32.5l-0.001-0.001l-0.074,0.042L53.97,32.54l-0.074,0.042l-0.001-0.001l-0.074,0.042l-0.001-0.001
		l-0.074,0.042l-0.001-0.001l-0.074,0.042l-0.001-0.001l-0.074,0.042l-0.001-0.001l-0.074,0.042l-0.001-0.001l-0.074,0.042
		l-0.001-0.001l-0.074,0.042l-0.001-0.001l-0.074,0.042l-0.001-0.001l-0.074,0.042l-0.001-0.001l-0.074,0.042l-0.001-0.001
		l-0.074,0.042l-0.001-0.001l-0.074,0.042l-0.001-0.001l-0.074,0.042l-0.001-0.001l-0.074,0.042l-0.001-0.001l-0.074,0.042
		l-0.001-0.001l-0.074,0.042l-0.001-0.001l-0.074,0.042l-0.001-0.001l-0.074,0.042l-0.001-0.001l-0.074,0.042l-0.001-0.001
		l-0.064,0.036c-1.474-1.898-3.1-3.629-4.842-5.106l0.014-5.023l-7.561-4.365l0,0.085l-0.075-0.043l0,0.085l-0.075-0.043l0,0.085
		l-0.075-0.043l0,0.085l-0.075-0.043l0,0.085l-0.075-0.043l0,0.085l-0.075-0.043l0,0.085l-0.075-0.043l0,0.085l-0.075-0.043l0,0.085
		l-0.075-0.043l0,0.085l-0.075-0.043l0,0.085l-0.075-0.043l0,0.085l-0.075-0.043l0,0.085l-0.075-0.043l0,0.085l-0.075-0.043l0,0.085
		l-0.075-0.043l0,0.085l-0.075-0.043l0,0.085l-0.075-0.043l0,0.085l-0.075-0.043l0,0.085l-0.075-0.043l0,0.085l-0.075-0.043l0,0.085
		l-0.075-0.043l0,0.085l-0.075-0.043l0,0.085l-0.075-0.043l0,0.085l-0.075-0.043l0,0.085l-0.075-0.043l0,0.085l-0.075-0.043l0,0.085
		l-0.075-0.043l0,0.085l-0.075-0.043l0,0.085l-0.075-0.043l0,0.085l-0.075-0.043l0,0.085l-0.075-0.043l0,0.085l-0.075-0.043l0,0.085
		l-0.075-0.043l0,0.085l-0.075-0.043l0,0.085l-0.075-0.043l0,0.085l-0.075-0.043l0,0.085l-0.075-0.043l0,0.085l-0.075-0.043l0,0.085
		l-0.075-0.043l0,0.085l-0.075-0.043l0,0.085l-0.075-0.043l0,0.085l-0.075-0.043l0,0.085l-0.075-0.043l0,0.085l-0.075-0.043l0,0.085
		l-0.075-0.043l0,0.085l-0.075-0.043l0,0.085l-0.075-0.043l0,0.085l-0.075-0.043l0,0.085l-0.075-0.043l0,0.085l-0.075-0.043l0,0.085
		L36.2,21.024l0,0.085l-0.075-0.043l0,0.085l-0.075-0.043l0,0.085l-0.075-0.043l0,0.085L35.9,21.189l0,0.085l-0.075-0.043l0,0.085
		l-0.075-0.043l0,0.085l-0.075-0.043l0,0.085l-0.075-0.043l0,0.085l-0.075-0.043l0,0.085l-0.075-0.043l0,0.085l-0.075-0.043l0,0.085
		l-0.075-0.043l0,0.085l-0.075-0.043l0,0.085l-0.075-0.043l0,0.085l-0.075-0.043l0,0.085l-0.075-0.043l0,0.085l-0.075-0.043l0,0.085
		l-0.075-0.043l-0.003,1.207l-2.813-4.878l-0.074,0.042L31.96,18.14l-0.074,0.042l-0.001-0.001l-0.074,0.042l-0.001-0.001
		l-0.074,0.042l-0.001-0.001l-0.074,0.042l-0.001-0.001l-0.074,0.042l-0.001-0.001l-0.074,0.042l-0.001-0.001l-0.074,0.042
		l-0.001-0.001l-0.074,0.042l-0.001-0.001l-0.074,0.042l-0.001-0.001l-0.074,0.042l-0.001-0.001l-0.074,0.042l-0.001-0.001
		l-0.074,0.042l-0.001-0.001l-0.074,0.042l-0.001-0.001l-0.074,0.042l-0.001-0.001l-0.074,0.042l-0.001-0.001l-0.074,0.042
		l-0.001-0.001l-0.074,0.042l-0.001-0.001l-0.074,0.042l-0.001-0.001l-0.074,0.042l-0.001-0.001l-0.074,0.042l-0.001-0.001
		l-0.074,0.042l-0.001-0.001l-0.074,0.042l-0.001-0.001l-0.074,0.042l-0.001-0.001l-0.074,0.042l-0.001-0.001l-0.074,0.042
		l-0.001-0.001l-0.074,0.042l-0.001-0.001l-0.074,0.042l-0.001-0.001l-0.074,0.042L29.863,19.3l-0.074,0.042l-0.001-0.001
		l-0.074,0.042l-0.001-0.001l-0.074,0.042l-0.001-0.001l-0.074,0.042l-0.001-0.001l-0.074,0.042l-0.001-0.001l-0.074,0.042
		l-0.001-0.001l-0.074,0.042l-0.001-0.001l-0.074,0.042l-0.001-0.001l-0.074,0.042l-0.001-0.001l-0.074,0.042l-0.001-0.001
		l-0.074,0.042l-0.001-0.001l-0.074,0.042l-0.001-0.001l-0.074,0.042l-0.001-0.001l-0.074,0.042l-0.001-0.001l-0.074,0.042
		l-0.001-0.001l-0.074,0.042l-0.001-0.001l-0.074,0.042l-0.001-0.001l-0.074,0.042l-0.001-0.001l-0.074,0.042l-0.001-0.001
		l-0.074,0.042l-0.001-0.001l-0.074,0.042l-0.001-0.001l-0.074,0.042l-0.001-0.001l-0.074,0.042l-0.001-0.001l-0.074,0.042
		l-0.001-0.001l-0.074,0.042l-0.001-0.001l-0.074,0.042l-0.001-0.001l-0.074,0.042l-0.001-0.001l-0.074,0.042l-0.001-0.001
		l-0.074,0.042l-0.001-0.001l-0.074,0.042l-0.001-0.001l-0.074,0.042l-0.001-0.001l-0.074,0.042l-0.001-0.001l-0.074,0.042
		l-0.001-0.001l-0.074,0.042l-0.001-0.001l-0.074,0.042l-0.001-0.001l-0.074,0.042l-0.001-0.001l-0.074,0.042l-0.001-0.001
		l-0.074,0.042l-0.001-0.001l-0.074,0.042l-0.001-0.001l-0.074,0.042l-0.001-0.001L21.5,24.016l2.888,5.002l-1.046-0.604l0,0.085
		l-0.075-0.043l0,0.085l-0.075-0.043l0,0.085l-0.075-0.043l0,0.085l-0.075-0.043l0,0.085l-0.075-0.043l0,0.085l-0.075-0.043l0,0.085
		l-0.075-0.043l0,0.085l-0.075-0.043l0,0.085l-0.075-0.043l0,0.085l-0.075-0.043l0,0.085l-0.075-0.043l0,0.085l-0.075-0.043l0,0.085
		l-0.075-0.043l0,0.085l-0.075-0.043l0,0.085l-0.075-0.043l0,0.085l-0.075-0.043l0,0.085l-0.075-0.043l0,0.085l-0.075-0.043l0,0.085
		l-0.075-0.043l0,0.085l-0.075-0.043l0,0.085l-0.075-0.043l0,0.085l-0.075-0.043l0,0.085l-0.075-0.043l0,0.085l-0.075-0.043l0,0.085
		L21.47,29.45l0,0.085l-0.075-0.043l0,0.085l-0.075-0.043l0,0.085l-0.075-0.043l0,0.085l-0.075-0.043l0,0.085l-0.075-0.043l0,0.085
		l-0.075-0.043l0,0.085l-0.075-0.043l0,0.085l-0.075-0.043l0,0.085l-0.075-0.043l0,0.085l-0.075-0.043l0,0.085l-0.075-0.043l0,0.085
		l-0.075-0.043l0,0.085l-0.075-0.043l0,0.085l-0.075-0.043l0,0.085l-0.075-0.043l0,0.085l-0.075-0.043l0,0.085l-0.075-0.043l0,0.085
		l-0.075-0.043l0,0.085l-0.075-0.043l0,0.085l-0.075-0.043l0,0.085l-0.075-0.043l0,0.085l-0.075-0.043l0,0.085l-0.075-0.043l0,0.085
		l-0.075-0.043l0,0.085l-0.075-0.043l0,0.085l-0.075-0.043l0,0.085l-0.075-0.043l0,0.085l-0.075-0.043l0,0.085l-0.075-0.043l0,0.085
		l-0.075-0.043l0,0.085l-0.075-0.043l0,0.085l-0.075-0.043l0,0.085l-0.075-0.043l0,0.085l-0.075-0.043l0,0.085L18.849,30.9l0,0.085
		l-0.075-0.043l0,0.085l-0.075-0.043l0,0.085l-0.075-0.043l0,0.085l-0.075-0.043l0,0.085l-0.075-0.043l0,0.085L18.4,31.149l0,0.085
		l-0.075-0.043l0,0.085l-0.075-0.043l0,0.085l-0.075-0.043l-0.025,8.694l4.377,2.527c0.407,2.247,1.089,4.527,2.002,6.763
		l-3.106,1.77l5.333,9.237l0.074-0.042l0.001,0.001l0.074-0.042l0.001,0.001l0.074-0.042l0.001,0.001l0.074-0.042l0.001,0.001
		l0.074-0.042l0.001,0.001l0.074-0.042l0.001,0.001l0.074-0.042l0.001,0.001l0.074-0.042l0.001,0.001l0.074-0.042l0.001,0.001
		l0.074-0.042l0.001,0.001l0.074-0.042l0.001,0.001l0.074-0.042l0.001,0.001l0.074-0.042l0.001,0.001l0.074-0.042l0.001,0.001
		l0.074-0.042l0.001,0.001l0.074-0.042l0.001,0.001l0.074-0.042l0.001,0.001l0.074-0.042l0.001,0.001l0.074-0.042l0.001,0.001
		l0.074-0.042l0.001,0.001l0.074-0.042l0.001,0.001l0.074-0.042l0.001,0.001l0.074-0.042l0.001,0.001l0.074-0.042l0.001,0.001
		l0.074-0.042l0.001,0.001l0.074-0.042l0.001,0.001l0.074-0.042l0.001,0.001l0.074-0.042l0.001,0.001l0.074-0.042l0.001,0.001
		l0.074-0.042l0.001,0.001l0.074-0.042l0.001,0.001l0.074-0.042l0.001,0.001l0.074-0.042l0.001,0.001l0.074-0.042l0.001,0.001
		l0.074-0.042l0.001,0.001l0.074-0.042l0.001,0.001l0.074-0.042l0.001,0.001l0.074-0.042l0.001,0.001l0.074-0.042l0.001,0.001
		l0.074-0.042l0.001,0.001l0.074-0.042l0.001,0.001l0.064-0.036c1.474,1.898,3.106,3.626,4.842,5.1l-0.014,5.036l7.561,4.365
		l0-0.085l0.075,0.043l0-0.085l0.075,0.043l0-0.085l0.075,0.043l0-0.085l0.075,0.043l0-0.085l0.075,0.043l0-0.085l0.075,0.043
		l0-0.085l0.075,0.043l0-0.085l0.075,0.043l0-0.085l0.075,0.043l0-0.085l0.075,0.043l0-0.085l0.075,0.043l0-0.085l0.075,0.043
		l0-0.085l0.075,0.043l0-0.085l0.075,0.043l0-0.085l0.075,0.043l0-0.085l0.075,0.043l0-0.085l0.075,0.043l0-0.085l0.075,0.043
		l0-0.085l0.075,0.043l0-0.085l0.075,0.043l0-0.085l0.075,0.043l0-0.085l0.075,0.043l0-0.085l0.075,0.043l0-0.085l0.075,0.043
		l0-0.085l0.075,0.043l0-0.085l0.075,0.043l0-0.085l0.075,0.043l0-0.085l0.075,0.043l0-0.085l0.075,0.043l0-0.085l0.075,0.043
		l0-0.085l0.075,0.043l0-0.085l0.075,0.043l0-0.085l0.075,0.043l0-0.085l0.075,0.043l0-0.085l0.075,0.043l0-0.085l0.075,0.043
		l0-0.085l0.075,0.043l0-0.085l0.075,0.043l0-0.085l0.075,0.043l0-0.085l0.075,0.043l0-0.085l0.075,0.043l0-0.085l0.075,0.043
		l0-0.085l0.075,0.043l0-0.085l0.075,0.043l0-0.085l0.075,0.043l0-0.085l0.075,0.043l0-0.085l0.075,0.043l0-0.085l0.075,0.043
		l0-0.085L45.949,71l0-0.085l0.075,0.043l0-0.085l0.075,0.043l0-0.085l0.075,0.043l0-0.085l0.075,0.043l0-0.085l0.075,0.043l0-0.085
		l0.075,0.043l0-0.085l0.075,0.043l0-0.085l0.075,0.043l0-0.085l0.075,0.043l0-0.085l0.075,0.043l0-0.085l0.075,0.043l0-0.085
		l0.075,0.043l0-0.085l0.075,0.043l0-0.085l0.075,0.043l0-0.085l0.075,0.043l0-0.085l0.075,0.043l0-0.085l0.075,0.043l0-0.085
		l0.075,0.043l0-0.085l0.075,0.043l0-0.085l0.075,0.043l0.003-1.208l2.813,4.872l0.074-0.042l0.001,0.001l0.074-0.042l0.001,0.001
		l0.074-0.042l0.001,0.001l0.074-0.042l0.001,0.001l0.074-0.042l0.001,0.001l0.074-0.042l0.001,0.001l0.074-0.042l0.001,0.001
		l0.074-0.042l0.001,0.001l0.074-0.042l0.001,0.001l0.074-0.042l0.001,0.001l0.074-0.042l0.001,0.001l0.074-0.042l0.001,0.001
		l0.074-0.042l0.001,0.001l0.074-0.042l0.001,0.001l0.074-0.042l0.001,0.001l0.074-0.042l0.001,0.001l0.074-0.042l0.001,0.001
		l0.074-0.042l0.001,0.001l0.074-0.042l0.001,0.001l0.074-0.042l0.001,0.001l0.074-0.042l0.001,0.001l0.074-0.042l0.001,0.001
		l0.074-0.042l0.001,0.001l0.074-0.042l0.001,0.001l0.074-0.042l0.001,0.001l0.074-0.042l0.001,0.001l0.074-0.042l0.001,0.001
		l0.074-0.042l0.001,0.001l0.074-0.042l0.001,0.001l0.074-0.042l0.001,0.001l0.074-0.042l0.001,0.001l0.074-0.042l0.001,0.001
		l0.074-0.042l0.001,0.001l0.074-0.042l0.001,0.001l0.074-0.042l0.001,0.001l0.074-0.042l0.001,0.001l0.074-0.042l0.001,0.001
		l0.074-0.042l0.001,0.001l0.074-0.042l0.001,0.001l0.074-0.042l0.001,0.001l0.074-0.042l0.001,0.001l0.074-0.042l0.001,0.001
		l0.074-0.042l0.001,0.001l0.074-0.042l0.001,0.001l0.074-0.042l0.001,0.001l0.074-0.042l0.001,0.001l0.074-0.042l0.001,0.001
		l0.074-0.042l0.001,0.001l0.074-0.042l0.001,0.001l0.074-0.042l0.001,0.001l0.074-0.042l0.001,0.001l0.074-0.042l0.001,0.001
		l0.074-0.042l0.001,0.001l0.074-0.042l0.001,0.001l0.074-0.042l0.001,0.001l0.074-0.042l0.001,0.001l0.074-0.042l0.001,0.001
		l0.074-0.042l0.001,0.001l0.074-0.042l0.001,0.001l0.074-0.042l0.001,0.001l0.074-0.042l0.001,0.001l0.074-0.042l0.001,0.001
		l0.074-0.042l0.001,0.001l0.074-0.042l0.001,0.001l0.074-0.042l0.001,0.001l0.074-0.042l0.001,0.001l0.074-0.042l0.001,0.001
		l0.074-0.042l0.001,0.001l0.074-0.042l0.001,0.001l5.368-3.059l-2.882-4.993l1.046,0.604l0-0.085l0.075,0.043l0-0.085l0.075,0.043
		l0-0.085l0.075,0.043l0-0.085l0.075,0.043l0-0.085l0.075,0.043l0-0.085l0.075,0.043l0-0.085l0.075,0.043l0-0.085l0.075,0.043
		l0-0.085l0.075,0.043l0-0.085l0.075,0.043l0-0.085l0.075,0.043l0-0.085l0.075,0.043l0-0.085l0.075,0.043l0-0.085l0.075,0.043
		l0-0.085l0.075,0.043l0-0.085l0.075,0.043l0-0.085l0.075,0.043l0-0.085l0.075,0.043l0-0.085l0.075,0.043l0-0.085l0.075,0.043
		l0-0.085l0.075,0.043l0-0.085l0.075,0.043l0-0.085l0.075,0.043l0-0.085l0.075,0.043l0-0.085l0.075,0.043l0-0.085l0.075,0.043
		l0-0.085l0.075,0.043l0-0.085l0.075,0.043l0-0.085l0.075,0.043l0-0.085l0.075,0.043l0-0.085l0.075,0.043l0-0.085l0.075,0.043
		l0-0.085l0.075,0.043l0-0.085l0.075,0.043l0-0.085l0.075,0.043l0-0.085l0.075,0.043l0-0.085l0.075,0.043l0-0.085l0.075,0.043
		l0-0.085l0.075,0.043l0-0.085l0.075,0.043l0-0.085l0.075,0.043l0-0.085l0.075,0.043l0-0.085l0.075,0.043l0-0.085l0.075,0.043
		l0-0.085l0.075,0.043l0-0.085l0.075,0.043l0-0.085l0.075,0.043l0-0.085l0.075,0.043l0-0.085l0.075,0.043l0-0.085l0.075,0.043
		l0-0.085l0.075,0.043l0-0.085l0.075,0.043l0-0.085l0.075,0.043l0-0.085l0.075,0.043l0-0.085l0.075,0.043l0-0.085l0.075,0.043
		l0-0.085l0.075,0.043l0-0.085l0.075,0.043l0-0.085l0.075,0.043l0-0.085l0.075,0.043l0-0.085l0.075,0.043l0-0.085l0.075,0.043
		l0-0.085l0.075,0.043l0-0.085l0.075,0.043l0-0.085l0.075,0.043l0-0.085l0.075,0.043l0-0.085l0.075,0.043l0-0.085l0.075,0.043
		l0-0.085l0.075,0.043L64.154,51.977z M35.268,39.654c0.003-1.178,0.198-2.191,0.535-3.043c0.875,0.153,1.81,0.493,2.788,1.057
		c4.674,2.699,8.456,9.249,8.44,14.619c-0.003,1.175-0.197,2.186-0.533,3.036c-0.877-0.154-1.815-0.494-2.795-1.06
		C39.029,51.565,35.253,45.024,35.268,39.654z"/>
	<g>
		<path class="msp5" d="M38.535,57.122c-4.674-2.698-8.45-9.239-8.435-14.61c0.015-5.371,3.816-7.543,8.49-4.845
			c4.674,2.698,8.456,9.249,8.44,14.619C47.016,57.658,43.209,59.821,38.535,57.122 M42.412,26.135l-7.561-4.365l-0.014,5.023
			c-1.755-0.539-3.396-0.695-4.889-0.494l-3.08-5.341L21.5,24.016l3.086,5.345c-0.923,1.176-1.616,2.668-2.034,4.439l-4.377-2.527
			l-0.025,8.694l4.377,2.527c0.407,2.247,1.089,4.527,2.002,6.763l-3.106,1.77l5.333,9.237l3.106-1.77
			c1.482,1.912,3.124,3.651,4.871,5.135l-0.014,5.036l7.561,4.365l0.014-5.036c1.75,0.536,3.396,0.695,4.884,0.497l3.086,5.345
			l5.368-3.059l-3.086-5.345c0.923-1.176,1.616-2.662,2.034-4.433l4.382,2.53l0.025-8.694l-4.382-2.53
			c-0.401-2.244-1.089-4.533-2.002-6.77l3.106-1.77l-5.333-9.237l-3.106,1.77c-1.482-1.912-3.118-3.655-4.871-5.141L42.412,26.135"
			/>
	</g>
</g>
<g>
	<linearGradient id="MSPID_5_" gradientUnits="userSpaceOnUse" x1="56.6452" y1="61.7424" x2="67.088" y2="54.0147">
		<stop  offset="0.1257" style="stop-color:#B3242A"/>
		<stop  offset="0.6693" style="stop-color:#93171B"/>
		<stop  offset="0.9821" style="stop-color:#720714"/>
	</linearGradient>
	<path class="msp6" d="M83.768,56.097l0.115,0.016l-1.666-6.083l-2.579-0.371c-0.609-1.402-1.367-2.783-2.263-4.092l1.142-2.225
		l-4.329-4.755l-0.051,0.099l-0.046-0.051l-0.051,0.099l-0.046-0.051l-0.051,0.099l-0.046-0.051l-0.051,0.099l-0.046-0.051
		L73.75,38.88l-0.046-0.051l-0.051,0.099l-0.046-0.051l-0.051,0.099l-0.046-0.051l-0.051,0.099l-0.046-0.051l-0.051,0.099
		l-0.046-0.051l-0.051,0.099l-0.046-0.051l-0.051,0.099l-0.046-0.051l-0.051,0.099l-0.046-0.051l-0.051,0.099l-0.046-0.051
		l-0.051,0.099l-0.046-0.051l-0.051,0.099l-0.046-0.051l-0.051,0.099l-0.046-0.051l-0.051,0.099l-0.046-0.051L72.49,39.51
		l-0.046-0.051l-0.051,0.099l-0.046-0.051l-0.051,0.099l-0.046-0.051l-0.051,0.099l-0.046-0.051l-0.051,0.099l-0.046-0.051
		l-0.163,0.318c-0.272-0.182-0.544-0.359-0.815-0.516c-0.452-0.261-0.902-0.487-1.347-0.677l-0.963-3.516l-4.455-0.638l0.018,0.065
		l-0.115-0.016l0.018,0.065l-0.115-0.016l0.018,0.065l-0.115-0.016l0.018,0.065l-0.115-0.016l0.018,0.065l-0.115-0.016l0.018,0.065
		l-0.115-0.016l0.018,0.065l-0.115-0.016l0.018,0.065l-0.115-0.016l0.018,0.065l-0.115-0.016l0.018,0.065l-0.115-0.016l0.018,0.065
		l-0.115-0.016l0.018,0.065l-0.115-0.016l0.018,0.065l-0.115-0.016l0.018,0.065l-0.115-0.016l0.018,0.065l-0.115-0.016l0.018,0.065
		L62.762,35.4l0.018,0.065l-0.115-0.016l0.018,0.065l-0.115-0.016l0.018,0.065l-0.115-0.016l0.018,0.065l-0.115-0.016l0.018,0.065
		l-0.115-0.016l0.018,0.065l-0.115-0.016l0.912,3.331c-0.012,0.006-0.023,0.014-0.035,0.021c-0.032,0.016-0.065,0.032-0.097,0.048
		c-0.033,0.016-0.065,0.032-0.097,0.048c-0.033,0.016-0.065,0.032-0.097,0.048c-0.016,0.008-0.034,0.013-0.05,0.021l-2.371-2.601
		l-0.051,0.099l-0.046-0.051l-0.051,0.099l-0.046-0.051l-0.051,0.099l-0.046-0.051l-0.051,0.099l-0.046-0.051L59.907,36.9
		l-0.046-0.051l-0.051,0.099l-0.046-0.051l-0.051,0.099l-0.046-0.051l-0.051,0.099l-0.046-0.051l-0.051,0.099l-0.046-0.051
		l-0.051,0.099l-0.046-0.051l-0.051,0.099L59.28,37.14l-0.051,0.099l-0.046-0.051l-0.051,0.099l-0.046-0.051l-0.051,0.099
		l-0.046-0.051l-0.051,0.099l-0.046-0.051l-0.051,0.099l-0.046-0.051l-0.051,0.099l-0.046-0.051l-0.051,0.099l-0.046-0.051
		l-0.051,0.099l-0.046-0.051l-0.051,0.099l-0.046-0.051l-0.051,0.099l-0.046-0.051l-0.051,0.099l-0.046-0.051l-1.974,3.85
		l2.506,2.748c-0.143,0.744-0.2,1.541-0.19,2.37l-0.371-0.053l0.018,0.065l-0.115-0.016l0.018,0.065l-0.115-0.016l0.018,0.065
		l-0.115-0.016l0.018,0.065l-0.115-0.016l0.018,0.065L57.7,46.831l0.018,0.065l-0.115-0.016l0.018,0.065l-0.115-0.016l0.018,0.065
		l-0.115-0.016l0.018,0.065l-0.115-0.016l0.018,0.065l-0.115-0.016l0.018,0.065l-0.115-0.016l0.018,0.065l-0.115-0.016l0.018,0.065
		l-0.115-0.016l0.018,0.065l-0.115-0.016l0.018,0.065l-0.115-0.016l0.018,0.065l-0.115-0.016l0.018,0.065l-0.115-0.016l0.018,0.065
		l-0.115-0.016l0.018,0.065l-0.115-0.016l0.018,0.065l-0.115-0.016l0.018,0.065l-0.115-0.016l0.018,0.065l-0.115-0.016l1.666,6.083
		l2.579,0.371c0.609,1.398,1.37,2.781,2.263,4.088l-1.142,2.229l4.329,4.755l0.051-0.099l0.046,0.051l0.051-0.099l0.046,0.051
		l0.051-0.099l0.046,0.051l0.051-0.099l0.046,0.051l0.051-0.099l0.046,0.051l0.051-0.099l0.046,0.051l0.051-0.099l0.046,0.051
		l0.051-0.099l0.046,0.051l0.051-0.099l0.046,0.051l0.051-0.099l0.046,0.051l0.051-0.099l0.046,0.051l0.051-0.099l0.046,0.051
		l0.051-0.099l0.046,0.051l0.051-0.099l0.046,0.051l0.051-0.099l0.046,0.051l0.051-0.099l0.046,0.051l0.051-0.099l0.046,0.051
		l0.051-0.099l0.046,0.051l0.051-0.099l0.046,0.051l0.051-0.099l0.046,0.051l0.051-0.099l0.046,0.051l0.051-0.099l0.046,0.051
		l0.165-0.323c0.276,0.185,0.553,0.365,0.828,0.524c0.446,0.258,0.89,0.48,1.328,0.668l0.966,3.522l4.455,0.638l-0.018-0.065
		l0.115,0.016l-0.018-0.065l0.115,0.016l-0.018-0.065l0.115,0.016l-0.018-0.065l0.115,0.016l-0.018-0.065l0.115,0.016l-0.018-0.065
		l0.115,0.016l-0.018-0.065l0.115,0.016l-0.018-0.065l0.115,0.016l-0.018-0.065l0.115,0.016l-0.018-0.065l0.115,0.016l-0.018-0.065
		l0.115,0.016l-0.018-0.065l0.115,0.016l-0.018-0.065l0.115,0.016l-0.018-0.065l0.115,0.016L76.961,68.4l0.115,0.016l-0.018-0.065
		l0.115,0.016l-0.018-0.065l0.115,0.016l-0.018-0.065l0.115,0.016l-0.018-0.065l0.115,0.016l-0.018-0.065l0.115,0.016l-0.018-0.065
		l0.115,0.016l-0.018-0.065l0.115,0.016l-0.913-3.337c0.011-0.006,0.021-0.013,0.032-0.019c0.032-0.016,0.064-0.032,0.096-0.048
		c0.033-0.016,0.065-0.032,0.097-0.049c0.033-0.016,0.065-0.032,0.097-0.048c0.017-0.008,0.035-0.014,0.052-0.022l2.373,2.606
		l0.051-0.099l0.046,0.051l0.051-0.099l0.046,0.051l0.051-0.099l0.046,0.051l0.051-0.099l0.046,0.051l0.051-0.099l0.046,0.051
		l0.051-0.099l0.046,0.051l0.051-0.099l0.046,0.051l0.051-0.099l0.046,0.051l0.051-0.099l0.046,0.051l0.051-0.099l0.046,0.051
		l0.051-0.099l0.046,0.051l0.051-0.099l0.046,0.051l0.051-0.099l0.046,0.051l0.051-0.099l0.046,0.051l0.051-0.099l0.046,0.051
		l0.051-0.099l0.046,0.051l0.051-0.099l0.046,0.051l0.051-0.099l0.046,0.051l0.051-0.099l0.046,0.051l0.051-0.099l0.046,0.051
		l0.051-0.099l0.046,0.051l0.051-0.099l0.046,0.051l1.971-3.852l-2.503-2.75c0.143-0.741,0.2-1.537,0.19-2.366l0.371,0.053
		l-0.018-0.065l0.115,0.016l-0.018-0.065l0.115,0.016l-0.018-0.065l0.115,0.016l-0.018-0.065l0.115,0.016l-0.018-0.065l0.115,0.016
		l-0.018-0.065l0.115,0.016l-0.018-0.065l0.115,0.016l-0.018-0.065l0.115,0.016l-0.018-0.065l0.115,0.016l-0.018-0.065l0.115,0.016
		l-0.018-0.065l0.115,0.016l-0.018-0.065l0.115,0.016l-0.018-0.065l0.115,0.016l-0.018-0.065l0.115,0.016l-0.018-0.065l0.115,0.016
		l-0.018-0.065l0.115,0.016l-0.018-0.065l0.115,0.016l-0.018-0.065l0.115,0.016l-0.018-0.065l0.115,0.016l-0.018-0.065l0.115,0.016
		l-0.018-0.065l0.115,0.016L83.768,56.097z M71.015,57.462c-0.734-0.424-1.479-1.029-2.19-1.81
		c-2.672-2.931-3.851-7.241-2.636-9.619c0.085-0.167,0.188-0.306,0.292-0.445c0.752-0.011,1.587,0.219,2.442,0.713
		c0.732,0.423,1.475,1.027,2.185,1.806c2.675,2.937,3.854,7.247,2.636,9.627c-0.085,0.165-0.187,0.304-0.29,0.442
		C72.702,58.186,71.869,57.955,71.015,57.462z"/>
	<linearGradient id="MSPID_6_" gradientUnits="userSpaceOnUse" x1="59.5483" y1="45.054" x2="79.1808" y2="60.5094">
		<stop  offset="0.6436" style="stop-color:#E0363F"/>
		<stop  offset="1" style="stop-color:#93171B"/>
	</linearGradient>
	<path class="msp7" d="M68.882,58.528c-0.734-0.424-1.479-1.029-2.19-1.81c-2.672-2.931-3.851-7.241-2.636-9.619
		c0.895-1.749,2.838-1.97,4.866-0.799c0.732,0.423,1.475,1.027,2.185,1.806c2.675,2.937,3.854,7.247,2.636,9.627
		C72.848,59.48,70.909,59.698,68.882,58.528 M66.635,36.329l-4.455-0.638l0.963,3.516c-0.915,0.18-1.737,0.581-2.427,1.213
		l-2.503-2.746l-1.974,3.85l2.506,2.748c-0.221,1.149-0.256,2.419-0.115,3.75l-2.579-0.367l1.666,6.083l2.579,0.371
		c0.609,1.398,1.37,2.781,2.263,4.088l-1.142,2.229l4.329,4.755l1.142-2.233c0.659,0.53,1.324,0.987,1.984,1.368
		c0.446,0.258,0.89,0.48,1.328,0.667l0.967,3.522l4.455,0.638l-0.963-3.52c0.911-0.178,1.733-0.583,2.424-1.215l2.506,2.752
		l1.971-3.852l-2.503-2.75c0.221-1.145,0.256-2.415,0.115-3.75l2.579,0.371l-1.666-6.083l-2.579-0.371
		c-0.609-1.402-1.367-2.783-2.263-4.092l1.142-2.225l-4.329-4.755l-1.139,2.227c-0.656-0.527-1.317-0.98-1.972-1.359
		c-0.452-0.261-0.902-0.487-1.346-0.677L66.635,36.329"/>
</g>
</svg>
