<?xml version="1.0" encoding="utf-8"?>
<!-- Generator: Adobe Illustrator 25.0.1, SVG Export Plug-In . SVG Version: 6.00 Build 0)  -->
<svg version="1.1" id="meetngRoom" xmlns="http://www.w3.org/2000/svg" xmlns:xlink="http://www.w3.org/1999/xlink" x="0px" y="0px"
	 viewBox="0 0 89 89" style="enable-background:new 0 0 89 89;" xml:space="preserve">
<style type="text/css">
	.mrs0{fill:url(#MRSID_1_);}
	.mrs1{fill:#F1F1F2;}
	.mrs2{fill:url(#MRSID_2_);}
	.mrs3{fill:url(#MRSID_3_);}
	.mrs4{fill:#F5F6F6;}
	.mrs5{opacity:0.1;fill:#F5F6F6;}
	.mrs6{opacity:0.6;fill:#F5F6F6;}
	.mrs7{opacity:0.4;fill:#F5F6F6;}
	.mrs8{opacity:0.2;fill:#F5F6F6;}
	.mrs9{opacity:0.2;fill:url(#MRSID_4_);}
	.mrs10{fill:url(#MRSID_5_);}
	.mrs11{opacity:0.8;fill:url(#MRSID_6_);}
	.mrs12{opacity:0.6;fill:url(#MRSID_7_);}
	.mrs13{fill:url(#MRSID_8_);}
	.mrs14{fill:url(#MRSID_9_);}
	.mrs15{fill:url(#MRSID_10_);}
	.mrs16{fill:#FFFFFF;}
	.mrs17{fill:none;}
	.mrs18{fill:url(#MRSID_11_);}
	.mrs19{fill:url(#MRSID_12_);}
	.mrs20{fill:#F1F2F6;}
	.mrs21{fill:url(#MRSID_13_);}
	.mrs22{fill:url(#MRSID_14_);}
	.mrs23{fill:url(#MRSID_15_);}
	.mrs24{fill:url(#MRSID_16_);}
	.mrs25{fill:url(#MRSID_17_);}
	.mrs26{fill:url(#MRSID_18_);}
	.mrs27{fill:url(#MRSID_19_);}
	.mrs28{fill:url(#MRSID_20_);}
	.mrs29{fill:url(#MRSID_21_);}
	.mrs30{fill:url(#MRSID_22_);}
	.mrs31{fill:url(#MRSID_23_);}
</style>
<g id="PresenationBoard02">
	<g>
		<g>
			
				<linearGradient id="MRSID_1_" gradientUnits="userSpaceOnUse" x1="63.7233" y1="48.4315" x2="63.7233" y2="18.8396" gradientTransform="matrix(-1 0 0 1 129.4224 0)">
				<stop  offset="0.3039" style="stop-color:#E0363F"/>
				<stop  offset="1" style="stop-color:#93171B"/>
			</linearGradient>
			<path class="mrs0" d="M47.28,4.151l36.929,21.321c0.785,0.453,1.421,1.555,1.419,2.457l-0.082,28.896
				c-0.003,0.902-0.643,1.267-1.428,0.814L47.189,36.318c-0.785-0.453-1.421-1.555-1.419-2.457l0.082-28.896
				C45.855,4.063,46.495,3.698,47.28,4.151"/>
			<polygon class="mrs1" points="48.591,8.677 48.326,8.524 48.258,32.527 48.391,32.604 48.523,32.68 48.55,23.345 48.591,8.677 			
				"/>
			<polygon class="mrs1" points="55.283,12.54 55.027,12.393 54.984,27.8 54.959,36.396 55.215,36.544 55.24,27.587 55.283,12.54 			
				"/>
			<polygon class="mrs1" points="61.984,16.409 61.719,16.256 61.686,27.962 61.651,40.26 61.916,40.413 61.951,28.143 
				61.984,16.409 			"/>
			<polygon class="mrs1" points="68.686,20.278 68.421,20.125 68.384,33.082 68.353,44.129 68.618,44.282 68.649,33.226 
				68.686,20.278 			"/>
			<polygon class="mrs1" points="75.378,24.142 75.113,23.989 75.087,33.077 75.044,47.992 75.31,48.145 75.353,32.745 
				75.378,24.142 			"/>
			<polygon class="mrs1" points="82.079,28.011 81.814,27.858 81.81,29.384 81.746,51.861 81.878,51.938 82.011,52.014 
				82.079,28.011 			"/>
		</g>
	</g>
	<linearGradient id="MRSID_2_" gradientUnits="userSpaceOnUse" x1="48.3906" y1="36.4155" x2="81.8783" y2="36.4155">
		<stop  offset="0" style="stop-color:#FFFFFF"/>
		<stop  offset="1" style="stop-color:#C2C7D7;stop-opacity:0"/>
	</linearGradient>
	<path class="mrs2" d="M81.81,28.158c-0.724,0.031-4.253,0.338-6.456,3.361L75.31,46.919l-0.265-0.153l0.042-14.915
		C73.547,33.6,71.225,33.365,68.649,32l-0.031,11.056l-0.265-0.153l0.031-11.047c-0.073-0.041-0.147-0.082-0.221-0.125
		c-1.523-0.879-3.121-2.127-4.689-3.573c-0.53-0.49-1.039-0.9-1.523-1.241l-0.035,12.27l-0.265-0.153l0.035-12.298
		c-0.187-0.124-0.371-0.238-0.551-0.342c-2.989-1.726-4.975-0.751-5.895-0.032l-0.025,8.957l-0.256-0.148l0.024-8.596
		c-0.722,0.588-1.924,1.039-3.067,0.379c-0.486-0.281-0.961-0.762-1.385-1.518c-1.081-1.93-1.724-2.93-1.982-3.315l-0.026,9.335
		l-0.133-0.077l33.488,19.334l-0.133-0.077L81.81,28.158L81.81,28.158z"/>
</g>
<g id="PresenationBoard01">
	<g>
		<g>
			<linearGradient id="MRSID_3_" gradientUnits="userSpaceOnUse" x1="23.6839" y1="48.4315" x2="23.6839" y2="18.8396">
				<stop  offset="0.3039" style="stop-color:#E0363F"/>
				<stop  offset="1" style="stop-color:#93171B"/>
			</linearGradient>
			<path class="mrs3" d="M42.103,4.151L5.174,25.472c-0.785,0.453-1.421,1.555-1.419,2.457l0.082,28.896
				c0.003,0.902,0.643,1.267,1.428,0.814l36.929-21.321c0.785-0.453,1.421-1.555,1.419-2.457L43.531,4.964
				C43.528,4.063,42.888,3.698,42.103,4.151"/>
		</g>
		<g>
			<polyline class="mrs4" points="10.578,38.944 6.998,41.011 7.031,52.61 10.611,50.543 10.578,38.944 			"/>
			<polyline class="mrs5" points="30.31,32.027 26.723,34.099 26.743,41.23 30.33,39.159 30.31,32.027 			"/>
			<polyline class="mrs6" points="15.512,24.47 11.925,26.541 11.99,49.747 15.578,47.676 15.512,24.47 			"/>
			<polyline class="mrs7" points="20.49,28.257 16.91,30.324 16.957,46.88 20.537,44.813 20.49,28.257 			"/>
			<polyline class="mrs8" points="25.447,22.195 21.86,24.266 21.916,44.017 25.503,41.946 25.447,22.195 			"/>
		</g>
		<g>
			<linearGradient id="MRSID_4_" gradientUnits="userSpaceOnUse" x1="41.8522" y1="14.646" x2="28.5533" y2="36.159">
				<stop  offset="0" style="stop-color:#FFFFFF"/>
				<stop  offset="1" style="stop-color:#C2C7D7"/>
			</linearGradient>
			<path class="mrs9" d="M34.697,21.59l-0.007,0.004l-1.882,7.605c0.63-0.121,1.269-0.375,1.898-0.738
				c1.452-0.839,2.846-2.259,3.923-3.965c0.775-1.224,1.381-2.588,1.73-3.988c0.058-0.245,0.116-0.498,0.152-0.73L34.697,21.59"/>
			<linearGradient id="MRSID_5_" gradientUnits="userSpaceOnUse" x1="39.2533" y1="13.0394" x2="25.9544" y2="34.5524">
				<stop  offset="0" style="stop-color:#FFFFFF"/>
				<stop  offset="1" style="stop-color:#C2C7D7"/>
			</linearGradient>
			<path class="mrs10" d="M34.75,14.256c-1.446,0.835-2.831,2.248-3.905,3.944l3.932,2.914l0.007-0.004l5.822-1.816
				c0.106-0.594,0.155-1.158,0.15-1.684c-0.025-2.839-1.607-4.576-4.098-4.092C36.024,13.637,35.382,13.892,34.75,14.256"/>
			<linearGradient id="MRSID_6_" gradientUnits="userSpaceOnUse" x1="37.2836" y1="11.8218" x2="23.9847" y2="33.3347">
				<stop  offset="0" style="stop-color:#FFFFFF"/>
				<stop  offset="1" style="stop-color:#C2C7D7"/>
			</linearGradient>
			<path class="mrs11" d="M30.338,18.416c-0.775,1.224-1.381,2.588-1.73,3.996c-0.065,0.249-0.123,0.502-0.16,0.742l5.822-1.816
				l0.007-0.013L30.338,18.416"/>
			<linearGradient id="MRSID_7_" gradientUnits="userSpaceOnUse" x1="38.8936" y1="12.8171" x2="25.5947" y2="34.33">
				<stop  offset="0" style="stop-color:#FFFFFF"/>
				<stop  offset="1" style="stop-color:#C2C7D7"/>
			</linearGradient>
			<path class="mrs12" d="M28.53,23.504c-0.105,0.594-0.153,1.157-0.147,1.682c0.029,2.837,1.609,4.574,4.088,4.098l1.882-7.596
				L28.53,23.504"/>
		</g>
	</g>
</g>
<g id="meetingTable">
	<linearGradient id="MRSID_8_" gradientUnits="userSpaceOnUse" x1="51.9532" y1="63.0505" x2="13.0314" y2="65.0089">
		<stop  offset="0" style="stop-color:#E0363F"/>
		<stop  offset="0.2358" style="stop-color:#93171B"/>
		<stop  offset="0.6307" style="stop-color:#93171B"/>
		<stop  offset="1" style="stop-color:#720714"/>
	</linearGradient>
	<path class="mrs13" d="M82.593,62.729c0.037-0.481-0.251-0.969-0.886-1.336L45.639,40.569c-1.194-0.69-3.131-0.69-4.317,0
		L5.488,61.393c-0.628,0.365-0.912,0.851-0.872,1.33c-0.004,0.055-0.005,0.11,0,0.165c-0.004,0.055-0.005,0.11,0,0.165
		c-0.004,0.055-0.005,0.11,0,0.165c-0.004,0.055-0.005,0.11,0,0.165c-0.004,0.055-0.005,0.11,0,0.165
		c-0.004,0.055-0.005,0.11,0,0.165c-0.004,0.055-0.005,0.11,0,0.165c-0.004,0.055-0.005,0.11,0,0.165
		c-0.004,0.055-0.005,0.11,0,0.165c-0.037,0.481,0.251,0.969,0.886,1.336L41.57,86.372c1.194,0.69,3.131,0.69,4.317,0l35.833-20.824
		c0.628-0.365,0.912-0.851,0.872-1.33c0.004-0.055,0.005-0.11,0-0.165c0.004-0.055,0.005-0.11,0-0.165
		c0.004-0.055,0.005-0.11,0-0.165c0.004-0.055,0.005-0.11,0-0.165c0.004-0.055,0.005-0.11,0-0.165c0.004-0.055,0.005-0.11,0-0.165
		c0.004-0.055,0.005-0.11,0-0.165c0.004-0.055,0.005-0.11,0-0.165C82.597,62.839,82.597,62.784,82.593,62.729z"/>
	<linearGradient id="MRSID_9_" gradientUnits="userSpaceOnUse" x1="12.6864" y1="77.4584" x2="63.1994" y2="53.2543">
		<stop  offset="0.3039" style="stop-color:#E0363F"/>
		<stop  offset="1" style="stop-color:#93171B"/>
	</linearGradient>
	<path class="mrs14" d="M81.706,61.393L45.639,40.569c-1.194-0.69-3.13-0.69-4.317,0L5.489,61.393
		c-1.187,0.69-1.18,1.811,0.014,2.501L41.57,84.718c1.194,0.69,3.13,0.69,4.317,0L81.72,63.894
		C82.907,63.204,82.901,62.083,81.706,61.393"/>
</g>
<g id="tableData">
	<g>
		<polygon class="mrs1" points="54.011,44.643 54.011,60.802 47.903,64.341 47.886,64.341 47.886,48.182 47.903,48.182 		"/>
		<linearGradient id="MRSID_10_" gradientUnits="userSpaceOnUse" x1="44.8243" y1="65.4987" x2="44.8243" y2="54.3591">
			<stop  offset="0" style="stop-color:#FFFFFF"/>
			<stop  offset="1" style="stop-color:#C2C7D7"/>
		</linearGradient>
		<polygon class="mrs15" points="47.886,48.182 47.886,64.325 41.762,60.802 41.762,44.643 		"/>
		<polygon class="mrs1" points="54.011,44.643 47.903,48.182 47.886,48.182 41.762,44.643 47.87,41.088 		"/>
		<polygon class="mrs16" points="54.011,44.643 47.903,48.182 47.886,48.182 41.762,44.643 47.87,41.088 		"/>
		<line class="mrs17" x1="54.011" y1="61.077" x2="54.011" y2="60.802"/>
	</g>
	<g>
		<polygon class="mrs1" points="45.736,59.029 45.736,66.123 39.628,69.662 39.612,69.662 39.612,62.568 39.628,62.568 		"/>
		<linearGradient id="MRSID_11_" gradientUnits="userSpaceOnUse" x1="35.9262" y1="72.8622" x2="36.4524" y2="65.6704">
			<stop  offset="0" style="stop-color:#FFFFFF"/>
			<stop  offset="1" style="stop-color:#C2C7D7"/>
		</linearGradient>
		<polygon class="mrs18" points="39.612,62.568 39.612,69.646 33.488,66.123 33.488,59.029 		"/>
		<polygon class="mrs16" points="45.736,59.029 39.628,62.568 39.612,62.568 33.488,59.029 39.596,55.474 39.612,55.49 		"/>
		<line class="mrs17" x1="45.742" y1="66.393" x2="45.742" y2="66.118"/>
	</g>
</g>
<g>
	<g id="People01">
		<g>
			<linearGradient id="MRSID_12_" gradientUnits="userSpaceOnUse" x1="25.5052" y1="56.0749" x2="29.0982" y2="56.0749">
				<stop  offset="0" style="stop-color:#FFFFFF"/>
				<stop  offset="1" style="stop-color:#C2C7D7"/>
			</linearGradient>
			<polygon class="mrs19" points="29.098,54.825 29.098,59.32 25.505,52.83 			"/>
			<polyline class="mrs20" points="29.116,59.32 32.709,52.83 29.116,54.825 			"/>
			<linearGradient id="MRSID_13_" gradientUnits="userSpaceOnUse" x1="38.167" y1="53.4162" x2="30.5123" y2="52.9224">
				<stop  offset="0" style="stop-color:#C2C7D7;stop-opacity:0.7"/>
				<stop  offset="1" style="stop-color:#FFFFFF"/>
			</linearGradient>
			<polyline class="mrs21" points="32.75,52.831 29.086,50.716 25.445,52.831 29.109,54.947 32.75,52.831 			"/>
		</g>
		<linearGradient id="MRSID_14_" gradientUnits="userSpaceOnUse" x1="27.9218" y1="48.0914" x2="30.2923" y2="53.0299">
			<stop  offset="0.2146" style="stop-color:#FFFFFF"/>
			<stop  offset="1" style="stop-color:#C2C7D7"/>
		</linearGradient>
		<circle class="mrs22" cx="28.956" cy="50.246" r="2.917"/>
	</g>
	<g id="People02_1_">
		<g>
			<linearGradient id="MRSID_15_" gradientUnits="userSpaceOnUse" x1="25.4768" y1="70.6905" x2="29.0982" y2="70.6905">
				<stop  offset="0" style="stop-color:#FFFFFF"/>
				<stop  offset="1" style="stop-color:#C2C7D7"/>
			</linearGradient>
			<polygon class="mrs23" points="29.098,69.431 29.098,73.961 25.477,67.42 			"/>
			<polyline class="mrs20" points="29.117,73.961 32.738,67.42 29.117,69.431 			"/>
			<linearGradient id="MRSID_16_" gradientUnits="userSpaceOnUse" x1="38.2388" y1="68.0107" x2="30.5235" y2="67.5129">
				<stop  offset="0" style="stop-color:#C2C7D7;stop-opacity:0.7"/>
				<stop  offset="1" style="stop-color:#FFFFFF"/>
			</linearGradient>
			<polyline class="mrs24" points="32.779,67.421 29.085,65.289 25.416,67.421 29.109,69.553 32.779,67.421 			"/>
		</g>
		<linearGradient id="MRSID_17_" gradientUnits="userSpaceOnUse" x1="27.9125" y1="62.6438" x2="30.3017" y2="67.6214">
			<stop  offset="0.2146" style="stop-color:#FFFFFF"/>
			<stop  offset="1" style="stop-color:#C2C7D7"/>
		</linearGradient>
		<circle class="mrs25" cx="28.955" cy="64.816" r="2.94"/>
	</g>
	<g id="People01_1_">
		<g>
			<linearGradient id="MRSID_18_" gradientUnits="userSpaceOnUse" x1="55.791" y1="56.0749" x2="59.384" y2="56.0749">
				<stop  offset="0" style="stop-color:#FFFFFF"/>
				<stop  offset="1" style="stop-color:#C2C7D7"/>
			</linearGradient>
			<polygon class="mrs26" points="59.384,54.825 59.384,59.32 55.791,52.83 			"/>
			<polyline class="mrs20" points="59.402,59.32 62.995,52.83 59.402,54.825 			"/>
			<linearGradient id="MRSID_19_" gradientUnits="userSpaceOnUse" x1="68.4528" y1="53.4162" x2="60.7981" y2="52.9224">
				<stop  offset="0" style="stop-color:#C2C7D7;stop-opacity:0.7"/>
				<stop  offset="1" style="stop-color:#FFFFFF"/>
			</linearGradient>
			<polyline class="mrs27" points="63.035,52.831 59.371,50.716 55.731,52.831 59.395,54.947 63.035,52.831 			"/>
		</g>
		<linearGradient id="MRSID_20_" gradientUnits="userSpaceOnUse" x1="58.2076" y1="48.0914" x2="60.5781" y2="53.0299">
			<stop  offset="0.2146" style="stop-color:#FFFFFF"/>
			<stop  offset="1" style="stop-color:#C2C7D7"/>
		</linearGradient>
		<circle class="mrs28" cx="59.242" cy="50.246" r="2.917"/>
	</g>
	<g id="People02_2_">
		<g>
			<linearGradient id="MRSID_21_" gradientUnits="userSpaceOnUse" x1="55.7626" y1="70.6905" x2="59.384" y2="70.6905">
				<stop  offset="0" style="stop-color:#FFFFFF"/>
				<stop  offset="1" style="stop-color:#C2C7D7"/>
			</linearGradient>
			<polygon class="mrs29" points="59.384,69.431 59.384,73.961 55.763,67.42 			"/>
			<polyline class="mrs20" points="59.402,73.961 63.024,67.42 59.402,69.431 			"/>
			<linearGradient id="MRSID_22_" gradientUnits="userSpaceOnUse" x1="68.5246" y1="68.0107" x2="60.8093" y2="67.5129">
				<stop  offset="0" style="stop-color:#C2C7D7;stop-opacity:0.7"/>
				<stop  offset="1" style="stop-color:#FFFFFF"/>
			</linearGradient>
			<polyline class="mrs30" points="63.064,67.421 59.371,65.289 55.702,67.421 59.395,69.553 63.064,67.421 			"/>
		</g>
		<linearGradient id="MRSID_23_" gradientUnits="userSpaceOnUse" x1="58.1983" y1="62.6438" x2="60.5875" y2="67.6214">
			<stop  offset="0.2146" style="stop-color:#FFFFFF"/>
			<stop  offset="1" style="stop-color:#C2C7D7"/>
		</linearGradient>
		<circle class="mrs31" cx="59.241" cy="64.816" r="2.94"/>
	</g>
</g>
</svg>
