<?xml version="1.0" encoding="utf-8"?>
<!-- Generator: Adobe Illustrator 25.0.1, SVG Export Plug-In . SVG Version: 6.00 Build 0)  -->
<svg version="1.1" id="meetngRoom" xmlns="http://www.w3.org/2000/svg" xmlns:xlink="http://www.w3.org/1999/xlink" x="0px" y="0px"
	 viewBox="0 0 89 89" style="enable-background:new 0 0 89 89;" xml:space="preserve">
<style type="text/css">
	.mrs0{fill:url(#MRSSVG_1_);}
	.mrs1{fill:#F1F1F2;}
	.mrs2{fill:url(#MRSSVG_2_);}
	.mrs3{fill:url(#MRSSVG_3_);}
	.mrs4{fill:#F1F2F6;}
	.mrs5{fill:url(#MRSSVG_4_);}
	.mrs6{fill:url(#MRSSVG_5_);}
	.mrs7{fill:url(#MRSSVG_6_);}
	.mrs8{fill:#F5F6F6;}
	.mrs9{opacity:0.1;fill:#F5F6F6;}
	.mrs10{opacity:0.6;fill:#F5F6F6;}
	.mrs11{opacity:0.4;fill:#F5F6F6;}
	.mrs12{opacity:0.2;fill:#F5F6F6;}
	.mrs13{opacity:0.2;fill:url(#MRSSVG_7_);}
	.mrs14{fill:url(#MRSSVG_8_);}
	.mrs15{opacity:0.8;fill:url(#MRSSVG_9_);}
	.mrs16{opacity:0.6;fill:url(#MRSSVG_10_);}
	.mrs17{fill:url(#MRSSVG_11_);}
	.mrs18{fill:url(#MRSSVG_12_);}
	.mrs19{fill:url(#MRSSVG_13_);}
	.mrs20{fill:url(#MRSSVG_14_);}
	.mrs21{fill:url(#MRSSVG_15_);}
	.mrs22{fill:url(#MRSSVG_16_);}
	.mrs23{fill:#FFFFFF;}
	.mrs24{fill:none;}
	.mrs25{fill:url(#MRSSVG_17_);}
	.mrs26{fill:url(#MRSSVG_18_);}
	.mrs27{fill:url(#MRSSVG_19_);}
	.mrs28{fill:url(#MRSSVG_20_);}
	.mrs29{fill:url(#MRSSVG_21_);}
	.mrs30{fill:url(#MRSSVG_22_);}
	.mrs31{fill:url(#MRSSVG_23_);}
</style>
<g id="PresenationBoard02">
	<g>
		<g>
			
				<linearGradient id="MRSSVG_1_" gradientUnits="userSpaceOnUse" x1="63.7233" y1="48.4315" x2="63.7233" y2="18.8396" gradientTransform="matrix(-1 0 0 1 129.4224 0)">
				<stop  offset="0.3039" style="stop-color:#E0363F"/>
				<stop  offset="1" style="stop-color:#93171B"/>
			</linearGradient>
			<path class="mrs0" d="M47.3,4.2l36.9,21.3c0.8,0.5,1.4,1.6,1.4,2.5l-0.1,28.9c0,0.9-0.6,1.3-1.4,0.8L47.2,36.3
				c-0.8-0.5-1.4-1.6-1.4-2.5L45.9,5C45.9,4.1,46.5,3.7,47.3,4.2"/>
			<polygon class="mrs1" points="48.6,8.7 48.3,8.5 48.3,32.5 48.4,32.6 48.5,32.7 48.5,23.3 48.6,8.7 			"/>
			<polygon class="mrs1" points="55.3,12.5 55,12.4 55,27.8 55,36.4 55.2,36.5 55.2,27.6 55.3,12.5 			"/>
			<polygon class="mrs1" points="62,16.4 61.7,16.3 61.7,28 61.7,40.3 61.9,40.4 62,28.1 62,16.4 			"/>
			<polygon class="mrs1" points="68.7,20.3 68.4,20.1 68.4,33.1 68.4,44.1 68.6,44.3 68.6,33.2 68.7,20.3 			"/>
			<polygon class="mrs1" points="75.4,24.1 75.1,24 75.1,33.1 75,48 75.3,48.1 75.4,32.7 75.4,24.1 			"/>
			<polygon class="mrs1" points="82.1,28 81.8,27.9 81.8,29.4 81.7,51.9 81.9,51.9 82,52 82.1,28 			"/>
		</g>
	</g>
	<linearGradient id="MRSSVG_2_" gradientUnits="userSpaceOnUse" x1="48.3906" y1="36.4155" x2="81.8783" y2="36.4155">
		<stop  offset="0" style="stop-color:#FFFFFF"/>
		<stop  offset="1" style="stop-color:#C2C7D7;stop-opacity:0"/>
	</linearGradient>
	<path class="mrs2" d="M81.8,28.2c-0.7,0-4.3,0.3-6.5,3.4l0,15.4L75,46.8l0-14.9c-1.5,1.7-3.9,1.5-6.4,0.1l0,11.1l-0.3-0.2l0-11
		c-0.1,0-0.1-0.1-0.2-0.1c-1.5-0.9-3.1-2.1-4.7-3.6c-0.5-0.5-1-0.9-1.5-1.2l0,12.3L61.7,39l0-12.3c-0.2-0.1-0.4-0.2-0.6-0.3
		c-3-1.7-5-0.8-5.9,0l0,9L55,35.2l0-8.6c-0.7,0.6-1.9,1-3.1,0.4c-0.5-0.3-1-0.8-1.4-1.5c-1.1-1.9-1.7-2.9-2-3.3l0,9.3l-0.1-0.1
		l33.5,19.3l-0.1-0.1L81.8,28.2L81.8,28.2z"/>
</g>
<g id="People04">
	<g>
		<linearGradient id="MRSSVG_3_" gradientUnits="userSpaceOnUse" x1="56.1464" y1="52.6813" x2="64.073" y2="52.6813">
			<stop  offset="0" style="stop-color:#FFFFFF"/>
			<stop  offset="1" style="stop-color:#C2C7D7"/>
		</linearGradient>
		<polygon class="mrs3" points="64.1,49.9 64.1,59.8 56.1,45.5 		"/>
		<polyline class="mrs4" points="64.1,59.8 72,45.5 64.1,49.9 		"/>
		<linearGradient id="MRSSVG_4_" gradientUnits="userSpaceOnUse" x1="84.0799" y1="46.8158" x2="67.1926" y2="45.7263">
			<stop  offset="0" style="stop-color:#C2C7D7;stop-opacity:0.7"/>
			<stop  offset="1" style="stop-color:#FFFFFF"/>
		</linearGradient>
		<polyline class="mrs5" points="72.1,45.5 64,40.9 56,45.5 64.1,50.2 72.1,45.5 		"/>
	</g>
	<linearGradient id="MRSSVG_5_" gradientUnits="userSpaceOnUse" x1="61.4776" y1="35.0687" x2="66.7072" y2="45.9637">
		<stop  offset="0.2146" style="stop-color:#FFFFFF"/>
		<stop  offset="1" style="stop-color:#C2C7D7"/>
	</linearGradient>
	<circle class="mrs6" cx="63.8" cy="39.8" r="6.4"/>
</g>
<g id="PresenationBoard01">
	<g>
		<g>
			<linearGradient id="MRSSVG_6_" gradientUnits="userSpaceOnUse" x1="23.6839" y1="48.4315" x2="23.6839" y2="18.8396">
				<stop  offset="0.3039" style="stop-color:#E0363F"/>
				<stop  offset="1" style="stop-color:#93171B"/>
			</linearGradient>
			<path class="mrs7" d="M42.1,4.2L5.2,25.5c-0.8,0.5-1.4,1.6-1.4,2.5l0.1,28.9c0,0.9,0.6,1.3,1.4,0.8l36.9-21.3
				c0.8-0.5,1.4-1.6,1.4-2.5L43.5,5C43.5,4.1,42.9,3.7,42.1,4.2"/>
		</g>
		<g>
			<polyline class="mrs8" points="10.6,38.9 7,41 7,52.6 10.6,50.5 10.6,38.9 			"/>
			<polyline class="mrs9" points="30.3,32 26.7,34.1 26.7,41.2 30.3,39.2 30.3,32 			"/>
			<polyline class="mrs10" points="15.5,24.5 11.9,26.5 12,49.7 15.6,47.7 15.5,24.5 			"/>
			<polyline class="mrs11" points="20.5,28.3 16.9,30.3 17,46.9 20.5,44.8 20.5,28.3 			"/>
			<polyline class="mrs12" points="25.4,22.2 21.9,24.3 21.9,44 25.5,41.9 25.4,22.2 			"/>
		</g>
		<g>
			<linearGradient id="MRSSVG_7_" gradientUnits="userSpaceOnUse" x1="41.8522" y1="14.646" x2="28.5533" y2="36.159">
				<stop  offset="0" style="stop-color:#FFFFFF"/>
				<stop  offset="1" style="stop-color:#C2C7D7"/>
			</linearGradient>
			<path class="mrs13" d="M34.7,21.6L34.7,21.6l-1.9,7.6c0.6-0.1,1.3-0.4,1.9-0.7c1.5-0.8,2.8-2.3,3.9-4c0.8-1.2,1.4-2.6,1.7-4
				c0.1-0.2,0.1-0.5,0.2-0.7L34.7,21.6"/>
			<linearGradient id="MRSSVG_8_" gradientUnits="userSpaceOnUse" x1="39.2533" y1="13.0394" x2="25.9544" y2="34.5524">
				<stop  offset="0" style="stop-color:#FFFFFF"/>
				<stop  offset="1" style="stop-color:#C2C7D7"/>
			</linearGradient>
			<path class="mrs14" d="M34.8,14.3c-1.4,0.8-2.8,2.2-3.9,3.9l3.9,2.9l0,0l5.8-1.8c0.1-0.6,0.2-1.2,0.2-1.7c0-2.8-1.6-4.6-4.1-4.1
				C36,13.6,35.4,13.9,34.8,14.3"/>
			<linearGradient id="MRSSVG_9_" gradientUnits="userSpaceOnUse" x1="37.2836" y1="11.8218" x2="23.9847" y2="33.3347">
				<stop  offset="0" style="stop-color:#FFFFFF"/>
				<stop  offset="1" style="stop-color:#C2C7D7"/>
			</linearGradient>
			<path class="mrs15" d="M30.3,18.4c-0.8,1.2-1.4,2.6-1.7,4c-0.1,0.2-0.1,0.5-0.2,0.7l5.8-1.8l0,0L30.3,18.4"/>
			<linearGradient id="MRSSVG_10_" gradientUnits="userSpaceOnUse" x1="38.8936" y1="12.8171" x2="25.5947" y2="34.33">
				<stop  offset="0" style="stop-color:#FFFFFF"/>
				<stop  offset="1" style="stop-color:#C2C7D7"/>
			</linearGradient>
			<path class="mrs16" d="M28.5,23.5c-0.1,0.6-0.2,1.2-0.1,1.7c0,2.8,1.6,4.6,4.1,4.1l1.9-7.6L28.5,23.5"/>
		</g>
	</g>
</g>
<g id="People03">
	<g>
		<linearGradient id="MRSSVG_11_" gradientUnits="userSpaceOnUse" x1="15.9039" y1="52.5794" x2="23.7682" y2="52.5794">
			<stop  offset="0" style="stop-color:#FFFFFF"/>
			<stop  offset="1" style="stop-color:#C2C7D7"/>
		</linearGradient>
		<polygon class="mrs17" points="23.8,49.8 23.8,59.7 15.9,45.5 		"/>
		<polyline class="mrs4" points="23.8,59.7 31.7,45.5 23.8,49.8 		"/>
		<linearGradient id="MRSSVG_12_" gradientUnits="userSpaceOnUse" x1="43.6179" y1="46.76" x2="26.8633" y2="45.679">
			<stop  offset="0" style="stop-color:#C2C7D7;stop-opacity:0.7"/>
			<stop  offset="1" style="stop-color:#FFFFFF"/>
		</linearGradient>
		<polyline class="mrs18" points="31.8,45.5 23.7,40.8 15.8,45.5 23.8,50.1 31.8,45.5 		"/>
	</g>
	<linearGradient id="MRSSVG_13_" gradientUnits="userSpaceOnUse" x1="21.1932" y1="35.1051" x2="26.3817" y2="45.9145">
		<stop  offset="0.2146" style="stop-color:#FFFFFF"/>
		<stop  offset="1" style="stop-color:#C2C7D7"/>
	</linearGradient>
	<circle class="mrs19" cx="23.5" cy="39.8" r="6.4"/>
</g>
<g id="meetingTable">
	<linearGradient id="MRSSVG_14_" gradientUnits="userSpaceOnUse" x1="49.8593" y1="62.6779" x2="20.6993" y2="64.1451">
		<stop  offset="0" style="stop-color:#E0363F"/>
		<stop  offset="0.2358" style="stop-color:#93171B"/>
		<stop  offset="0.6307" style="stop-color:#93171B"/>
		<stop  offset="1" style="stop-color:#720714"/>
	</linearGradient>
	<path class="mrs20" d="M72.8,62.4c0-0.4-0.2-0.7-0.7-1l-27-15.6c-0.9-0.5-2.3-0.5-3.2,0L15,61.4c-0.5,0.3-0.7,0.6-0.7,1
		c0,0,0,0.1,0,0.1c0,0,0,0.1,0,0.1c0,0,0,0.1,0,0.1c0,0,0,0.1,0,0.1c0,0,0,0.1,0,0.1c0,0,0,0.1,0,0.1c0,0,0,0.1,0,0.1
		c0,0,0,0.1,0,0.1c0,0,0,0.1,0,0.1c0,0.4,0.2,0.7,0.7,1l27,15.6c0.9,0.5,2.3,0.5,3.2,0l26.8-15.6c0.5-0.3,0.7-0.6,0.7-1
		c0,0,0-0.1,0-0.1c0,0,0-0.1,0-0.1c0,0,0-0.1,0-0.1c0,0,0-0.1,0-0.1c0,0,0-0.1,0-0.1c0,0,0-0.1,0-0.1c0,0,0-0.1,0-0.1
		c0,0,0-0.1,0-0.1C72.8,62.5,72.8,62.5,72.8,62.4z"/>
	<linearGradient id="MRSSVG_15_" gradientUnits="userSpaceOnUse" x1="20.4409" y1="73.4722" x2="58.2849" y2="55.3386">
		<stop  offset="0.3039" style="stop-color:#E0363F"/>
		<stop  offset="1" style="stop-color:#93171B"/>
	</linearGradient>
	<path class="mrs21" d="M72.2,61.4l-27-15.6c-0.9-0.5-2.3-0.5-3.2,0L15,61.4c-0.9,0.5-0.9,1.4,0,1.9l27,15.6c0.9,0.5,2.3,0.5,3.2,0
		l26.8-15.6C73,62.8,73,62,72.2,61.4"/>
</g>
<g id="tableData">
	<g>
		<polygon class="mrs1" points="52.2,45.7 52.2,60.1 46.8,63.2 46.7,63.2 46.7,48.9 46.8,48.9 		"/>
		<linearGradient id="MRSSVG_16_" gradientUnits="userSpaceOnUse" x1="44.0293" y1="64.253" x2="44.0293" y2="54.3682">
			<stop  offset="0" style="stop-color:#FFFFFF"/>
			<stop  offset="1" style="stop-color:#C2C7D7"/>
		</linearGradient>
		<polygon class="mrs22" points="46.7,48.9 46.7,63.2 41.3,60.1 41.3,45.7 		"/>
		<polygon class="mrs1" points="52.2,45.7 46.8,48.9 46.7,48.9 41.3,45.7 46.7,42.6 		"/>
		<polygon class="mrs23" points="52.2,45.7 46.8,48.9 46.7,48.9 41.3,45.7 46.7,42.6 		"/>
		<line class="mrs24" x1="52.2" y1="60.3" x2="52.2" y2="60.1"/>
	</g>
	<g>
		<polygon class="mrs1" points="44.8,58.5 44.8,64.8 39.4,67.9 39.4,67.9 39.4,61.7 39.4,61.7 		"/>
		<linearGradient id="MRSSVG_17_" gradientUnits="userSpaceOnUse" x1="36.1335" y1="70.7871" x2="36.6005" y2="64.4054">
			<stop  offset="0" style="stop-color:#FFFFFF"/>
			<stop  offset="1" style="stop-color:#C2C7D7"/>
		</linearGradient>
		<polygon class="mrs25" points="39.4,61.7 39.4,67.9 34,64.8 34,58.5 		"/>
		<polygon class="mrs23" points="44.8,58.5 39.4,61.7 39.4,61.7 34,58.5 39.4,55.4 39.4,55.4 		"/>
		<line class="mrs24" x1="44.8" y1="65" x2="44.8" y2="64.8"/>
	</g>
</g>
<g id="People01">
	<g>
		<linearGradient id="MRSSVG_18_" gradientUnits="userSpaceOnUse" x1="17.0463" y1="78.9163" x2="24.9107" y2="78.9163">
			<stop  offset="0" style="stop-color:#FFFFFF"/>
			<stop  offset="1" style="stop-color:#C2C7D7"/>
		</linearGradient>
		<polygon class="mrs26" points="24.9,76.2 24.9,86 17,71.8 		"/>
		<polyline class="mrs4" points="25,86 32.8,71.8 25,76.2 		"/>
		<linearGradient id="MRSSVG_19_" gradientUnits="userSpaceOnUse" x1="44.7604" y1="73.0969" x2="28.0058" y2="72.0159">
			<stop  offset="0" style="stop-color:#C2C7D7;stop-opacity:0.7"/>
			<stop  offset="1" style="stop-color:#FFFFFF"/>
		</linearGradient>
		<polyline class="mrs27" points="32.9,71.8 24.9,67.2 16.9,71.8 24.9,76.4 32.9,71.8 		"/>
	</g>
	<linearGradient id="MRSSVG_20_" gradientUnits="userSpaceOnUse" x1="22.3356" y1="61.442" x2="27.5242" y2="72.2514">
		<stop  offset="0.2146" style="stop-color:#FFFFFF"/>
		<stop  offset="1" style="stop-color:#C2C7D7"/>
	</linearGradient>
	<circle class="mrs28" cx="24.6" cy="66.2" r="6.4"/>
</g>
<g id="People02">
	<g>
		<linearGradient id="MRSSVG_21_" gradientUnits="userSpaceOnUse" x1="56.5904" y1="79.2011" x2="64.517" y2="79.2011">
			<stop  offset="0" style="stop-color:#FFFFFF"/>
			<stop  offset="1" style="stop-color:#C2C7D7"/>
		</linearGradient>
		<polygon class="mrs29" points="64.5,76.4 64.5,86.4 56.6,72 		"/>
		<polyline class="mrs4" points="64.6,86.4 72.5,72 64.6,76.4 		"/>
		<linearGradient id="MRSSVG_22_" gradientUnits="userSpaceOnUse" x1="84.5239" y1="73.3356" x2="67.6366" y2="72.2461">
			<stop  offset="0" style="stop-color:#C2C7D7;stop-opacity:0.7"/>
			<stop  offset="1" style="stop-color:#FFFFFF"/>
		</linearGradient>
		<polyline class="mrs30" points="72.6,72 64.5,67.4 56.5,72 64.5,76.7 72.6,72 		"/>
	</g>
	<linearGradient id="MRSSVG_23_" gradientUnits="userSpaceOnUse" x1="61.9216" y1="61.5884" x2="67.1512" y2="72.4834">
		<stop  offset="0.2146" style="stop-color:#FFFFFF"/>
		<stop  offset="1" style="stop-color:#C2C7D7"/>
	</linearGradient>
	<circle class="mrs31" cx="64.2" cy="66.3" r="6.4"/>
</g>
</svg>
