<?xml version="1.0" encoding="utf-8"?>
<!-- Generator: Adobe Illustrator 25.0.1, SVG Export Plug-In . SVG Version: 6.00 Build 0)  -->
<svg version="1.1" id="ns-icon" xmlns="http://www.w3.org/2000/svg" xmlns:xlink="http://www.w3.org/1999/xlink" x="0px" y="0px"
	 viewBox="0 0 89 89" style="enable-background:new 0 0 89 89;" xml:space="preserve">
<style type="text/css">
	.nss0{fill:url(#NSSID_1_);}
	.nss1{fill:url(#NSSID_2_);}
	.nss2{fill:url(#NSSID_3_);}
	.nss3{fill:url(#NSSID_4_);}
	.nss4{fill:url(#NSSID_5_);}
	.nss5{fill:url(#NSSID_6_);}
	.nss6{fill:url(#NSSID_7_);}
	.nss7{fill:#FFFFFF;}
	.nss8{fill:url(#NSSID_8_);}
	.nss9{fill:url(#NSSID_9_);}
	.nss10{fill:url(#NSSID_10_);}
	.nss11{fill:url(#NSSID_11_);}
	.nss12{fill:url(#NSSID_12_);}
	.nss13{opacity:0.77;}
	.nss14{opacity:0.5;}
	.nss15{fill:#AFB6E5;}
	.nss16{fill:url(#NSSID_13_);}
	.nss17{opacity:0.68;}
	.nss18{fill:url(#NSSID_14_);}
	.nss19{fill:url(#NSSID_15_);}
</style>
<g id="shield">
	<g>
		<linearGradient id="NSSID_1_" gradientUnits="userSpaceOnUse" x1="49.9715" y1="41.0234" x2="52.7698" y2="32.2636">
			<stop  offset="0" style="stop-color:#FFFFFF"/>
			<stop  offset="1" style="stop-color:#9FA3B0"/>
		</linearGradient>
		<path class="nss0" d="M75.8,34.8c-8.1-4.4-16-11.9-22.6-21.4l-0.1,0c-6.6,2.2-14.5,0.9-22.6-3.6l-0.3-0.2L30.7,24
			c1.5,22.4,9.5,32.2,22.3,53l0.3,0.2c12.8-6.6,20.8-7.6,22.3-28.3l0.4-14L75.8,34.8z"/>
		
			<linearGradient id="NSSID_2_" gradientUnits="userSpaceOnUse" x1="-1593.2755" y1="32.4992" x2="-1545.5231" y2="40.8746" gradientTransform="matrix(1 0 0 1 1603.9998 0)">
			<stop  offset="0" style="stop-color:#FFFFFF"/>
			<stop  offset="1" style="stop-color:#C2C7D7"/>
		</linearGradient>
		<path class="nss1" d="M78.5,32.5c-8.1-4.4-16-11.9-22.6-21.4l-0.1,0c-6.6,2.2-14.5,0.9-22.6-3.6l-0.3-0.2l-2.6,2.3l0.2,0.1
			c8.1,4.6,16,5.8,22.6,3.6l0.1,0c6.6,9.5,14.5,17,22.6,21.4l0.3,0.2l-0.4,14c-1,13.5-4.7,18.6-10.8,22.4
			c7.6-4.3,12.4-9.4,13.5-24.6l0.4-14L78.5,32.5z"/>
		
			<linearGradient id="NSSID_3_" gradientUnits="userSpaceOnUse" x1="-1559.3602" y1="2.2531" x2="-1514.5999" y2="47.7098" gradientTransform="matrix(1 0 0 1 1603.9998 0)">
			<stop  offset="4.972059e-02" style="stop-color:#CACFDC"/>
			<stop  offset="0.6872" style="stop-color:#C2C7D7"/>
		</linearGradient>
		<path class="nss2" d="M78.8,32.7l-0.3-0.2c-8.1-4.4-16-11.9-22.6-21.4l-0.1,0l-2.7,2.3l0.1,0c6.6,9.5,14.5,17,22.6,21.4l0.3,0.2
			L78.8,32.7z"/>
		
			<linearGradient id="NSSID_4_" gradientUnits="userSpaceOnUse" x1="-1534.6841" y1="50.5792" x2="-1496.6062" y2="72.2085" gradientTransform="matrix(1 0 0 1 1603.9998 0)">
			<stop  offset="0" style="stop-color:#FFFFFF"/>
			<stop  offset="1" style="stop-color:#C2C7D7"/>
		</linearGradient>
		<path class="nss3" d="M76.1,34.9l-0.4,14c-1,13.5-4.7,18.6-10.8,22.4c7.6-4.3,12.4-9.4,13.5-24.6l0.4-14L76.1,34.9z"/>
		<g>
			<linearGradient id="NSSID_5_" gradientUnits="userSpaceOnUse" x1="50.5897" y1="42.6241" x2="31.6491" y2="39.8826">
				<stop  offset="0" style="stop-color:#E0363F"/>
				<stop  offset="0.2358" style="stop-color:#93171B"/>
				<stop  offset="0.6307" style="stop-color:#93171B"/>
				<stop  offset="1" style="stop-color:#720714"/>
			</linearGradient>
			<path class="nss4" d="M74.9,35.3C67,31.1,59.3,23.7,52.9,14.4l-0.1,0c-6.5,2.1-14.2,0.9-22.1-3.6l-0.3-0.2l-2.6,2.3l0.2,0.1
				c7.9,4.5,15.6,5.7,22.1,3.6l0.1,0c6.5,9.3,14.2,16.6,22.1,20.9l0.3,0.2l-0.4,13.7c-1,13.2-4.6,18.2-10.5,21.9
				C69,69.1,73.7,64,74.8,49.2l0.4-13.7L74.9,35.3z"/>
			<linearGradient id="NSSID_6_" gradientUnits="userSpaceOnUse" x1="64.1442" y1="28.1284" x2="51.1289" y2="9.7443">
				<stop  offset="0" style="stop-color:#E0363F"/>
				<stop  offset="0.2358" style="stop-color:#93171B"/>
				<stop  offset="0.6307" style="stop-color:#93171B"/>
				<stop  offset="1" style="stop-color:#720714"/>
			</linearGradient>
			<path class="nss5" d="M75.2,35.5l-0.3-0.2C67,31.1,59.3,23.7,52.9,14.4l-0.1,0l-2.7,2.2l0.1,0c6.5,9.3,14.2,16.6,22.1,20.9
				l0.3,0.2L75.2,35.5z"/>
			<linearGradient id="NSSID_7_" gradientUnits="userSpaceOnUse" x1="68.4085" y1="69.9631" x2="68.4085" y2="52.5666">
				<stop  offset="0" style="stop-color:#E0363F"/>
				<stop  offset="0.2358" style="stop-color:#93171B"/>
				<stop  offset="0.6307" style="stop-color:#93171B"/>
				<stop  offset="1" style="stop-color:#720714"/>
			</linearGradient>
			<path class="nss6" d="M72.6,37.7l-0.4,13.7c-1,13.2-4.6,18.2-10.5,21.9C69,69.1,73.7,64,74.8,49.2l0.4-13.7L72.6,37.7z"/>
		</g>
		<path class="nss7" d="M70.6,39.3c-8.1-4.4-16-11.9-22.6-21.4l-0.1,0c-6.6,2.2-14.5,0.9-22.6-3.6L25.1,14l0.4,14.5
			c1.5,22.4,9.5,32.2,22.3,53l0.3,0.2c12.8-6.6,20.8-7.6,22.3-28.3l0.4-14L70.6,39.3z"/>
		<linearGradient id="NSSID_8_" gradientUnits="userSpaceOnUse" x1="34.0086" y1="42.5371" x2="49.6085" y2="44.5398">
			<stop  offset="4.972059e-02" style="stop-color:#CACFDC"/>
			<stop  offset="0.6872" style="stop-color:#C2C7D7"/>
		</linearGradient>
		<path class="nss8" d="M73.3,37c-8.1-4.4-16-11.9-22.6-21.4l-0.1,0c-6.6,2.2-14.5,0.9-22.6-3.6l-0.3-0.2l-2.6,2.3l0.2,0.1
			c8.1,4.6,16,5.8,22.6,3.6l0.1,0c6.6,9.5,14.5,17,22.6,21.4l0.3,0.2l-0.4,14C69.5,67,65.7,72,59.7,75.8c7.6-4.3,12.4-9.4,13.5-24.6
			l0.4-14L73.3,37z"/>
		<linearGradient id="NSSID_9_" gradientUnits="userSpaceOnUse" x1="55.2169" y1="14.249" x2="68.9767" y2="47.0055">
			<stop  offset="4.972059e-02" style="stop-color:#CACFDC"/>
			<stop  offset="0.6872" style="stop-color:#C2C7D7"/>
		</linearGradient>
		<path class="nss9" d="M73.6,37.2L73.3,37c-8.1-4.4-16-11.9-22.6-21.4l-0.1,0L48,17.8l0.1,0c6.6,9.5,14.5,17,22.6,21.4l0.3,0.2
			L73.6,37.2z"/>
		<linearGradient id="NSSID_10_" gradientUnits="userSpaceOnUse" x1="70.2861" y1="45.5982" x2="64.9884" y2="71.9512">
			<stop  offset="0" style="stop-color:#C2C7D7"/>
			<stop  offset="1" style="stop-color:#FFFFFF"/>
		</linearGradient>
		<path class="nss10" d="M70.9,39.4l-0.4,14C69.5,67,65.7,72,59.7,75.8c7.6-4.3,12.4-9.4,13.5-24.6l0.4-14L70.9,39.4z"/>
		<linearGradient id="NSSID_11_" gradientUnits="userSpaceOnUse" x1="33.1286" y1="36.6393" x2="62.9172" y2="62.2905">
			<stop  offset="0.3039" style="stop-color:#E0363F"/>
			<stop  offset="1" style="stop-color:#93171B"/>
		</linearGradient>
		<path class="nss11" d="M46.4,72c-10-15.9-15-23.8-16.2-41.2L30,21.7c6.4,2.8,12.5,3.7,18,2.6c5.5,7.2,11.6,13.1,18,17.4l-0.3,8.8
			C64.6,66.6,59.5,69,49.6,73.8c-0.5,0.3-1.1,0.5-1.6,0.8C47.5,73.7,46.9,72.9,46.4,72z"/>
		<linearGradient id="NSSID_12_" gradientUnits="userSpaceOnUse" x1="47.9246" y1="34.7492" x2="46.648" y2="60.7918">
			<stop  offset="0" style="stop-color:#F10B27"/>
			<stop  offset="1" style="stop-color:#BF363F"/>
		</linearGradient>
		<path class="nss12" d="M48,24.3c-5.5,1.1-11.6,0.2-18-2.6l0,0.6c6.2,2.6,12.2,3.5,17.6,2.4c5.5,7.2,11.6,13.1,18,17.4l-0.3,8.8
			c-0.7,9-2.5,13.7-5.8,16.9c3.5-3.3,5.5-8,6.2-17.3l0.3-8.8C59.6,37.4,53.5,31.5,48,24.3z"/>
	</g>
	<g>
		<path class="nss7" d="M55.6,43c-0.5-0.3-1-0.3-1.4-0.1l-8.5,4.6l-2.6-4.2c-0.4-0.6-0.9-1.1-1.4-1.4s-1-0.3-1.4-0.1
			c-0.8,0.4-0.8,1.8,0,3.1l3.9,6.6c0.4,0.6,0.9,1.1,1.4,1.4c0.5,0.3,1,0.3,1.4,0.1l9.9-5.4c0.8-0.4,0.8-1.8,0-3.1
			C56.6,43.8,56.1,43.3,55.6,43"/>
	</g>
</g>
<g id="password-bar" class="nss13">
	<g>
		<g class="nss14">
			<path class="nss15" d="M52.6,59.3c-1.7-1-3-0.2-3,1.7v0.7c0,1.9,1.3,4.2,3,5.2l23.7,13.8c1.7,1,3,0.2,3-1.7v-0.7
				c0-1.9-1.3-4.2-3-5.2L52.6,59.3z"/>
		</g>
		<linearGradient id="NSSID_13_" gradientUnits="userSpaceOnUse" x1="47.4704" y1="62.3999" x2="110.2952" y2="92.1378">
			<stop  offset="0.3039" style="stop-color:#E0363F"/>
			<stop  offset="1" style="stop-color:#93171B"/>
		</linearGradient>
		<path class="nss16" d="M78.2,82.5L51.8,67.2c-1.4-0.8-2.6-3.1-2.6-5v-1.4c0-1.9,1.2-2.8,2.6-2l26.4,15.4c1.4,0.8,2.6,3.1,2.6,5v1.4
			C80.8,82.5,79.6,83.4,78.2,82.5z"/>
	</g>
	<g>
		<path class="nss7" d="M57.1,66.4c0,0.7-0.5,1-1.2,0.7c-0.6-0.4-1.2-1.3-1.2-2c0-0.7,0.5-1,1.2-0.7C56.6,64.8,57.1,65.6,57.1,66.4z"
			/>
		<path class="nss7" d="M60.7,68.5c0,0.7-0.5,1-1.2,0.7c-0.6-0.4-1.2-1.3-1.2-2c0-0.7,0.5-1,1.2-0.7C60.2,66.8,60.7,67.7,60.7,68.5z"
			/>
		<path class="nss7" d="M64.3,70.5c0,0.7-0.5,1-1.2,0.7c-0.6-0.4-1.2-1.3-1.2-2c0-0.7,0.5-1,1.2-0.7C63.8,68.9,64.3,69.8,64.3,70.5z"
			/>
		<path class="nss7" d="M67.9,72.6c0,0.7-0.5,1-1.2,0.7c-0.6-0.4-1.2-1.3-1.2-2s0.5-1,1.2-0.7C67.4,71,67.9,71.9,67.9,72.6z"/>
		<path class="nss7" d="M71.5,74.7c0,0.7-0.5,1-1.2,0.7c-0.6-0.4-1.2-1.3-1.2-2c0-0.7,0.5-1,1.2-0.7C71,73.1,71.5,74,71.5,74.7z"/>
		<path class="nss7" d="M75.2,76.8c0,0.7-0.5,1-1.2,0.7c-0.6-0.4-1.2-1.3-1.2-2c0-0.7,0.5-1,1.2-0.7C74.6,75.2,75.2,76.1,75.2,76.8z"
			/>
	</g>
</g>
<g id="user-icon" class="nss17">
	<g>
		<linearGradient id="NSSID_14_" gradientUnits="userSpaceOnUse" x1="13.3364" y1="17.3624" x2="28.0187" y2="40.3113">
			<stop  offset="0.3039" style="stop-color:#E0363F"/>
			<stop  offset="1" style="stop-color:#93171B"/>
		</linearGradient>
		<path class="nss18" d="M31,34.9c0,6.5-4.6,9.1-10.2,5.8c-5.6-3.3-10.2-11.2-10.2-17.6s4.6-9.1,10.2-5.8C26.4,20.6,31,28.4,31,34.9z
			"/>
		<g>
			<path class="nss7" d="M25.4,38.3L25.4,38.3c-0.1,0-0.2,0-0.4-0.1l-8.6-5c-0.4-0.2-0.7-0.7-0.7-1.2v-1.8c0-1,0.5-1.6,1.3-1.6
				c0.2,0,0.3,0,0.5,0.1c0.6,0.2,1.1,0.2,1.5-0.1c0,0,0.1-0.1,0.1-0.1c0-0.2,0-0.4-0.2-0.7c-0.4-0.6-0.7-1.3-0.9-2
				c-0.3-0.3-0.7-0.8-0.7-1.3c0-0.5,0.2-0.7,0.4-0.8c0.2-2.1,1.2-2.7,3.1-1.6c1.8,1,2.7,2.7,2.9,4.9c0.3,0.3,0.4,0.8,0.4,1.2
				c0,0.4-0.3,0.7-0.8,0.7c-0.2,0.4-0.5,0.7-0.9,0.9c0,0-0.1,0.1-0.1,0.1c0,0.2,0,0.5,0.2,0.7c0.5,0.8,1,1.5,1.7,2
				c0.9,0.8,1.6,2.1,1.6,3.2v1.8c0,0.2,0,0.3-0.1,0.4C25.7,38.3,25.6,38.3,25.4,38.3z M17.1,29.1c-0.5,0-0.9,0.4-0.9,1.2v1.8
				c0,0.3,0.2,0.6,0.5,0.8l8.6,5c0.1,0.1,0.2,0,0.2,0c0,0,0-0.1,0-0.2v-1.8c0-1-0.6-2.2-1.4-2.9c-0.7-0.6-1.3-1.3-1.8-2.1
				c-0.2-0.4-0.3-0.7-0.2-1c0-0.2,0.1-0.3,0.3-0.4c0.3-0.2,0.6-0.5,0.8-0.9l0.1-0.2l0.2,0c0,0,0.1,0,0.1,0c0.2,0,0.3-0.1,0.3-0.2
				c0-0.3-0.2-0.8-0.4-0.9l-0.1-0.1l0-0.1c-0.1-2.2-1-3.7-2.6-4.6c-0.5-0.3-1-0.5-1.3-0.5c-0.2,0-1,0-1.1,1.9l0,0.3l-0.3-0.1
				c-0.1,0-0.2,0.1-0.2,0.4c0,0.3,0.3,0.8,0.6,1l0,0l0,0.1c0.2,0.6,0.5,1.3,0.9,1.9c0.2,0.4,0.3,0.8,0.2,1.1
				c-0.1,0.2-0.2,0.3-0.3,0.4c-0.5,0.3-1.2,0.3-1.9,0.1C17.3,29.1,17.2,29.1,17.1,29.1z"/>
		</g>
	</g>
	<g>
		<g>
			<linearGradient id="NSSID_15_" gradientUnits="userSpaceOnUse" x1="6.385" y1="28.5494" x2="35.3168" y2="28.5494">
				<stop  offset="0.3039" style="stop-color:#E0363F"/>
				<stop  offset="1" style="stop-color:#93171B"/>
			</linearGradient>
			<path class="nss19" d="M20.9,45.1c-8-4.6-14.5-15.8-14.5-25S12.9,7.3,20.9,12s14.5,14.9,14.5,25C35.3,46.1,28.8,49.8,20.9,45.1z
				 M20.9,13.3c-7.3-4.2-13.3-0.8-13.3,7.6s5.9,18.6,13.3,22.9s13.3,0.8,13.3-7.6S28.2,17.6,20.9,13.3z"/>
		</g>
	</g>
</g>
</svg>
