<?xml version="1.0" encoding="utf-8"?>
<!-- Generator: Adobe Illustrator 25.0.1, SVG Export Plug-In . SVG Version: 6.00 Build 0)  -->
<svg version="1.1" id="Support-earphomne-icon" xmlns="http://www.w3.org/2000/svg" xmlns:xlink="http://www.w3.org/1999/xlink"
	 x="0px" y="0px" viewBox="0 0 89 89" style="enable-background:new 0 0 89 89;" xml:space="preserve">
<style type="text/css">
	.st0{fill:#FFFFFF;}
	.st1{fill:url(#SVGID_1_);}
	.st2{fill:#BBBDBF;}
	.st3{fill:url(#SVGID_2_);}
	.st4{fill:url(#SVGID_3_);}
	.st5{fill:url(#SVGID_4_);}
	.st6{fill:url(#SVGID_5_);}
	.st7{fill:url(#SVGID_6_);}
	.st8{fill:url(#SVGID_7_);}
	.st9{fill:url(#SVGID_8_);}
	.st10{fill:url(#SVGID_9_);}
	.st11{fill:url(#SVGID_10_);}
	.st12{fill:url(#SVGID_11_);}
	.st13{fill:url(#SVGID_12_);}
	.st14{fill:url(#SVGID_13_);}
</style>
<path id="earphone-mic" class="st0" d="M13.888,56.166c-12.429-8.712-8.956-27.812,5.745-31.59c0.776-0.114,1.437,0.255,1.437,0.744
	c0,0.029,0,0.044,0,0.073c0,0.489-0.588,0.91-1.278,1.012C6.713,29.766,3.622,46.759,14.681,54.51
	c0.61,0.338,1.012,0.939,0.84,1.397c-0.01,0.027-0.015,0.041-0.026,0.068C15.323,56.433,14.574,56.545,13.888,56.166z"/>
<g id="right-earphone">
	<linearGradient id="SVGID_1_" gradientUnits="userSpaceOnUse" x1="4.9043" y1="32.4149" x2="20.1935" y2="32.4149">
		<stop  offset="0" style="stop-color:#FFFFFF"/>
		<stop  offset="1" style="stop-color:#C2C7D7"/>
	</linearGradient>
	<path class="st1" d="M20.033,24.956c-0.01,0-0.04,0.01-0.05,0.01c0.07,0.01,0.15,0.03,0.21,0.07
		C20.143,24.996,20.083,24.976,20.033,24.956z M14.503,23.874c-0.311,0.03-0.611,0.07-0.912,0.12
		c-0.511,0.09-1.002,0.21-1.483,0.381c-4.188,1.363-7.204,5.31-7.204,9.939c0,0.611,0.05,1.212,0.15,1.793
		c0.13,0.701,0.321,1.373,0.581,2.024c0.401,1.042,0.962,1.984,1.663,2.835c-0.12-0.571-0.18-1.182-0.18-1.864
		c-0.04-4.549,2.755-9.959,6.462-13.045c0.301-0.261,0.611-0.491,0.922-0.711v-1.453c0.06-0.01,0.12-0.02,0.17-0.03
		C14.613,23.864,14.563,23.874,14.503,23.874z"/>
	<path class="st2" d="M20.033,24.956c-0.01,0-0.04,0.01-0.05,0.01c0.07,0.01,0.15,0.03,0.21,0.07
		C20.143,24.996,20.083,24.976,20.033,24.956z M7.299,40.966c0.01,0.04,0.02,0.08,0.03,0.12c0.02,0.02,0.05,0.04,0.08,0.06
		c0.03,0.02,0.05,0.04,0.09,0.05C7.429,41.117,7.359,41.046,7.299,40.966z"/>
	<linearGradient id="SVGID_2_" gradientUnits="userSpaceOnUse" x1="21.262" y1="23.8358" x2="7.1757" y2="42.6933">
		<stop  offset="0" style="stop-color:#ADB0BD"/>
		<stop  offset="1" style="stop-color:#C2C7D7"/>
	</linearGradient>
	<path class="st3" d="M22.909,25.066c-0.832-0.311-1.813-0.361-2.875-0.11c-0.01,0-0.04,0.01-0.05,0.01
		c-0.311,0.07-0.621,0.17-0.942,0.301c-0.16,0.05-0.311,0.12-0.471,0.19c-0.311,0.13-0.621,0.291-0.932,0.481
		c-0.271,0.15-0.521,0.301-0.771,0.491c-0.741,0.501-1.463,1.112-2.134,1.803c-3.136,3.156-5.37,7.925-5.34,12.013
		c0,0.491,0.03,0.952,0.1,1.383c0.02,0.17,0.05,0.331,0.09,0.491c0.08,0.411,0.19,0.781,0.331,1.122l0.01,0.01
		c0.371,0.992,0.982,1.753,1.753,2.234c-0.05-0.01-0.07-0.03-0.1-0.04c-0.04-0.03-0.07-0.05-0.1-0.06
		c-0.03-0.01-0.07-0.03-0.11-0.05c-0.03-0.02-0.07-0.04-0.1-0.05c-0.03-0.02-0.07-0.04-0.1-0.05c-0.04-0.01-0.08-0.04-0.11-0.06
		c-0.03-0.01-0.06-0.03-0.1-0.05c-0.03-0.01-0.06-0.04-0.11-0.05c-0.03-0.02-0.06-0.04-0.1-0.05c-0.03-0.01-0.06-0.03-0.09-0.06
		c-0.05-0.01-0.08-0.03-0.11-0.04c-0.04-0.02-0.07-0.04-0.1-0.05c-0.04-0.02-0.07-0.04-0.11-0.06c-0.04-0.01-0.07-0.03-0.1-0.04
		c-0.03-0.03-0.07-0.05-0.1-0.06c-0.04-0.01-0.08-0.03-0.11-0.05c-0.21-0.08-0.401-0.19-0.591-0.301
		C8.571,43.822,7.9,42.95,7.519,41.778c-0.08-0.22-0.14-0.451-0.19-0.691c0.02,0.02,0.05,0.04,0.08,0.06
		c0.03,0.02,0.05,0.04,0.09,0.05h0.01c-0.08-0.08-0.15-0.15-0.21-0.23c-0.12-0.571-0.18-1.182-0.18-1.864
		c-0.04-4.549,2.755-9.959,6.462-13.045c0.301-0.261,0.611-0.491,0.922-0.711l-0.01,1.403c0.541-0.461,1.112-0.862,1.703-1.202
		c0.491-0.281,0.982-0.511,1.443-0.671v-1.012c0.02-0.01,0.04-0.02,0.06-0.02c1.222-0.311,2.335-0.21,3.256,0.23
		c0.03,0.02,0.06,0.04,0.1,0.06c0.03,0.01,0.06,0.03,0.11,0.05c0.03,0.01,0.06,0.04,0.1,0.05c0.03,0.02,0.06,0.04,0.09,0.05
		c0.05,0.01,0.08,0.03,0.11,0.06c0.04,0.01,0.07,0.03,0.1,0.04c0.04,0.02,0.07,0.04,0.11,0.05c0.04,0.02,0.07,0.04,0.1,0.06
		c0.03,0.01,0.07,0.03,0.1,0.04c0.04,0.03,0.08,0.05,0.11,0.06c0.03,0.02,0.06,0.03,0.1,0.05c0.04,0.01,0.06,0.04,0.11,0.06
		c0.03,0.01,0.06,0.03,0.1,0.04c0.03,0.02,0.06,0.05,0.09,0.06c0.05,0.01,0.08,0.03,0.11,0.05c0.04,0.01,0.07,0.03,0.1,0.05
		c0.05,0.02,0.07,0.04,0.11,0.05c0.04,0.01,0.07,0.03,0.1,0.05C22.839,25.026,22.879,25.046,22.909,25.066z"/>
	<linearGradient id="SVGID_3_" gradientUnits="userSpaceOnUse" x1="14.1214" y1="40.7242" x2="27.0397" y2="21.5386">
		<stop  offset="0.6799" style="stop-color:#989AA6"/>
		<stop  offset="1" style="stop-color:#C2C7D7"/>
	</linearGradient>
	<path class="st4" d="M25.965,30.667c0.01,5.27-3.697,11.662-8.276,14.297c-0.711,0.411-1.403,0.711-2.064,0.892
		c-0.741,0.22-1.463,0.291-2.114,0.22c-0.15-0.01-0.291-0.03-0.421-0.05c-0.03,0-0.06-0.01-0.08-0.03
		c-0.13-0.02-0.261-0.05-0.391-0.09c-0.331-0.1-0.641-0.23-0.922-0.411c-0.01,0-0.01-0.01-0.02-0.01
		c-0.771-0.481-1.383-1.242-1.753-2.234l-0.01-0.01c-0.14-0.341-0.25-0.711-0.331-1.122c-0.04-0.16-0.07-0.321-0.09-0.491
		c-0.07-0.431-0.1-0.892-0.1-1.383c-0.03-4.088,2.204-8.857,5.34-12.013c0.671-0.691,1.393-1.302,2.134-1.803
		c0.25-0.19,0.501-0.341,0.771-0.491c0.311-0.19,0.621-0.351,0.932-0.481c0.16-0.07,0.311-0.14,0.471-0.19
		c0.32-0.13,0.631-0.23,0.942-0.301c0.07,0.01,0.15,0.03,0.21,0.07c-0.05-0.04-0.11-0.06-0.16-0.08c1.062-0.25,2.044-0.2,2.875,0.11
		c0.02,0.01,0.03,0.01,0.05,0.02c0.02,0.01,0.04,0.01,0.05,0.02c0.02,0.01,0.05,0.03,0.08,0.04c0.01,0,0.03,0.01,0.05,0.03
		c0.16,0.07,0.321,0.14,0.471,0.24C25.063,26.298,25.944,28.112,25.965,30.667z"/>
	<linearGradient id="SVGID_4_" gradientUnits="userSpaceOnUse" x1="53.8291" y1="22.1459" x2="37.5338" y2="43.9606">
		<stop  offset="0" style="stop-color:#ADB0BD"/>
		<stop  offset="0.1525" style="stop-color:#FFFFFF"/>
		<stop  offset="0.6397" style="stop-color:#FAFAFC"/>
		<stop  offset="1" style="stop-color:#C2C7D7"/>
	</linearGradient>
	<path class="st5" d="M74.557,42.559l-0.05,20.299l-3.136-1.813l0.05-18.325c0.01-2.284-1.603-5.08-3.597-6.232L21.286,9.616
		c-1.984-1.142-3.607-0.22-3.617,2.064l-0.03,12.133v1.062c-0.461,0.16-0.952,0.391-1.443,0.671
		c-0.591,0.341-1.162,0.741-1.703,1.202l0.01-1.403v-1.453c0.06-0.01,0.12-0.02,0.17-0.03c-0.06,0-0.11,0.01-0.17,0.01v-0.481
		l0.04-15.48c0.01-3.146,2.234-4.418,4.97-2.835l50.106,28.925C72.363,35.586,74.568,39.423,74.557,42.559z"/>
	<g>
		<linearGradient id="SVGID_5_" gradientUnits="userSpaceOnUse" x1="13.0019" y1="25.871" x2="9.8682" y2="29.7081">
			<stop  offset="0" style="stop-color:#ADB0BD"/>
			<stop  offset="1" style="stop-color:#E4D8F0"/>
		</linearGradient>
		<path class="st6" d="M17.679,23.834c-0.01-0.01-0.03-0.02-0.04-0.02v0.05c0.02-0.01,0.04-0.02,0.06-0.02
			C17.689,23.844,17.689,23.834,17.679,23.834z M14.503,23.874c-0.311,0.03-0.611,0.07-0.912,0.12
			c-0.511,0.09-1.002,0.21-1.483,0.381c-3.737,2.244-6.773,7.344-7.053,11.732c0.13,0.701,0.321,1.373,0.581,2.024
			c-0.07-0.401-0.11-0.842-0.11-1.302c-0.02-4.438,3.116-9.879,6.993-12.123c0.681-0.391,1.353-0.661,1.984-0.812
			c0.06-0.01,0.12-0.02,0.17-0.03C14.613,23.864,14.563,23.874,14.503,23.874z"/>
	</g>
</g>
<g id="dialog-box">
	<linearGradient id="SVGID_6_" gradientUnits="userSpaceOnUse" x1="9.8433" y1="38.0219" x2="67.656" y2="62.8353">
		<stop  offset="0" style="stop-color:#93171B"/>
		<stop  offset="0.4922" style="stop-color:#93171B"/>
		<stop  offset="0.8838" style="stop-color:#720714"/>
	</linearGradient>
	<path class="st7" d="M65.726,40.289L29.105,19.146c-1.001-0.578-1.896-0.614-2.535-0.218c-0.03,0.016-0.057,0.036-0.085,0.053
		c-0.03,0.016-0.057,0.036-0.086,0.053c-0.03,0.016-0.057,0.036-0.085,0.053c-0.03,0.016-0.057,0.036-0.085,0.053
		c-0.03,0.016-0.057,0.036-0.085,0.053c-0.03,0.016-0.057,0.036-0.085,0.053c-0.03,0.016-0.057,0.036-0.085,0.053
		c-0.03,0.016-0.057,0.036-0.085,0.053c-0.03,0.016-0.057,0.036-0.085,0.053c-0.03,0.016-0.057,0.036-0.085,0.053
		c-0.03,0.016-0.057,0.036-0.085,0.053c-0.03,0.016-0.057,0.036-0.086,0.053c-0.03,0.016-0.057,0.036-0.085,0.053
		c-0.03,0.016-0.057,0.036-0.085,0.053c-0.03,0.016-0.057,0.036-0.085,0.053c-0.03,0.016-0.057,0.036-0.085,0.053
		c-0.03,0.016-0.057,0.036-0.085,0.053c-0.03,0.016-0.057,0.036-0.085,0.053c-0.03,0.016-0.057,0.036-0.085,0.053
		c-0.03,0.016-0.057,0.036-0.085,0.053c-0.03,0.016-0.057,0.036-0.085,0.053c-0.03,0.016-0.057,0.036-0.085,0.053
		c-0.03,0.016-0.057,0.036-0.085,0.053c-0.03,0.016-0.057,0.036-0.085,0.053c-0.03,0.016-0.057,0.036-0.085,0.053
		c-0.03,0.016-0.057,0.036-0.085,0.053c-0.03,0.016-0.057,0.036-0.085,0.053c-0.03,0.016-0.057,0.036-0.085,0.053
		c-0.03,0.016-0.057,0.036-0.085,0.053c-0.03,0.016-0.057,0.036-0.085,0.053c-0.03,0.016-0.057,0.036-0.085,0.053
		c-0.03,0.016-0.057,0.035-0.085,0.053c-0.03,0.016-0.057,0.036-0.085,0.053c-0.03,0.016-0.057,0.036-0.085,0.053
		c-0.03,0.016-0.057,0.036-0.085,0.053c-0.03,0.016-0.057,0.036-0.085,0.053c-0.03,0.016-0.057,0.036-0.085,0.053
		c-0.03,0.016-0.057,0.036-0.085,0.053c-0.03,0.016-0.057,0.036-0.085,0.053c-0.03,0.016-0.057,0.035-0.085,0.053
		c-0.03,0.016-0.057,0.036-0.085,0.053c-0.03,0.016-0.057,0.036-0.085,0.053c-0.03,0.016-0.057,0.036-0.085,0.053
		c-0.03,0.016-0.057,0.036-0.085,0.053c-0.03,0.016-0.057,0.036-0.085,0.053c-0.03,0.016-0.057,0.036-0.085,0.053
		c-0.03,0.016-0.057,0.036-0.085,0.053c-0.03,0.016-0.057,0.036-0.085,0.053c-0.03,0.016-0.057,0.036-0.086,0.053
		c-0.03,0.016-0.057,0.036-0.085,0.053c-0.03,0.016-0.057,0.036-0.085,0.053c-0.03,0.016-0.057,0.036-0.085,0.053
		c-0.03,0.016-0.057,0.036-0.085,0.053c-0.03,0.016-0.057,0.036-0.085,0.053c-0.03,0.016-0.057,0.036-0.085,0.053
		c-0.03,0.016-0.057,0.036-0.085,0.053c-0.03,0.016-0.057,0.036-0.085,0.053c-0.03,0.016-0.057,0.036-0.085,0.053
		c-0.03,0.016-0.057,0.036-0.086,0.053c-0.03,0.016-0.057,0.036-0.085,0.053c-0.03,0.016-0.057,0.036-0.085,0.053
		c-0.03,0.016-0.057,0.036-0.085,0.053c-0.03,0.016-0.057,0.036-0.085,0.053c-0.03,0.016-0.057,0.036-0.085,0.053
		c-0.03,0.016-0.057,0.036-0.085,0.053c-0.03,0.016-0.057,0.036-0.085,0.053c-0.03,0.016-0.057,0.036-0.085,0.053
		c-0.03,0.016-0.057,0.036-0.085,0.053c-0.03,0.016-0.057,0.036-0.085,0.053c-0.03,0.016-0.057,0.036-0.085,0.053
		c-0.03,0.016-0.057,0.036-0.085,0.053c-0.03,0.016-0.057,0.036-0.085,0.053c-0.03,0.016-0.057,0.036-0.085,0.053
		c-0.03,0.016-0.057,0.036-0.085,0.053c-0.03,0.016-0.057,0.036-0.085,0.053c-0.03,0.016-0.057,0.036-0.085,0.053
		c-0.03,0.016-0.057,0.036-0.085,0.053c-0.03,0.016-0.057,0.036-0.085,0.053c-0.03,0.016-0.057,0.035-0.085,0.053
		c-0.03,0.016-0.057,0.036-0.085,0.053c-0.03,0.016-0.057,0.036-0.085,0.053c-0.03,0.016-0.057,0.036-0.085,0.053
		c-0.03,0.016-0.057,0.036-0.085,0.053c-0.03,0.016-0.057,0.036-0.085,0.053c-0.03,0.016-0.057,0.036-0.085,0.053
		c-0.03,0.016-0.057,0.036-0.085,0.053c-0.03,0.016-0.057,0.035-0.085,0.053c-0.03,0.016-0.057,0.036-0.085,0.053
		c-0.03,0.016-0.057,0.036-0.085,0.053c-0.03,0.016-0.057,0.036-0.085,0.053c-0.03,0.016-0.057,0.036-0.085,0.053
		c-0.03,0.016-0.057,0.036-0.085,0.053c-0.03,0.016-0.057,0.036-0.085,0.053c-0.655,0.353-1.064,1.135-1.067,2.268l-0.074,26.051
		c-0.006,2.212,1.549,4.914,3.495,6.037L47.86,73.752l6.514,10.284c0.138,0.218,0.301,0.374,0.461,0.466
		c0.213,0.123,0.412,0.12,0.551,0.015c0.032-0.012,0.058-0.033,0.085-0.053c0.032-0.012,0.058-0.033,0.085-0.053
		c0.032-0.012,0.058-0.033,0.085-0.053c0.032-0.012,0.058-0.033,0.085-0.053c0.032-0.012,0.058-0.033,0.085-0.053
		c0.033-0.012,0.058-0.033,0.085-0.053c0.032-0.012,0.058-0.033,0.085-0.053c0.032-0.012,0.058-0.033,0.085-0.053
		c0.032-0.012,0.058-0.033,0.085-0.053c0.032-0.012,0.058-0.033,0.085-0.053c0.032-0.012,0.058-0.033,0.085-0.053
		c0.032-0.012,0.058-0.033,0.085-0.053c0.032-0.012,0.058-0.033,0.085-0.053c0.033-0.012,0.058-0.033,0.085-0.053
		c0.032-0.012,0.058-0.033,0.085-0.053c0.032-0.012,0.058-0.033,0.085-0.053c0.032-0.012,0.058-0.033,0.085-0.053
		c0.032-0.012,0.058-0.033,0.085-0.053c0.032-0.012,0.058-0.033,0.085-0.053c0.032-0.012,0.058-0.033,0.085-0.053
		c0.032-0.012,0.058-0.033,0.085-0.053c0.032-0.012,0.058-0.033,0.085-0.053c0.032-0.012,0.058-0.033,0.085-0.053
		c0.033-0.012,0.058-0.033,0.085-0.053c0.032-0.012,0.058-0.033,0.085-0.053c0.032-0.012,0.058-0.033,0.085-0.053
		c0.032-0.012,0.058-0.033,0.085-0.053c0.032-0.012,0.058-0.033,0.085-0.053c0.032-0.012,0.058-0.033,0.085-0.053
		c0.032-0.012,0.058-0.033,0.085-0.053c0.032-0.012,0.058-0.033,0.085-0.053c0.032-0.012,0.058-0.033,0.085-0.053
		c0.032-0.012,0.058-0.033,0.085-0.053c0.032-0.012,0.058-0.033,0.085-0.053c0.032-0.012,0.058-0.033,0.085-0.053
		c0.032-0.012,0.058-0.033,0.085-0.053c0.032-0.012,0.058-0.033,0.085-0.053c0.032-0.012,0.058-0.033,0.085-0.053
		c0.032-0.012,0.058-0.033,0.085-0.053c0.032-0.012,0.058-0.033,0.085-0.053c0.032-0.012,0.058-0.033,0.085-0.053
		c0.032-0.012,0.058-0.033,0.085-0.053c0.032-0.012,0.058-0.033,0.085-0.053c0.032-0.012,0.058-0.033,0.085-0.053
		c0.032-0.012,0.058-0.033,0.085-0.053c0.032-0.012,0.058-0.033,0.085-0.053c0.032-0.012,0.058-0.033,0.085-0.053
		c0.032-0.012,0.058-0.033,0.085-0.053c0.032-0.012,0.058-0.033,0.085-0.053c0.032-0.012,0.058-0.033,0.085-0.053
		c0.032-0.012,0.058-0.033,0.085-0.053c0.032-0.012,0.058-0.033,0.085-0.053c0.033-0.012,0.058-0.033,0.085-0.053
		c0.032-0.012,0.058-0.033,0.085-0.053c0.032-0.012,0.058-0.033,0.085-0.053c0.032-0.012,0.058-0.033,0.085-0.053
		c0.032-0.012,0.058-0.033,0.085-0.053c0.032-0.012,0.058-0.033,0.085-0.053c0.032-0.012,0.058-0.033,0.085-0.053
		c0.032-0.012,0.058-0.033,0.085-0.053c0.033-0.012,0.058-0.033,0.085-0.053c0.032-0.012,0.058-0.033,0.085-0.053
		c0.032-0.012,0.058-0.033,0.085-0.053c0.032-0.012,0.058-0.033,0.085-0.053c0.032-0.012,0.058-0.033,0.085-0.053
		c0.032-0.012,0.058-0.033,0.085-0.053c0.032-0.012,0.058-0.033,0.085-0.053c0.032-0.012,0.058-0.033,0.085-0.053
		c0.032-0.012,0.058-0.033,0.085-0.053c0.032-0.012,0.058-0.033,0.085-0.053c0.033-0.012,0.058-0.033,0.085-0.053
		c0.032-0.012,0.058-0.033,0.085-0.053c0.032-0.012,0.058-0.033,0.085-0.053c0.032-0.012,0.058-0.033,0.085-0.053
		c0.032-0.012,0.058-0.033,0.085-0.053c0.032-0.012,0.058-0.033,0.085-0.053c0.032-0.012,0.058-0.033,0.085-0.053
		c0.032-0.012,0.058-0.033,0.085-0.053c0.032-0.012,0.058-0.033,0.085-0.053c0.032-0.012,0.058-0.033,0.085-0.053
		c0.032-0.012,0.058-0.033,0.085-0.053c0.032-0.012,0.058-0.033,0.085-0.053c0.032-0.012,0.058-0.033,0.085-0.053
		c0.032-0.012,0.058-0.033,0.085-0.053c0.032-0.012,0.058-0.033,0.085-0.053c0.032-0.012,0.058-0.033,0.085-0.053
		c0.032-0.012,0.058-0.033,0.085-0.053c0.032-0.012,0.058-0.033,0.085-0.053c0.032-0.012,0.058-0.033,0.085-0.053
		c0.032-0.012,0.058-0.033,0.085-0.053c0.032-0.012,0.058-0.033,0.085-0.053c0.032-0.012,0.058-0.033,0.085-0.053
		c0.032-0.012,0.058-0.033,0.085-0.053c0.155-0.056,0.263-0.205,0.264-0.469l0.007-1.641c0.019-0.011,0.033-0.029,0.051-0.041
		c0.03-0.016,0.057-0.036,0.085-0.053c0.03-0.016,0.057-0.036,0.085-0.053c0.03-0.016,0.057-0.036,0.085-0.053
		c0.03-0.016,0.057-0.036,0.085-0.053c0.03-0.016,0.057-0.036,0.085-0.053c0.03-0.016,0.057-0.036,0.085-0.053
		c0.03-0.016,0.057-0.036,0.085-0.053c0.03-0.016,0.057-0.036,0.085-0.053c0.03-0.016,0.057-0.036,0.085-0.053
		c0.03-0.016,0.057-0.036,0.085-0.053c0.03-0.016,0.057-0.036,0.085-0.053c0.03-0.016,0.057-0.036,0.085-0.053
		c0.03-0.016,0.057-0.036,0.085-0.053c0.03-0.016,0.057-0.036,0.085-0.053c0.03-0.016,0.057-0.036,0.085-0.053
		c0.03-0.016,0.057-0.036,0.085-0.053c0.03-0.016,0.057-0.036,0.085-0.053c0.03-0.016,0.057-0.036,0.085-0.053
		c0.03-0.016,0.057-0.036,0.085-0.053c0.03-0.016,0.057-0.036,0.085-0.053c0.03-0.016,0.057-0.036,0.085-0.053
		c0.03-0.016,0.057-0.036,0.085-0.053c0.03-0.016,0.057-0.036,0.085-0.053c0.03-0.016,0.057-0.036,0.085-0.053
		c0.03-0.016,0.057-0.036,0.085-0.053c0.03-0.016,0.057-0.036,0.085-0.053c0.03-0.016,0.057-0.036,0.085-0.053
		c0.03-0.016,0.057-0.036,0.085-0.053c0.03-0.016,0.057-0.036,0.085-0.053c0.03-0.016,0.057-0.035,0.085-0.053
		c0.03-0.016,0.057-0.036,0.085-0.053c0.03-0.016,0.057-0.036,0.085-0.053c0.03-0.016,0.057-0.036,0.085-0.053
		c0.03-0.016,0.057-0.036,0.085-0.053c0.03-0.016,0.057-0.036,0.086-0.053c0.03-0.016,0.057-0.036,0.085-0.053
		c0.03-0.016,0.057-0.036,0.085-0.053c0.03-0.016,0.057-0.035,0.085-0.053c0.03-0.016,0.057-0.036,0.085-0.053
		c0.03-0.016,0.057-0.036,0.085-0.053c0.03-0.016,0.057-0.036,0.085-0.053c0.03-0.016,0.057-0.036,0.085-0.053
		c0.03-0.016,0.057-0.036,0.085-0.053c0.03-0.016,0.057-0.036,0.085-0.053c0.03-0.016,0.057-0.036,0.085-0.053
		c0.03-0.016,0.057-0.036,0.085-0.053c0.03-0.016,0.057-0.036,0.085-0.053c0.03-0.016,0.057-0.036,0.085-0.053
		c0.03-0.016,0.057-0.036,0.085-0.053c0.03-0.016,0.057-0.036,0.085-0.053c0.03-0.016,0.057-0.036,0.085-0.053
		c0.03-0.016,0.057-0.036,0.085-0.053c0.655-0.353,1.066-1.132,1.069-2.258l0.074-26.051C69.221,44.103,67.659,41.405,65.726,40.289
		z"/>
	<g>
		<linearGradient id="SVGID_7_" gradientUnits="userSpaceOnUse" x1="20.7216" y1="40.0731" x2="74.9529" y2="77.9327">
			<stop  offset="0.3039" style="stop-color:#E0363F"/>
			<stop  offset="1" style="stop-color:#93171B"/>
		</linearGradient>
		<path class="st8" d="M57.711,45.299L21.09,24.156c-1.946-1.123-3.511-0.231-3.517,1.997l-0.074,26.051
			c-0.006,2.212,1.549,4.914,3.495,6.037L47.86,73.752l6.514,10.284c0.138,0.218,0.301,0.374,0.461,0.466
			c0.371,0.214,0.728,0.087,0.73-0.401l0.023-5.888l2.027,1.17c1.932,1.115,3.504,0.219,3.511-1.993l0.074-26.051
			C61.205,49.113,59.643,46.415,57.711,45.299"/>
	</g>
	<g>
		<path class="st0" d="M27.314,40.585c-1.535-0.886-2.782-0.168-2.787,1.595c-0.005,1.763,1.234,3.917,2.769,4.803
			c1.541,0.89,2.788,0.172,2.793-1.592C30.094,43.628,28.855,41.474,27.314,40.585"/>
		<path class="st0" d="M39.344,47.53c-1.535-0.886-2.782-0.168-2.787,1.595c-0.005,1.763,1.234,3.917,2.769,4.803
			c1.541,0.89,2.788,0.172,2.793-1.592C42.124,50.573,40.885,48.42,39.344,47.53"/>
		<path class="st0" d="M51.375,54.476c-1.535-0.886-2.782-0.168-2.787,1.595c-0.005,1.763,1.234,3.917,2.769,4.803
			c1.541,0.89,2.788,0.172,2.793-1.592C54.155,57.519,52.916,55.366,51.375,54.476"/>
	</g>
</g>
<g id="left-earphone">
	<linearGradient id="SVGID_8_" gradientUnits="userSpaceOnUse" x1="45.1831" y1="95.7972" x2="66.3308" y2="67.4866">
		<stop  offset="0" style="stop-color:#ADB0BD"/>
		<stop  offset="1" style="stop-color:#C2C7D7"/>
	</linearGradient>
	<path class="st9" d="M81.24,56.155c-0.451-0.22-0.962-0.331-1.513-0.331c-0.952,0-2.004,0.321-3.086,0.942
		c-3.878,2.244-7.013,7.685-6.993,12.123c0.01,1.753,0.501,3.126,1.403,3.948c-0.13,0.04-0.25,0.07-0.371,0.1
		c-0.07,0.01-0.13,0.02-0.19,0.03h-0.01v0.01c-0.19,0.04-0.381,0.07-0.561,0.08c-0.09,0.01-0.17,0.02-0.261,0.02
		c-0.09,0.01-0.18,0.01-0.261,0.01c-0.17,0-0.341-0.01-0.501-0.02h-0.01c-0.15-0.02-0.291-0.04-0.431-0.07
		c-0.02,0.01-0.03,0.01-0.04-0.01c-0.13-0.02-0.261-0.05-0.391-0.09c-0.331-0.09-0.641-0.23-0.932-0.411
		c-0.01,0-0.01-0.01-0.02-0.01c-0.04-0.01-0.07-0.04-0.1-0.05c-0.04-0.02-0.07-0.04-0.11-0.05c-0.03-0.02-0.07-0.04-0.1-0.05
		c-0.04-0.02-0.07-0.04-0.1-0.06c-0.04-0.01-0.07-0.03-0.11-0.05c-0.03-0.01-0.06-0.03-0.1-0.05c-0.04-0.01-0.07-0.03-0.1-0.05
		c-0.04-0.01-0.07-0.04-0.11-0.05c-0.03-0.02-0.06-0.04-0.1-0.05c-0.04-0.02-0.07-0.04-0.1-0.06c-0.04-0.01-0.07-0.03-0.11-0.05
		c-0.03-0.01-0.06-0.03-0.1-0.05c-0.03-0.01-0.07-0.03-0.1-0.05c-0.04-0.01-0.07-0.04-0.11-0.05c-0.03-0.02-0.06-0.04-0.1-0.05
		c-0.03-0.02-0.07-0.04-0.1-0.05c-0.21-0.09-0.411-0.19-0.601-0.311c-1.433-0.882-2.304-2.695-2.314-5.25
		c-0.03-5.26,3.677-11.662,8.256-14.307c2.144-1.242,4.108-1.423,5.581-0.721c0.04,0.02,0.07,0.04,0.1,0.05
		c0.04,0.02,0.07,0.04,0.11,0.05c0.03,0.02,0.07,0.04,0.1,0.06c0.04,0.01,0.07,0.03,0.1,0.05c0.04,0.01,0.07,0.03,0.11,0.05
		c0.03,0.01,0.06,0.04,0.1,0.05c0.04,0.02,0.07,0.04,0.1,0.05c0.04,0.02,0.07,0.04,0.11,0.05c0.03,0.02,0.06,0.04,0.1,0.06
		c0.04,0.01,0.07,0.03,0.1,0.05c0.04,0.01,0.07,0.03,0.11,0.05c0.03,0.01,0.06,0.03,0.1,0.05c0.03,0.01,0.07,0.04,0.1,0.05
		c0.04,0.02,0.07,0.04,0.1,0.05c0.04,0.02,0.07,0.04,0.11,0.06c0.03,0.01,0.07,0.03,0.1,0.05c0.04,0.01,0.07,0.03,0.1,0.05
		c0.04,0.01,0.07,0.03,0.11,0.05c0.03,0.01,0.07,0.04,0.1,0.05c0.03,0.01,0.06,0.03,0.1,0.05c0.03,0.01,0.05,0.02,0.08,0.04
		c0.01-0.01,0.02,0.01,0.02,0.01c0.17,0.07,0.341,0.15,0.501,0.25c1.012,0.621,1.753,1.703,2.114,3.176
		c0.01,0.03,0.01,0.07,0.02,0.11C81.18,55.835,81.21,55.995,81.24,56.155z"/>
	<linearGradient id="SVGID_9_" gradientUnits="userSpaceOnUse" x1="61.2276" y1="76.408" x2="50.652" y2="90.5656">
		<stop  offset="0.6799" style="stop-color:#989AA6"/>
		<stop  offset="1" style="stop-color:#C2C7D7"/>
	</linearGradient>
	<path class="st10" d="M81.24,56.155c-0.451-0.22-0.962-0.331-1.513-0.331c-0.952,0-2.004,0.321-3.086,0.942
		c-3.878,2.244-7.013,7.685-6.993,12.123c0.01,1.753,0.501,3.126,1.403,3.948c-0.13,0.04-0.25,0.07-0.371,0.1
		c-0.06,0.02-0.12,0.03-0.18,0.04c0,0,0,0-0.01,0h-0.01c-0.19,0.04-0.381,0.07-0.561,0.08c-0.09,0.01-0.17,0.02-0.261,0.02
		c-0.09,0.01-0.18,0.01-0.261,0.01c-0.17,0-0.341-0.01-0.501-0.02h-0.01c-0.15-0.02-0.291-0.04-0.431-0.07
		c-0.02,0.01-0.03,0.01-0.04-0.01c-0.13-0.02-0.261-0.05-0.391-0.09c-0.331-0.09-0.641-0.23-0.932-0.411
		c-0.01,0-0.01-0.01-0.02-0.01c-1.423-0.902-2.284-2.695-2.294-5.25c-0.03-5.25,3.677-11.662,8.256-14.307
		c2.074-1.202,3.998-1.413,5.45-0.781c0.01-0.01,0.02,0.01,0.02,0.01c0.17,0.07,0.341,0.15,0.501,0.25
		c1.012,0.621,1.753,1.703,2.114,3.176c0.01,0.03,0.01,0.07,0.02,0.11C81.18,55.835,81.21,55.995,81.24,56.155z"/>
	<linearGradient id="SVGID_10_" gradientUnits="userSpaceOnUse" x1="70.7081" y1="64.9609" x2="85.0333" y2="64.1935">
		<stop  offset="0" style="stop-color:#FFFFFF"/>
		<stop  offset="1" style="stop-color:#C2C7D7"/>
	</linearGradient>
	<path class="st11" d="M84.096,62.968c0,4.479-2.815,8.296-6.763,9.799c-0.671,0.25-1.373,0.441-2.094,0.551c0,0,0,0.01-0.01,0.01
		c-0.531,0.08-1.062,0.12-1.613,0.12c-0.681,0-1.343-0.06-1.984-0.19h-0.01c-0.03-0.01-0.06-0.03-0.09-0.05
		c-0.17-0.11-0.341-0.23-0.481-0.371c-0.902-0.822-1.393-2.194-1.403-3.948c-0.02-4.438,3.116-9.879,6.993-12.123
		c1.082-0.621,2.134-0.942,3.086-0.942c0.551,0,1.062,0.11,1.513,0.331c0.11,0.05,0.2,0.1,0.301,0.16
		c0.14,0.09,0.281,0.19,0.411,0.311l0.02,0.02c0.481,0.641,0.892,1.333,1.222,2.074c0.341,0.751,0.591,1.553,0.731,2.395
		C84.036,61.716,84.096,62.337,84.096,62.968z"/>
	<linearGradient id="SVGID_11_" gradientUnits="userSpaceOnUse" x1="70.631" y1="63.5217" x2="84.9562" y2="62.7543">
		<stop  offset="0" style="stop-color:#FFFFFF"/>
		<stop  offset="1" style="stop-color:#C2C7D7"/>
	</linearGradient>
	<path class="st12" d="M81.952,56.626c-0.13-0.12-0.271-0.22-0.411-0.311c-0.1-0.06-0.19-0.11-0.301-0.16
		c-0.451-0.22-0.962-0.331-1.513-0.331c-0.952,0-2.004,0.321-3.086,0.942c-3.878,2.244-7.013,7.685-6.993,12.123
		c0.01,1.753,0.501,3.126,1.403,3.948c0.14,0.14,0.311,0.261,0.481,0.371c0.03,0.02,0.06,0.04,0.09,0.05
		c-0.381-0.07-0.751-0.16-1.122-0.281c0,0,0,0-0.01,0v-0.01h-0.01c-0.651-0.19-1.272-0.461-1.853-0.782
		c-0.15-0.08-0.311-0.17-0.461-0.25c-1.222-0.832-1.974-2.425-1.984-4.669c-0.02-4.729,3.296-10.47,7.394-12.845
		c2.074-1.192,3.937-1.302,5.29-0.521c0.06,0.03,0.12,0.07,0.18,0.1c0.711,0.431,1.363,0.942,1.944,1.533
		c0.06,0.04,0.11,0.1,0.15,0.15C81.441,55.985,81.701,56.296,81.952,56.626z"/>
	<g>
		<linearGradient id="SVGID_12_" gradientUnits="userSpaceOnUse" x1="80.5784" y1="55.1696" x2="68.4235" y2="71.4416">
			<stop  offset="0" style="stop-color:#ADB0BD"/>
			<stop  offset="1" style="stop-color:#E4D8F0"/>
		</linearGradient>
		<path class="st13" d="M81.14,55.684c-0.01-0.04-0.01-0.08-0.02-0.11c-0.04-0.03-0.08-0.04-0.13-0.04
			c-1.312-0.431-2.936-0.15-4.599,0.802c-4.018,2.324-7.264,7.955-7.244,12.554c0.01,1.743,0.471,3.146,1.333,4.078v0.01h0.01
			c0.01,0,0.01,0,0.01,0c0.371,0.12,0.741,0.21,1.122,0.281c-0.03-0.01-0.06-0.03-0.09-0.05c-0.17-0.11-0.341-0.23-0.481-0.371
			c-0.902-0.822-1.393-2.194-1.403-3.948c-0.02-4.438,3.116-9.879,6.993-12.123c1.082-0.621,2.134-0.942,3.086-0.942
			c0.551,0,1.062,0.11,1.513,0.331c0.11,0.05,0.2,0.1,0.301,0.16c0.14,0.09,0.281,0.19,0.411,0.311
			C81.701,56.296,81.441,55.985,81.14,55.684z"/>
	</g>
</g>
<linearGradient id="SVGID_13_" gradientUnits="userSpaceOnUse" x1="19.8714" y1="54.8762" x2="17.7852" y2="58.381">
	<stop  offset="0.6799" style="stop-color:#989AA6"/>
	<stop  offset="1" style="stop-color:#C2C7D7"/>
</linearGradient>
<path class="st14" d="M18.71,60.73l-3.294-1.75c-1.343-0.714-1.853-2.381-1.14-3.724l0,0c0.714-1.343,2.381-1.853,3.724-1.14
	l3.294,1.75c1.343,0.714,1.853,2.381,1.14,3.724l0,0C21.721,60.933,20.053,61.444,18.71,60.73z"/>
</svg>
