<?xml version="1.0" encoding="utf-8"?>
<!-- Generator: Adobe Illustrator 25.0.1, SVG Export Plug-In . SVG Version: 6.00 Build 0)  -->
<svg version="1.1" xmlns="http://www.w3.org/2000/svg" xmlns:xlink="http://www.w3.org/1999/xlink" width="180px" height="180px" x="0px" y="0px"
	 viewBox="0 0 89 89" style="enable-background:new 0 0 89 89;" xml:space="preserve">
<style type="text/css">
	.rma0{fill:url(#RMAID_1_);}
	.rma1{fill:url(#RMAID_2_);}
	.rma2{fill:url(#RMAID_3_);}
	.rma3{fill:url(#RMAID_4_);}
	.rma4{fill:url(#RMAID_5_);}
	.rma5{fill:url(#RMAID_6_);}
	.rma6{fill:url(#RMAID_7_);}
	.rma7{fill:url(#RMAID_8_);}
	.rma8{fill:#FFFFFF;}
	.rma9{fill:url(#RMAID_9_);}
	.rma10{fill:url(#RMAID_10_);}
	.rma11{fill:url(#RMAID_11_);}
	.rma12{fill:url(#RMAID_12_);}
</style>
<g id="Layer_3">
</g>
<g id="Layer_2">
	<linearGradient id="RMAID_1_" gradientUnits="userSpaceOnUse" x1="50.5076" y1="65.9583" x2="44.136" y2="32.1017">
		<stop  offset="0" style="stop-color:#ADB0BD"/>
		<stop  offset="1" style="stop-color:#C2C7D7"/>
	</linearGradient>
	<path class="rma0" d="M73.93,37.64L20.25,6.65c-0.61-0.35-1.16-0.38-1.56-0.15c-0.03,0.01-0.06,0.02-0.09,0.04
		c-0.03,0.01-0.06,0.02-0.09,0.04c-0.03,0.01-0.06,0.02-0.09,0.04c-0.03,0.01-0.06,0.02-0.09,0.04c-0.03,0.01-0.06,0.02-0.09,0.04
		c-0.03,0.01-0.06,0.02-0.09,0.04c-0.03,0.01-0.06,0.02-0.09,0.04C18.04,6.77,18,6.78,17.98,6.79c-0.03,0.01-0.06,0.02-0.09,0.04
		c-0.03,0.01-0.06,0.02-0.09,0.04c-0.03,0.01-0.06,0.02-0.09,0.04c-0.03,0.01-0.06,0.02-0.09,0.04c-0.44,0.21-0.73,0.7-0.73,1.44
		l-0.11,38.96c0,1.39,0.98,3.09,2.18,3.78l53.67,30.99c0.61,0.35,1.16,0.38,1.56,0.15c0.03-0.01,0.06-0.02,0.09-0.04
		c0.03-0.01,0.06-0.02,0.09-0.04c0.03-0.01,0.06-0.02,0.09-0.04c0.03-0.01,0.06-0.02,0.09-0.04c0.03-0.01,0.06-0.02,0.09-0.04
		c0.03-0.01,0.06-0.02,0.09-0.04c0.03-0.01,0.06-0.02,0.09-0.04c0.03-0.01,0.06-0.02,0.09-0.04c0.03-0.01,0.06-0.02,0.09-0.04
		c0.03-0.01,0.06-0.02,0.09-0.04c0.03-0.01,0.06-0.02,0.09-0.04c0.03-0.01,0.06-0.02,0.09-0.04c0.44-0.2,0.73-0.7,0.73-1.44
		l0.11-38.96C76.12,40.03,75.14,38.34,73.93,37.64z"/>
	<linearGradient id="RMAID_2_" gradientUnits="userSpaceOnUse" x1="49.2483" y1="49.1118" x2="73.3603" y2="81.0945">
		<stop  offset="0" style="stop-color:#FFFFFF"/>
		<stop  offset="1" style="stop-color:#C2C7D7"/>
	</linearGradient>
	<path class="rma1" d="M72.76,38.12L19.09,7.13c-1.2-0.69-2.19-0.14-2.2,1.25l-0.11,38.96c0,1.39,0.98,3.09,2.18,3.78l53.67,30.99
		c1.21,0.7,2.2,0.14,2.2-1.25l0.11-38.96C74.95,40.51,73.97,38.82,72.76,38.12"/>
	<g>
		<linearGradient id="RMAID_3_" gradientUnits="userSpaceOnUse" x1="20.3316" y1="69.3524" x2="70.8042" y2="64.8548">
			<stop  offset="0.7962" style="stop-color:#E0363F"/>
			<stop  offset="1" style="stop-color:#93171B"/>
		</linearGradient>
		<polyline class="rma2" points="62.6,58.57 60.92,61.5 57.19,59.97 59.88,64.55 59.23,68.45 62.57,68.36 65.91,72.3 65.29,67.67 
			67.99,66.2 64.26,63.43 62.6,58.57 		"/>
		<linearGradient id="RMAID_4_" gradientUnits="userSpaceOnUse" x1="21.0495" y1="77.4087" x2="81.2851" y2="72.0412">
			<stop  offset="0.811" style="stop-color:#E0363F"/>
			<stop  offset="0.9936" style="stop-color:#93171B"/>
		</linearGradient>
		<polyline class="rma3" points="74.97,65.59 73.3,68.52 69.56,66.98 72.25,71.57 71.6,75.47 74.95,75.38 78.28,79.32 77.66,74.69 
			80.36,73.22 76.63,70.44 74.97,65.59 		"/>
		<linearGradient id="RMAID_5_" gradientUnits="userSpaceOnUse" x1="19.6313" y1="61.4929" x2="70.1039" y2="56.9953">
			<stop  offset="0.5508" style="stop-color:#E0363F"/>
			<stop  offset="0.8392" style="stop-color:#93171B"/>
		</linearGradient>
		<polyline class="rma4" points="49.98,51.78 48.3,54.7 44.57,53.17 47.26,57.75 46.61,61.65 49.95,61.57 53.28,65.51 52.66,60.87 
			55.37,59.41 51.64,56.63 49.98,51.78 		"/>
		<linearGradient id="RMAID_6_" gradientUnits="userSpaceOnUse" x1="18.9309" y1="53.6334" x2="69.4035" y2="49.1359">
			<stop  offset="0.3072" style="stop-color:#E0363F"/>
			<stop  offset="0.5933" style="stop-color:#93171B"/>
		</linearGradient>
		<polyline class="rma5" points="37.36,44.98 35.68,47.9 31.94,46.37 34.63,50.95 33.99,54.86 37.33,54.77 40.66,58.71 40.04,54.07 
			42.75,52.61 39.02,49.83 37.36,44.98 		"/>
	</g>
	<g>
		<linearGradient id="RMAID_7_" gradientUnits="userSpaceOnUse" x1="8.2546" y1="27.1991" x2="19.5817" y2="49.1871">
			<stop  offset="0.6436" style="stop-color:#E0363F"/>
			<stop  offset="1" style="stop-color:#93171B"/>
		</linearGradient>
		<path class="rma6" d="M10.85,28.4l-2.14,9.56l4.51-0.16l3.01,6.45l1.75-7.83l-0.06-0.31C15.13,34.43,12.62,31.6,10.85,28.4"/>
		<linearGradient id="RMAID_8_" gradientUnits="userSpaceOnUse" x1="13.6632" y1="24.4128" x2="24.9903" y2="46.4009">
			<stop  offset="0.6436" style="stop-color:#E0363F"/>
			<stop  offset="1" style="stop-color:#93171B"/>
		</linearGradient>
		<path class="rma7" d="M25.13,36.92c-1.8,1.03-4.29,0.87-7.04-0.71c-0.06-0.03-0.12-0.07-0.18-0.1l0.06,0.31l2.04,10.11l2.87-3.19
			l4.58,5.2L25.13,36.92"/>
		<path class="rma8" d="M17.4,33.83c-4.24-2.45-7.66-8.38-7.65-13.25s3.46-6.84,7.7-4.39c4.24,2.45,7.66,8.38,7.65,13.25
			S21.64,36.28,17.4,33.83 M17.45,13.6c-5.48-3.17-9.94-0.62-9.96,5.68c-0.01,3.01,1,6.33,2.65,9.33c1.77,3.2,4.27,6.03,7.07,7.7
			c0.06,0.04,0.12,0.07,0.18,0.1c2.74,1.58,5.23,1.74,7.04,0.71c1.8-1.03,2.92-3.23,2.93-6.38C27.37,24.44,22.94,16.77,17.45,13.6"
			/>
		<linearGradient id="RMAID_9_" gradientUnits="userSpaceOnUse" x1="7.4964" y1="24.5813" x2="28.4983" y2="24.5813">
			<stop  offset="0" style="stop-color:#ADB0BD"/>
			<stop  offset="1" style="stop-color:#C2C7D7"/>
		</linearGradient>
		<path class="rma9" d="M28.5,29.89c0.02-6.3-4.41-13.97-9.9-17.15c-3.16-1.82-5.97-1.74-7.79-0.14c-0.2,0.13-0.39,0.27-0.57,0.43
			c-1.68,1.08-2.72,3.23-2.73,6.26c-0.01,3.01,1,6.33,2.65,9.33c1.76,3.2,4.27,6.03,7.07,7.7c0.06,0.03,0.12,0.07,0.18,0.1
			c2.74,1.59,5.24,1.74,7.04,0.71c0.28-0.16,0.53-0.35,0.77-0.56c0.2-0.13,0.39-0.27,0.57-0.43C27.45,35.06,28.49,32.92,28.5,29.89z
			"/>
		<path class="rma8" d="M17.4,33.83c-4.24-2.45-7.66-8.38-7.65-13.25s3.46-6.84,7.7-4.39c4.24,2.45,7.66,8.38,7.65,13.25
			S21.64,36.28,17.4,33.83 M17.45,13.6c-5.48-3.17-9.94-0.62-9.96,5.68c-0.01,3.01,1,6.33,2.65,9.33c1.77,3.2,4.27,6.03,7.07,7.7
			c0.06,0.04,0.12,0.07,0.18,0.1c2.74,1.58,5.23,1.74,7.04,0.71c1.8-1.03,2.92-3.23,2.93-6.38C27.37,24.44,22.94,16.77,17.45,13.6"
			/>
		<linearGradient id="RMAID_10_" gradientUnits="userSpaceOnUse" x1="9.2412" y1="16.2967" x2="24.5662" y2="32.6212">
			<stop  offset="0.6436" style="stop-color:#E0363F"/>
			<stop  offset="1" style="stop-color:#93171B"/>
		</linearGradient>
		<path class="rma10" d="M16.33,25.2l4.21-2.39l1.78,3.09l-4.21,2.39l-1.71,0.97l-0.09,0.05l-4.04-7l1.8-1.02L16.33,25.2
			 M17.45,16.19c-4.24-2.45-7.69-0.48-7.7,4.39s3.41,10.8,7.65,13.25c4.24,2.45,7.69,0.48,7.7-4.39S21.69,18.64,17.45,16.19"/>
		<polyline class="rma8" points="20.54,22.81 16.33,25.2 14.07,21.29 12.27,22.31 16.32,29.32 16.41,29.27 18.11,28.29 22.32,25.9 
			20.54,22.81 		"/>
	</g>
	<g>
		<linearGradient id="RMAID_11_" gradientUnits="userSpaceOnUse" x1="42.0949" y1="30.9946" x2="66.8315" y2="44.3623">
			<stop  offset="0.6436" style="stop-color:#E0363F"/>
			<stop  offset="1" style="stop-color:#93171B"/>
		</linearGradient>
		<polyline class="rma11" points="70.04,44.53 32.83,23.05 32.82,27.54 70.02,49.02 70.04,44.53 		"/>
		<linearGradient id="RMAID_12_" gradientUnits="userSpaceOnUse" x1="38.6584" y1="37.3539" x2="63.3949" y2="50.7216">
			<stop  offset="0.6436" style="stop-color:#E0363F"/>
			<stop  offset="1" style="stop-color:#93171B"/>
		</linearGradient>
		<polyline class="rma12" points="70.04,52.75 32.83,31.27 32.82,35.76 70.02,57.24 70.04,52.75 		"/>
	</g>
</g>
</svg>
