<?xml version="1.0" encoding="utf-8"?>
<!-- Generator: Adobe Illustrator 25.0.1, SVG Export Plug-In . SVG Version: 6.00 Build 0)  -->
<svg version="1.1" id="sc-icon" xmlns="http://www.w3.org/2000/svg" xmlns:xlink="http://www.w3.org/1999/xlink" x="0px" y="0px"
	 viewBox="0 0 89 89" style="enable-background:new 0 0 89 89;" xml:space="preserve">
<style type="text/css">
	.wusc0{fill:url(#WUSCID_1_);}
	.wusc1{fill:url(#WUSCID_2_);}
	.wusc2{opacity:0.82;}
	.wusc3{fill:url(#WUSCID_3_);}
	.wusc4{fill:url(#WUSCID_4_);}
	.wusc5{fill:url(#WUSCID_5_);}
	.wusc6{fill:url(#WUSCID_6_);}
	.wusc7{fill:url(#WUSCID_7_);}
	.wusc8{fill:url(#WUSCID_8_);}
	.wusc9{opacity:0.82;fill:url(#WUSCID_9_);enable-background:new    ;}
	.wusc10{fill:url(#WUSCID_10_);}
	.wusc11{fill:url(#WUSCID_11_);}
	.wusc12{fill:url(#WUSCID_12_);}
	.wusc13{fill:url(#WUSCID_13_);}
	.wusc14{fill:url(#WUSCID_14_);}
	.wusc15{fill:url(#WUSCID_15_);}
	.wusc16{fill:url(#WUSCID_16_);}
	.wusc17{opacity:0.9;}
	.wusc18{fill:#BBBDBF;}
	.wusc19{fill:url(#WUSCID_17_);}
	.wusc20{fill:url(#WUSCID_18_);}
	.wusc21{fill:#FFFFFF;}
	.wusc22{fill:url(#WUSCID_19_);}
	.wusc23{fill:url(#WUSCID_20_);}
	.wusc24{fill:url(#WUSCID_21_);}
	.wusc25{fill:url(#WUSCID_22_);}
	.wusc26{fill:url(#WUSCID_23_);}
</style>
<g id="wireless-col">
	<g>
		
			<linearGradient id="WUSCID_1_" gradientUnits="userSpaceOnUse" x1="84.3763" y1="49.5585" x2="71.0331" y2="57.8493" gradientTransform="matrix(1 0 0 -1 0 90)">
			<stop  offset="0" style="stop-color:#FC4E64"/>
			<stop  offset="0.6212" style="stop-color:#E0363F"/>
			<stop  offset="1" style="stop-color:#93171B"/>
		</linearGradient>
		<path class="wusc0" d="M81.7,26.3l-16.1-9.5c-0.6-0.3-0.9-0.6-1.8-0.4l-0.8,0.4c-0.4,0.2-1,0.7-1,1.4L62,36.8c0,1.3,0.9,2.9,2.1,3.6
			l14.3,8.5c0.6,0.3,2.2,1.5,3,1.5l1.6-0.5c0.4-0.2,0.7-0.7,0.7-1.4l0.1-18.6C83.8,28.5,82.9,26.9,81.7,26.3z"/>
		
			<linearGradient id="WUSCID_2_" gradientUnits="userSpaceOnUse" x1="49.4652" y1="46.8358" x2="94.0539" y2="65.4252" gradientTransform="matrix(1 0 0 -1 0 90)">
			<stop  offset="0.3039" style="stop-color:#E0363F"/>
			<stop  offset="1" style="stop-color:#93171B"/>
		</linearGradient>
		<path class="wusc1" d="M80.3,26.7l-16.2-9.4C63,16.6,62,17.2,62,18.5l-0.1,18.6c0,1.3,0.9,2.9,2.1,3.6l16.2,9.4
			c1.1,0.7,2.1,0.1,2.1-1.2l0.1-18.6C82.4,28.9,81.5,27.3,80.3,26.7"/>
	</g>
	<g class="wusc2">
		<g>
			<g>
				
					<linearGradient id="WUSCID_3_" gradientUnits="userSpaceOnUse" x1="70.5328" y1="50.3993" x2="73.693" y2="50.3993" gradientTransform="matrix(1 0 0 -1 0 90)">
					<stop  offset="0" style="stop-color:#F1F1F2;stop-opacity:0.8"/>
					<stop  offset="1" style="stop-color:#FFFFFF"/>
				</linearGradient>
				<path class="wusc3" d="M73.5,39.5c-0.3-0.7-0.8-1.4-1.4-1.7s-1.1-0.3-1.4,0.1c-0.1,0.2-0.2,0.5-0.2,0.8c0,1,0.7,2.2,1.6,2.7
					s1.6,0.1,1.6-0.9C73.7,40.2,73.6,39.9,73.5,39.5z"/>
				<g>
					
						<linearGradient id="WUSCID_4_" gradientUnits="userSpaceOnUse" x1="64.6696" y1="59.5953" x2="79.5563" y2="59.5953" gradientTransform="matrix(1 0 0 -1 0 90)">
						<stop  offset="0" style="stop-color:#F1F1F2;stop-opacity:0.8"/>
						<stop  offset="1" style="stop-color:#FFFFFF"/>
					</linearGradient>
					<path class="wusc4" d="M64.7,26.2l0.8,1.4c1.7-1,4.1-0.9,6.7,0.7c2.6,1.5,5,4.1,6.7,7l0.8-0.5c-1.9-3.3-4.5-6.2-7.4-7.9
						C69.2,25.3,66.6,25.1,64.7,26.2z"/>
					
						<linearGradient id="WUSCID_5_" gradientUnits="userSpaceOnUse" x1="67.0206" y1="56.7585" x2="77.2055" y2="56.7585" gradientTransform="matrix(1 0 0 -1 0 90)">
						<stop  offset="0" style="stop-color:#F1F1F2;stop-opacity:0.8"/>
						<stop  offset="1" style="stop-color:#FFFFFF"/>
					</linearGradient>
					<path class="wusc5" d="M67,30.3l0.8,1.4c1.1-0.6,2.6-0.6,4.3,0.4c1.7,1,3.2,2.6,4.3,4.6l0.8-0.5c-1.3-2.3-3.1-4.2-5.1-5.4
						C70.1,29.6,68.3,29.5,67,30.3z"/>
					
						<linearGradient id="WUSCID_6_" gradientUnits="userSpaceOnUse" x1="69.3728" y1="53.8851" x2="74.8532" y2="53.8851" gradientTransform="matrix(1 0 0 -1 0 90)">
						<stop  offset="0" style="stop-color:#F1F1F2;stop-opacity:0.8"/>
						<stop  offset="1" style="stop-color:#FFFFFF"/>
					</linearGradient>
					<path class="wusc6" d="M69.4,34.4l0.8,1.4c0.5-0.3,1.2-0.3,2,0.2c0.8,0.4,1.5,1.2,2,2.1l0.8-0.5c-0.7-1.2-1.7-2.3-2.7-2.9
						C71,34,70.1,34,69.4,34.4z"/>
				</g>
			</g>
		</g>
	</g>
</g>
<g id="setting-col">
	<g>
		
			<linearGradient id="WUSCID_7_" gradientUnits="userSpaceOnUse" x1="59.8486" y1="63.3537" x2="46.5055" y2="71.6445" gradientTransform="matrix(1 0 0 -1 0 90)">
			<stop  offset="0" style="stop-color:#FC4E64"/>
			<stop  offset="0.6212" style="stop-color:#E0363F"/>
			<stop  offset="1" style="stop-color:#93171B"/>
		</linearGradient>
		<path class="wusc7" d="M57.2,12.5L41.1,3c-0.6-0.3-0.9-0.6-1.8-0.4L38.6,3c-0.4,0.2-1,0.7-1,1.4L37.5,23c0,1.3,0.9,2.9,2.1,3.6
			L53.9,35c0.6,0.3,2.2,1.5,3,1.5l1.6-0.5c0.4-0.2,0.7-0.7,0.7-1.4l0.1-18.6C59.3,14.7,58.4,13.1,57.2,12.5z"/>
		
			<linearGradient id="WUSCID_8_" gradientUnits="userSpaceOnUse" x1="24.9375" y1="60.631" x2="69.5262" y2="79.2204" gradientTransform="matrix(1 0 0 -1 0 90)">
			<stop  offset="0.3039" style="stop-color:#E0363F"/>
			<stop  offset="1" style="stop-color:#93171B"/>
		</linearGradient>
		<path class="wusc8" d="M55.8,12.9L39.6,3.5c-1.1-0.7-2.1-0.1-2.1,1.2l-0.1,18.6c0,1.3,0.9,2.9,2.1,3.6l16.2,9.4
			c1.1,0.7,2.1,0.1,2.1-1.2l0.1-18.6C57.9,15.1,57,13.5,55.8,12.9"/>
	</g>
	
		<linearGradient id="WUSCID_9_" gradientUnits="userSpaceOnUse" x1="40.9268" y1="69.75" x2="53.9832" y2="69.75" gradientTransform="matrix(1 0 0 -1 0 90)">
		<stop  offset="0" style="stop-color:#F1F1F2;stop-opacity:0.8"/>
		<stop  offset="1" style="stop-color:#FFFFFF"/>
	</linearGradient>
	<path class="wusc9" d="M40.9,16.3v0.6c0,0.6,0.4,1.3,0.9,1.5l1.2,0.7c0.1,0.5,0.3,1.1,0.5,1.6l-0.8,0.5c-0.3,0.2-0.3,0.8,0,1.5
		l0.4,0.7c0.3,0.6,0.9,0.9,1.3,0.7l0.9-0.5c0.4,0.4,0.7,0.8,1.2,1.2v1.4c0,0.6,0.4,1.3,0.9,1.5L48,28c0.5,0.3,0.9,0.1,0.9-0.5v-1.4
		c0.4,0.1,0.8,0.1,1.1,0.1l0.8,1.4c0.3,0.6,0.9,0.9,1.3,0.7l0.4-0.2c0.3-0.2,0.3-0.8,0-1.5l-0.9-1.5c0.2-0.3,0.3-0.7,0.4-1.1
		l1.2,0.7c0.5,0.3,0.9,0.1,0.9-0.5v-0.6c0-0.6-0.4-1.3-0.9-1.5L52,21.4c-0.1-0.5-0.3-1.1-0.5-1.6l0.8-0.5c0.3-0.2,0.3-0.9,0-1.5
		l-0.4-0.7c-0.3-0.6-0.9-0.9-1.3-0.7l-0.9,0.5c-0.4-0.4-0.7-0.8-1.2-1.2v-1.4c0-0.6-0.4-1.3-0.9-1.5L47,12.5
		c-0.5-0.3-0.9-0.1-0.9,0.5v1.4c-0.4-0.1-0.8-0.1-1.1-0.1l-0.8-1.4c-0.3-0.6-0.9-0.9-1.3-0.7l-0.4,0.2c-0.3,0.2-0.3,0.8,0,1.5
		l0.9,1.5c-0.2,0.3-0.3,0.7-0.4,1.1l-1.2-0.7C41.3,15.5,40.9,15.7,40.9,16.3z M45.3,19c0-1.4,1-2,2.2-1.3s2.2,2.4,2.2,3.8
		s-1,2-2.2,1.3C46.2,22.1,45.3,20.4,45.3,19z"/>
</g>
<g id="backup-col">
	<g>
		
			<linearGradient id="WUSCID_10_" gradientUnits="userSpaceOnUse" x1="84.2741" y1="21.6516" x2="70.931" y2="29.9424" gradientTransform="matrix(1 0 0 -1 0 90)">
			<stop  offset="0" style="stop-color:#FC4E64"/>
			<stop  offset="0.6212" style="stop-color:#E0363F"/>
			<stop  offset="1" style="stop-color:#93171B"/>
		</linearGradient>
		<path class="wusc10" d="M81.6,54.2l-16.1-9.5c-0.6-0.3-0.9-0.6-1.8-0.4L63,44.7c-0.4,0.2-1,0.7-1,1.4l-0.1,18.6
			c0,1.3,0.9,2.9,2.1,3.6l14.3,8.5c0.6,0.3,2.2,1.5,3,1.5l1.6-0.5c0.4-0.2,0.7-0.7,0.7-1.4l0.1-18.6C83.7,56.4,82.8,54.8,81.6,54.2z
			"/>
		
			<linearGradient id="WUSCID_11_" gradientUnits="userSpaceOnUse" x1="49.363" y1="18.9288" x2="93.9517" y2="37.5182" gradientTransform="matrix(1 0 0 -1 0 90)">
			<stop  offset="0.3039" style="stop-color:#E0363F"/>
			<stop  offset="1" style="stop-color:#93171B"/>
		</linearGradient>
		<path class="wusc11" d="M80.2,54.6L64,45.2c-1.1-0.7-2.1-0.1-2.1,1.2L61.8,65c0,1.3,0.9,2.9,2.1,3.6L80.1,78
			c1.1,0.7,2.1,0.1,2.1-1.2l0.1-18.6C82.3,56.8,81.4,55.2,80.2,54.6"/>
	</g>
	<g class="wusc2">
		
			<linearGradient id="WUSCID_12_" gradientUnits="userSpaceOnUse" x1="65.1712" y1="31.9295" x2="77.6497" y2="31.9295" gradientTransform="matrix(1 0 0 -1 0 90)">
			<stop  offset="0" style="stop-color:#F1F1F2;stop-opacity:0.8"/>
			<stop  offset="1" style="stop-color:#FFFFFF"/>
		</linearGradient>
		<path class="wusc12" d="M67.3,60.1l2-3l-1-0.6c0.6-0.8,1.5-1.1,2.7-0.8c2.1,0.6,4.3,3.1,5.2,5.9c0.2,0.6,0.7,1.1,1.1,1.1
			s0.6-0.4,0.4-1c-1.2-3.9-4.2-7.3-7.1-8.1c-1.9-0.5-3.4,0.2-4.1,1.8l-1.2-0.7L67.3,60.1z"/>
		
			<linearGradient id="WUSCID_13_" gradientUnits="userSpaceOnUse" x1="66.6868" y1="24.4205" x2="79.0505" y2="24.4205" gradientTransform="matrix(1 0 0 -1 0 90)">
			<stop  offset="0" style="stop-color:#F1F1F2;stop-opacity:0.8"/>
			<stop  offset="1" style="stop-color:#FFFFFF"/>
		</linearGradient>
		<path class="wusc13" d="M79.1,68.9l-1.8-5.2L75,66.2l1.1,0.7c-0.6,0.9-1.6,1.3-2.8,0.9c-2-0.6-4.1-2.9-5.1-5.6c-0.2-0.6-0.7-1-1.1-1
			s-0.6,0.5-0.4,1.1c1.1,3,3.2,5.6,5.4,6.9c0.5,0.3,1,0.5,1.5,0.6c1.9,0.5,3.4-0.2,4.1-1.8L79.1,68.9z"/>
	</g>
</g>
<g id="lock-col">
	<g>
		
			<linearGradient id="WUSCID_14_" gradientUnits="userSpaceOnUse" x1="59.8486" y1="34.9069" x2="46.5055" y2="43.1977" gradientTransform="matrix(1 0 0 -1 0 90)">
			<stop  offset="0" style="stop-color:#FC4E64"/>
			<stop  offset="0.6212" style="stop-color:#E0363F"/>
			<stop  offset="1" style="stop-color:#93171B"/>
		</linearGradient>
		<path class="wusc14" d="M57.2,40.9l-16.1-9.5c-0.6-0.3-0.9-0.6-1.8-0.4l-0.8,0.4c-0.4,0.2-1,0.7-1,1.4l-0.1,18.6
			c0,1.3,0.9,2.9,2.1,3.6l14.3,8.5c0.6,0.3,2.2,1.5,3,1.5l1.6-0.5c0.4-0.2,0.7-0.7,0.7-1.4l0.1-18.6C59.3,43.1,58.4,41.5,57.2,40.9z
			"/>
		
			<linearGradient id="WUSCID_15_" gradientUnits="userSpaceOnUse" x1="24.9375" y1="32.1842" x2="69.5262" y2="50.7736" gradientTransform="matrix(1 0 0 -1 0 90)">
			<stop  offset="0.3039" style="stop-color:#E0363F"/>
			<stop  offset="1" style="stop-color:#93171B"/>
		</linearGradient>
		<path class="wusc15" d="M55.8,41.3l-16.2-9.4c-1.1-0.7-2.1-0.1-2.1,1.2l-0.1,18.6c0,1.3,0.9,2.9,2.1,3.6l16.2,9.4
			c1.1,0.7,2.1,0.1,2.1-1.2l0.1-18.6C57.9,43.5,57,41.9,55.8,41.3"/>
	</g>
	<g class="wusc2">
		
			<linearGradient id="WUSCID_16_" gradientUnits="userSpaceOnUse" x1="42.4127" y1="48.2839" x2="52.1554" y2="48.2839" gradientTransform="matrix(0.9999 1.080182e-02 -1.080182e-02 0.9999 0.5243 -0.5077)">
			<stop  offset="0" style="stop-color:#F1F1F2;stop-opacity:0.8"/>
			<stop  offset="1" style="stop-color:#FFFFFF"/>
		</linearGradient>
		<path class="wusc16" d="M51.4,48.1l0-1.3c0-2.6-1.7-5.8-4-7.1c-2.2-1.3-4.1-0.2-4.1,2.4l0,1.3c-0.5,0.1-0.8,0.5-0.8,1.2l-0.1,6.1
			c0,1,0.7,2.3,1.6,2.8l6.5,3.8c0.9,0.5,1.6,0.1,1.6-0.9l0.1-6.1C52.2,49.6,51.8,48.7,51.4,48.1z M47.4,41.2
			c1.6,0.9,2.8,3.1,2.7,4.9l0,1l-5.7-3.4l0-1C44.5,41,45.8,40.3,47.4,41.2z M48.1,51.9l0,1.9l-1.6-0.9l0-1.9
			c-0.4-0.5-0.6-1.1-0.6-1.6c0-0.9,0.6-1.3,1.4-0.8c0.8,0.4,1.4,1.5,1.4,2.4C48.7,51.4,48.4,51.8,48.1,51.9z"/>
	</g>
</g>
<g id="white-chatbox" class="wusc17">
	<path class="wusc18" d="M9,34.9v-1.6L39.8,51v1.6L9,34.9 M9,29.3v-1.6l30.8,17.8v1.6L9,29.3 M9,24v-1.6l30.8,17.8v1.6L9,24"/>
	
		<linearGradient id="WUSCID_17_" gradientUnits="userSpaceOnUse" x1="32.5016" y1="46.1099" x2="17.1233" y2="55.4161" gradientTransform="matrix(1 0 0 -1 0 90)">
		<stop  offset="0" style="stop-color:#FFFFFF"/>
		<stop  offset="1" style="stop-color:#C2C7D7"/>
	</linearGradient>
	<path class="wusc19" d="M43.1,34.7L8.9,15c-1.7-0.9-2.8-0.1-2.8-0.1c-0.4,0.2-0.7,0.7-0.7,1.4l-0.1,19c0,1.4,0.9,3.1,2.1,3.7l1.2,0.7
		v4c0,0.5,0.1,0.9,0.3,1.3c0.2,0.3,0.6,0.5,0.9,0.5c0.3,0,0.6-0.1,0.8-0.2c0.4-0.2,0.7-0.4,0.7-0.4l0,0l2.9-1.6l27.5,15.9
		c1.5,0.9,2.8,0.1,2.8,0.1c0.4-0.2,0.7-0.7,0.7-1.4l0.1-19C45.2,37.1,44.3,35.4,43.1,34.7z"/>
	
		<linearGradient id="WUSCID_18_" gradientUnits="userSpaceOnUse" x1="14.4816" y1="35.9986" x2="32.8543" y2="66.5043" gradientTransform="matrix(1 0 0 -1 0 90)">
		<stop  offset="0" style="stop-color:#FFFFFF"/>
		<stop  offset="1" style="stop-color:#C2C7D7"/>
	</linearGradient>
	<path class="wusc20" d="M43.7,39.1l-0.1,19c0,1.4-1,1.9-2.2,1.2l-27.6-16l-4.1,2.2c-0.2,0.1-0.3,0-0.5-0.1c-0.4-0.2-0.7-0.7-0.7-1.2
		v-4l-1.2-0.7c-1.2-0.7-2.2-2.4-2.1-3.7l0.1-19c0-1.4,1-1.9,2.2-1.2l34.1,19.7C42.7,36.1,43.7,37.7,43.7,39.1z"/>
	<polyline class="wusc21" points="39.8,40.1 9,22.4 9,24 39.8,41.8 39.8,40.1 	"/>
	<polyline class="wusc21" points="39.8,45.4 9,27.6 9,29.3 39.8,47 39.8,45.4 	"/>
	<polyline class="wusc21" points="39.8,51 9,33.2 9,34.9 39.8,52.7 39.8,51 	"/>
</g>
<g id="red-chatbox">
	
		<linearGradient id="WUSCID_19_" gradientUnits="userSpaceOnUse" x1="40.5955" y1="16.1999" x2="45.5305" y2="27.8039" gradientTransform="matrix(1 0 0 -1 0 90)">
		<stop  offset="0" style="stop-color:#F5485B"/>
		<stop  offset="0.3039" style="stop-color:#EB3F4D"/>
		<stop  offset="0.6212" style="stop-color:#D7333B"/>
		<stop  offset="1" style="stop-color:#93171B"/>
	</linearGradient>
	<path class="wusc22" d="M53.7,68.3L31.4,55.4c-0.4-0.2-0.5-0.1-0.7,0c0,0-1.2,0.7-1.2,0.8c0,0-0.3,0.4-0.3,0.8v12.4
		c0,0.9,0.6,2,1.4,2.4l18.1,10.4l2.8,4.6c0.1,0.2,0.6,0.4,0.6,0.3c0,0,0.9-0.7,0.9-0.9v-1.8l0,0c0.4,0.2,0.9,0.5,1.1,0.4
		c0,0,0.7-0.5,0.9-0.7c0.2-0.2,0.2-0.9,0.2-1.3c0,0,0-8.8,0-12.4C55.1,69.8,54.5,68.7,53.7,68.3z"/>
	
		<linearGradient id="WUSCID_20_" gradientUnits="userSpaceOnUse" x1="40.1483" y1="15.8161" x2="44.9581" y2="27.1258" gradientTransform="matrix(1 0 0 -1 0 90)">
		<stop  offset="0.3039" style="stop-color:#E0363F"/>
		<stop  offset="1" style="stop-color:#93171B"/>
	</linearGradient>
	<path class="wusc23" d="M54.4,71.3v12.4c0,0.9-0.6,1.3-1.4,0.8L52.2,84v2.6c0,0.3-0.2,0.4-0.5,0.3c-0.1-0.1-0.2-0.2-0.3-0.3
		c-0.8-1-2.7-4.6-2.7-4.6L30.6,71.7c-0.8-0.5-1.4-1.5-1.4-2.4V56.9c0-0.9,0.6-1.3,1.4-0.8L53,68.9C53.7,69.4,54.4,70.4,54.4,71.3z"
		/>
	
		<linearGradient id="WUSCID_21_" gradientUnits="userSpaceOnUse" x1="32.0718" y1="23.2" x2="52.1718" y2="23.2" gradientTransform="matrix(1 0 0 -1 0 90)">
		<stop  offset="0" style="stop-color:#F1F1F2;stop-opacity:0.8"/>
		<stop  offset="1" style="stop-color:#FFFFFF"/>
	</linearGradient>
	<polyline class="wusc24" points="52.2,72.1 32.1,60.5 32.1,61.5 52.2,73.1 52.2,72.1 	"/>
	
		<linearGradient id="WUSCID_22_" gradientUnits="userSpaceOnUse" x1="32.0621" y1="19.75" x2="52.1621" y2="19.75" gradientTransform="matrix(1 0 0 -1 0 90)">
		<stop  offset="0" style="stop-color:#F1F1F2;stop-opacity:0.8"/>
		<stop  offset="1" style="stop-color:#FFFFFF"/>
	</linearGradient>
	<polyline class="wusc25" points="52.2,75.5 32.1,63.9 32.1,65 52.2,76.6 52.2,75.5 	"/>
	
		<linearGradient id="WUSCID_23_" gradientUnits="userSpaceOnUse" x1="32.0517" y1="16.1" x2="52.1517" y2="16.1" gradientTransform="matrix(1 0 0 -1 0 90)">
		<stop  offset="0" style="stop-color:#F1F1F2;stop-opacity:0.8"/>
		<stop  offset="1" style="stop-color:#FFFFFF"/>
	</linearGradient>
	<polyline class="wusc26" points="52.2,79.2 32.1,67.6 32.1,68.6 52.2,80.2 52.2,79.2 	"/>
</g>
</svg>
